<?xml version="1.0" encoding="utf-8"?>
<!-- Generator: Adobe Illustrator 25.2.0, SVG Export Plug-In . SVG Version: 6.00 Build 0)  -->
<svg version="1.1" id="Layer_1" xmlns="http://www.w3.org/2000/svg" xmlns:xlink="http://www.w3.org/1999/xlink" x="0px" y="0px"
	 viewBox="0 0 1920 1326" style="enable-background:new 0 0 1920 1326;" xml:space="preserve">
<style type="text/css">
	.st0{opacity:0.1;fill:#141313;}
	.st1{fill:#FFFFFF;}
	.st2{fill:#C9EAF2;}
	.st3{fill:#FFC536;}
	.st4{fill:#F38E22;}
	.st5{fill:#397BFE;}
	.st6{fill:#DFF2F8;}
	.st7{fill:#97C1FF;}
	.st8{fill:#FFA85A;}
	.st9{fill:#FFB87D;}
	.st10{fill:#FFDC97;}
	.st11{fill:#00233D;}
	.st12{opacity:0.2;fill:#FFFFFF;}
	.st13{opacity:0.1;}
	.st14{fill:#141313;}
</style>
<g>
	<g>
		<path class="st0" d="M747.5,386.8l-28.1,0V200H507.1v151.7h-31.5c-6.5,0-11.3,5.3-10.7,11.7l17.4,180.9
			c0.6,6.5,6.4,11.7,12.9,11.7h235.1c6.5,0,12.3-5.3,13-11.7l14.8-145.8C758.8,392.1,754,386.8,747.5,386.8z"/>
		<g>
			<g>
				<rect x="489.6" y="213.1" class="st1" width="212.3" height="253.6"/>
				<g>
					<rect x="505.3" y="237.3" class="st2" width="46.5" height="55.7"/>
					<rect x="565.6" y="237.3" class="st2" width="123.2" height="8.5"/>
					<rect x="565.6" y="260.9" class="st2" width="123.2" height="8.5"/>
					<rect x="565.6" y="284.5" class="st2" width="123.2" height="8.5"/>
					<rect x="505.3" y="308.1" class="st2" width="183.5" height="8.5"/>
					<rect x="505.3" y="331.7" class="st2" width="183.5" height="8.5"/>
					<rect x="505.3" y="355.3" class="st2" width="183.5" height="8.5"/>
					<rect x="505.3" y="378.8" class="st2" width="183.5" height="8.5"/>
					<rect x="505.3" y="402.4" class="st2" width="183.5" height="8.5"/>
					<rect x="505.3" y="426" class="st2" width="183.5" height="8.5"/>
				</g>
			</g>
			<path class="st3" d="M725.8,557.4c-0.7,6.5-6.5,11.7-13,11.7H477.8c-6.5,0-12.3-5.3-12.9-11.7l-17.4-180.9
				c-0.6-6.5,4.2-11.7,10.7-11.7h70.8c6.5,0,13.2,5.1,14.9,11.4l3.5,12.7c1.7,6.2,8.5,11.4,14.9,11.3l167.7-0.2
				c6.5,0,11.3,5.3,10.6,11.7L725.8,557.4z"/>
		</g>
	</g>
	<g>
		<path class="st0" d="M1622.3,418.5h-18l14.4-24.1h-48.3l-14.4,24.1h-35.3c-4-76.9-67.6-138.1-145.5-138.1
			c-80.4,0-145.7,65.2-145.7,145.7s65.2,145.7,145.7,145.7c78.1,0,141.9-61.5,145.5-138.7h35.3l14.4,24.1h48.3l-14.4-24.1h18
			c4,0,7.3-3.3,7.3-7.3C1629.6,421.7,1626.3,418.5,1622.3,418.5z"/>
		<g>
			<g>
				<path class="st4" d="M1503.5,439.2c0,80.4-65.2,145.7-145.7,145.7c-80.4,0-145.7-65.2-145.7-145.7s65.2-145.7,145.7-145.7
					C1438.3,293.5,1503.5,358.7,1503.5,439.2z"/>
				<path class="st1" d="M1482.3,439.2c0,68.8-55.7,124.5-124.5,124.5c-68.8,0-124.5-55.7-124.5-124.5
					c0-68.8,55.7-124.5,124.5-124.5C1426.6,314.7,1482.3,370.4,1482.3,439.2z"/>
				<path class="st4" d="M1459.3,439.2c0,56-45.4,101.5-101.5,101.5s-101.5-45.4-101.5-101.5s45.4-101.5,101.5-101.5
					S1459.3,383.2,1459.3,439.2z"/>
				<path class="st1" d="M1433.2,439.2c0,41.7-33.8,75.4-75.4,75.4c-41.7,0-75.4-33.8-75.4-75.4c0-41.7,33.8-75.4,75.4-75.4
					C1399.5,363.8,1433.2,397.5,1433.2,439.2z"/>
				<path class="st4" d="M1406.1,439.2c0,26.7-21.6,48.3-48.3,48.3c-26.7,0-48.3-21.6-48.3-48.3c0-26.7,21.6-48.3,48.3-48.3
					C1384.5,390.9,1406.1,412.5,1406.1,439.2z"/>
			</g>
			<g>
				<path class="st5" d="M1612.1,438.8c0,4-3.3,7.3-7.3,7.3h-239.8c-4,0-7.3-3.3-7.3-7.3l0,0c0-4,3.3-7.3,7.3-7.3h239.8
					C1608.9,431.6,1612.1,434.8,1612.1,438.8L1612.1,438.8z"/>
				<g>
					<polygon class="st5" points="1582.6,438.8 1534.3,438.8 1553,407.5 1601.3,407.5 					"/>
					<polygon class="st5" points="1582.6,438.8 1534.3,438.8 1553,470.2 1601.3,470.2 					"/>
				</g>
			</g>
		</g>
	</g>
	<g>
		<path class="st0" d="M1372.3,915.1c0-0.6,0.1-1.2,0.1-1.9V503.9c0-22.6-18.3-40.9-40.9-40.9H674.9c-22.6,0-40.9,18.3-40.9,40.9
			v409.3c0,0.6,0.1,1.2,0.1,1.9h-55.6v17.7c0,26,21.1,47.1,47.1,47.1h755.3c26,0,47.1-21.1,47.1-47.1v-17.7H1372.3z"/>
		<g>
			<g>
				<g>
					<path class="st5" d="M1354.9,913.2c0,22.6-18.3,40.9-40.9,40.9H657.4c-22.6,0-40.9-18.3-40.9-40.9V503.9
						c0-22.6,18.3-40.9,40.9-40.9H1314c22.6,0,40.9,18.3,40.9,40.9V913.2z"/>
					<rect x="643.2" y="497.9" class="st6" width="685" height="421.3"/>
				</g>
				<g>
					<path class="st7" d="M561,915.1v17.7c0,26,21.1,47.1,47.1,47.1h755.3c26,0,47.1-21.1,47.1-47.1v-17.7H561z"/>
					<path class="st5" d="M855.6,915.1v12.6c0,8,6.5,14.4,14.4,14.4h231.3c8,0,14.4-6.5,14.4-14.4v-12.6H855.6z"/>
				</g>
			</g>
		</g>
	</g>
	<g>
		<path class="st0" d="M1464.6,987c23.3-102.8,8.4-184.2-16-243.4l0,0c0,0,0-0.1,0-0.1c-1-2.3-1.9-4.6-2.9-6.9c0-0.1,0-0.1-0.1-0.1
			c-30.5-69.8-73.2-106.6-76.1-109c-0.1-0.1-0.2-0.1-0.2-0.1s-0.1,0-0.2,0.1c-2.9,2.4-45.6,39.3-76.1,109c0,0,0,0.1-0.1,0.1
			c-1,2.3-2,4.6-2.9,6.9c0,0,0,0.1,0,0.1l0,0c-24.3,59.1-39.3,140.5-16,243.3c-20.8,14.4-65.2,56.3-41.6,142.4
			c0,0,12.7-39.2,68.1-57.5c0.3,0.7,0.6,1.3,0.8,2c1.4,3.5,2.8,7,4.3,10.5c0.7,1.7,1.4,3.3,2.1,4.9c1,2.3,2,4.5,3,6.8
			c-4.5,1.1-7.8,5.2-7.8,10c0,5.7,4.6,10.4,10.4,10.4h4c0,0-13.4,46.7,7.8,72.3c0,0-9.4-17.7,0-30.5c0,0-3.7,30.5,21.5,49.1
			c25.3,18.7,17.4,73.7,17.4,73.7s30.4-40.8,36.8-82.3c6.4-41.5,0-62.1,0-62.1s21.1,50.3,9.4,62.1c0,0,27.3-17,11.2-82.3h4
			c5.7,0,10.4-4.6,10.4-10.4c0-4.8-3.3-8.9-7.8-10c1-2.3,2-4.5,3-6.8c0.7-1.7,1.4-3.3,2.1-5c1.5-3.5,2.9-7,4.3-10.4
			c0.3-0.7,0.5-1.3,0.8-2c55.3,18.3,68,57.5,68,57.5C1529.7,1043.4,1485.4,1001.4,1464.6,987z"/>
		<g>
			<g>
				<path class="st8" d="M1299.8,1116.4c0,0-13.4,46.7,7.8,72.3c0,0-9.4-17.7,0-30.5c0,0-3.7,30.5,21.5,49.1
					c25.3,18.7,17.4,73.7,17.4,73.7s30.4-40.8,36.8-82.3c6.4-41.5,0-62.1,0-62.1s21.1,50.3,9.4,62.1c0,0,27.3-17,11.2-82.3H1299.8z"
					/>
				<path class="st9" d="M1309.6,1116.4c0,0-7.3,12.3-6.4,30.7c0,0,4.9-9.8,12.3-13.3c0,0-7.9,27,4.9,41.8
					c12.8,14.7,37.4,33.9,36.4,56.5c0,0,32.9-36.4,19.7-106.1c0,0,21,9.8,23.1,35.9c0,0,2.7-7.2-6.9-45.4H1309.6z"/>
			</g>
			<g>
				<g>
					<g>
						<path class="st5" d="M1266.5,981c0,0-81.8,37.8-51.5,148.3c0,0,15.1-46.9,84.8-62.1L1266.5,981z"/>
						<path class="st5" d="M1437.2,981c0,0,81.7,37.8,51.5,148.3c0,0-15.1-46.9-84.8-62.1L1437.2,981z"/>
					</g>
				</g>
				<g>
					<g>
						<g>
							<path class="st4" d="M1351.9,627.3c0,0-198.5,164-54.7,477.6h54.7h54.7C1550.4,791.2,1351.9,627.3,1351.9,627.3z"/>
							<path class="st3" d="M1272.6,743.6h158.6c-31.7-77-79.3-116.3-79.3-116.3S1304.3,666.6,1272.6,743.6z"/>
							<path class="st3" d="M1255.3,981c8.2,38.3,21.7,79.6,42,123.8h54.7h54.7c20.3-44.3,33.8-85.6,42-123.8H1255.3z"/>
						</g>
						<g>
							<path class="st6" d="M1418.3,842.9c0,36.7-29.7,66.4-66.4,66.4c-36.7,0-66.4-29.7-66.4-66.4c0-36.7,29.7-66.4,66.4-66.4
								C1388.6,776.5,1418.3,806.3,1418.3,842.9z"/>
							<circle class="st7" cx="1351.9" cy="842.9" r="44.3"/>
						</g>
						<path class="st4" d="M1418.3,1106c0,5.7-4.6,10.4-10.4,10.4h-112.1c-5.7,0-10.4-4.6-10.4-10.4l0,0c0-5.7,4.6-10.4,10.4-10.4
							h112.1C1413.7,1095.7,1418.3,1100.3,1418.3,1106L1418.3,1106z"/>
					</g>
					<path class="st5" d="M1351.9,991.3c0,0,0.7,0.8,1.8,2.2c1,1.4,2.8,3.5,4.5,6.1c3.6,5.3,8,12.8,11.9,21.8c4,9,7.4,19.6,9.7,30.9
						c2.4,11.3,3.5,23.3,3.6,35.4c0,12-1.1,24.1-3.5,35.4c-2.3,11.3-5.7,21.8-9.7,30.9c-2,4.5-4,8.7-6.1,12.3
						c-2.1,3.7-4,6.9-5.8,9.5c-1.7,2.6-3.5,4.7-4.5,6.1c-1.1,1.4-1.8,2.2-1.8,2.2s-0.7-0.8-1.8-2.2c-1-1.4-2.8-3.5-4.5-6.1
						c-1.8-2.6-3.8-5.8-5.8-9.5c-2-3.7-4.1-7.8-6.1-12.3c-4-9-7.4-19.6-9.7-30.9c-2.4-11.3-3.5-23.3-3.5-35.4
						c0.1-12,1.2-24.1,3.6-35.4c2.3-11.3,5.8-21.8,9.7-30.9c3.9-9,8.3-16.6,11.9-21.8c1.7-2.6,3.5-4.7,4.5-6.1
						C1351.2,992,1351.9,991.3,1351.9,991.3z"/>
				</g>
			</g>
		</g>
	</g>
	<g>
		<path class="st0" d="M1007.6,327.2C876.9,327.2,771,433.1,771,563.7c0,100.2,62.3,185.8,150.3,220.2v74.2
			c14.3,33.5,47.6,56.9,86.3,56.9c38.7,0,71.9-23.4,86.3-56.9V784c87.9-34.5,150.2-120.1,150.2-220.2
			C1244.1,433.1,1138.2,327.2,1007.6,327.2z"/>
		<g>
			<g>
				<path class="st3" d="M1222.3,563.7c0-130.6-105.9-236.5-236.6-236.5c-130.6,0-236.5,105.9-236.5,236.5
					c0,100.2,62.3,185.8,150.3,220.2v74.2H1072V784C1160,749.5,1222.3,663.9,1222.3,563.7z"/>
				<g>
					<g>
						<g>
							<path class="st10" d="M877.5,597.9c15.6,17.3,26.6,39.9,36,60.8c29,64.2,38.8,136.1,39.1,205.9c0,9.5,14.8,9.5,14.7,0
								c-0.4-70.2-10.4-141.5-38.2-206.5c-10.5-24.6-23.1-50.6-41.3-70.7C881.5,580.4,871.1,590.9,877.5,597.9L877.5,597.9z"/>
						</g>
						<g>
							<path class="st10" d="M1083.5,587.5c-17.3,19.2-29.5,43.8-39.8,67.2c-28.9,65.8-39.3,138.5-39.7,210c0,9.5,14.7,9.5,14.7,0
								c0.4-69.1,10.3-138.7,37.7-202.5c9.5-22.1,21.1-46.2,37.5-64.2C1100.3,590.9,1089.9,580.4,1083.5,587.5L1083.5,587.5z"/>
						</g>
					</g>
					<g>
						<path class="st10" d="M825.8,629.6c29.3,1,50.1,22.6,79.9,23.6c30,1,50.5-22.6,79.9-23.6c16.7-0.6,29.1,6.9,43,14.7
							c11.5,6.4,23.9,8.5,36.9,8.9c30,1,50.5-22.6,79.9-23.6c9.5-0.3,9.5-15.1,0-14.7c-29.8,1-50.6,22.6-79.9,23.6
							c-16.7,0.6-29.1-6.9-43-14.7c-11.5-6.4-23.9-8.5-36.9-8.9c-30-1-50.5,22.6-79.9,23.6c-16.7,0.6-29.1-6.9-43-14.7
							c-11.5-6.4-23.9-8.5-36.9-8.9C816.3,614.5,816.4,629.3,825.8,629.6L825.8,629.6z"/>
					</g>
				</g>
				<path class="st11" d="M899.4,858.2c14.3,33.5,47.6,56.9,86.3,56.9c38.7,0,71.9-23.4,86.3-56.9H899.4z"/>
			</g>
			<path class="st12" d="M996.8,377.9c8.8,23.5-18.8,55.7-61.8,71.8c-43,16.1-84.9,10.1-93.8-13.4c-8.8-23.5,18.8-55.7,61.8-71.8
				C946,348.3,987.9,354.3,996.8,377.9z"/>
		</g>
	</g>
	<g>
		<g class="st13">
			<rect x="798.4" y="191.4" class="st14" width="42.7" height="86.1"/>
			<rect x="851.9" y="163.7" class="st14" width="42.7" height="113.7"/>
			<rect x="905.3" y="137.4" class="st14" width="42.7" height="140"/>
			<rect x="958.7" y="115.1" class="st14" width="42.7" height="162.4"/>
			<path class="st14" d="M1013.2,45c-12.9,0-25.8,0-38.6,0c-7,0-7,10.9,0,10.9c6.7,0,13.4,0,20,0c-35.7,22.4-71.4,44.8-107.2,67.3
				c0-9.9,0-19.9,0-29.8c0-4.2-4.6-6.7-8.2-4.7c-32.1,18-64.1,35.9-96.2,53.9c-6.1,3.4-0.6,12.9,5.5,9.4
				c29.3-16.4,58.6-32.9,87.9-49.3c0,10.1,0,20.2,0,30.4c0,4,4.7,6.9,8.2,4.7c39.1-24.6,78.3-49.1,117.4-73.7
				c-2.9,7.7-5.9,15.5-8.8,23.2c-2.5,6.6,8,9.4,10.5,2.9c4.9-12.7,9.7-25.5,14.6-38.2C1019.7,48.5,1016.5,45,1013.2,45z"/>
		</g>
		<g>
			<g>
				<rect x="785.3" y="191.4" class="st5" width="42.7" height="86.1"/>
				<rect x="838.7" y="163.7" class="st4" width="42.7" height="113.7"/>
				<rect x="892.2" y="137.4" class="st3" width="42.7" height="140"/>
				<rect x="945.6" y="115.1" class="st2" width="42.7" height="162.4"/>
			</g>
			<g>
				<g>
					<path class="st5" d="M775.5,152c32.1-18,64.1-35.9,96.2-53.9c-2.7-1.6-5.5-3.1-8.2-4.7c0,13.2,0,26.5,0,39.7
						c0,4,4.7,6.9,8.2,4.7c42.7-26.8,85.5-53.7,128.2-80.5c5.9-3.7,0.5-13.2-5.5-9.4c-42.7,26.8-85.5,53.7-128.2,80.5
						c2.7,1.6,5.5,3.1,8.2,4.7c0-13.2,0-26.5,0-39.7c0-4.2-4.6-6.7-8.2-4.7c-32.1,18-64.1,35.9-96.2,53.9
						C763.8,146,769.3,155.4,775.5,152L775.5,152z"/>
				</g>
				<path class="st5" d="M1000.1,45c-12.9,0-25.8,0-38.6,0c-7,0-7,10.9,0,10.9c10.2,0,20.5,0,30.7,0c-4,10.4-8,20.9-12,31.3
					c-2.5,6.6,8,9.4,10.5,2.9c4.9-12.7,9.7-25.5,14.6-38.2C1006.6,48.5,1003.4,45,1000.1,45z"/>
			</g>
		</g>
	</g>
	<g>
		<g class="st13">
			<path class="st14" d="M1333.6,164h-6.4c-1.7-8.9-5.2-17.2-10.1-24.5l4.5-4.5c2.7-2.7,2.7-7.2,0-9.9l-7.4-7.4
				c-2.7-2.7-7.2-2.7-9.9,0l-4.5,4.5c-7.2-4.9-15.5-8.4-24.5-10.1v-6.4c0-3.8-3.1-7-7-7h-10.5c-3.8,0-7,3.1-7,7v6.4
				c-8.9,1.7-17.2,5.2-24.5,10.1l-4.5-4.5c-2.7-2.7-7.2-2.7-9.9,0l-7.4,7.4c-2.7,2.7-2.7,7.2,0,9.9l4.5,4.5
				c-4.9,7.2-8.4,15.5-10.1,24.5h-6.4c-3.8,0-7,3.1-7,7v10.5c0,3.8,3.1,7,7,7h6.4c1.7,8.9,5.2,17.2,10.1,24.5l-4.5,4.5
				c-2.7,2.7-2.7,7.2,0,9.9l7.4,7.4c2.7,2.7,7.2,2.7,9.9,0l4.5-4.5c7.2,4.9,15.5,8.4,24.5,10.1v6.4c0,3.8,3.1,7,7,7h10.5
				c3.8,0,7-3.1,7-7v-6.4c8.9-1.7,17.2-5.2,24.5-10.1l4.5,4.5c2.7,2.7,7.2,2.7,9.9,0l7.4-7.4c2.7-2.7,2.7-7.2,0-9.9l-4.5-4.5
				c4.9-7.2,8.4-15.5,10.1-24.5h6.4c3.8,0,7-3.1,7-7V171C1340.5,167.2,1337.4,164,1333.6,164z M1263,220.6
				c-24.5,0-44.3-19.8-44.3-44.3c0-24.5,19.8-44.3,44.3-44.3c24.5,0,44.3,19.8,44.3,44.3C1307.3,200.7,1287.5,220.6,1263,220.6z"/>
			<path class="st14" d="M1187.4,261.8h-3.8c-1-5.3-3.1-10.3-6-14.6l2.7-2.7c1.6-1.6,1.6-4.3,0-5.9l-4.4-4.4c-1.6-1.6-4.3-1.6-5.9,0
				l-2.7,2.7c-4.3-2.9-9.3-5-14.6-6V227c0-2.3-1.9-4.2-4.2-4.2h-6.2c-2.3,0-4.2,1.9-4.2,4.2v3.8c-5.3,1-10.3,3.1-14.6,6l-2.7-2.7
				c-1.6-1.6-4.3-1.6-5.9,0l-4.4,4.4c-1.6,1.6-1.6,4.3,0,5.9l2.7,2.7c-2.9,4.3-5,9.3-6,14.6h-3.8c-2.3,0-4.2,1.9-4.2,4.2v6.2
				c0,2.3,1.9,4.2,4.2,4.2h3.8c1,5.3,3.1,10.3,6,14.6l-2.7,2.7c-1.6,1.6-1.6,4.3,0,5.9l4.4,4.4c1.6,1.6,4.3,1.6,5.9,0l2.7-2.7
				c4.3,2.9,9.3,5,14.6,6v3.8c0,2.3,1.9,4.2,4.2,4.2h6.2c2.3,0,4.2-1.9,4.2-4.2v-3.8c5.3-1,10.3-3.1,14.6-6l2.7,2.7
				c1.6,1.6,4.3,1.6,5.9,0l4.4-4.4c1.6-1.6,1.6-4.3,0-5.9l-2.7-2.7c2.9-4.3,5-9.3,6-14.6h3.8c2.3,0,4.2-1.9,4.2-4.2v-6.2
				C1191.6,263.6,1189.7,261.8,1187.4,261.8z M1145.4,287.8c-10.4,0-18.8-8.4-18.8-18.8s8.4-18.8,18.8-18.8
				c10.4,0,18.8,8.4,18.8,18.8S1155.8,287.8,1145.4,287.8z"/>
			<path class="st14" d="M1112.8,195.3v3.4c0,2.1,1.7,3.7,3.7,3.7h5.6c2.1,0,3.7-1.7,3.7-3.7v-3.4c4.8-0.9,9.2-2.8,13.1-5.4l2.4,2.4
				c1.5,1.5,3.8,1.5,5.3,0l4-4c1.5-1.5,1.5-3.8,0-5.3l-2.4-2.4c2.6-3.9,4.5-8.3,5.4-13.1h3.4c2.1,0,3.7-1.7,3.7-3.7v-5.6
				c0-2.1-1.7-3.7-3.7-3.7h-3.4c-0.9-4.8-2.8-9.2-5.4-13.1l2.4-2.4c1.5-1.5,1.5-3.8,0-5.3l-4-4c-1.5-1.5-3.8-1.5-5.3,0l-2.4,2.4
				c-3.9-2.6-8.3-4.5-13.1-5.4v-3.4c0-2.1-1.7-3.7-3.7-3.7h-5.6c-2.1,0-3.7,1.7-3.7,3.7v3.4c-4.8,0.9-9.2,2.8-13.1,5.4l-2.4-2.4
				c-1.5-1.5-3.8-1.5-5.3,0l-4,4c-1.5,1.5-1.5,3.8,0,5.3l2.4,2.4c-2.6,3.9-4.5,8.3-5.4,13.1h-3.4c-2.1,0-3.7,1.7-3.7,3.7v5.6
				c0,2.1,1.7,3.7,3.7,3.7h3.4c0.9,4.8,2.8,9.2,5.4,13.1l-2.4,2.4c-1.5,1.5-1.5,3.8,0,5.3l4,4c1.5,1.5,3.8,1.5,5.3,0l2.4-2.4
				C1103.6,192.6,1108,194.4,1112.8,195.3z M1095.1,161.1c0-13.4,10.8-24.2,24.2-24.2c13.4,0,24.2,10.8,24.2,24.2
				c0,13.4-10.8,24.2-24.2,24.2C1106,185.3,1095.1,174.4,1095.1,161.1z"/>
		</g>
		<g>
			<path class="st3" d="M1326.6,171h-6.4c-1.7-8.9-5.2-17.2-10.1-24.5l4.5-4.5c2.7-2.7,2.7-7.2,0-9.9l-7.4-7.4
				c-2.7-2.7-7.2-2.7-9.9,0l-4.5,4.5c-7.2-4.9-15.5-8.4-24.5-10.1v-6.4c0-3.8-3.1-7-7-7h-10.5c-3.8,0-7,3.1-7,7v6.4
				c-8.9,1.7-17.2,5.2-24.5,10.1l-4.5-4.5c-2.7-2.7-7.2-2.7-9.9,0l-7.4,7.4c-2.7,2.7-2.7,7.2,0,9.9l4.5,4.5
				c-4.9,7.2-8.4,15.5-10.1,24.5h-6.4c-3.8,0-7,3.1-7,7v10.5c0,3.8,3.1,7,7,7h6.4c1.7,8.9,5.2,17.2,10.1,24.5l-4.5,4.5
				c-2.7,2.7-2.7,7.2,0,9.9l7.4,7.4c2.7,2.7,7.2,2.7,9.9,0l4.5-4.5c7.2,4.9,15.5,8.4,24.5,10.1v6.4c0,3.8,3.1,7,7,7h10.5
				c3.8,0,7-3.1,7-7v-6.4c8.9-1.7,17.2-5.2,24.5-10.1l4.5,4.5c2.7,2.7,7.2,2.7,9.9,0l7.4-7.4c2.7-2.7,2.7-7.2,0-9.9l-4.5-4.5
				c4.9-7.2,8.4-15.5,10.1-24.5h6.4c3.8,0,7-3.1,7-7V178C1333.6,174.2,1330.4,171,1326.6,171z M1256,227.6
				c-24.5,0-44.3-19.8-44.3-44.3c0-24.5,19.8-44.3,44.3-44.3s44.3,19.8,44.3,44.3C1300.4,207.7,1280.5,227.6,1256,227.6z"/>
			<path class="st5" d="M1180.4,268.8h-3.8c-1-5.3-3.1-10.3-6-14.6l2.7-2.7c1.6-1.6,1.6-4.3,0-5.9l-4.4-4.4c-1.6-1.6-4.3-1.6-5.9,0
				l-2.7,2.7c-4.3-2.9-9.3-5-14.6-6V234c0-2.3-1.9-4.2-4.2-4.2h-6.2c-2.3,0-4.2,1.9-4.2,4.2v3.8c-5.3,1-10.3,3.1-14.6,6l-2.7-2.7
				c-1.6-1.6-4.3-1.6-5.9,0l-4.4,4.4c-1.6,1.6-1.6,4.3,0,5.9l2.7,2.7c-2.9,4.3-5,9.3-6,14.6h-3.8c-2.3,0-4.2,1.9-4.2,4.2v6.2
				c0,2.3,1.9,4.2,4.2,4.2h3.8c1,5.3,3.1,10.3,6,14.6l-2.7,2.7c-1.6,1.6-1.6,4.3,0,5.9l4.4,4.4c1.6,1.6,4.3,1.6,5.9,0l2.7-2.7
				c4.3,2.9,9.3,5,14.6,6v3.8c0,2.3,1.9,4.2,4.2,4.2h6.2c2.3,0,4.2-1.9,4.2-4.2v-3.8c5.3-1,10.3-3.1,14.6-6l2.7,2.7
				c1.6,1.6,4.3,1.6,5.9,0l4.4-4.4c1.6-1.6,1.6-4.3,0-5.9l-2.7-2.7c2.9-4.3,5-9.3,6-14.6h3.8c2.3,0,4.2-1.9,4.2-4.2v-6.2
				C1184.6,270.6,1182.7,268.8,1180.4,268.8z M1138.4,294.8c-10.4,0-18.8-8.4-18.8-18.8c0-10.4,8.4-18.8,18.8-18.8
				c10.4,0,18.8,8.4,18.8,18.8C1157.2,286.4,1148.8,294.8,1138.4,294.8z"/>
			<path class="st4" d="M1150.1,161.5h-3.4c-0.9-4.8-2.8-9.2-5.4-13.1l2.4-2.4c1.5-1.5,1.5-3.8,0-5.3l-4-4c-1.5-1.5-3.8-1.5-5.3,0
				l-2.4,2.4c-3.9-2.6-8.3-4.5-13.1-5.4v-3.4c0-2.1-1.7-3.7-3.7-3.7h-5.6c-2.1,0-3.7,1.7-3.7,3.7v3.4c-4.8,0.9-9.2,2.8-13.1,5.4
				l-2.4-2.4c-1.5-1.5-3.8-1.5-5.3,0l-4,4c-1.5,1.5-1.5,3.8,0,5.3l2.4,2.4c-2.6,3.9-4.5,8.3-5.4,13.1h-3.4c-2.1,0-3.7,1.7-3.7,3.7
				v5.6c0,2.1,1.7,3.7,3.7,3.7h3.4c0.9,4.8,2.8,9.2,5.4,13.1l-2.4,2.4c-1.5,1.5-1.5,3.8,0,5.3l4,4c1.5,1.5,3.8,1.5,5.3,0l2.4-2.4
				c3.9,2.6,8.3,4.5,13.1,5.4v3.4c0,2.1,1.7,3.7,3.7,3.7h5.6c2.1,0,3.7-1.7,3.7-3.7v-3.4c4.8-0.9,9.2-2.8,13.1-5.4l2.4,2.4
				c1.5,1.5,3.8,1.5,5.3,0l4-4c1.5-1.5,1.5-3.8,0-5.3l-2.4-2.4c2.6-3.9,4.5-8.3,5.4-13.1h3.4c2.1,0,3.7-1.7,3.7-3.7v-5.6
				C1153.8,163.2,1152.1,161.5,1150.1,161.5z M1112.4,192.3c-13.4,0-24.2-10.9-24.2-24.2s10.8-24.2,24.2-24.2
				c13.4,0,24.2,10.9,24.2,24.2S1125.7,192.3,1112.4,192.3z"/>
		</g>
	</g>
	<g>
		<g class="st13">
			<path class="st14" d="M640.4,859.2c0,28.3-23,51.3-51.3,51.3c-28.3,0-51.3-23-51.3-51.3c0-28.3,23-51.3,51.3-51.3
				C617.5,807.9,640.4,830.9,640.4,859.2z"/>
			<g>
				<path class="st14" d="M502.4,819c4.7-4.3,3.3-3,9.5-7.3c11.3-7.9,23.7-14.5,36.6-19.2c45.6-16.8,90.9-3.9,127.5,26.6
					c21.5,17.9,52.6-12.8,30.9-30.9c-45.2-37.6-97.9-55.6-156.1-42c-28.5,6.7-57.6,22.1-79.3,42C450.7,807.2,481.6,838,502.4,819
					L502.4,819z"/>
			</g>
			<g>
				<path class="st14" d="M457.2,753.7c19-17.5,48.4-33.3,75.9-42.5c67.6-22.8,134.6-2.4,188,42.5c21.4,18,52.5-12.7,30.9-30.9
					c-63.2-53.3-139.8-78.4-221.1-56.6c-37.6,10-75.8,30.1-104.5,56.6C405.5,741.9,436.5,772.8,457.2,753.7L457.2,753.7z"/>
			</g>
		</g>
		<g>
			<path class="st4" d="M622.9,867.9c0,28.3-23,51.3-51.3,51.3c-28.3,0-51.3-23-51.3-51.3c0-28.3,23-51.3,51.3-51.3
				C600,816.6,622.9,839.6,622.9,867.9z"/>
			<g>
				<path class="st4" d="M484.9,827.7c4.7-4.3,3.3-3,9.5-7.3c11.3-7.9,23.7-14.5,36.6-19.2c45.6-16.8,90.9-3.9,127.5,26.6
					c21.5,17.9,52.6-12.8,30.9-30.9c-45.2-37.6-97.9-55.6-156.1-42c-28.5,6.7-57.6,22.1-79.3,42
					C433.2,815.9,464.2,846.7,484.9,827.7L484.9,827.7z"/>
			</g>
			<g>
				<path class="st4" d="M439.7,762.4c19-17.5,48.4-33.3,75.9-42.5c67.6-22.8,134.6-2.4,188,42.5c21.4,18,52.5-12.7,30.9-30.9
					c-63.2-53.3-139.8-78.4-221.1-56.6c-37.6,10-75.8,30.1-104.5,56.6C388.1,750.7,419,781.5,439.7,762.4L439.7,762.4z"/>
			</g>
		</g>
	</g>
	<g>
		<path class="st0" d="M1093.6,1209.6L940.3,1103c7.9-15.2,13-32.2,14.6-50.4c6.1-73.2-48.3-137.6-121.5-143.7
			c-73.2-6.1-137.6,48.3-143.7,121.5c-6.1,73.2,48.3,137.6,121.5,143.7c42.9,3.6,82.8-13.7,109.7-43.3l153.3,106.7
			c7.7,5.4,18.3,3.5,23.6-4.2C1103.2,1225.6,1101.3,1215,1093.6,1209.6z"/>
		<g>
			<path class="st3" d="M1076.2,1222.8c7.7,5.4,9.6,15.9,4.2,23.6l0,0c-5.4,7.7-15.9,9.6-23.6,4.2L876,1124.8
				c-7.7-5.4-9.6-15.9-4.2-23.6l0,0c5.4-7.7,15.9-9.6,23.6-4.2L1076.2,1222.8z"/>
			<g>
				<path class="st3" d="M937.4,1065.7c-6.1,73.2-70.4,127.7-143.7,121.5c-73.2-6.1-127.7-70.4-121.5-143.7
					c6.1-73.2,70.4-127.7,143.7-121.5C889.1,928.1,943.5,992.4,937.4,1065.7z"/>
				<path class="st6" d="M908.6,1063.2c-4.8,57.3-55.1,99.9-112.4,95.1c-57.3-4.8-99.9-55.1-95.1-112.4
					c4.8-57.3,55.1-99.9,112.4-95.1C870.8,955.6,913.4,1005.9,908.6,1063.2z"/>
				<path class="st1" d="M830.1,995.5c-1.3,15.3-14.8,26.7-30.1,25.5c-15.3-1.3-26.7-14.8-25.5-30.1c1.3-15.3,14.8-26.8,30.1-25.5
					C820,966.7,831.4,980.2,830.1,995.5z"/>
			</g>
		</g>
	</g>
</g>
</svg>
