<?xml version="1.0" encoding="utf-8"?>
<!-- Generator: Adobe Illustrator 25.2.0, SVG Export Plug-In . SVG Version: 6.00 Build 0)  -->
<svg version="1.1" id="Layer_1" xmlns="http://www.w3.org/2000/svg" xmlns:xlink="http://www.w3.org/1999/xlink" x="0px" y="0px"
	 viewBox="0 0 1920 1326" style="enable-background:new 0 0 1920 1326;" xml:space="preserve">
<style type="text/css">
	.st0{fill:#FFFFFF;}
	.st1{fill:#F0F1F1;}
	.st2{fill:#F7C1A3;}
	.st3{fill:#899499;}
	.st4{fill:#33435A;}
	.st5{opacity:0.26;}
	.st6{fill:none;}
	.st7{fill:#D0E8F4;}
	.st8{fill:#FFC536;}
	.st9{fill:#8A9296;}
	.st10{fill:#F5CEB0;}
	.st11{fill:#64B5E4;}
	.st12{opacity:0.2;}
	.st13{fill:#FFFCF0;}
	.st14{opacity:0.1;}
	.st15{opacity:0.5;fill:#202D3D;}
	.st16{opacity:6.000000e-02;}
	.st17{opacity:0.34;fill:#FFFFFF;}
	.st18{fill:#89AB9D;}
	.st19{fill:#1B2029;}
	.st20{fill:#F3F3F1;}
	.st21{fill:#DDE5E5;}
	.st22{opacity:0.12;}
	.st23{fill:#CDCED0;}
	.st24{fill:#1A1A1A;}
</style>
<rect x="-222" y="-56.3" class="st0" width="2178.4" height="1409.4"/>
<g>
	<path class="st1" d="M887.9,1104.3c-50.6,0.2-101.1,1.4-151.6,7c-19,2.1-37.7,6.8-56.7,8.7c-38.1,3.8-75.5,10.7-113.7,14
		c-30.8,2.6-61.7,4.1-92.4,7.4c-28.8,3.1-60.6,2.4-89.2-2.7c-21.1-3.8-42.4-5.9-63.2-12c-23.3-6.8-48.5-11.7-72.7-11.5
		c-34.6,0.2-68.2,0.3-101.3,12.3c-11.6,4.2-25.8,11.1-34.6,20c-20.2,20.2-22.9,70.7-2.8,91.7c33.9,35.3,106.4,49.2,153.9,49.8
		c52.1,0.7,102.8-3.2,154.9-5.4c48.5-2.1,96.9-5.1,145.5-5c99.2,0.2,198.5,0,297.5-6.6c93.1-6.2,186.3-4.1,279.6-4.1
		c95.6,0,190.6,0.8,285.6,13.5c41.4,5.5,83.5,7.5,125.1,11.4c37.2,3.5,73-0.1,110.1-3.3c31.1-2.7,62.1-10.7,90.4-24.2
		c22.4-10.7,62.3-44,69.2-69.5c19.3-71.6-271.3-69.9-316-69.7c-49.9,0.2-100.2,1.8-150.1-0.1c-21-0.8-41.6-4.9-62.1-9.4
		c-20.4-4.5-40.9-3.3-61.6-5.2c-86.2-7.8-172.7-6.7-259.2-6.7C944.2,1104.5,916,1104.2,887.9,1104.3z"/>
</g>
<g>
	<g>
		<g>
			<polygon class="st2" points="346.4,536.7 326.3,520.5 333,511.8 349.2,519.9 350.4,514.3 365.9,530.2 360.2,540.2 			"/>
		</g>
		<g>
			<polygon class="st3" points="558.5,525 468.4,571.2 362.5,523.1 352.2,543.5 464.5,627.4 587.6,595.2 			"/>
		</g>
	</g>
	<g>
		<g>
			<path class="st4" d="M966.6,105.1c0-3.7-0.1-7.4-0.1-11l5.1-10.5c1.3-1.4,4-1.4,5.2,0l4.5,10.2l0.1,11c4.1,0,10.8,3,10.9,6.9
				c0,3.9-3.2,7.1-7.4,7.1l-3.4,0l4.5,374c0.3,21.1,11.9,38.5,28.3,38c12.7-0.4,23.7-11.1,25.4-28.4c0.4-3.8,3.7-6.8,7.7-6.8l0.3,0
				c4.7-0.1,8.4,3.8,7.9,8.2c-3,24.5-22.7,42.3-41.6,42.5c-14.8,0.2-27-6.4-34.2-18.3c-8.9-14.8-8.6-31.2-8.8-47.6
				c-0.2-15.5-0.4-31-0.6-46.5c-0.3-21.7-0.5-43.3-0.8-65c-0.3-24.7-0.6-49.4-0.9-74.1c-0.3-24.6-0.6-49.2-0.9-73.9
				c-0.3-21.4-0.5-42.9-0.8-64.3c-0.2-12.5-0.3-25.1-0.5-37.6l-2.3,0c-4.1,0-7.5-3.1-7.5-6.9C956.9,108.4,962.5,105.2,966.6,105.1z"
				/>
			<polygon class="st5" points="969.2,314.8 983.9,299.5 983.6,274.4 968.7,274.6 			"/>
		</g>
		<g>
			<path class="st6" d="M881,313.6c-0.5,0.2-1,0.5-1.5,0.7c-0.7-0.2-1.4-0.5-2.2-0.7l2.3,0L881,313.6z"/>
			<path class="st7" d="M1072.7,309.5l-2.5-13.8c-8.5-47.6-27.9-92.8-56.6-132.2l-36.4-49.8c87.1,2.6,162.3,52,199.7,123.6
				c11.4,21.8,19.3,45.7,22.9,71c-18.9-5.3-40.7-8.2-64.1-7.9C1112.9,300.7,1091.4,304,1072.7,309.5z"/>
			<path class="st7" d="M885.4,283.9l-5.8,29.6l-2.3,0c-20-6.2-43.6-9.7-69-9.4c-25.3,0.3-49,4.3-69.1,10.9
				c3.6-32.3,14.3-62.7,30.4-89.5c39.8-66.2,113.2-111,197.6-112c2.5,0,5,0,7.4,0l-28.1,41C912.1,197.2,896.5,239.9,885.4,283.9z"/>
			<path class="st8" d="M1070.2,295.7l2.5,13.8c-0.2,0.1-0.4,0.1-0.6,0.2c-24.2-10.2-57.3-15.8-93.8-15.4
				c-38.4,0.4-73,7.5-97.3,19.3l-1.4,0l5.8-29.6c11.1-44.1,26.7-86.8,61.2-129.2l28.1-41c0.9,0,1.7,0,2.6,0.1l36.4,49.8
				C1042.3,202.9,1061.7,248.1,1070.2,295.7z"/>
		</g>
	</g>
	<g>
		<g>
			<g>
				<g>
					<polygon class="st2" points="1050.2,551 1039.3,540.9 1039.2,528 1036.3,526.6 1034.5,529.9 1031.2,519.2 1023.5,514.2 
						1012,518.5 1005.4,529.1 1011,539.9 1023.2,547.7 1037.5,562.2 					"/>
				</g>
				<polygon class="st4" points="1049.2,538.8 1029.6,561.6 1082.1,639.8 1101.7,646 1184.9,580.9 1162.7,536.3 1100.6,588.1 				
					"/>
			</g>
			<g>
				<g>
					<polygon class="st4" points="1313.4,1153.2 1316.3,1166.3 1293.3,1185 1277.4,1174.6 1287.5,1158.8 1310.5,1140.2 					"/>
					<polygon class="st9" points="1232.8,751 1258.5,809.1 1261,972.7 1313.8,1148.7 1289.3,1159.4 1181.4,955.1 1169.1,890.3 
						1164.2,754 					"/>
				</g>
				<g>
					<polygon class="st9" points="1108.3,764 1106.3,935.5 1139.3,1156.6 1164.6,1156.6 1180.6,952.6 1215.3,748.5 					"/>
					<polygon class="st4" points="1164.4,1153.6 1164.4,1167 1137.1,1180.5 1123.4,1167 1137.1,1153.6 					"/>
				</g>
			</g>
			<path class="st4" d="M1158.2,531.8l67.3-2.4c0,0,40.3,34.6,61.1,124.7c21.2,91.7-3.9,223.6-3.9,223.6s-180.5-23.6-210.1-27.2
				l45.2-181L1158.2,531.8z"/>
			<g>
				<path class="st2" d="M1182.3,538.5c7.9-0.8,15.7-1.5,23.6-2.3c0.1-6.2-0.3-12.4-1.3-18.5c6.6-2.2,14.1-5.6,15.3-12.3
					c0.4-2.1,0-4.3-0.4-6.4c-1.5-8.7-3.1-17.5-4.6-26.2c-0.5-3-1.1-6.1-2.8-8.7c-2.9-4.5-8.6-6.5-14-7.5
					c-13.8-2.4-28.8,0.5-39.5,9.4c-2.8,2.4-5.4,5.2-6.7,8.6c-1.9,5.3-0.5,11.2,0.9,16.6c1.3,5,2.7,10.1,4,15.1
					c1.5,5.8,3.8,12.4,9.4,14.5c3,1.2,6.6,0.8,9.3,2.5C1180.5,526.5,1179.8,533.5,1182.3,538.5z"/>
				<path class="st4" d="M1105.6,451.2c-0.2-6,0.7-12.1,1.9-17.5c2.1-9.4,13.4-13.6,23.2-14.3c21.1-1.4,41.5-10.8,62.1-3.6
					c11.8,4.1,27.6,5.1,38.3,11c4.5,2.4,8,6.2,10.8,10.4c9.6,14.6,9.6,34.6,0.1,49.2c-2.1,3.3-4.7,6.3-7.4,9.1
					c-5.6,5.9-12.2,13.2-19.9,15.4c-0.2-6.7,6.1-27.9,0.8-33.4c-8.3-8.7-27.2-5.7-37.5-3.6c-11.3,2.3-21.4,10.2-32.6,11.8
					c-8.1,1.2-18.3-2.7-25.2-6.8C1109.4,472.6,1105.8,462,1105.6,451.2z"/>
			</g>
			<path class="st0" d="M1176.8,540L1106,817.5l-5.8,36.4l88.1,11.4c0,0-3.5-132.9-2.3-150.6c1.2-17.7,14.2-56,16.2-97.3
				c1.2-23.9,8.9-66.8,3.5-80.8L1176.8,540z"/>
		</g>
	</g>
	<g>
		<polygon class="st10" points="720.8,628.2 739.7,615.5 734.5,607.3 719.6,613.2 719,608.2 704.1,621 708.3,630.2 		"/>
		<path class="st3" d="M707.7,615l7.4,18.7c1,3.1-70.7,42.7-77,45.6c-14,6.3-39.5,21.1-39.5,21.1c-19.5,0.2-56.3-9.6-68.6-14.8
			c-5-2.1-8.5-12.8-11.5-17.1c-3.8-5.4,1-15,4.3-19.4c6.7-9.1,17-15.5,28.2-17.7c4-0.8,8.2-1,12.2,0.1c4.1,1.1,9.3-17.3,12.7-14.9
			c6.1,4.2,9.5,32.2,16.8,34.7C601.9,654.3,705.5,610.6,707.7,615z"/>
	</g>
	<path class="st3" d="M560.3,529.4c-0.4,0-0.8,0-1.3,0.1c-20.1,1-44.4,26.8-58.5,42.1c-36.4,39.4-61.8,84.6-80.9,135.1
		c-10.2,27.2-19.3,54.9-27.8,82.7c-2.3,7.7-18.8,77.9-22.8,78.4c40.9-5.1,82.1-9.1,122.9-6.4c40.8,2.8,81.3,12.6,116.2,33.7
		c17.9-90.2,31.1-183.5,35.5-274.9c0.5-10.9,2.2-22.2,1.2-33.1c-1.2-12.5-7.5-18.1-14.6-27.6c-2.4-3.3-4.9-6.5-7.9-9.2
		C606.5,536.2,581.4,528.7,560.3,529.4z"/>
	<g>
		<g>
			<polygon class="st10" points="417.5,835.7 460.1,1005.2 461.1,1130.2 481.7,1134.5 489.8,1018.3 510.1,805.5 			"/>
		</g>
		<polygon class="st4" points="482,1138 485.3,1150.7 482.4,1175.6 465.7,1175.6 459.4,1139.7 461.3,1133.7 		"/>
	</g>
	<g>
		<polygon class="st10" points="580.1,817 583.9,963.4 563.9,1170.3 543.5,1171.8 536.2,982.1 494.6,810.2 		"/>
		<polygon class="st4" points="563.3,1166.9 590.8,1181.2 588.6,1193.8 540,1187.9 542.4,1169.8 		"/>
	</g>
	<polygon class="st4" points="586.1,835.9 599.9,1005.1 585.9,1121.2 530.6,1118.1 520.7,986.1 496.8,842.3 500.5,819.9 580.2,821 	
		"/>
	<polygon class="st4" points="502.3,992.8 495.8,1114.2 447.7,1111.8 448.7,996.6 418.4,852.1 425.3,811.7 506.1,816.6 	"/>
	<path class="st0" d="M596.1,849.8c-49.3-8.3-129.2-28.6-178.5-36.9c25.8-84,66.9-177.4,114.8-251.2c8.7-13.4,19.5-27.4,35.1-30.5
		c16.7-3.4,45.8,7.4,49.1,25.6c4.7,26.7-5.1,63.6-8.1,90.6C601.6,708.6,608.1,789.4,596.1,849.8z"/>
	<g>
		<path class="st2" d="M587.6,472.2c18.5-31.7,59.6-11.1,62.3,20.6c1.8,20.9-18.9,43.8-40.3,45.4c-0.4,5-1.1,10-2,15
			c-5.4-1.4-10.8-2.9-16.2-4.3c-1.7-0.4-3.6-1.1-4.1-2.7c-0.3-1,0-2,0.3-3c1-3.3,2-6.7,2.9-10c-0.4-0.2-0.7-0.5-1.1-0.8
			c-8.9-6.7-12.9-18.2-12.4-29.2C577.5,492.2,582,481.8,587.6,472.2z"/>
		<g>
			<g>
				<path class="st4" d="M588.8,483c-9,8.4-9.8,21.9-10.4,33.5c-0.5,10.3-2.1,16.4-13.2,13.5c-6.3-1.6-17.5-4.4-20.1-11.1
					c-2-5.1,5.4-13.8,9.3-16.8c3-2.3,7.4-1.9,10.4-4.2c1.2-1,2-2.3,2.8-3.6c3-5.5,5.2-11.4,6.5-17.5c0.8-4.1,1.3-8.4,2.9-12.3
					c2.4-5.7,9.7-9.9,14.4-13.8c8.8-7.3,28.7-12.8,35.9,0.2c1.6,3,1.6,6.5,1.4,9.9c-0.1,2-0.4,4.1-1.3,5.9c-3.7,7.1-11,4.9-17.3,5.9
					C602.1,473.6,594.5,477.6,588.8,483z"/>
				<path class="st4" d="M640.4,511.7c-2.3,5.2-8,9.4-7.4,15.1c0.2,2.5,1.7,4.7,2.8,7.1c2.8,6.4,1.8,14.2-2.5,19.7
					c10.5,4.9,20.9,9.8,31.4,14.7c1.6,0.7,3.2,1.5,5,1.4c3.7-0.2,6-4,7.5-7.4c3.1-6.6,6.2-13.7,4.8-20.8c-0.6-3.3-2.2-6.4-2.8-9.6
					c-3-15.8,16.4-30.9,10.4-46c-2.6-6.7-9.6-10.7-14.3-16.2c-8.2-9.6-9.3-23.8-18.1-32.9c-16.6-17.2-49.2-3.1-46.7,20.7
					C612.6,477.1,649.6,490.6,640.4,511.7z"/>
			</g>
		</g>
	</g>
	<path class="st3" d="M557.6,534.4c0,0-85.3,201.7-66.4,253.2c18.8,51.5,27.6,71.4,27.6,71.4l-130.6,5.4
		C388.2,864.3,471.5,569.6,557.6,534.4z"/>
	<g>
		<g>
			<path class="st11" d="M1350.9,888.9l-57.9-60.3l-1.8-0.1c-3.1-7.2-6.2-14.4-9.3-21.7c-16.3-38.1-32.6-76.2-48.9-114.3
				c-14.3-33.5-25.8-90.1-70.6-92.6L735.8,576c-47.4-2.7-92.2,23.1-115.1,66.2L541,792.3l-7.1-0.3l-145.5,36.2
				c-51.6,21.3-86.3,69.5-89.5,124.4l-4.8,82.4l1083.1,60.7l6.8-117.2C1386,945.3,1374,913,1350.9,888.9z"/>
			<path class="st7" d="M938.3,796.8l284.6,15.9l-55.5-160c-2.8-8-9.9-13.4-18.1-13.9l-201.2-11.3L938.3,796.8z"/>
			<path class="st7" d="M899.5,624.9l-163-9.1c-34.5-1.9-67.2,16.9-83.9,48.3l-60.2,113.4l297.3,16.7L899.5,624.9z"/>
			<g class="st12">
				<path class="st13" d="M1173,691.1c3.7,2.2,7.3,4.4,11,6.6l-15.2-43.8c-2.8-8-9.9-13.4-18.1-13.9l-69.7-3.9
					C1111.6,654.6,1142.4,672.7,1173,691.1z"/>
				<path class="st13" d="M1176.3,728.7c-50.6-30.7-103.7-65.3-153.8-96.9l-65.4-2.6c42.6,40.3,97.3,77,145.5,110
					c29,19.8,58.7,38.7,89.2,56.2c10,5.7,20.5,11,31.1,16.4l-24-69.2C1191.4,737.9,1183.9,733.3,1176.3,728.7z"/>
				<path class="st13" d="M842.3,723.3c-21.2-15.2-43.2-29.3-65.4-43c-22.5-13.9-45.2-27.8-69-39.5c-7.8-3.9-15.7-7.5-23.6-11.2
					c-13,8.3-24.1,20.1-31.8,34.5l-0.6,1.1c23.6,18.3,47.4,36.3,70.8,54.7c34.7,27.2,73.4,48.5,111.3,71.1l55.5,3.1l1.8-30.7
					C875.1,750,859.5,735.6,842.3,723.3z"/>
			</g>
			<g>
				<path class="st14" d="M704.2,1057.9c1.2-4.7,2-9.6,2.3-14.6c2.9-49.2-42.7-91.8-101.9-95.1c-23.1-1.3-44.8,3.6-62.9,13
					c36,9.6,67.1,29.3,92,54.2c12.7,12.7,22.3,26,29.5,40L704.2,1057.9z"/>
			</g>
			<g>
				<path class="st14" d="M1265,1089.3c1.2-4.7,2-9.6,2.3-14.6c2.9-49.2-41.6-91.8-99.3-95c-22.5-1.3-43.8,3.7-61.4,13.1
					c35.2,9.5,65.5,29.2,89.7,54.1c12.3,12.7,21.8,26,28.8,40L1265,1089.3z"/>
			</g>
			<g>
				
					<ellipse transform="matrix(1 -3.311162e-03 3.311162e-03 1 -3.4419 1.9164)" class="st4" cx="577.1" cy="1040.4" rx="95.4" ry="93.7"/>
				<g>
					<g>
						
							<ellipse transform="matrix(1 -3.280532e-03 3.280532e-03 1 -3.4101 1.8986)" class="st13" cx="577.1" cy="1040.4" rx="54.1" ry="53.2"/>
					</g>
					<path class="st14" d="M584.4,1078c10.4-0.2,21-3.2,28.7-10c-3.7,9.1-12.3,16.1-22,18.2c-3.3,0.7-6.7,0.9-10.1,0.9
						c-3.6,0-7.2-0.1-10.7-0.8c-9.5-1.9-17.9-8.3-22.1-16.9c1.4,2.8,11.9,5.3,14.5,5.9C569.7,1076.9,577,1078.1,584.4,1078z"/>
				</g>
			</g>
			<g>
				
					<ellipse transform="matrix(1 -3.311162e-03 3.311162e-03 1 -3.5432 3.7795)" class="st4" cx="1139.7" cy="1072" rx="95.4" ry="93.7"/>
				<g>
					<g>
						
							<ellipse transform="matrix(1 -3.236286e-03 3.236286e-03 1 -3.4632 3.6939)" class="st13" cx="1139.7" cy="1072" rx="54.1" ry="53.2"/>
					</g>
					<path class="st14" d="M1147,1109.5c10.4-0.2,21-3.2,28.7-10c-3.7,9.1-12.3,16.1-22,18.2c-3.3,0.7-6.7,0.9-10.1,0.9
						c-3.6,0-7.2-0.1-10.7-0.8c-9.5-1.9-17.9-8.3-22.1-16.9c1.4,2.8,11.9,5.3,14.5,5.9C1132.4,1108.5,1139.7,1109.6,1147,1109.5z"/>
				</g>
			</g>
		</g>
		<path class="st15" d="M850.1,861.8l-29.5-1.7c-6.1-0.3-10.8-5.5-10.5-11.5l0,0c0.4-6,5.6-10.6,11.8-10.3l29.5,1.7
			c6.1,0.3,10.8,5.5,10.5,11.5l0,0C861.5,857.5,856.3,862.1,850.1,861.8z"/>
	</g>
	<g>
		<polygon class="st2" points="1171.8,712.1 1159.5,723.1 1145,722.2 1143.2,725.1 1146.8,727.4 1134.5,730 1128.2,737.9 
			1132,750.7 1143.5,758.7 1156,753.6 1165.8,741.1 1183.2,726.8 		"/>
		<path class="st4" d="M1160,718.6c19.8-15.2,39.7-30.3,59.5-45.5c5.3-4.1,11.4-7.2,16.7-11.3c7.8-6,9.8-7.8,7.2-16.6
			c-7.6-25.3-23.7-47.9-31-72.9c8.4-4.8,15.9-10.7,24.9-14.6c14.7-6.4,18.1,4,24.1,14.7c7.1,12.6,13.8,25.4,20.1,38.5
			c5.2,10.8,30.9,56.2,16.3,67c-10.5,7.8-124.9,66.9-123.8,69.3C1173.7,746.1,1160,718.6,1160,718.6z"/>
	</g>
	<g>
		<g>
			<path class="st4" d="M464.3,335c-112.8,55.3-187.6,16-197.9,10c0,0-0.4-0.8-0.6-0.4c-0.4-0.2-0.4,0.6-0.4,0.6
				c-6.1,10.1-52.5,79.7-178.6,84.2c0,0,36.5,215.3,128.5,283.9c98.3,73.2,168.2,85.3,168.5,84.9c0.4,0.2,56.6-42.9,106.4-153.7
				C536.8,540.8,464.3,335,464.3,335z"/>
			<path class="st8" d="M452.5,361c-102.5,49.7-170.1,15-179.4,9.7c0,0-0.3-0.7-0.6-0.3c-0.4-0.2-0.3,0.5-0.3,0.5
				c-5.6,9-48,71.2-162.2,75.8c0,0,32.2,191.8,115.3,252.5c88.7,64.9,153.4,80.4,153.6,80.1c0.3,0.1,50.2-43.5,95.8-142.5
				C517.3,544.2,452.5,361,452.5,361z"/>
			<g class="st16">
				<path d="M277,389.5c0,0,0-0.8,0.3-0.6c0.2-0.4,0.6,0.3,0.6,0.3c9.5,5.4,77.8,40.5,181.7-7.3c-5.5-19-9.6-30.7-9.6-30.7
					c-102.5,49.7-170.1,15-179.4,9.7c0,0-0.3-0.7-0.6-0.3c-0.4-0.2-0.3,0.5-0.3,0.5c-5.6,9-48,71.2-162.2,75.8
					c0,0,2.1,12.2,6.5,31.5C228.4,461.6,271.3,398.7,277,389.5z"/>
			</g>
		</g>
		<path class="st17" d="M433.9,421.2c-77.4,37.9-138.9,11.5-145.9,7.4c0,0-0.3-0.5-0.4-0.2c-0.3-0.2-0.2,0.4-0.2,0.4
			c-4.2,6.9-44.8,58.8-131.2,61.9c0,0,33.8,143.5,96.8,190.5c67.4,50.2,115.3,58.5,115.5,58.2c0.3,0.1,38.8-29.4,72.9-105.4
			C473.4,562.8,433.9,421.2,433.9,421.2z"/>
	</g>
	<g>
		<polygon class="st2" points="1496.6,576.1 1485.7,570.3 1482.7,559.9 1480.2,559.4 1479.4,562.5 1474.4,554.6 1467.1,552.2 
			1458.8,558 1455.9,568 1462.7,575.4 1474.2,579.2 1488.9,587.7 		"/>
		<polygon class="st18" points="1490.4,564.1 1554.9,608.3 1620.8,538.9 1628.7,617.6 1564.4,659.1 1478.7,585 		"/>
	</g>
	<g>
		<g>
			<polygon class="st19" points="1722.8,1140.7 1723.9,1151.3 1704.2,1164.6 1692.7,1155.3 1702,1143.3 1721.7,1130.1 			"/>
			<polygon class="st2" points="1722.3,815.6 1725.6,847.9 1696.1,958.9 1723.5,1137.1 1703.3,1144 1650.1,969.9 1641.7,919.3 
				1642,812.1 			"/>
		</g>
		<g>
			<polygon class="st2" points="1567,851.6 1609.5,1150.4 1628.8,1150.4 1632.3,958.9 1667.4,824.5 			"/>
			<polygon class="st19" points="1628.7,1148 1628.7,1158.7 1607.8,1169.5 1597.4,1158.7 1607.8,1148 			"/>
		</g>
		<path class="st8" d="M1614.5,545c1.5-2.5,3.6-4.5,6.4-6.1c19.2-10.6,51-1.3,71.8-1.3c6.1,63.5,23.1,124,34.1,186.4
			c11.7,66.2,24.8,132.2,39.4,197.8c0.8,3.7-57.9,1.8-63.4,1.9c-56.5,0.9-130.5,0.7-185-16c34.8-91.6,47.5-190.2,74.9-284.2
			c4.8-16.5,10.5-32.8,14.9-49.4C1609.9,564.5,1609.5,552.8,1614.5,545z"/>
		<path class="st4" d="M1640.1,451.3c-14.3,3.8-25.6,16.8-27.1,31.3c-7.8-7.1-11.8-18.1-10.4-28.5c1.4-10.4,8.3-19.9,17.7-24.7
			c8.9,4.6,15.7,12.8,18.7,22.2L1640.1,451.3z"/>
		<path class="st2" d="M1611,470.1c7.4-38.3,56.1-31.7,70.1-0.7c8,17.6-0.4,42.6-16.3,54.8c-0.3,3.4-0.8,12.7-3.4,15
			c-2.9,2.5-11.9,0.1-15.4-0.7c-1-0.2-2-0.5-2.7-1.2c-0.9-0.9-1-3.2-1.1-5.8c-2.6-0.2-5.2-0.7-7.9-1.5
			c-11.3-3.7-19.6-13.9-22.9-25.2C1608,493.6,1608.8,481.6,1611,470.1z"/>
		<path class="st4" d="M1683.1,622c-0.5,0-0.8-0.1-1.1-0.1c-8.6-1.4-22.4-4.2-26.4-13.1c-4.1-9.1,3.2-25.6,4.4-35.1
			c1.8-14.4,2.4-28.9,3.1-43.4c0.6-13-4.1-25.9-11.1-37c-7-11.1-16.1-20.8-25-30.5c-3.7-4-7.6-8.3-8.7-13.6
			c-1.3-5.9,1.1-12.1,5.1-16.7c6.1-7.1,13.3-10.6,22.5-10.8c32.2-0.8,56.5,18,65.6,48.8c13.1,44.3-3.3,86.5-0.8,130.5
			c0.4,7.5,3,14.9,7.3,21.2C1716.8,620.7,1690,622.4,1683.1,622z"/>
	</g>
	<g>
		<polygon class="st2" points="1661.6,681.1 1648.6,685.3 1638,679.8 1635.7,681.4 1637.6,684.3 1627.4,682.2 1620,686.1 
			1618.4,697 1624.3,706.8 1635.5,707.1 1647.2,700.9 1665.2,696 		"/>
		<path class="st8" d="M1695.8,667.4c5.5-3.6,9.2-8.8,9.7-16.4c0.4-7-1.2-13.9-2.5-20.8c-3.9-21.9-3.4-44.6,1.5-66.3
			c4.9-21.6,30.6,5.6,33.8,15.3c3.5,10.8,2.5,22.6,3.4,33.7c1.2,15,1.7,30,1.6,45.1c0,9.5,2.3,32-7.9,37.4c-2.8,1.5-5.9,2-9,2.5
			c-4.9,0.8-63.1,8-64,5.2l-8-24.9C1666.6,675.8,1684.7,674.7,1695.8,667.4z"/>
	</g>
	<g>
		<g>
			<polygon class="st4" points="1576.6,923.5 1271.3,877.4 1334,477.8 1639.3,523.9 			"/>
			<polygon class="st5" points="1296.7,863.7 1301.3,864.4 1569.7,913.3 1621.9,534.3 1608.9,535.9 			"/>
			<polygon class="st20" points="1563.9,904 1289.4,862.6 1347.4,492.8 1621.9,534.3 			"/>
			<g>
				<g>
					<path class="st21" d="M1525.4,483.7l-1.8-0.3l0.2-1.2c1.8-11.5-7.7-22.5-21.2-24.6l-17.8-2.7c-13.5-2-25.9,5.7-27.7,17.2
						l-0.2,1.2l-1.9-0.3c-13.5-2-25.9,5.7-27.7,17.2l-3.7,23.3l119.2,18l3.7-23.3C1548.3,496.7,1538.9,485.7,1525.4,483.7z
						 M1505.8,481.2l-31.4-4.7c-3.2-0.5-5.4-3.5-4.9-6.6c0.5-3.1,3.5-5.3,6.7-4.8l31.4,4.7c3.2,0.5,5.4,3.5,4.9,6.6
						C1512.1,479.5,1509,481.7,1505.8,481.2z"/>
				</g>
				<polygon class="st22" points="1542.9,531.6 1423.6,513.6 1425.4,502.6 1544.6,520.6 				"/>
			</g>
			<g>
				<polygon class="st23" points="1567.4,670 1361.1,638.8 1362,633.4 1568.3,664.5 				"/>
				<polygon class="st23" points="1561.1,710.1 1354.8,678.9 1355.7,673.5 1562,704.6 				"/>
				<polygon class="st23" points="1554.8,750.2 1348.5,719.1 1349.4,713.6 1555.7,744.8 				"/>
				<polygon class="st23" points="1548.5,790.3 1342.2,759.2 1343.1,753.8 1549.4,784.9 				"/>
			</g>
			<polygon class="st23" points="1406,846.6 1330.1,835.1 1329.8,837 1405.7,848.5 			"/>
			<path class="st23" d="M1518,828.5c-3.5-1.9-7.6-2.2-11.2-1c-0.5-0.3-1-0.7-1.5-0.9c-5.2-2.8-11.8-2-16.2,1.9
				c-4.3,3.8-5.7,10-3.6,15.2c2.2,5.3,7.6,8.7,13.5,8.6c1.4,0,2.7-0.3,4-0.7c2.5,1.8,5.5,2.7,8.7,2.6c6.7-0.2,12.2-5.2,13.3-11.6
				C1525.8,836.9,1523.1,831.3,1518,828.5z M1500.8,849.8c-4.8,0.9-9.7-1.2-12.3-5.3c-2.6-4.1-2.2-9.6,1-13.3
				c3.1-3.7,8.4-5.2,13-3.5c0.6,0.2,1.2,0.5,1.8,0.8c-0.9,0.5-1.7,1.1-2.5,1.8c-4.3,3.8-5.7,10-3.6,15.2c0.6,1.6,1.6,3,2.7,4.2
				C1500.9,849.8,1500.8,849.8,1500.8,849.8z M1510.1,840.3c-0.7,3.8-3.2,7.1-6.7,8.7c-0.8-0.7-1.6-1.6-2.2-2.5
				c-2.6-4.1-2.2-9.6,1-13.3c1.1-1.4,2.6-2.4,4.2-3.1C1509.2,832.6,1510.6,836.4,1510.1,840.3z M1513.5,851.8c-2.8,0.5-5.6,0-8-1.3
				c3.6-2,6.1-5.6,6.9-9.8c0.6-4.2-0.8-8.4-3.6-11.4c2.1-0.4,4.4-0.3,6.5,0.4c5.3,1.9,8.3,7.2,7.6,12.5
				C1521.9,847,1518.3,850.8,1513.5,851.8z"/>
		</g>
		<g>
			<path class="st24" d="M1378.6,539.7l3.4,0.5l-4.3,27.4l-3.4-0.5L1378.6,539.7z"/>
			<path class="st24" d="M1407,544l3.4,0.5l-4.3,27.4l-3.7-0.6l-9.9-23.9l-3.4,21.9l-3.4-0.5l4.3-27.4l3.7,0.6l9.9,23.9L1407,544z"
				/>
			<path class="st24" d="M1431.2,563.3c0.9,1.2,1.2,3,0.9,5.2c-0.4,2.2-1.4,4-3.3,5.2c-1.8,1.2-4.2,1.6-7.3,1.1
				c-3-0.5-5.1-1.4-6.4-2.8c-1.2-1.4-1.8-3.3-1.8-5.7l2.8-0.1c0,3.4,1.8,5.3,5.5,5.9c4.2,0.6,6.5-0.7,7-3.9c0.2-1.4,0-2.5-0.7-3.3
				c-0.7-0.8-1.8-1.6-3.6-2.3l-2.4-1.1c-2.5-1.1-4.2-2.3-5.1-3.5c-0.9-1.3-1.2-3-0.8-5.2c0.4-2.2,1.4-4,3.2-5.2
				c1.8-1.2,4.1-1.6,7-1.2c2.9,0.4,5,1.4,6.1,2.8c1.1,1.4,1.7,3.3,1.7,5.7l-2.8,0.1c0-3.4-1.6-5.3-5-5.8c-4-0.6-6.2,0.7-6.7,3.9
				c-0.2,1.4,0,2.5,0.6,3.3c0.6,0.8,1.7,1.5,3.3,2.2l2.5,1.1C1428.4,560.9,1430.2,562.1,1431.2,563.3z"/>
			<path class="st24" d="M1457.2,551.6l3.4,0.5l-2.9,18.4c-0.3,1.7-0.7,3.1-1.3,4.2c-0.6,1.1-1.2,2-2,2.6c-0.7,0.6-1.6,1-2.6,1.2
				c-1,0.2-1.9,0.4-2.7,0.3c-0.8,0-1.8-0.1-2.8-0.3c-1.1-0.2-2-0.4-2.8-0.6c-0.8-0.2-1.6-0.6-2.5-1.1c-0.9-0.5-1.6-1.2-2-1.9
				c-0.5-0.8-0.9-1.8-1.1-3c-0.2-1.3-0.2-2.7,0.1-4.4l2.9-18.4l3.4,0.5l-2.9,18.2c-0.5,2.9-0.1,4.9,1.2,6.1c0.6,0.6,1.2,1,1.9,1.2
				c0.6,0.3,1.4,0.4,2.3,0.6c0.9,0.1,1.7,0.2,2.4,0.1c0.7-0.1,1.4-0.2,2.2-0.6c1.5-0.7,2.6-2.5,3-5.5L1457.2,551.6z"/>
			<path class="st24" d="M1468.1,553.3l8.5,1.3c1.7,0.3,3,0.7,4.2,1.4c1.1,0.7,1.9,1.4,2.4,2.4c0.9,1.7,1.1,3.6,0.8,5.7
				c-0.6,3.9-2.6,6.2-6,6.8c0.6,0.6,1.1,1.5,1.4,2.8l2.7,10l-3.6-0.5l-2.5-9.5c-0.3-1-0.7-1.7-1.2-2.1c-0.6-0.4-1.4-0.7-2.5-1
				l-3.3-0.5l-1.8,11.3l-3.4-0.5L1468.1,553.3z M1469.4,567.2l4.9,0.7c1.9,0.3,3.3,0,4.3-0.9c1-0.9,1.6-2.1,1.9-3.7
				c0.2-1.5,0-2.9-0.7-4.1c-0.7-1.2-2-1.9-3.8-2.2l-4.9-0.7L1469.4,567.2z"/>
			<path class="st24" d="M1498.3,557.8l4.5,0.7l4.8,28.8l-3.3-0.5l-1.4-8.7l-10.6-1.6l-4,7.9l-3.3-0.5L1498.3,557.8z M1500.1,561.1
				l-6.6,12.9l8.9,1.3L1500.1,561.1z"/>
			<path class="st24" d="M1533.6,563.2l3.4,0.5l-4.3,27.4l-3.7-0.6l-9.9-23.9l-3.4,21.9l-3.4-0.5l4.3-27.4l3.7,0.6l9.9,23.9
				L1533.6,563.2z"/>
			<path class="st24" d="M1554.3,568.5c-2.4-0.4-4.2,0-5.6,1.1c-1.2,1-2.2,2.7-2.8,5.3c-0.3,1.1-0.5,2.4-0.8,4
				c-0.2,1.6-0.4,2.9-0.5,4.1c-0.1,1.1,0,2.2,0.1,3.3c0.2,1,0.5,1.9,0.9,2.6c1,1.5,2.6,2.4,5,2.8c3.9,0.6,6.3-1.2,7.1-5.2l2.7,0.6
				c-0.6,2.8-1.7,4.8-3.3,6.1c-1.6,1.3-3.9,1.7-6.9,1.3c-4.2-0.6-6.9-2.3-8-5.1c-0.6-1.4-0.9-2.9-1-4.6c-0.1-1.7,0.1-3.7,0.5-6.1
				c0.4-2.4,0.8-4.4,1.4-6c0.6-1.6,1.4-3,2.4-4.1c1.9-2.3,5-3.1,9.2-2.5c2.8,0.4,4.8,1.4,5.9,2.8c1.2,1.4,1.7,3.3,1.7,5.7l-2.8,0.1
				C1559.5,571,1557.8,569,1554.3,568.5z"/>
			<path class="st24" d="M1569.6,568.6l14.9,2.2l-0.4,2.6l-11.5-1.7l-1.5,9.5l10.7,1.6l-0.4,2.6l-10.7-1.6l-1.6,10l12.3,1.8
				l-0.4,2.6l-15.6-2.4L1569.6,568.6z"/>
			<path class="st24" d="M1426,610.7l-4.9-0.7l-1.6,10.2l-3.4-0.5l4.3-27.4l8.2,1.2c5.8,0.9,8.2,4.2,7.3,9.9
				C1435.1,609.1,1431.8,611.5,1426,610.7z M1421.5,607.3l4.7,0.7c3.6,0.6,5.8-1.2,6.4-5.2c0.6-4-0.9-6.3-4.5-6.8l-4.7-0.7
				L1421.5,607.3z"/>
			<path class="st24" d="M1457.9,622.2c-1,1.2-2.3,2.1-3.9,2.6c-1.6,0.5-3.5,0.6-5.6,0.2c-2.2-0.3-3.9-0.9-5.3-1.9
				c-1.4-0.9-2.3-2.1-2.9-3.6c-0.6-1.5-0.9-3-0.9-4.7c-0.1-1.6,0-3.4,0.3-5.3c0.3-1.9,0.6-3.5,1-4.8c0.4-1.3,0.9-2.6,1.6-3.7
				c0.7-1.2,1.5-2.1,2.4-2.8c2-1.5,4.8-2,8.2-1.5c4.3,0.6,7,2.5,8.2,5.5c0.6,1.5,0.9,3,1,4.7c0.1,1.7-0.1,3.5-0.4,5.7
				c-0.3,2.1-0.8,4-1.4,5.5C1459.6,619.5,1458.9,620.9,1457.9,622.2z M1449,622.3c1.3,0.2,2.6,0.1,3.7-0.3c1.1-0.4,2-1.2,2.7-2.2
				c0.7-1,1.3-2.2,1.7-3.4c0.4-1.3,0.8-2.8,1.1-4.5c0.3-1.7,0.4-3.2,0.4-4.6c0-1.3-0.2-2.6-0.6-3.8c-0.8-2.4-2.6-3.9-5.6-4.3
				c-2.4-0.4-4.3,0.1-5.7,1.4c-1.8,1.6-3,4.6-3.7,9c-0.7,4.4-0.4,7.6,0.8,9.6C1444.7,620.9,1446.5,622,1449,622.3z"/>
			<path class="st24" d="M1466.3,627.2l4.3-27.4l3.4,0.5l-3.9,24.8l10.4,1.6l-0.4,2.6L1466.3,627.2z"/>
			<path class="st24" d="M1489.1,602.5l3.4,0.5l-4.3,27.4l-3.4-0.5L1489.1,602.5z"/>
			<path class="st24" d="M1509.7,607.9c-2.4-0.4-4.2,0-5.6,1.1c-1.2,1-2.2,2.7-2.8,5.3c-0.3,1.1-0.5,2.4-0.8,4
				c-0.2,1.6-0.4,2.9-0.5,4.1c-0.1,1.1,0,2.2,0.1,3.3c0.2,1,0.5,1.9,0.9,2.6c1,1.5,2.6,2.4,5,2.8c3.9,0.6,6.3-1.2,7.1-5.2l2.7,0.6
				c-0.6,2.8-1.7,4.8-3.3,6.1c-1.6,1.3-3.9,1.7-6.9,1.3c-4.2-0.6-6.9-2.3-8-5.1c-0.6-1.4-0.9-2.9-1-4.6c-0.1-1.7,0.1-3.7,0.5-6.1
				c0.4-2.4,0.8-4.4,1.4-6c0.6-1.6,1.4-3,2.4-4.1c1.9-2.3,5-3.1,9.2-2.5c2.8,0.4,4.8,1.4,5.9,2.8c1.2,1.4,1.7,3.3,1.7,5.7l-2.8,0.1
				C1514.9,610.4,1513.2,608.4,1509.7,607.9z"/>
			<path class="st24" d="M1528.8,636.6l-3.4-0.5l1.5-9.5l-5.8-19.2l3.4,0.5l4.6,15.7l9.2-13.6l3.4,0.5l-11.4,16.6L1528.8,636.6z"/>
		</g>
	</g>
</g>
</svg>
