<?xml version="1.0" encoding="utf-8"?>
<!-- Generator: Adobe Illustrator 25.2.0, SVG Export Plug-In . SVG Version: 6.00 Build 0)  -->
<svg version="1.1" id="Layer_1" xmlns="http://www.w3.org/2000/svg" xmlns:xlink="http://www.w3.org/1999/xlink" x="0px" y="0px"
	 viewBox="0 0 1920 1326" style="enable-background:new 0 0 1920 1326;" xml:space="preserve">
<style type="text/css">
	.st0{fill:#FFFFFF;}
	.st1{fill:url(#XMLID_4_);}
	.st2{fill:url(#XMLID_5_);}
	.st3{fill:url(#XMLID_6_);}
	.st4{opacity:0.3;fill:url(#XMLID_7_);}
	.st5{fill:#397BFE;}
	.st6{fill:url(#XMLID_8_);}
	.st7{opacity:0.3;fill:url(#XMLID_9_);}
	.st8{fill:url(#XMLID_10_);}
	.st9{opacity:0.5;fill:#397BFE;}
	.st10{fill:url(#XMLID_11_);}
	.st11{fill:#F8F5FB;}
	.st12{fill:url(#XMLID_12_);}
	.st13{fill:url(#XMLID_13_);}
	.st14{fill:url(#XMLID_14_);}
	.st15{fill:url(#XMLID_15_);}
	.st16{fill:url(#XMLID_16_);}
	.st17{fill:url(#XMLID_17_);}
	.st18{fill:url(#XMLID_19_);}
	.st19{fill:url(#XMLID_20_);}
	.st20{fill:url(#XMLID_28_);}
	.st21{fill:url(#XMLID_29_);}
	.st22{opacity:0.3;fill:#397BFE;}
	.st23{fill:url(#XMLID_30_);}
	.st24{fill:url(#XMLID_31_);}
	.st25{fill:url(#XMLID_32_);}
	.st26{fill:#515696;}
	.st27{fill:url(#XMLID_33_);}
	.st28{fill:url(#XMLID_34_);}
	.st29{fill:url(#XMLID_35_);}
	.st30{fill:url(#XMLID_36_);}
	.st31{fill:url(#XMLID_37_);}
	.st32{fill:url(#XMLID_38_);}
	.st33{fill:url(#XMLID_39_);}
	.st34{fill:url(#XMLID_40_);}
	.st35{fill:url(#XMLID_41_);}
	.st36{fill:url(#XMLID_42_);}
	.st37{fill:url(#XMLID_43_);}
	.st38{fill:url(#XMLID_44_);}
	.st39{opacity:0.5;fill:#FFFFFF;}
	.st40{fill:url(#XMLID_45_);}
	.st41{fill:url(#XMLID_46_);}
	.st42{fill:url(#XMLID_47_);}
	.st43{opacity:0.4;fill:url(#XMLID_48_);}
	.st44{fill:url(#XMLID_49_);}
	.st45{fill:url(#XMLID_50_);}
	.st46{fill:url(#XMLID_51_);}
	.st47{opacity:0.4;fill:url(#XMLID_52_);}
	.st48{opacity:0.1;fill:#141313;}
	.st49{fill:#C9EAF2;}
	.st50{fill:#FFC536;}
	.st51{fill:#F38E22;}
	.st52{fill:#DFF2F8;}
	.st53{fill:#97C1FF;}
	.st54{fill:#FFA85A;}
	.st55{fill:#FFB87D;}
	.st56{fill:#FFDC97;}
	.st57{fill:#00233D;}
	.st58{opacity:0.2;fill:#FFFFFF;}
	.st59{opacity:0.1;}
	.st60{fill:#141313;}
</style>
<rect x="-320" y="-84.2" class="st0" width="2582.8" height="1771.2"/>
<g id="XMLID_105_">
	<g id="XMLID_21_">
		
			<linearGradient id="XMLID_4_" gradientUnits="userSpaceOnUse" x1="1160.3694" y1="945.8676" x2="1266.5162" y2="945.8676" gradientTransform="matrix(0.8404 0.2704 -7.800000e-03 1.1873 523.3415 -991.5144)">
			<stop  offset="0" style="stop-color:#FDC142"/>
			<stop  offset="1" style="stop-color:#FFDD00"/>
		</linearGradient>
		<path id="XMLID_23_" class="st1" d="M1536.2,396.6c-0.2,34.8-20.4,56.6-45,48.7c24.6,7.9,44.4,42.6,44.2,77.4
			c0.2-34.8,20.4-56.6,45-48.7C1555.7,466.1,1535.9,431.4,1536.2,396.6z"/>
		
			<linearGradient id="XMLID_5_" gradientUnits="userSpaceOnUse" x1="1211.045" y1="1030.0597" x2="1266.514" y2="1030.0597" gradientTransform="matrix(0.8404 0.2704 -7.800000e-03 1.1873 523.3415 -991.5144)">
			<stop  offset="0" style="stop-color:#FDC142"/>
			<stop  offset="1" style="stop-color:#FFDD00"/>
		</linearGradient>
		<path id="XMLID_22_" class="st2" d="M1556.6,533.5c-0.1,18.2-10.7,29.6-23.5,25.4c12.9,4.1,23.2,22.2,23.1,40.4
			c0.1-18.2,10.7-29.6,23.5-25.4C1566.8,569.8,1556.5,551.7,1556.6,533.5z"/>
	</g>
	<g id="XMLID_519_">
		<linearGradient id="XMLID_6_" gradientUnits="userSpaceOnUse" x1="524.3422" y1="1136.1177" x2="856.7109" y2="1136.1177">
			<stop  offset="0" style="stop-color:#397BFE"/>
			<stop  offset="1" style="stop-color:#363C70"/>
		</linearGradient>
		<path id="XMLID_521_" class="st3" d="M856.7,1133.6l0-22.1l-7.2,3.2l-131-76.5c-8.6-5-23.7-4.4-33.6,1.3l-148.2,86.1h-12.3v21.9
			l0.1-0.1c-0.3,3.4,1.6,6.7,5.8,9.2l132.4,77.3c8.6,5,23.7,4.4,33.6-1.3l152.4-88.5C853.7,1141.2,856.4,1137.3,856.7,1133.6
			L856.7,1133.6z"/>
		<linearGradient id="XMLID_7_" gradientUnits="userSpaceOnUse" x1="524.3422" y1="1136.1177" x2="856.7109" y2="1136.1177">
			<stop  offset="0" style="stop-color:#397BFE"/>
			<stop  offset="1" style="stop-color:#363C70"/>
		</linearGradient>
		<path id="XMLID_516_" class="st4" d="M856.7,1133.6l0-22.1l-7.2,3.2l-131-76.5c-8.6-5-23.7-4.4-33.6,1.3l-148.2,86.1h-12.3v21.9
			l0.1-0.1c-0.3,3.4,1.6,6.7,5.8,9.2l132.4,77.3c8.6,5,23.7,4.4,33.6-1.3l152.4-88.5C853.7,1141.2,856.4,1137.3,856.7,1133.6
			L856.7,1133.6z"/>
		<path id="XMLID_513_" class="st5" d="M848.5,1123.2l-152.4,88.5c-9.9,5.8-25,6.4-33.6,1.3l-132.4-77.3c-8.6-5-7.6-13.8,2.4-19.6
			l152.4-88.5c9.9-5.8,25-6.4,33.6-1.3l132.4,77.3C859.5,1108.7,858.4,1117.4,848.5,1123.2z"/>
		<path id="XMLID_780_" class="st0" d="M726.7,1090.5c-0.3-0.1-0.5-0.2-0.8-0.4c-14.9-6.3-36.1-6.1-47.3,0.5
			c-5.8,3.4-7.8,7.9-6.4,12.3c-16.7-4.6-36.9-3.5-48.4,3.3c-13.4,7.9-9.9,20.3,7.8,27.9c4.3,1.8,9,3.2,13.8,4.1
			c-5.2,5.6-1.8,12.9,9.1,17.5c12.8,5.4,31.1,5.2,40.8-0.5l72.5-42.7c9.7-5.7,7.1-14.8-5.6-20.2
			C751.5,1087.7,736.8,1087.2,726.7,1090.5z"/>
	</g>
	<g id="XMLID_522_">
		<linearGradient id="XMLID_8_" gradientUnits="userSpaceOnUse" x1="1254.9271" y1="1172.6671" x2="1604.0851" y2="1172.6671">
			<stop  offset="0" style="stop-color:#FDC142"/>
			<stop  offset="1" style="stop-color:#FFDD00"/>
		</linearGradient>
		<path id="XMLID_528_" class="st6" d="M1604,1170.1l0-23.2l-7.6,3.4l-137.6-80.4c-9.1-5.3-24.9-4.7-35.3,1.4l-155.7,90.5h-13v23
			l0.1-0.1c-0.3,3.6,1.7,7.1,6.1,9.6l139,81.2c9.1,5.3,24.9,4.7,35.3-1.4l160.1-93C1600.9,1178,1603.8,1173.9,1604,1170.1
			L1604,1170.1z"/>
		<linearGradient id="XMLID_9_" gradientUnits="userSpaceOnUse" x1="1254.9271" y1="1172.6671" x2="1604.0851" y2="1172.6671">
			<stop  offset="0" style="stop-color:#FDC142"/>
			<stop  offset="1" style="stop-color:#FFDD00"/>
		</linearGradient>
		<path id="XMLID_520_" class="st7" d="M1604,1170.1l0-23.2l-7.6,3.4l-137.6-80.4c-9.1-5.3-24.9-4.7-35.3,1.4l-155.7,90.5h-13v23
			l0.1-0.1c-0.3,3.6,1.7,7.1,6.1,9.6l139,81.2c9.1,5.3,24.9,4.7,35.3-1.4l160.1-93C1600.9,1178,1603.8,1173.9,1604,1170.1
			L1604,1170.1z"/>
		<g id="XMLID_525_">
			<linearGradient id="XMLID_10_" gradientUnits="userSpaceOnUse" x1="1254.9271" y1="1155.3802" x2="1604.0851" y2="1155.3802">
				<stop  offset="0" style="stop-color:#FDC142"/>
				<stop  offset="1" style="stop-color:#FFDD00"/>
			</linearGradient>
			<path id="XMLID_527_" class="st8" d="M1595.5,1159.1l-160.1,93c-10.4,6.1-26.2,6.7-35.3,1.4l-139-81.2c-9.1-5.3-8-14.5,2.5-20.6
				l160.1-93c10.4-6.1,26.2-6.7,35.3-1.4l139,81.2C1607,1143.8,1605.9,1153,1595.5,1159.1z"/>
			<g id="XMLID_526_">
				<path id="XMLID_530_" class="st0" d="M1497.6,1140.2c0.1-1.9-0.7-3.7-2.5-5.5c-1.9-1.9-4.3-3.3-7.4-4.1
					c-0.6-2.7-2.6-4.8-5.9-6.5c-1.4-0.8-3.3-1.5-5.8-2.1c-0.3-2.9-2.2-5.4-5.9-7.4c-3.3-1.8-7.4-2.7-12.3-2.5
					c-4.9,0.2-9,1.3-12.4,3.4l-18,11c-0.4-0.4-0.8-0.8-1-1.2c-0.3-0.3-0.5-0.7-0.7-1.2c-0.2-0.5-0.4-0.8-0.5-1
					c-0.7-1.3-1.2-2.3-1.8-3.1c-0.5-0.8-1.4-1.7-2.6-2.9c-1.2-1.1-2.6-2.2-4.2-3.1c-1-0.6-1.9-1-2.5-1.4c-0.7-0.3-1.7-0.8-3.2-1.4
					c-1.5-0.6-2.8-1-4-1.3c-1.2-0.3-2.6-0.5-4.4-0.6c-1.8-0.2-3.5-0.1-5.2,0.2c-1.7,0.3-3.5,0.7-5.6,1.5c-2,0.7-4,1.7-6,2.9
					c-1.1,0.7-1.7,1.5-1.7,2.5c0,1,0.3,2,1,3.1c0.7,1.1,1.3,1.9,2,2.6c0.7,0.7,1.7,1.5,3.1,2.7c1.4,1.2,2.4,2.1,3,2.7
					c0.6,0.6,1.2,1.4,1.9,2.4c0.7,1.1,1.1,2,1,2.9c0,1.6,0.3,4.4,1,8.2c0.6,2.8,1,5.6,1.1,8.3c0.2,2.7-0.2,4.4-1.2,5.1
					c-1,0.7-1.5,1.5-1.5,2.4c0,0.9,0.5,1.7,1.6,2.2l40.8,22.6c1.1,0.6,2.5,0.9,4.1,0.8c1.6-0.1,3-0.4,4.2-1.1
					c1.6-0.9,5.9-2.5,13.1-4.7c4.5-1.4,7.9-2.6,10.4-3.4c2.5-0.8,5.7-2.1,9.8-3.8c4-1.7,7.5-3.4,10.4-5.2l8.4-5.1
					c5.7-3.6,8.3-7.1,7.9-10.6C1505.5,1145.4,1502.7,1142.6,1497.6,1140.2z"/>
				<path id="XMLID_542_" class="st0" d="M1433.6,1184.2l-40.7-22.6c-1.1-0.6-2.5-0.9-4.1-0.8c-1.6,0.1-3,0.4-4.1,1.1l-18.8,11.4
					c-1.1,0.7-1.7,1.5-1.7,2.5c0,0.9,0.5,1.7,1.6,2.3l40.7,22.6c1.1,0.6,2.5,0.9,4.1,0.8c1.6-0.1,3-0.4,4.1-1.1l18.8-11.4
					c1.1-0.7,1.7-1.5,1.7-2.5C1435.2,1185.6,1434.7,1184.8,1433.6,1184.2z M1414.9,1190.8c-1.2,0.7-2.6,1.1-4.1,1.2
					c-1.6,0.1-2.9-0.2-4.1-0.9c-1.1-0.6-1.7-1.4-1.7-2.3c0-0.9,0.6-1.8,1.8-2.5c1.1-0.7,2.5-1.1,4.1-1.1c1.6-0.1,3,0.2,4.1,0.8
					c1.1,0.6,1.7,1.4,1.6,2.4C1416.7,1189.3,1416.1,1190.1,1414.9,1190.8z"/>
			</g>
		</g>
	</g>
	<g id="XMLID_99_">
		<path id="XMLID_582_" class="st9" d="M1510.4,535.5c0.1-10.5-7.6-23.5-17-29.1l-488.5-286.2c-5-2.9-9.4-3.2-12.6-1.2c0,0,0,0,0,0
			l-19,10.4l14.4,4.5l-1.6,394c-0.1,10.5,7.6,23.5,17,29.1l482.4,282.6l2.9,15.9l-15.4,8.2L970.8,674l-372.1,215l-9.7-5.8v24.6
			l0.5,0c1,4,3.5,7.8,7.6,10.1l486.4,281.1c10.6,6.1,23.6,6.1,34.2,0l381.3-220.4l9.7-5.6v-28.4l-0.1,0c0.1-0.6,0.2-1,0.2-1.6
			L1510.4,535.5z"/>
		<path id="XMLID_584_" class="st5" d="M1473.1,963.7L970.8,674l-372.1,215l-9.7-5.8v24.6l0.5,0c1,4,3.5,7.8,7.6,10.1l486.4,281.1
			c10.6,6.1,23.6,6.1,34.2,0l381.3-220.4l9.7-5.6v-28.4L1473.1,963.7z"/>
		<g id="XMLID_762_">
			<linearGradient id="XMLID_11_" gradientUnits="userSpaceOnUse" x1="589.0316" y1="916.3862" x2="1499.0839" y2="916.3862">
				<stop  offset="0" style="stop-color:#CED6EA"/>
				<stop  offset="1" style="stop-color:#A3AEC4"/>
			</linearGradient>
			<path id="XMLID_763_" class="st10" d="M1499.1,956.2L970.8,651.6L597.1,867.5c-10.8,6.2-10.8,21.8,0,28.1l486.4,281.1
				c10.6,6.1,23.6,6.1,34.2,0L1499.1,956.2z"/>
		</g>
		<g id="XMLID_443_">
			<g id="XMLID_624_">
				<path id="XMLID_629_" class="st5" d="M1377.6,951.6c-7.5,4.2-12.3,7-19,10.7c-2.5,1.4-2.5,5.1,0,6.5c6.6,3.8,11.4,6.5,18.7,10.8
					c1.1,0.7,2.6,0.7,3.7,0c7.5-4.2,12.3-7,19-10.7c2.5-1.4,2.5-5.1,0-6.5c-6.6-3.8-11.4-6.5-18.7-10.8
					C1380.2,951,1378.7,951,1377.6,951.6z"/>
				<path id="XMLID_720_" class="st5" d="M1342.2,957.4c7.5-4.2,12.3-7,19-10.7c2.5-1.4,2.5-5.1,0-6.5c-6.6-3.8-11.4-6.5-18.7-10.8
					c-1.1-0.7-2.6-0.7-3.7,0c-7.5,4.2-12.3,7-19,10.7c-2.5,1.4-2.5,5.1,0,6.5c6.6,3.8,11.4,6.5,18.7,10.8
					C1339.6,958,1341.1,958,1342.2,957.4z"/>
				<path id="XMLID_721_" class="st5" d="M1303.4,935.1c7.5-4.2,12.3-7,19-10.7c2.5-1.4,2.5-5.1,0-6.5c-6.6-3.8-11.4-6.5-18.7-10.8
					c-1.1-0.7-2.6-0.7-3.7,0c-7.5,4.2-12.3,7-19,10.7c-2.5,1.4-2.5,5.1,0,6.5c6.6,3.8,11.4,6.5,18.7,10.8
					C1300.8,935.7,1302.2,935.7,1303.4,935.1z"/>
				<path id="XMLID_723_" class="st5" d="M1264.6,912.8c7.5-4.2,12.3-7,19-10.7c2.5-1.4,2.5-5.1,0-6.5c-6.6-3.8-11.4-6.5-18.7-10.8
					c-1.1-0.7-2.6-0.7-3.7,0c-7.5,4.2-12.3,7-19,10.7c-2.5,1.4-2.5,5.1,0,6.5c6.6,3.8,11.4,6.5,18.7,10.8
					C1262,913.4,1263.4,913.4,1264.6,912.8z"/>
				<path id="XMLID_724_" class="st5" d="M1225.7,890.5c7.5-4.2,12.3-7,19-10.7c2.5-1.4,2.5-5.1,0-6.5c-6.6-3.8-11.4-6.5-18.7-10.8
					c-1.1-0.7-2.6-0.7-3.7,0c-7.5,4.2-12.3,7-19,10.7c-2.5,1.4-2.5,5.1,0,6.5c6.6,3.8,11.4,6.5,18.7,10.8
					C1223.1,891.1,1224.6,891.1,1225.7,890.5z"/>
				<path id="XMLID_726_" class="st5" d="M1186.9,868.2c7.5-4.2,12.3-7,19-10.7c2.5-1.4,2.5-5.1,0-6.5c-6.6-3.8-11.4-6.5-18.7-10.8
					c-1.1-0.7-2.6-0.7-3.7,0c-7.5,4.2-12.3,7-19,10.7c-2.5,1.4-2.5,5.1,0,6.5c6.6,3.8,11.4,6.5,18.7,10.8
					C1184.3,868.8,1185.7,868.8,1186.9,868.2z"/>
				<path id="XMLID_727_" class="st5" d="M1148.1,845.9c7.5-4.2,12.3-7,19-10.7c2.5-1.4,2.5-5.1,0-6.5c-6.6-3.8-11.4-6.5-18.7-10.8
					c-1.1-0.7-2.6-0.7-3.7,0c-7.5,4.2-12.3,7-19,10.7c-2.5,1.4-2.5,5.1,0,6.5c6.6,3.8,11.4,6.5,18.7,10.8
					C1145.5,846.5,1146.9,846.5,1148.1,845.9z"/>
				<path id="XMLID_728_" class="st5" d="M1109.2,823.6c7.5-4.2,12.3-7,19-10.7c2.5-1.4,2.5-5.1,0-6.5c-6.6-3.8-11.4-6.5-18.7-10.8
					c-1.1-0.7-2.6-0.7-3.7,0c-7.5,4.2-12.3,7-19,10.7c-2.5,1.4-2.5,5.1,0,6.5c6.6,3.8,11.4,6.5,18.7,10.8
					C1106.6,824.2,1108.1,824.2,1109.2,823.6z"/>
				<path id="XMLID_729_" class="st5" d="M1070.4,801.3c7.5-4.2,12.3-7,19-10.7c2.5-1.4,2.5-5.1,0-6.5c-6.6-3.8-11.4-6.5-18.7-10.8
					c-1.1-0.7-2.6-0.7-3.7,0c-7.5,4.2-12.3,7-19,10.7c-2.5,1.4-2.5,5.1,0,6.5c6.6,3.8,11.4,6.5,18.7,10.8
					C1067.8,801.9,1069.3,801.9,1070.4,801.3z"/>
				<path id="XMLID_730_" class="st5" d="M1031.6,779c7.5-4.2,12.3-7,19-10.7c2.5-1.4,2.5-5.1,0-6.5c-6.6-3.8-11.4-6.5-18.7-10.8
					c-1.1-0.7-2.6-0.7-3.7,0c-7.5,4.2-12.3,7-19,10.7c-2.5,1.4-2.5,5.1,0,6.5c6.6,3.8,11.4,6.5,18.7,10.8
					C1029,779.6,1030.4,779.6,1031.6,779z"/>
				<path id="XMLID_731_" class="st5" d="M992.7,756.7c7.5-4.2,12.3-7,19-10.7c2.5-1.4,2.5-5.1,0-6.5c-6.6-3.8-11.4-6.5-18.7-10.8
					c-1.1-0.7-2.6-0.7-3.7,0c-7.5,4.2-12.3,7-19,10.7c-2.5,1.4-2.5,5.1,0,6.5c6.6,3.8,11.4,6.5,18.7,10.8
					C990.2,757.3,991.6,757.3,992.7,756.7z"/>
				<path id="XMLID_732_" class="st5" d="M972.9,717.1c-6.6-3.8-11.4-6.5-18.7-10.8c-1.1-0.7-2.6-0.7-3.7,0c-7.5,4.2-12.3,7-19,10.7
					c-2.5,1.4-2.5,5.1,0,6.5c6.6,3.8,11.4,6.5,18.7,10.8c1.1,0.7,2.6,0.7,3.7,0c7.5-4.2,12.3-7,19-10.7
					C975.4,722.2,975.5,718.6,972.9,717.1z"/>
				<path id="XMLID_733_" class="st5" d="M1321.2,990c6.6,3.8,11.4,6.5,18.7,10.8c1.1,0.7,2.6,0.7,3.7,0c7.5-4.2,12.3-7,19-10.7
					c2.5-1.4,2.5-5.1,0-6.5c-6.6-3.8-11.4-6.5-18.7-10.8c-1.1-0.7-2.6-0.7-3.7,0c-7.5,4.2-12.3,7-19,10.7
					C1318.7,984.9,1318.7,988.5,1321.2,990z"/>
				<path id="XMLID_735_" class="st5" d="M1323.9,961.2c-6.6-3.8-11.4-6.5-18.7-10.8c-1.1-0.7-2.6-0.7-3.7,0
					c-7.5,4.2-12.3,7-19,10.7c-2.5,1.4-2.5,5.1,0,6.5c6.6,3.8,11.4,6.5,18.7,10.8c1.1,0.7,2.6,0.7,3.7,0c7.5-4.2,12.3-7,19-10.7
					C1326.4,966.3,1326.4,962.7,1323.9,961.2z"/>
				<path id="XMLID_736_" class="st5" d="M1285.1,938.9c-6.6-3.8-11.4-6.5-18.7-10.8c-1.1-0.7-2.6-0.7-3.7,0
					c-7.5,4.2-12.3,7-19,10.7c-2.5,1.4-2.5,5.1,0,6.5c6.6,3.8,11.4,6.5,18.7,10.8c1.1,0.7,2.6,0.7,3.7,0c7.5-4.2,12.3-7,19-10.7
					C1287.6,944,1287.6,940.4,1285.1,938.9z"/>
				<path id="XMLID_737_" class="st5" d="M1246.3,916.6c-6.6-3.8-11.4-6.5-18.7-10.8c-1.1-0.7-2.6-0.7-3.7,0
					c-7.5,4.2-12.3,7-19,10.7c-2.5,1.4-2.5,5.1,0,6.5c6.6,3.8,11.4,6.5,18.7,10.8c1.1,0.7,2.6,0.7,3.7,0c7.5-4.2,12.3-7,19-10.7
					C1248.7,921.7,1248.8,918.1,1246.3,916.6z"/>
				<path id="XMLID_741_" class="st5" d="M1165.9,900.8c6.6,3.8,11.4,6.5,18.7,10.8c1.1,0.7,2.6,0.7,3.7,0c7.5-4.2,12.3-7,19-10.7
					c2.5-1.4,2.5-5.1,0-6.5c-6.6-3.8-11.4-6.5-18.7-10.8c-1.1-0.7-2.6-0.7-3.7,0c-7.5,4.2-12.3,7-19,10.7
					C1163.4,895.7,1163.4,899.4,1165.9,900.8z"/>
				<path id="XMLID_742_" class="st5" d="M1127.1,878.5c6.6,3.8,11.4,6.5,18.7,10.8c1.1,0.7,2.6,0.7,3.7,0c7.5-4.2,12.3-7,19-10.7
					c2.5-1.4,2.5-5.1,0-6.5c-6.6-3.8-11.4-6.5-18.7-10.8c-1.1-0.7-2.6-0.7-3.7,0c-7.5,4.2-12.3,7-19,10.7
					C1124.6,873.4,1124.6,877.1,1127.1,878.5z"/>
				<path id="XMLID_743_" class="st5" d="M1088.3,856.2c6.6,3.8,11.4,6.5,18.7,10.8c1.1,0.7,2.6,0.7,3.7,0c7.5-4.2,12.3-7,19-10.7
					c2.5-1.4,2.5-5.1,0-6.5c-6.6-3.8-11.4-6.5-18.7-10.8c-1.1-0.7-2.6-0.7-3.7,0c-7.5,4.2-12.3,7-19,10.7
					C1085.8,851.1,1085.7,854.8,1088.3,856.2z"/>
				<path id="XMLID_744_" class="st5" d="M1049.4,833.9c6.6,3.8,11.4,6.5,18.7,10.8c1.1,0.7,2.6,0.7,3.7,0l19-10.8
					c2.5-1.4,2.5-5.1,0-6.5c-6.6-3.8-11.4-6.5-18.7-10.8c-1.1-0.7-2.6-0.7-3.7,0c-7.5,4.2-12.3,7-19,10.7
					C1046.9,828.8,1046.9,832.5,1049.4,833.9z"/>
				<path id="XMLID_745_" class="st5" d="M1010.6,811.6c6.6,3.8,11.4,6.5,18.7,10.8c1.1,0.7,2.6,0.7,3.7,0c7.5-4.2,12.3-7,19-10.7
					c2.5-1.4,2.5-5.1,0-6.5c-6.6-3.8-11.4-6.5-18.7-10.8c-1.1-0.7-2.6-0.7-3.7,0c-7.5,4.2-12.3,7-19,10.7
					C1008.1,806.5,1008.1,810.2,1010.6,811.6z"/>
				<path id="XMLID_746_" class="st5" d="M971.8,789.3c6.6,3.8,11.4,6.5,18.7,10.8c1.1,0.7,2.6,0.7,3.7,0c7.5-4.2,12.3-7,19-10.7
					c2.5-1.4,2.5-5.1,0-6.5c-6.6-3.8-11.4-6.5-18.7-10.8c-1.1-0.7-2.6-0.7-3.7,0c-7.5,4.2-12.3,7-19,10.7
					C969.3,784.2,969.3,787.9,971.8,789.3z"/>
				<path id="XMLID_747_" class="st5" d="M955.4,777.8c7.5-4.2,12.3-7,19-10.7c2.5-1.4,2.6-5,0.1-6.5c-14.3-8.2-43.2-24.8-57.6-33.1
					c-1.1-0.7-2.6-0.6-3.7,0c-7.5,4.2-12.3,7-19,10.7c-2.5,1.4-2.6,5-0.1,6.5c18,10.3,47.5,27.3,57.6,33.1
					C952.9,778.5,954.3,778.4,955.4,777.8z"/>
				<path id="XMLID_748_" class="st5" d="M1264.1,971.5c-7.5,4.2-12.3,7-19,10.7c-2.5,1.4-2.5,5.1,0,6.5c5.6,3.2,10,5.7,15.7,9l0,0
					c16.8,9.7,25.6,14.7,41.8,24c1.1,0.7,2.6,0.7,3.7,0c7.5-4.2,12.3-7,19-10.7c2.5-1.4,2.5-5.1,0-6.5
					c-13.1-7.5-21.5-12.4-35.3-20.3c-8.5-4.9-13.7-7.8-22.3-12.8C1266.7,970.9,1265.2,970.9,1264.1,971.5z"/>
				<path id="XMLID_749_" class="st5" d="M1225.3,949.2c-7.5,4.2-12.3,7-19,10.7c-2.5,1.4-2.5,5.1,0,6.5c6.6,3.8,11.4,6.5,18.7,10.8
					c1.1,0.7,2.6,0.7,3.7,0c7.5-4.2,12.3-7,19-10.7c2.5-1.4,2.5-5.1,0-6.5c-6.6-3.8-11.4-6.5-18.7-10.8
					C1227.9,948.6,1226.4,948.6,1225.3,949.2z"/>
				<path id="XMLID_750_" class="st5" d="M1208.9,937.7c-6.6-3.8-11.4-6.5-18.7-10.8c-1.1-0.7-2.6-0.7-3.7,0
					c-7.5,4.2-12.3,7-19,10.7c-2.5,1.4-2.5,5.1,0,6.5c6.6,3.8,11.4,6.5,18.7,10.8c1.1,0.7,2.6,0.7,3.7,0c7.5-4.2,12.3-7,19-10.7
					C1211.4,942.8,1211.4,939.2,1208.9,937.7z"/>
				<path id="XMLID_751_" class="st5" d="M1170.1,915.4c-6.6-3.8-11.4-6.5-18.7-10.8c-1.1-0.7-2.6-0.7-3.7,0
					c-7.5,4.2-12.3,7-19,10.7c-2.5,1.4-2.5,5.1,0,6.5c6.6,3.8,11.4,6.5,18.7,10.8c1.1,0.7,2.6,0.7,3.7,0c7.5-4.2,12.3-7,19-10.7
					C1172.6,920.5,1172.6,916.9,1170.1,915.4z"/>
				<path id="XMLID_752_" class="st5" d="M1131.3,893.1c-6.6-3.8-11.4-6.5-18.7-10.8c-1.1-0.7-2.6-0.7-3.7,0
					c-7.5,4.2-12.3,7-19,10.7c-2.5,1.4-2.5,5.1,0,6.5c6.6,3.8,11.4,6.5,18.7,10.8c1.1,0.7,2.6,0.7,3.7,0c7.5-4.2,12.3-7,19-10.7
					C1133.8,898.2,1133.8,894.6,1131.3,893.1z"/>
				<path id="XMLID_753_" class="st5" d="M1092.4,870.8c-6.6-3.8-11.4-6.5-18.7-10.8c-1.1-0.7-2.6-0.7-3.7,0
					c-7.5,4.2-12.3,7-19,10.7c-2.5,1.4-2.5,5.1,0,6.5c6.6,3.8,11.4,6.5,18.7,10.8c1.1,0.7,2.6,0.7,3.7,0c7.5-4.2,12.3-7,19-10.7
					C1094.9,875.9,1094.9,872.3,1092.4,870.8z"/>
				<path id="XMLID_754_" class="st5" d="M1053.6,848.5c-6.6-3.8-11.4-6.5-18.7-10.8c-1.1-0.7-2.6-0.7-3.7,0
					c-7.5,4.2-12.3,7-19,10.7c-2.5,1.4-2.5,5.1,0,6.5c6.6,3.8,11.4,6.5,18.7,10.8c1.1,0.7,2.6,0.7,3.7,0c7.5-4.2,12.3-7,19-10.7
					C1056.1,853.6,1056.1,850,1053.6,848.5z"/>
				<path id="XMLID_755_" class="st5" d="M973.3,832.7c6.6,3.8,11.4,6.5,18.7,10.8c1.1,0.7,2.6,0.7,3.7,0c7.5-4.2,12.3-7,19-10.7
					c2.5-1.4,2.5-5.1,0-6.5c-6.6-3.8-11.4-6.5-18.7-10.8c-1.1-0.7-2.6-0.7-3.7,0c-7.5,4.2-12.3,7-19,10.7
					C970.8,827.6,970.8,831.3,973.3,832.7z"/>
				<path id="XMLID_756_" class="st5" d="M934.4,810.4c6.6,3.8,11.4,6.5,18.7,10.8c1.1,0.7,2.6,0.7,3.7,0c7.5-4.2,12.3-7,19-10.7
					c2.5-1.4,2.5-5.1,0-6.5c-6.6-3.8-11.4-6.5-18.7-10.8c-1.1-0.7-2.6-0.7-3.7,0c-7.5,4.2-12.3,7-19,10.7
					C931.9,805.3,931.9,809,934.4,810.4z"/>
				<path id="XMLID_757_" class="st5" d="M895.6,788.1c6.6,3.8,11.4,6.5,18.7,10.8c1.1,0.7,2.6,0.7,3.7,0c7.5-4.2,12.3-7,19-10.7
					c2.5-1.4,2.5-5.1,0-6.5c-6.6-3.8-11.4-6.5-18.7-10.8c-1.1-0.7-2.6-0.7-3.7,0c-7.5,4.2-12.3,7-19,10.7
					C893.1,783,893.1,786.7,895.6,788.1z"/>
				<path id="XMLID_758_" class="st5" d="M898.3,759.3c-6.6-3.8-11.4-6.5-18.7-10.8c-1.1-0.7-2.6-0.7-3.7,0c-7.5,4.2-12.3,7-19,10.7
					c-2.5,1.4-2.5,5.1,0,6.5c6.6,3.8,11.4,6.5,18.7,10.8c1.1,0.7,2.6,0.7,3.7,0c7.5-4.2,12.3-7,19-10.7
					C900.8,764.4,900.8,760.8,898.3,759.3z"/>
				<path id="XMLID_759_" class="st5" d="M1246.6,1032.2c6.6,3.8,11.4,6.5,18.7,10.8c1.1,0.7,2.6,0.7,3.7,0c7.5-4.2,12.3-7,19-10.7
					c2.5-1.4,2.5-5.1,0-6.5c-6.6-3.8-11.4-6.5-18.7-10.8c-1.1-0.7-2.6-0.7-3.7,0c-7.5,4.2-12.3,7-19,10.7
					C1244.1,1027.1,1244.1,1030.7,1246.6,1032.2z"/>
				<path id="XMLID_760_" class="st5" d="M1249.2,1003.4c-6.6-3.8-11.4-6.5-18.7-10.8c-1.1-0.7-2.6-0.7-3.7,0
					c-7.5,4.2-12.3,7-19,10.7c-2.5,1.4-2.5,5.1,0,6.5c6.6,3.8,11.4,6.5,18.7,10.8c1.1,0.7,2.6,0.7,3.7,0c7.5-4.2,12.3-7,19-10.7
					C1251.7,1008.5,1251.8,1004.9,1249.2,1003.4z"/>
				<path id="XMLID_761_" class="st5" d="M1210.4,981.1c-6.6-3.8-11.4-6.5-18.7-10.8c-1.1-0.7-2.6-0.7-3.7,0
					c-7.5,4.2-12.3,7-19,10.7c-2.5,1.4-2.5,5.1,0,6.5c6.6,3.8,11.4,6.5,18.7,10.8c1.1,0.7,2.6,0.7,3.7,0c7.5-4.2,12.3-7,19-10.7
					C1212.9,986.2,1212.9,982.6,1210.4,981.1z"/>
				<path id="XMLID_764_" class="st5" d="M1171.6,958.8c-6.6-3.8-11.4-6.5-18.7-10.8c-1.1-0.7-2.6-0.7-3.7,0
					c-7.5,4.2-12.3,7-19,10.7c-2.5,1.4-2.5,5.1,0,6.5c6.6,3.8,11.4,6.5,18.7,10.8c1.1,0.7,2.6,0.7,3.7,0c7.5-4.2,12.3-7,19-10.7
					C1174.1,963.9,1174.1,960.3,1171.6,958.8z"/>
				<path id="XMLID_765_" class="st5" d="M1132.8,936.5c-6.6-3.8-11.4-6.5-18.7-10.8c-1.1-0.7-2.6-0.7-3.7,0
					c-7.5,4.2-12.3,7-19,10.7c-2.5,1.4-2.5,5.1,0,6.5c6.6,3.8,11.4,6.5,18.7,10.8c1.1,0.7,2.6,0.7,3.7,0c7.5-4.2,12.3-7,19-10.7
					C1135.3,941.6,1135.3,938,1132.8,936.5z"/>
				<path id="XMLID_766_" class="st5" d="M1093.9,914.2c-6.6-3.8-11.4-6.5-18.7-10.8c-1.1-0.7-2.6-0.7-3.7,0
					c-7.5,4.2-12.3,7-19,10.7c-2.5,1.4-2.5,5.1,0,6.5c6.6,3.8,11.4,6.5,18.7,10.8c1.1,0.7,2.6,0.7,3.7,0c7.5-4.2,12.3-7,19-10.7
					C1096.4,919.3,1096.4,915.7,1093.9,914.2z"/>
				<path id="XMLID_767_" class="st5" d="M1055.1,891.9c-6.6-3.8-11.4-6.5-18.7-10.8c-1.1-0.7-2.6-0.7-3.7,0
					c-7.5,4.2-12.3,7-19,10.7c-2.5,1.4-2.5,5.1,0,6.5c6.6,3.8,11.4,6.5,18.7,10.8c1.1,0.7,2.6,0.7,3.7,0c7.5-4.2,12.3-7,19-10.7
					C1057.6,897,1057.6,893.4,1055.1,891.9z"/>
				<path id="XMLID_768_" class="st5" d="M1016.3,869.6c-6.6-3.8-11.4-6.5-18.7-10.8c-1.1-0.7-2.6-0.7-3.7,0
					c-7.5,4.2-12.3,7-19,10.7c-2.5,1.4-2.5,5.1,0,6.5c6.6,3.8,11.4,6.5,18.7,10.8c1.1,0.7,2.6,0.7,3.7,0c7.5-4.2,12.3-7,19-10.7
					C1018.8,874.7,1018.8,871.1,1016.3,869.6z"/>
				<path id="XMLID_769_" class="st5" d="M977.4,847.3c-6.6-3.8-11.4-6.5-18.7-10.8c-1.1-0.7-2.6-0.7-3.7,0c-7.5,4.2-12.3,7-19,10.7
					c-2.5,1.4-2.5,5.1,0,6.5c6.6,3.8,11.4,6.5,18.7,10.8c1.1,0.7,2.6,0.7,3.7,0c7.5-4.2,12.3-7,19-10.7
					C979.9,852.4,980,848.8,977.4,847.3z"/>
				<path id="XMLID_770_" class="st5" d="M919.6,842.3c7.5-4.2,12.3-7,19-10.7c2.5-1.4,2.5-5.1,0-6.5c-6.6-3.8-11.4-6.5-18.7-10.8
					c-1.1-0.7-2.6-0.7-3.7,0c-7.5,4.2-12.3,7-19,10.7c-2.5,1.4-2.5,5.1,0,6.5c6.6,3.8,11.4,6.5,18.7,10.8
					C917,842.9,918.4,842.9,919.6,842.3z"/>
				<path id="XMLID_771_" class="st5" d="M835.8,796.3c16.6,9.5,25.2,14.5,41.2,23.7c1.1,0.7,2.6,0.7,3.7,0c7.5-4.2,12.3-7,19-10.7
					c2.5-1.4,2.5-5.1,0-6.5c-12.3-7.1-20.5-11.8-33.1-19h0c-9.9-5.7-15.1-8.7-24.4-14c-1.1-0.7-2.6-0.7-3.7,0
					c-7.5,4.2-12.3,7-19,10.7c-2.5,1.4-2.5,5.1,0,6.5C825.3,790.3,829.7,792.8,835.8,796.3L835.8,796.3z"/>
				<path id="XMLID_772_" class="st5" d="M1204.1,1056.2c6.6,3.8,11.4,6.5,18.7,10.8c1.1,0.7,2.6,0.7,3.7,0c7.5-4.2,12.3-7,19-10.7
					c2.5-1.4,2.5-5.1,0-6.5c-6.6-3.8-11.4-6.5-18.7-10.8c-1.1-0.7-2.6-0.7-3.7,0c-7.5,4.2-12.3,7-19,10.7
					C1201.6,1051.1,1201.6,1054.8,1204.1,1056.2z"/>
				<path id="XMLID_773_" class="st5" d="M1184.3,1016.7c-7.5,4.2-12.3,7-19,10.7c-2.5,1.4-2.5,5.1,0,6.5
					c6.6,3.8,11.4,6.5,18.7,10.8c1.1,0.7,2.6,0.7,3.7,0c7.5-4.2,12.3-7,19-10.7c2.5-1.4,2.5-5.1,0-6.5c-6.6-3.8-11.4-6.5-18.7-10.8
					C1186.9,1016,1185.4,1016,1184.3,1016.7z"/>
				<path id="XMLID_774_" class="st5" d="M1145.5,994.4c-7.5,4.2-12.3,7-19,10.7c-2.5,1.4-2.5,5.1,0,6.5c6.6,3.8,11.4,6.5,18.7,10.8
					c1.1,0.7,2.6,0.7,3.7,0c7.5-4.2,12.3-7,19-10.7c2.5-1.4,2.5-5.1,0-6.5c-6.6-3.8-11.4-6.5-18.7-10.8
					C1148,993.7,1146.6,993.7,1145.5,994.4z"/>
				<path id="XMLID_775_" class="st5" d="M912.5,860.6c-7.5,4.2-12.3,7-19,10.7c-2.5,1.4-2.5,5.1,0,6.5
					c71,40.8,142,81.5,212.9,122.3c1.1,0.7,2.6,0.6,3.7,0c7.5-4.2,12.3-7,19-10.7c2.5-1.4,2.5-5.1,0-6.5
					c-71-40.8-142-81.5-212.9-122.3C915,859.9,913.6,859.9,912.5,860.6z"/>
				<path id="XMLID_776_" class="st5" d="M873.6,838.3c-7.5,4.2-12.3,7-19,10.7c-2.5,1.4-2.5,5.1,0,6.5c6.6,3.8,11.4,6.5,18.7,10.8
					c1.1,0.7,2.6,0.7,3.7,0c7.5-4.2,12.3-7,19-10.7c2.5-1.4,2.5-5.1,0-6.5c-6.6-3.8-11.4-6.5-18.7-10.8
					C876.2,837.6,874.8,837.6,873.6,838.3z"/>
				<path id="XMLID_777_" class="st5" d="M834.8,816c-7.5,4.2-12.3,7-19,10.7c-2.5,1.4-2.5,5.1,0,6.5c6.6,3.8,11.4,6.5,18.7,10.8
					c1.1,0.7,2.6,0.7,3.7,0c7.5-4.2,12.3-7,19-10.7c2.5-1.4,2.5-5.1,0-6.5c-6.6-3.8-11.4-6.5-18.7-10.8
					C837.4,815.3,836,815.3,834.8,816z"/>
				<path id="XMLID_778_" class="st5" d="M796,793.7c-7.5,4.2-12.3,7-19,10.7c-2.5,1.4-2.5,5.1,0,6.5c6.6,3.8,11.4,6.5,18.7,10.8
					c1.1,0.7,2.6,0.7,3.7,0c7.5-4.2,12.3-7,19-10.7c2.5-1.4,2.5-5.1,0-6.5c-6.6-3.8-11.4-6.5-18.7-10.8
					C798.6,793,797.1,793,796,793.7z"/>
			</g>
			<path id="XMLID_447_" class="st5" d="M1062.5,1008.8L888.5,908.4c-1.2-0.7-2.7-0.7-3.8,0.1l-96.4,59.4c-2.4,1.5-2.4,5,0.1,6.4
				l173.9,100.5c1.2,0.7,2.7,0.7,3.8-0.1l96.4-59.4C1065,1013.8,1064.9,1010.3,1062.5,1008.8z"/>
		</g>
		<path id="XMLID_465_" class="st5" d="M1493.4,506.5l-488.5-286.2c-5-2.9-9.4-3.2-12.6-1.2c0,0,0,0,0,0l-19,10.4l14.4,4.5l-1.6,394
			c-0.1,10.5,7.6,23.5,17,29.1l482.4,282.6l4.1,22l13.8-7.8c3.3-1.5,5.4-5.2,5.4-10.7l1.6-407.6C1510.5,525,1502.8,512,1493.4,506.5
			z"/>
		<path id="XMLID_725_" class="st5" d="M967,653.9l1.6-414.2c0.1-10.5,7.8-14.5,17.2-9l488.5,286.2c9.5,5.5,17.1,18.6,17,29.1
			l-1.6,415.7L967,653.9z"/>
		<polygon id="XMLID_722_" class="st11" points="1470.1,931.1 986.6,647.9 988.2,253.2 1471.6,536.4 		"/>
	</g>
	<g id="XMLID_575_">
		<g id="XMLID_27_">
			
				<linearGradient id="XMLID_12_" gradientUnits="userSpaceOnUse" x1="1225.2867" y1="545.3762" x2="1225.2867" y2="821.4854" gradientTransform="matrix(0.9997 2.500000e-02 -2.500000e-02 0.9997 16.3077 -45.3866)">
				<stop  offset="0" style="stop-color:#504F6F"/>
				<stop  offset="1" style="stop-color:#171726"/>
			</linearGradient>
			<polygon id="XMLID_677_" class="st12" points="1259,822.1 1182.7,779 1188.5,546.6 1265.8,548.5 			"/>
			
				<linearGradient id="XMLID_13_" gradientUnits="userSpaceOnUse" x1="1291.527" y1="848.3899" x2="1291.527" y2="531.517" gradientTransform="matrix(0.9997 2.500000e-02 -2.500000e-02 0.9997 16.3077 -45.3866)">
				<stop  offset="0" style="stop-color:#504F6F"/>
				<stop  offset="1" style="stop-color:#171726"/>
			</linearGradient>
			<polygon id="XMLID_684_" class="st13" points="1259,822.1 1314.9,792.6 1320.9,549.9 1265.8,548.5 			"/>
			<g id="XMLID_693_">
				
					<linearGradient id="XMLID_14_" gradientUnits="userSpaceOnUse" x1="1319.1199" y1="364.5032" x2="1381.3246" y2="476.7234" gradientTransform="matrix(0.9997 2.500000e-02 -2.500000e-02 0.9997 16.3077 -45.3866)">
					<stop  offset="0" style="stop-color:#171726"/>
					<stop  offset="0.5714" style="stop-color:#504F6F"/>
					<stop  offset="1" style="stop-color:#171726"/>
				</linearGradient>
				<path id="XMLID_678_" class="st14" d="M1289.9,373.5l30.9-18.8c18-10.9,41.3-7.3,55,8.7l3,3.5c10,11.6,17.7,25,22.8,39.4l0,0
					c6.1,17.5,0.3,37-14.4,48.4l-40.3,31L1289.9,373.5z"/>
				
					<linearGradient id="XMLID_15_" gradientUnits="userSpaceOnUse" x1="1069.9183" y1="338.6844" x2="1277.4747" y2="764.2383" gradientTransform="matrix(0.9997 2.500000e-02 -2.500000e-02 0.9997 16.3077 -45.3866)">
					<stop  offset="0" style="stop-color:#FFDD00"/>
					<stop  offset="0.4532" style="stop-color:#FDC142"/>
					<stop  offset="0.7931" style="stop-color:#FFDD00"/>
				</linearGradient>
				<path id="XMLID_676_" class="st15" d="M867.7,415.8c0,0,144.8,31.9,261.3-31.6c49.2-26.8,83.9-45.8,107.5-58.8
					c25.7-14.1,57.7-8.5,77.1,13.5l38.8,44.3c25.8,29.4,40.4,67.3,38.9,106.4c-0.7,18.8-5,38.2-15.8,54.8L1247.4,619
					c0,0-130.4,60.6-155.9,215.2l-36.7-220L867.7,415.8z"/>
				<g id="XMLID_688_">
					
						<linearGradient id="XMLID_16_" gradientUnits="userSpaceOnUse" x1="1069.66" y1="188.3515" x2="686.7428" y2="188.3515" gradientTransform="matrix(0.8822 -0.4709 0.4709 0.8822 14.4695 924.2134)">
						<stop  offset="0" style="stop-color:#FDC142"/>
						<stop  offset="1" style="stop-color:#FFDD00"/>
					</linearGradient>
					<path id="XMLID_685_" class="st16" d="M1046.8,586.7c77.6,145.4,64.9,303.7-28.4,353.5C925.2,989.9,786.6,912.4,709,767
						c-77.6-145.4-64.9-303.7,28.4-353.5C830.6,363.7,969.2,441.3,1046.8,586.7z"/>
				</g>
				
					<linearGradient id="XMLID_17_" gradientUnits="userSpaceOnUse" x1="1023.5562" y1="183.2812" x2="714.9386" y2="183.2812" gradientTransform="matrix(0.8822 -0.4709 0.4709 0.8822 14.4695 924.2134)">
					<stop  offset="0" style="stop-color:#FFDD00"/>
					<stop  offset="1" style="stop-color:#FDC142"/>
				</linearGradient>
				<path id="XMLID_692_" class="st17" d="M1003.8,603.9c62.6,117.2,52.3,244.7-22.9,284.9c-75.2,40.1-186.8-22.3-249.4-139.5
					c-62.6-117.2-52.3-244.7,22.9-284.9C829.5,424.2,941.2,486.7,1003.8,603.9z"/>
			</g>
			
				<linearGradient id="XMLID_19_" gradientUnits="userSpaceOnUse" x1="1099.6898" y1="172.741" x2="791.07" y2="172.741" gradientTransform="matrix(0.8822 -0.4709 0.4709 0.8822 14.4695 924.2134)">
				<stop  offset="0" style="stop-color:#FFDD00"/>
				<stop  offset="1" style="stop-color:#FDC142"/>
			</linearGradient>
			<path id="XMLID_698_" class="st18" d="M1003.8,603.9c-59.6-111.7-163.8-173.6-238.6-144.4c-29,58.5-22.2,149.7,23.5,235.3
				c59.6,111.7,163.8,173.6,238.6,144.4C1056.3,780.7,1049.5,689.6,1003.8,603.9z"/>
			
				<linearGradient id="XMLID_20_" gradientUnits="userSpaceOnUse" x1="1028.9351" y1="761.7831" x2="861.799" y2="494.3095" gradientTransform="matrix(0.9997 2.500000e-02 -2.500000e-02 0.9997 16.3077 -45.3866)">
				<stop  offset="0" style="stop-color:#171726"/>
				<stop  offset="0.3054" style="stop-color:#504F6F"/>
				<stop  offset="0.7537" style="stop-color:#1A1A2A"/>
				<stop  offset="1" style="stop-color:#171726"/>
			</linearGradient>
			<path id="XMLID_702_" class="st19" d="M965.8,621.8c23.1,43.3,19.3,90.4-8.4,105.3l83.1-18c-5.9-34.2-18-70.1-36.7-105.2
				c-16.8-31.5-37.2-59.1-59.5-81.7l-70.7,48C901.4,555.4,942.7,578.5,965.8,621.8z"/>
			<g id="XMLID_695_">
				
					<linearGradient id="XMLID_28_" gradientUnits="userSpaceOnUse" x1="981.6469" y1="181.1442" x2="867.604" y2="181.1442" gradientTransform="matrix(0.8822 -0.4709 0.4709 0.8822 14.4695 924.2134)">
					<stop  offset="0" style="stop-color:#504F6F"/>
					<stop  offset="1" style="stop-color:#171726"/>
				</linearGradient>
				<path id="XMLID_697_" class="st20" d="M965.8,621.8c23.1,43.3,19.3,90.4-8.4,105.3c-27.8,14.8-69-8.3-92.2-51.6
					c-23.1-43.3-19.3-90.4,8.4-105.3C901.4,555.4,942.7,578.5,965.8,621.8z"/>
			</g>
		</g>
		
			<linearGradient id="XMLID_29_" gradientUnits="userSpaceOnUse" x1="1232.2212" y1="373.6589" x2="1323.4731" y2="538.2817" gradientTransform="matrix(0.9997 2.500000e-02 -2.500000e-02 0.9997 16.3077 -45.3866)">
			<stop  offset="0" style="stop-color:#171726"/>
			<stop  offset="0.5714" style="stop-color:#504F6F"/>
			<stop  offset="1" style="stop-color:#171726"/>
		</linearGradient>
		<path id="XMLID_669_" class="st21" d="M1391.4,489.6c1.5-39.1-13.2-77-38.9-106.4l-38.8-44.3c-19.3-22-51.4-27.7-77.1-13.5
			c-21.4,11.8-52,28.6-94.4,51.7c5,3.8,9.7,8,13.9,12.9l58.4,66.6c36,41,57.6,93.2,58.6,147.5l102.4-59.6
			C1386.4,527.9,1390.6,508.4,1391.4,489.6z"/>
	</g>
	<g id="XMLID_701_">
		<g id="XMLID_704_">
			<path id="XMLID_715_" class="st5" d="M782.9,80.5l-21.5-8.8c-11.4-4.7-21.5-1.9-27.4,5.9L713.2,87l15,18.8l-0.3,20.6l0,0.5
				l1.8,1.4c13.4,10.3,25.4,17.5,35.8,22.6l21.7,25.8l27-14.9l0.2,0.1l0.4-30.5C815.2,110.6,800.8,87.8,782.9,80.5z"/>
			<path id="XMLID_714_" class="st22" d="M782.9,80.5l-21.5-8.8c-11.4-4.7-21.5-1.9-27.4,5.9L713.2,87l15,18.8l-0.3,20.6l0,0.5
				l1.8,1.4c13.4,10.3,25.4,17.5,35.8,22.6l21.7,25.8l27-14.9l0.2,0.1l0.4-30.5C815.2,110.6,800.8,87.8,782.9,80.5z"/>
			<g id="XMLID_711_">
				<g id="XMLID_712_">
					<path id="XMLID_713_" class="st5" d="M755.9,95.4l-21.5-8.8c-17.9-7.3-32.7,3.6-33,24.3l-0.4,30.5l0,0.5l1.8,1.4
						c17,13.2,31.9,21.3,44.1,26.3c23.9,9.8,37.9,7.6,38.7,7.4l1.7-0.3l0.2,0.1l0.4-30.5C788.2,125.6,773.8,102.8,755.9,95.4"/>
				</g>
			</g>
			<g id="XMLID_705_">
				<path id="XMLID_710_" class="st5" d="M797.9,55.1c0.2-16.2-11-34-25-39.7c-7-2.9-13.4-2.2-18.1,1.3L730.7,30l29.6,59.5
					l17.8-10.2l10.4-5.3C794.1,70.8,797.8,64.2,797.9,55.1z"/>
				<path id="XMLID_709_" class="st22" d="M797.9,55.1c0.2-16.2-11-34-25-39.7c-7-2.9-13.4-2.2-18.1,1.3L730.7,30l29.6,59.5
					l17.8-10.2l10.4-5.3C794.1,70.8,797.8,64.2,797.9,55.1z"/>
				<g id="XMLID_706_">
					<g id="XMLID_707_">
						<path id="XMLID_708_" class="st5" d="M745.1,89c14,5.7,25.6-2.7,25.8-19c0.2-16.2-11-34-25-39.7c-14-5.7-25.6,2.8-25.8,19
							C719.9,65.5,731.1,83.3,745.1,89"/>
					</g>
				</g>
			</g>
		</g>
	</g>
	<g id="XMLID_124_">
		<g id="XMLID_134_">
			<path id="XMLID_549_" class="st5" d="M897.4,144.1l-21.5-8.8c-11.4-4.7-21.5-1.9-27.4,5.9l-20.7,9.4l15,18.8l-0.3,20.6l0,0.5
				l1.8,1.4c13.4,10.3,25.4,17.5,35.8,22.6l21.7,25.8l27-14.9l0.2,0.1l0.4-30.5C929.7,174.3,915.3,151.5,897.4,144.1z"/>
			<path id="XMLID_514_" class="st22" d="M897.4,144.1l-21.5-8.8c-11.4-4.7-21.5-1.9-27.4,5.9l-20.7,9.4l15,18.8l-0.3,20.6l0,0.5
				l1.8,1.4c13.4,10.3,25.4,17.5,35.8,22.6l21.7,25.8l27-14.9l0.2,0.1l0.4-30.5C929.7,174.3,915.3,151.5,897.4,144.1z"/>
			<g id="XMLID_480_">
				<g id="XMLID_481_">
					<path id="XMLID_483_" class="st5" d="M870.4,159.1l-21.5-8.8c-17.9-7.3-32.7,3.6-33,24.3l-0.4,30.5l0,0.5l1.8,1.4
						c17,13.2,31.9,21.3,44.1,26.3c23.9,9.8,37.9,7.6,38.7,7.4l1.7-0.3l0.2,0.1l0.4-30.5C902.7,189.2,888.3,166.4,870.4,159.1"/>
				</g>
			</g>
			<g id="XMLID_137_">
				<path id="XMLID_476_" class="st5" d="M912.4,118.8c0.2-16.2-11-34-25-39.7c-7-2.9-13.4-2.2-18.1,1.3l-24.1,13.3l29.6,59.5
					l17.8-10.2l10.4-5.3C908.6,134.5,912.3,127.8,912.4,118.8z"/>
				<path id="XMLID_471_" class="st22" d="M912.4,118.8c0.2-16.2-11-34-25-39.7c-7-2.9-13.4-2.2-18.1,1.3l-24.1,13.3l29.6,59.5
					l17.8-10.2l10.4-5.3C908.6,134.5,912.3,127.8,912.4,118.8z"/>
				<g id="XMLID_138_">
					<g id="XMLID_406_">
						<path id="XMLID_470_" class="st5" d="M859.6,152.7c14,5.7,25.6-2.7,25.8-19c0.2-16.2-11-34-25-39.7c-14-5.7-25.6,2.8-25.8,19
							C834.4,129.1,845.6,146.9,859.6,152.7"/>
					</g>
				</g>
			</g>
		</g>
	</g>
	<g id="XMLID_803_">
		<linearGradient id="XMLID_30_" gradientUnits="userSpaceOnUse" x1="1314.4247" y1="253.1906" x2="1501.937" y2="253.1906">
			<stop  offset="0" style="stop-color:#FFDD00"/>
			<stop  offset="1" style="stop-color:#FDC142"/>
		</linearGradient>
		<path id="XMLID_811_" class="st23" d="M1533.3,185.1c-18.8-27.7-43-48.5-68.2-58.7c-25.2-10.2-48.3-8.4-64.9,4.9
			c-33.8,27.2-30.3,95,7.9,151.2l55.4,81.5l-11.3,22.5h26.5l62.5-50.2C1575,309.2,1571.5,241.4,1533.3,185.1z M1446.1,270.4
			c-25.9-10.4-48-40.4-49.4-66.9c-1.4-26.5,18.5-39.5,44.3-29.1c25.8,10.4,48,40.4,49.4,66.9
			C1491.8,267.8,1471.9,280.8,1446.1,270.4z"/>
		
			<linearGradient id="XMLID_31_" gradientUnits="userSpaceOnUse" x1="1396.6278" y1="343.0953" x2="1470.0751" y2="343.0953" gradientTransform="matrix(1 0.4575 0 1 0 -780.9324)">
			<stop  offset="0.2711" style="stop-color:#FDC142"/>
			<stop  offset="1" style="stop-color:#FFDD00"/>
		</linearGradient>
		<path id="XMLID_812_" class="st24" d="M1423.8,203.5c-0.8-14.7,5-25.3,14.8-29.9c-24.6-8.7-43.2,4.3-41.9,29.9
			c1.4,26.4,23.5,56.4,49.4,66.9c11.5,4.6,21.8,4.6,29.6,0.9c-0.8-0.3-1.6-0.5-2.4-0.9C1447.3,260,1425.2,230,1423.8,203.5z"/>
		
			<linearGradient id="XMLID_32_" gradientUnits="userSpaceOnUse" x1="1350.3867" y1="376.0963" x2="1537.8993" y2="376.0963" gradientTransform="matrix(1 0.4575 0 1 0 -780.9324)">
			<stop  offset="0" style="stop-color:#FDC142"/>
			<stop  offset="1" style="stop-color:#FFDD00"/>
		</linearGradient>
		<path id="XMLID_802_" class="st25" d="M1506.7,185.1c-18.8-27.7-43-48.5-68.2-58.7c-25.2-10.2-48.3-8.4-64.9,4.9
			c-33.8,27.2-30.3,95,7.9,151.2l70.6,104l62.5-50.2C1548.5,309.2,1545,241.4,1506.7,185.1z M1446.1,270.4
			c-25.9-10.4-48-40.4-49.4-66.9c-1.4-26.5,18.5-39.5,44.3-29.1c25.8,10.4,48,40.4,49.4,66.9
			C1491.8,267.8,1471.9,280.8,1446.1,270.4z"/>
	</g>
	<g id="XMLID_719_">
		<path id="XMLID_96_" class="st26" d="M483.7,763.2"/>
		<g id="XMLID_716_">
			<linearGradient id="XMLID_33_" gradientUnits="userSpaceOnUse" x1="380.5318" y1="421.0359" x2="459.4793" y2="421.0359">
				<stop  offset="0" style="stop-color:#FFDD00"/>
				<stop  offset="1" style="stop-color:#FDC142"/>
			</linearGradient>
			<polygon id="XMLID_813_" class="st27" points="445.9,430.4 459.5,414 426.9,395.7 380.5,422.5 407.5,446.3 			"/>
			<linearGradient id="XMLID_34_" gradientUnits="userSpaceOnUse" x1="396.98" y1="839.4455" x2="396.98" y2="438.5255">
				<stop  offset="0" style="stop-color:#FFDD00"/>
				<stop  offset="1" style="stop-color:#FDC142"/>
			</linearGradient>
			<polygon id="XMLID_804_" class="st28" points="413.4,441.6 380.5,422.5 380.5,826 412.5,845.5 			"/>
			<linearGradient id="XMLID_35_" gradientUnits="userSpaceOnUse" x1="435.9833" y1="444.3159" x2="435.9833" y2="839.7756">
				<stop  offset="0" style="stop-color:#FFDD00"/>
				<stop  offset="1" style="stop-color:#FDC142"/>
			</linearGradient>
			<polygon id="XMLID_831_" class="st29" points="459.5,414 413.4,441.6 412.5,845.5 459.5,818.4 			"/>
		</g>
		<g id="XMLID_718_">
			<linearGradient id="XMLID_36_" gradientUnits="userSpaceOnUse" x1="465.2117" y1="509.3347" x2="544.1592" y2="509.3347">
				<stop  offset="0" style="stop-color:#504F6F"/>
				<stop  offset="1" style="stop-color:#171726"/>
			</linearGradient>
			<polygon id="XMLID_816_" class="st30" points="530.6,518.7 544.2,502.3 511.6,484 465.2,510.8 492.2,534.6 			"/>
			<linearGradient id="XMLID_37_" gradientUnits="userSpaceOnUse" x1="481.6599" y1="790.8152" x2="481.6599" y2="521.5718">
				<stop  offset="0" style="stop-color:#504F6F"/>
				<stop  offset="1" style="stop-color:#171726"/>
			</linearGradient>
			<polygon id="XMLID_815_" class="st31" points="498.1,529.9 465.2,510.8 465.2,775.4 497.2,794.9 			"/>
			<linearGradient id="XMLID_38_" gradientUnits="userSpaceOnUse" x1="520.6633" y1="522.8668" x2="520.6633" y2="790.9998">
				<stop  offset="0" style="stop-color:#504F6F"/>
				<stop  offset="1" style="stop-color:#171726"/>
			</linearGradient>
			<polygon id="XMLID_814_" class="st32" points="544.2,502.3 498.1,529.9 497.2,794.9 544.2,767.8 			"/>
		</g>
		<g id="XMLID_717_">
			<linearGradient id="XMLID_39_" gradientUnits="userSpaceOnUse" x1="553.4476" y1="427.5724" x2="632.3951" y2="427.5724">
				<stop  offset="0" style="stop-color:#FFDD00"/>
				<stop  offset="1" style="stop-color:#FDC142"/>
			</linearGradient>
			<polygon id="XMLID_819_" class="st33" points="618.8,437 632.4,420.6 599.9,402.3 553.4,429.1 580.5,452.9 			"/>
			<linearGradient id="XMLID_40_" gradientUnits="userSpaceOnUse" x1="569.8959" y1="738.8517" x2="569.8959" y2="440.9521">
				<stop  offset="0" style="stop-color:#FFDD00"/>
				<stop  offset="1" style="stop-color:#FDC142"/>
			</linearGradient>
			<polygon id="XMLID_818_" class="st34" points="586.3,448.2 553.4,429.1 553.4,723.8 585.4,743.4 			"/>
			<linearGradient id="XMLID_41_" gradientUnits="userSpaceOnUse" x1="608.8992" y1="443.2254" x2="608.8992" y2="739.0679">
				<stop  offset="0" style="stop-color:#FFDD00"/>
				<stop  offset="1" style="stop-color:#FDC142"/>
			</linearGradient>
			<polygon id="XMLID_817_" class="st35" points="632.4,420.6 586.3,448.2 585.4,743.4 632.4,716.2 			"/>
		</g>
	</g>
	<g id="XMLID_547_">
		<g id="XMLID_529_">
			<g id="XMLID_534_">
				<linearGradient id="XMLID_42_" gradientUnits="userSpaceOnUse" x1="236.5867" y1="1037.9752" x2="568.9561" y2="1037.9752">
					<stop  offset="0" style="stop-color:#397BFE"/>
					<stop  offset="1" style="stop-color:#363C70"/>
				</linearGradient>
				<path id="XMLID_540_" class="st36" d="M568.9,1035.5l0-22.1l-7.2,3.2l-131-76.5c-8.6-5-23.7-4.4-33.6,1.3l-148.2,86.1h-12.3
					v21.9l0.1-0.1c-0.3,3.4,1.6,6.7,5.8,9.2l132.4,77.3c8.6,5,23.7,4.4,33.6-1.3l152.4-88.5C565.9,1043,568.6,1039.2,568.9,1035.5
					L568.9,1035.5z"/>
				<linearGradient id="XMLID_43_" gradientUnits="userSpaceOnUse" x1="236.5867" y1="1037.9752" x2="568.9561" y2="1037.9752">
					<stop  offset="0" style="stop-color:#FDC142"/>
					<stop  offset="1" style="stop-color:#FFDD00"/>
				</linearGradient>
				<path id="XMLID_539_" class="st37" d="M568.9,1035.5l0-22.1l-7.2,3.2l-131-76.5c-8.6-5-23.7-4.4-33.6,1.3l-148.2,86.1h-12.3
					v21.9l0.1-0.1c-0.3,3.4,1.6,6.7,5.8,9.2l132.4,77.3c8.6,5,23.7,4.4,33.6-1.3l152.4-88.5C565.9,1043,568.6,1039.2,568.9,1035.5
					L568.9,1035.5z"/>
				<g id="XMLID_536_">
					<linearGradient id="XMLID_44_" gradientUnits="userSpaceOnUse" x1="236.5867" y1="1021.5195" x2="568.9561" y2="1021.5195">
						<stop  offset="0" style="stop-color:#FFDD00"/>
						<stop  offset="1" style="stop-color:#FDC142"/>
					</linearGradient>
					<path id="XMLID_538_" class="st38" d="M560.8,1025.1l-152.4,88.5c-9.9,5.8-25,6.4-33.6,1.3l-132.4-77.3
						c-8.6-5-7.6-13.8,2.4-19.6l152.4-88.5c9.9-5.8,25-6.4,33.6-1.3l132.4,77.3C571.7,1010.5,570.7,1019.3,560.8,1025.1z"/>
				</g>
			</g>
		</g>
		<g id="XMLID_515_">
			<g id="XMLID_833_">
				<path id="XMLID_834_" class="st0" d="M360.7,1014.3c4,2.6,10.2,3.3,14,1.5l1-0.5l-7.8-5.1c-2.3-1.5-5.7-1.8-7.7-0.7
					C358.2,1010.8,358.4,1012.9,360.7,1014.3z"/>
				<path id="XMLID_835_" class="st0" d="M391.4,1034.2c2.3,1.5,5.7,1.8,7.7,0.7c2-1.1,1.7-3.2-0.5-4.7l-7.8-5.1l-0.9,0.6
					C386.7,1027.8,387.4,1031.6,391.4,1034.2z"/>
				<path id="XMLID_838_" class="st0" d="M348,1043.3c19.2,11,46.4,13.6,63.9,6c11.9-5.2,17-13.7,15.6-22.6
					c-1.2-7.5,3-14.3,11.2-18.9L408,988c-8.3,4.7-20.3,6.4-33,5.2c-13-1.2-25.6,0.6-34.8,5.7C321.2,1009.5,324.5,1029.9,348,1043.3z
					 M369.8,1009.3l8,5.2l40.4-18.5l2,1.5l-40.2,18.5l4,2.6l2.4,1.6l4,2.6l33.6-22.7l2.3,1.3l-33.8,22.8l8,5.2
					c3.5,2.2,3.8,5.4,0.8,7.1c-3,1.7-8.3,1.2-11.7-1c-5.1-3.3-6-8.1-1.9-10.8l1-0.7l-4.2-2.7l-2.4-1.6l-4.2-2.7l-1.2,0.5
					c-4.9,2.2-12.7,1.4-17.8-1.9c-3.5-2.2-3.8-5.4-0.8-7.1C361.1,1006.6,366.3,1007.1,369.8,1009.3z"/>
			</g>
			<g id="XMLID_518_">
				<g id="XMLID_782_">
					<path id="XMLID_821_" class="st0" d="M405.2,989.8l5.6,3.6l19,12.3l5.6,3.6l20.7-11.5l-6.5-4.2c0.5-2.6-1.1-5.5-4.7-7.8
						c-3.6-2.3-8.3-3.5-12.6-3.4l-6.5-4.2L405.2,989.8z"/>
					<path id="XMLID_820_" class="st39" d="M405.2,989.8l5.6,3.6l19,12.3l5.6,3.6l20.7-11.5l-6.5-4.2c0.5-2.6-1.1-5.5-4.7-7.8
						c-3.6-2.3-8.3-3.5-12.6-3.4l-6.5-4.2L405.2,989.8z"/>
					<path id="XMLID_806_" class="st0" d="M437.1,1010.4c0.6,0,1.2-0.2,1.7-0.4c1.3-0.7,1.1-2.1-0.3-3l-29-18.7
						c-1.5-1-3.7-1.1-5-0.4c-0.5,0.3-0.7,0.6-0.8,1L437.1,1010.4z"/>
					<path id="XMLID_785_" class="st0" d="M418,983.5l29,18.7c1.5,1,1.6,2.3,0.3,3l0,0c-1.3,0.7-3.5,0.5-5-0.4l-29-18.7
						c-1.5-1-1.6-2.3-0.3-3l0,0C414.3,982.3,416.5,982.5,418,983.5z"/>
					<path id="XMLID_784_" class="st0" d="M426.6,978.7l29,18.7c1.5,1,1.6,2.3,0.3,3l0,0c-1.3,0.7-3.5,0.5-5-0.4l-29-18.7
						c-1.5-1-1.6-2.3-0.3-3l0,0C422.8,977.6,425.1,977.8,426.6,978.7z"/>
				</g>
				<path id="XMLID_781_" class="st0" d="M409.4,988.2l29,18.7c1.5,1,1.6,2.3,0.3,3l0,0c-1.3,0.7-3.5,0.5-5-0.4l-29-18.7
					c-1.5-1-1.6-2.3-0.3-3l0,0C405.7,987.1,408,987.3,409.4,988.2z"/>
			</g>
		</g>
	</g>
	<g id="XMLID_104_">
		<path id="XMLID_18_" class="st5" d="M707.7,169.9v109.9c0,20.4-16.6,27.4-37,15.7c-20.4-11.8-37-37.9-37-58.3V127.3l-45.7-26.3
			v109.9c0,45.6,37.1,104.1,82.7,130.4c10.5,6,20.4,9.7,29.6,11.5v15.1l32.5-19.1c0.8-0.4,1.5-0.8,2.2-1.3l0.7-0.4l-0.2,0
			c11.1-7.7,17.8-21.6,17.8-40.8V196.2L707.7,169.9z"/>
		<path id="XMLID_108_" class="st9" d="M707.7,169.9v109.9c0,20.4-16.6,27.4-37,15.7c-20.4-11.8-37-37.9-37-58.3V127.3l-45.7-26.3
			v109.9c0,45.6,37.1,104.1,82.7,130.4c10.5,6,20.4,9.7,29.6,11.5v15.1l32.5-19.1c0.8-0.4,1.5-0.8,2.2-1.3l0.7-0.4l-0.2,0
			c11.1-7.7,17.8-21.6,17.8-40.8V196.2L707.7,169.9z"/>
		<g id="XMLID_24_">
			<path id="XMLID_25_" class="st5" d="M641.2,358.6c-45.6-26.3-82.7-84.8-82.7-130.4V118.4l45.7,26.3v109.9
				c0,20.4,16.6,46.5,37,58.3c20.4,11.8,37,4.7,37-15.7V187.3l45.7,26.3v109.9C723.9,369.2,686.8,384.9,641.2,358.6z"/>
		</g>
		<linearGradient id="XMLID_45_" gradientUnits="userSpaceOnUse" x1="678.2129" y1="223.9743" x2="723.9438" y2="223.9743">
			<stop  offset="0" style="stop-color:#FDC142"/>
			<stop  offset="1" style="stop-color:#FFDD00"/>
		</linearGradient>
		<polygon id="XMLID_107_" class="st40" points="678.2,236.4 723.9,260.6 723.9,213.7 678.2,187.3 		"/>
		<linearGradient id="XMLID_46_" gradientUnits="userSpaceOnUse" x1="723.9438" y1="228.4186" x2="753.3825" y2="228.4186">
			<stop  offset="0" style="stop-color:#FDC142"/>
			<stop  offset="1" style="stop-color:#FFDD00"/>
		</linearGradient>
		<polygon id="XMLID_112_" class="st41" points="723.9,260.6 753.4,245.5 753.4,196.2 723.9,213.7 		"/>
		<linearGradient id="XMLID_47_" gradientUnits="userSpaceOnUse" x1="678.2129" y1="191.7895" x2="753.3825" y2="191.7895">
			<stop  offset="0" style="stop-color:#FDC142"/>
			<stop  offset="1" style="stop-color:#FFDD00"/>
		</linearGradient>
		<polygon id="XMLID_101_" class="st42" points="707.7,169.9 678.2,187.3 723.9,213.7 753.4,196.2 		"/>
		<linearGradient id="XMLID_48_" gradientUnits="userSpaceOnUse" x1="678.2129" y1="191.7895" x2="753.3825" y2="191.7895">
			<stop  offset="0" style="stop-color:#FDC142"/>
			<stop  offset="1" style="stop-color:#FFDD00"/>
		</linearGradient>
		<polygon id="XMLID_26_" class="st43" points="707.7,169.9 678.2,187.3 723.9,213.7 753.4,196.2 		"/>
		<linearGradient id="XMLID_49_" gradientUnits="userSpaceOnUse" x1="558.5048" y1="155.0811" x2="604.2358" y2="155.0811">
			<stop  offset="0" style="stop-color:#FDC142"/>
			<stop  offset="1" style="stop-color:#FFDD00"/>
		</linearGradient>
		<polygon id="XMLID_113_" class="st44" points="558.5,167.3 604.2,191.8 604.2,144.7 558.5,118.4 		"/>
		<linearGradient id="XMLID_50_" gradientUnits="userSpaceOnUse" x1="604.2358" y1="159.5254" x2="633.6744" y2="159.5254">
			<stop  offset="0" style="stop-color:#FDC142"/>
			<stop  offset="1" style="stop-color:#FFDD00"/>
		</linearGradient>
		<polygon id="XMLID_120_" class="st45" points="633.7,127.3 633.7,175.4 604.2,191.8 604.2,144.7 		"/>
		<linearGradient id="XMLID_51_" gradientUnits="userSpaceOnUse" x1="558.5048" y1="122.8175" x2="633.6744" y2="122.8175">
			<stop  offset="0" style="stop-color:#FDC142"/>
			<stop  offset="1" style="stop-color:#FFDD00"/>
		</linearGradient>
		<polygon id="XMLID_106_" class="st46" points="587.9,100.9 558.5,118.4 604.2,144.7 633.7,127.3 		"/>
		<linearGradient id="XMLID_52_" gradientUnits="userSpaceOnUse" x1="558.5048" y1="122.8175" x2="633.6744" y2="122.8175">
			<stop  offset="0" style="stop-color:#FDC142"/>
			<stop  offset="1" style="stop-color:#FFDD00"/>
		</linearGradient>
		<polygon id="XMLID_100_" class="st47" points="587.9,100.9 558.5,118.4 604.2,144.7 633.7,127.3 		"/>
	</g>
</g>
<g>
	<g>
		<path class="st48" d="M3000.5,176l-28.1,0V-10.8h-212.3v151.7h-31.5c-6.5,0-11.3,5.3-10.7,11.7l17.4,180.9
			c0.6,6.5,6.4,11.7,12.9,11.7h235.1c6.5,0,12.3-5.3,13-11.7l14.8-145.8C3011.7,181.3,3007,176,3000.5,176z"/>
		<g>
			<g>
				<rect x="2742.6" y="2.3" class="st0" width="212.3" height="253.6"/>
				<g>
					<rect x="2758.3" y="26.5" class="st49" width="46.5" height="55.7"/>
					<rect x="2818.6" y="26.5" class="st49" width="123.2" height="8.5"/>
					<rect x="2818.6" y="50.1" class="st49" width="123.2" height="8.5"/>
					<rect x="2818.6" y="73.7" class="st49" width="123.2" height="8.5"/>
					<rect x="2758.3" y="97.3" class="st49" width="183.5" height="8.5"/>
					<rect x="2758.3" y="120.9" class="st49" width="183.5" height="8.5"/>
					<rect x="2758.3" y="144.5" class="st49" width="183.5" height="8.5"/>
					<rect x="2758.3" y="168" class="st49" width="183.5" height="8.5"/>
					<rect x="2758.3" y="191.6" class="st49" width="183.5" height="8.5"/>
					<rect x="2758.3" y="215.2" class="st49" width="183.5" height="8.5"/>
				</g>
			</g>
			<path class="st50" d="M2978.8,346.6c-0.7,6.5-6.5,11.7-13,11.7h-235.1c-6.5,0-12.3-5.3-12.9-11.7l-17.4-180.9
				c-0.6-6.5,4.2-11.7,10.7-11.7h70.8c6.5,0,13.2,5.1,14.9,11.4l3.5,12.7c1.7,6.2,8.5,11.4,14.9,11.3l167.7-0.2
				c6.5,0,11.3,5.3,10.6,11.7L2978.8,346.6z"/>
		</g>
	</g>
	<g>
		<path class="st48" d="M3875.3,207.7h-18l14.4-24.1h-48.3l-14.4,24.1h-35.3c-4-76.9-67.6-138.1-145.5-138.1
			c-80.4,0-145.7,65.2-145.7,145.7s65.2,145.7,145.7,145.7c78.1,0,141.9-61.5,145.5-138.7h35.3l14.4,24.1h48.3l-14.4-24.1h18
			c4,0,7.3-3.3,7.3-7.3C3882.6,210.9,3879.3,207.7,3875.3,207.7z"/>
		<g>
			<g>
				<path class="st51" d="M3756.5,228.4c0,80.4-65.2,145.7-145.7,145.7c-80.4,0-145.7-65.2-145.7-145.7s65.2-145.7,145.7-145.7
					C3691.2,82.7,3756.5,147.9,3756.5,228.4z"/>
				<path class="st0" d="M3735.3,228.4c0,68.8-55.7,124.5-124.5,124.5c-68.8,0-124.5-55.7-124.5-124.5
					c0-68.8,55.7-124.5,124.5-124.5C3679.5,103.9,3735.3,159.6,3735.3,228.4z"/>
				<path class="st51" d="M3712.2,228.4c0,56-45.4,101.5-101.5,101.5c-56,0-101.5-45.4-101.5-101.5s45.4-101.5,101.5-101.5
					C3666.8,126.9,3712.2,172.4,3712.2,228.4z"/>
				<path class="st0" d="M3686.2,228.4c0,41.7-33.8,75.4-75.4,75.4c-41.7,0-75.4-33.8-75.4-75.4c0-41.7,33.8-75.4,75.4-75.4
					C3652.4,153,3686.2,186.7,3686.2,228.4z"/>
				<path class="st51" d="M3659.1,228.4c0,26.7-21.6,48.3-48.3,48.3c-26.7,0-48.3-21.6-48.3-48.3c0-26.7,21.6-48.3,48.3-48.3
					C3637.5,180.1,3659.1,201.7,3659.1,228.4z"/>
			</g>
			<g>
				<path class="st5" d="M3865.1,228c0,4-3.3,7.3-7.3,7.3h-239.8c-4,0-7.3-3.3-7.3-7.3l0,0c0-4,3.3-7.3,7.3-7.3h239.8
					C3861.9,220.8,3865.1,224,3865.1,228L3865.1,228z"/>
				<g>
					<polygon class="st5" points="3835.6,228 3787.3,228 3806,196.7 3854.3,196.7 					"/>
					<polygon class="st5" points="3835.6,228 3787.3,228 3806,259.4 3854.3,259.4 					"/>
				</g>
			</g>
		</g>
	</g>
	<g>
		<path class="st48" d="M3625.3,704.3c0-0.6,0.1-1.2,0.1-1.9V293.1c0-22.6-18.3-40.9-40.9-40.9h-656.6c-22.6,0-40.9,18.3-40.9,40.9
			v409.3c0,0.6,0.1,1.2,0.1,1.9h-55.6v17.7c0,26,21.1,47.1,47.1,47.1h755.3c26,0,47.1-21.1,47.1-47.1v-17.7H3625.3z"/>
		<g>
			<g>
				<g>
					<path class="st5" d="M3607.9,702.4c0,22.6-18.3,40.9-40.9,40.9h-656.6c-22.6,0-40.9-18.3-40.9-40.9V293.1
						c0-22.6,18.3-40.9,40.9-40.9H3567c22.6,0,40.9,18.3,40.9,40.9V702.4z"/>
					<rect x="2896.2" y="287.1" class="st52" width="685" height="421.3"/>
				</g>
				<g>
					<path class="st53" d="M2813.9,704.3v17.7c0,26,21.1,47.1,47.1,47.1h755.3c26,0,47.1-21.1,47.1-47.1v-17.7H2813.9z"/>
					<path class="st5" d="M3108.6,704.3v12.6c0,8,6.5,14.4,14.4,14.4h231.3c8,0,14.4-6.5,14.4-14.4v-12.6H3108.6z"/>
				</g>
			</g>
		</g>
	</g>
	<g>
		<path class="st48" d="M3717.6,776.2c23.3-102.8,8.4-184.2-16-243.4l0,0c0,0,0-0.1,0-0.1c-1-2.3-1.9-4.6-2.9-6.9
			c0-0.1,0-0.1-0.1-0.1c-30.5-69.8-73.2-106.6-76.1-109c-0.1-0.1-0.2-0.1-0.2-0.1s-0.1,0-0.2,0.1c-2.9,2.4-45.6,39.3-76.1,109
			c0,0,0,0.1-0.1,0.1c-1,2.3-2,4.6-2.9,6.9c0,0,0,0.1,0,0.1l0,0c-24.3,59.1-39.3,140.5-16,243.3c-20.8,14.4-65.2,56.3-41.6,142.4
			c0,0,12.7-39.2,68.1-57.5c0.3,0.7,0.6,1.3,0.8,2c1.4,3.5,2.8,7,4.3,10.5c0.7,1.7,1.4,3.3,2.1,4.9c1,2.3,2,4.5,3,6.8
			c-4.5,1.1-7.8,5.2-7.8,10c0,5.7,4.6,10.4,10.4,10.4h4c0,0-13.4,46.7,7.8,72.3c0,0-9.4-17.7,0-30.5c0,0-3.7,30.5,21.5,49.1
			c25.3,18.7,17.4,73.7,17.4,73.7s30.4-40.8,36.8-82.3c6.4-41.5,0-62.1,0-62.1s21.1,50.3,9.4,62.1c0,0,27.3-17,11.2-82.3h4
			c5.7,0,10.4-4.6,10.4-10.4c0-4.8-3.3-8.9-7.8-10c1-2.3,2-4.5,3-6.8c0.7-1.7,1.4-3.3,2.1-5c1.5-3.5,2.9-7,4.3-10.4
			c0.3-0.7,0.5-1.3,0.8-2c55.3,18.3,68,57.5,68,57.5C3782.7,832.6,3738.4,790.6,3717.6,776.2z"/>
		<g>
			<g>
				<path class="st54" d="M3552.8,905.6c0,0-13.4,46.7,7.8,72.3c0,0-9.4-17.7,0-30.5c0,0-3.7,30.5,21.5,49.1
					c25.3,18.7,17.4,73.7,17.4,73.7s30.4-40.8,36.8-82.3c6.4-41.5,0-62.1,0-62.1s21.1,50.3,9.4,62.1c0,0,27.3-17,11.2-82.3H3552.8z"
					/>
				<path class="st55" d="M3562.6,905.6c0,0-7.3,12.3-6.4,30.7c0,0,4.9-9.8,12.3-13.3c0,0-7.9,27,4.9,41.8
					c12.8,14.7,37.4,33.9,36.4,56.5c0,0,32.9-36.4,19.7-106.1c0,0,21,9.8,23.1,35.9c0,0,2.7-7.2-6.9-45.4H3562.6z"/>
			</g>
			<g>
				<g>
					<g>
						<path class="st5" d="M3519.5,770.2c0,0-81.8,37.8-51.5,148.3c0,0,15.1-46.9,84.8-62.1L3519.5,770.2z"/>
						<path class="st5" d="M3690.2,770.2c0,0,81.7,37.8,51.5,148.3c0,0-15.1-46.9-84.8-62.1L3690.2,770.2z"/>
					</g>
				</g>
				<g>
					<g>
						<g>
							<path class="st51" d="M3604.9,416.5c0,0-198.5,164-54.7,477.6h54.7h54.7C3803.4,580.4,3604.9,416.5,3604.9,416.5z"/>
							<path class="st50" d="M3525.6,532.8h158.6c-31.7-77-79.3-116.3-79.3-116.3S3557.3,455.8,3525.6,532.8z"/>
							<path class="st50" d="M3508.2,770.2c8.2,38.3,21.7,79.6,42,123.8h54.7h54.7c20.3-44.3,33.8-85.6,42-123.8H3508.2z"/>
						</g>
						<g>
							<path class="st52" d="M3671.3,632.1c0,36.7-29.7,66.4-66.4,66.4c-36.7,0-66.4-29.7-66.4-66.4c0-36.7,29.7-66.4,66.4-66.4
								C3641.5,565.7,3671.3,595.5,3671.3,632.1z"/>
							<circle class="st53" cx="3604.9" cy="632.1" r="44.3"/>
						</g>
						<path class="st51" d="M3671.3,895.2c0,5.7-4.6,10.4-10.4,10.4h-112.1c-5.7,0-10.4-4.6-10.4-10.4l0,0c0-5.7,4.6-10.4,10.4-10.4
							h112.1C3666.6,884.9,3671.3,889.5,3671.3,895.2L3671.3,895.2z"/>
					</g>
					<path class="st5" d="M3604.9,780.5c0,0,0.7,0.8,1.8,2.2c1,1.4,2.8,3.5,4.5,6.1c3.6,5.3,8,12.8,11.9,21.8c4,9,7.4,19.6,9.7,30.9
						c2.4,11.3,3.5,23.3,3.6,35.4c0,12-1.1,24.1-3.5,35.4c-2.3,11.3-5.7,21.8-9.7,30.9c-2,4.5-4,8.7-6.1,12.3
						c-2.1,3.7-4,6.9-5.8,9.5c-1.7,2.6-3.5,4.7-4.5,6.1c-1.1,1.4-1.8,2.2-1.8,2.2s-0.7-0.8-1.8-2.2c-1-1.4-2.8-3.5-4.5-6.1
						c-1.8-2.6-3.8-5.8-5.8-9.5c-2-3.7-4.1-7.8-6.1-12.3c-4-9-7.4-19.6-9.7-30.9c-2.4-11.3-3.5-23.3-3.5-35.4
						c0.1-12,1.2-24.1,3.6-35.4c2.3-11.3,5.8-21.8,9.7-30.9c3.9-9,8.3-16.6,11.9-21.8c1.7-2.6,3.5-4.7,4.5-6.1
						C3604.2,781.2,3604.9,780.5,3604.9,780.5z"/>
				</g>
			</g>
		</g>
	</g>
	<g>
		<path class="st48" d="M3260.5,116.4c-130.6,0-236.5,105.9-236.5,236.5c0,100.2,62.3,185.8,150.3,220.2v74.2
			c14.3,33.5,47.6,56.9,86.3,56.9c38.7,0,71.9-23.4,86.3-56.9v-74.2c87.9-34.5,150.2-120.1,150.2-220.2
			C3497.1,222.3,3391.2,116.4,3260.5,116.4z"/>
		<g>
			<g>
				<path class="st50" d="M3475.2,352.9c0-130.6-105.9-236.5-236.6-236.5c-130.6,0-236.5,105.9-236.5,236.5
					c0,100.2,62.3,185.8,150.3,220.2v74.2H3325v-74.2C3412.9,538.7,3475.2,453.1,3475.2,352.9z"/>
				<g>
					<g>
						<g>
							<path class="st56" d="M3130.5,387.1c15.6,17.3,26.6,39.9,36,60.8c29,64.2,38.8,136.1,39.1,205.9c0,9.5,14.8,9.5,14.7,0
								c-0.4-70.2-10.4-141.5-38.2-206.5c-10.5-24.6-23.1-50.6-41.3-70.7C3134.5,369.6,3124.1,380.1,3130.5,387.1L3130.5,387.1z"/>
						</g>
						<g>
							<path class="st56" d="M3336.5,376.7c-17.3,19.2-29.5,43.8-39.8,67.2c-28.9,65.8-39.3,138.5-39.7,210c0,9.5,14.7,9.5,14.7,0
								c0.4-69.1,10.3-138.7,37.6-202.5c9.5-22.1,21.1-46.2,37.5-64.2C3353.3,380.1,3342.9,369.6,3336.5,376.7L3336.5,376.7z"/>
						</g>
					</g>
					<g>
						<path class="st56" d="M3078.8,418.8c29.3,1,50.1,22.6,79.9,23.6c30,1,50.5-22.6,79.9-23.6c16.7-0.6,29.1,6.9,43,14.7
							c11.5,6.4,23.9,8.5,36.9,8.9c30,1,50.5-22.6,79.9-23.6c9.5-0.3,9.5-15.1,0-14.7c-29.8,1-50.6,22.6-79.9,23.6
							c-16.7,0.6-29.1-6.9-43-14.7c-11.5-6.4-23.9-8.5-36.9-8.9c-30-1-50.5,22.6-79.9,23.6c-16.7,0.6-29.1-6.9-43-14.7
							c-11.5-6.4-23.9-8.5-36.9-8.9C3069.3,403.8,3069.4,418.5,3078.8,418.8L3078.8,418.8z"/>
					</g>
				</g>
				<path class="st57" d="M3152.4,647.4c14.3,33.5,47.6,56.9,86.3,56.9c38.7,0,71.9-23.4,86.3-56.9H3152.4z"/>
			</g>
			<path class="st58" d="M3249.8,167.1c8.8,23.5-18.8,55.7-61.8,71.8c-43,16.1-84.9,10.1-93.8-13.4c-8.8-23.5,18.8-55.7,61.8-71.8
				C3198.9,137.5,3240.9,143.5,3249.8,167.1z"/>
		</g>
	</g>
	<g>
		<g class="st59">
			<rect x="3051.4" y="-19.4" class="st60" width="42.7" height="86.1"/>
			<rect x="3104.8" y="-47.1" class="st60" width="42.7" height="113.7"/>
			<rect x="3158.3" y="-73.4" class="st60" width="42.7" height="140"/>
			<rect x="3211.7" y="-95.7" class="st60" width="42.7" height="162.4"/>
			<path class="st60" d="M3266.2-165.8c-12.9,0-25.8,0-38.6,0c-7,0-7,10.9,0,10.9c6.7,0,13.4,0,20,0
				c-35.7,22.4-71.4,44.8-107.2,67.3c0-9.9,0-19.9,0-29.8c0-4.2-4.6-6.7-8.2-4.7c-32.1,18-64.1,35.9-96.2,53.9
				c-6.1,3.4-0.6,12.9,5.5,9.4c29.3-16.4,58.6-32.9,87.9-49.3c0,10.1,0,20.2,0,30.4c0,4,4.7,6.9,8.2,4.7
				c39.1-24.6,78.3-49.1,117.4-73.7c-2.9,7.7-5.9,15.5-8.8,23.2c-2.5,6.6,8,9.4,10.5,2.9c4.9-12.7,9.7-25.5,14.6-38.2
				C3272.7-162.3,3269.5-165.8,3266.2-165.8z"/>
		</g>
		<g>
			<g>
				<rect x="3038.3" y="-19.4" class="st5" width="42.7" height="86.1"/>
				<rect x="3091.7" y="-47.1" class="st51" width="42.7" height="113.7"/>
				<rect x="3145.1" y="-73.4" class="st50" width="42.7" height="140"/>
				<rect x="3198.6" y="-95.7" class="st49" width="42.7" height="162.4"/>
			</g>
			<g>
				<g>
					<path class="st5" d="M3028.4-58.8c32.1-18,64.1-35.9,96.2-53.9c-2.7-1.6-5.5-3.1-8.2-4.7c0,13.2,0,26.5,0,39.7
						c0,4,4.7,6.9,8.2,4.7c42.7-26.8,85.5-53.7,128.2-80.5c5.9-3.7,0.5-13.2-5.5-9.4c-42.7,26.8-85.5,53.7-128.2,80.5
						c2.7,1.6,5.5,3.1,8.2,4.7c0-13.2,0-26.5,0-39.7c0-4.2-4.6-6.7-8.2-4.7c-32.1,18-64.1,35.9-96.2,53.9
						C3016.8-64.8,3022.3-55.4,3028.4-58.8L3028.4-58.8z"/>
				</g>
				<path class="st5" d="M3253-165.8c-12.9,0-25.8,0-38.6,0c-7,0-7,10.9,0,10.9c10.2,0,20.5,0,30.7,0c-4,10.4-8,20.9-12,31.3
					c-2.5,6.6,8,9.4,10.5,2.9c4.9-12.7,9.7-25.5,14.6-38.2C3259.6-162.3,3256.3-165.8,3253-165.8z"/>
			</g>
		</g>
	</g>
	<g>
		<g class="st59">
			<path class="st60" d="M3586.5-46.8h-6.4c-1.7-8.9-5.2-17.2-10.1-24.5l4.5-4.5c2.7-2.7,2.7-7.2,0-9.9l-7.4-7.4
				c-2.7-2.7-7.2-2.7-9.9,0l-4.5,4.5c-7.2-4.9-15.5-8.4-24.5-10.1v-6.4c0-3.8-3.1-7-7-7h-10.5c-3.8,0-7,3.1-7,7v6.4
				c-8.9,1.7-17.2,5.2-24.5,10.1l-4.5-4.5c-2.7-2.7-7.2-2.7-9.9,0l-7.4,7.4c-2.7,2.7-2.7,7.2,0,9.9l4.5,4.5
				c-4.9,7.2-8.4,15.5-10.1,24.5h-6.4c-3.8,0-7,3.1-7,7v10.5c0,3.8,3.1,7,7,7h6.4c1.7,8.9,5.2,17.2,10.1,24.5l-4.5,4.5
				c-2.7,2.7-2.7,7.2,0,9.9l7.4,7.4c2.7,2.7,7.2,2.7,9.9,0l4.5-4.5c7.2,4.9,15.5,8.4,24.5,10.1V36c0,3.8,3.1,7,7,7h10.5
				c3.8,0,7-3.1,7-7v-6.4c8.9-1.7,17.2-5.2,24.5-10.1l4.5,4.5c2.7,2.7,7.2,2.7,9.9,0l7.4-7.4c2.7-2.7,2.7-7.2,0-9.9l-4.5-4.5
				c4.9-7.2,8.4-15.5,10.1-24.5h6.4c3.8,0,7-3.1,7-7v-10.5C3593.5-43.6,3590.4-46.8,3586.5-46.8z M3516,9.8
				c-24.5,0-44.3-19.8-44.3-44.3c0-24.5,19.8-44.3,44.3-44.3c24.5,0,44.3,19.8,44.3,44.3C3560.3-10.1,3540.5,9.8,3516,9.8z"/>
			<path class="st60" d="M3440.4,51h-3.8c-1-5.3-3.1-10.3-6-14.6l2.7-2.7c1.6-1.6,1.6-4.3,0-5.9l-4.4-4.4c-1.6-1.6-4.3-1.6-5.9,0
				l-2.7,2.7c-4.3-2.9-9.3-5-14.6-6v-3.8c0-2.3-1.9-4.2-4.2-4.2h-6.2c-2.3,0-4.2,1.9-4.2,4.2v3.8c-5.3,1-10.3,3.1-14.6,6l-2.7-2.7
				c-1.6-1.6-4.3-1.6-5.9,0l-4.4,4.4c-1.6,1.6-1.6,4.3,0,5.9l2.7,2.7c-2.9,4.3-5,9.3-6,14.6h-3.8c-2.3,0-4.2,1.9-4.2,4.2v6.2
				c0,2.3,1.9,4.2,4.2,4.2h3.8c1,5.3,3.1,10.3,6,14.6l-2.7,2.7c-1.6,1.6-1.6,4.3,0,5.9l4.4,4.4c1.6,1.6,4.3,1.6,5.9,0l2.7-2.7
				c4.3,2.9,9.3,5,14.6,6v3.8c0,2.3,1.9,4.2,4.2,4.2h6.2c2.3,0,4.2-1.9,4.2-4.2v-3.8c5.3-1,10.3-3.1,14.6-6l2.7,2.7
				c1.6,1.6,4.3,1.6,5.9,0l4.4-4.4c1.6-1.6,1.6-4.3,0-5.9l-2.7-2.7c2.9-4.3,5-9.3,6-14.6h3.8c2.3,0,4.2-1.9,4.2-4.2v-6.2
				C3444.6,52.8,3442.7,51,3440.4,51z M3398.4,77c-10.4,0-18.8-8.4-18.8-18.8s8.4-18.8,18.8-18.8c10.4,0,18.8,8.4,18.8,18.8
				S3408.8,77,3398.4,77z"/>
			<path class="st60" d="M3365.8-15.5v3.4c0,2.1,1.7,3.7,3.7,3.7h5.6c2.1,0,3.7-1.7,3.7-3.7v-3.4c4.8-0.9,9.2-2.8,13.1-5.4l2.4,2.4
				c1.5,1.5,3.8,1.5,5.3,0l4-4c1.5-1.5,1.5-3.8,0-5.3l-2.4-2.4c2.6-3.9,4.5-8.3,5.4-13.1h3.4c2.1,0,3.7-1.7,3.7-3.7v-5.6
				c0-2.1-1.7-3.7-3.7-3.7h-3.4c-0.9-4.8-2.8-9.2-5.4-13.1l2.4-2.4c1.5-1.5,1.5-3.8,0-5.3l-4-4c-1.5-1.5-3.8-1.5-5.3,0l-2.4,2.4
				c-3.9-2.6-8.3-4.5-13.1-5.4v-3.4c0-2.1-1.7-3.7-3.7-3.7h-5.6c-2.1,0-3.7,1.7-3.7,3.7v3.4c-4.8,0.9-9.2,2.8-13.1,5.4l-2.4-2.4
				c-1.5-1.5-3.8-1.5-5.3,0l-4,4c-1.5,1.5-1.5,3.8,0,5.3l2.4,2.4c-2.6,3.9-4.5,8.3-5.4,13.1h-3.4c-2.1,0-3.7,1.7-3.7,3.7v5.6
				c0,2.1,1.7,3.7,3.7,3.7h3.4c0.9,4.8,2.8,9.2,5.4,13.1l-2.4,2.4c-1.5,1.5-1.5,3.8,0,5.3l4,4c1.5,1.5,3.8,1.5,5.3,0l2.4-2.4
				C3356.6-18.2,3361-16.4,3365.8-15.5z M3348.1-49.7c0-13.4,10.8-24.2,24.2-24.2s24.2,10.8,24.2,24.2c0,13.4-10.8,24.2-24.2,24.2
				S3348.1-36.4,3348.1-49.7z"/>
		</g>
		<g>
			<path class="st50" d="M3579.6-39.8h-6.4c-1.7-8.9-5.2-17.2-10.1-24.5l4.5-4.5c2.7-2.7,2.7-7.2,0-9.9l-7.4-7.4
				c-2.7-2.7-7.2-2.7-9.9,0l-4.5,4.5c-7.2-4.9-15.5-8.4-24.5-10.1v-6.4c0-3.8-3.1-7-7-7h-10.5c-3.8,0-7,3.1-7,7v6.4
				c-8.9,1.7-17.2,5.2-24.5,10.1l-4.5-4.5c-2.7-2.7-7.2-2.7-9.9,0l-7.4,7.4c-2.7,2.7-2.7,7.2,0,9.9l4.5,4.5
				c-4.9,7.2-8.4,15.5-10.1,24.5h-6.4c-3.8,0-7,3.1-7,7v10.5c0,3.8,3.1,7,7,7h6.4c1.7,8.9,5.2,17.2,10.1,24.5l-4.5,4.5
				c-2.7,2.7-2.7,7.2,0,9.9l7.4,7.4c2.7,2.7,7.2,2.7,9.9,0l4.5-4.5c7.2,4.9,15.5,8.4,24.5,10.1V43c0,3.8,3.1,7,7,7h10.5
				c3.8,0,7-3.1,7-7v-6.4c8.9-1.7,17.2-5.2,24.5-10.1l4.5,4.5c2.7,2.7,7.2,2.7,9.9,0l7.4-7.4c2.7-2.7,2.7-7.2,0-9.9l-4.5-4.5
				c4.9-7.2,8.4-15.5,10.1-24.5h6.4c3.8,0,7-3.1,7-7v-10.5C3586.5-36.6,3583.4-39.8,3579.6-39.8z M3509,16.8
				c-24.5,0-44.3-19.8-44.3-44.3c0-24.5,19.8-44.3,44.3-44.3s44.3,19.8,44.3,44.3C3553.4-3.1,3533.5,16.8,3509,16.8z"/>
			<path class="st5" d="M3433.4,58h-3.8c-1-5.3-3.1-10.3-6-14.6l2.7-2.7c1.6-1.6,1.6-4.3,0-5.9l-4.4-4.4c-1.6-1.6-4.3-1.6-5.9,0
				l-2.7,2.7c-4.3-2.9-9.3-5-14.6-6v-3.8c0-2.3-1.9-4.2-4.2-4.2h-6.2c-2.3,0-4.2,1.9-4.2,4.2v3.8c-5.3,1-10.3,3.1-14.6,6l-2.7-2.7
				c-1.6-1.6-4.3-1.6-5.9,0l-4.4,4.4c-1.6,1.6-1.6,4.3,0,5.9l2.7,2.7c-2.9,4.3-5,9.3-6,14.6h-3.8c-2.3,0-4.2,1.9-4.2,4.2v6.2
				c0,2.3,1.9,4.2,4.2,4.2h3.8c1,5.3,3.1,10.3,6,14.6l-2.7,2.7c-1.6,1.6-1.6,4.3,0,5.9l4.4,4.4c1.6,1.6,4.3,1.6,5.9,0l2.7-2.7
				c4.3,2.9,9.3,5,14.6,6v3.8c0,2.3,1.9,4.2,4.2,4.2h6.2c2.3,0,4.2-1.9,4.2-4.2v-3.8c5.3-1,10.3-3.1,14.6-6l2.7,2.7
				c1.6,1.6,4.3,1.6,5.9,0l4.4-4.4c1.6-1.6,1.6-4.3,0-5.9l-2.7-2.7c2.9-4.3,5-9.3,6-14.6h3.8c2.3,0,4.2-1.9,4.2-4.2v-6.2
				C3437.6,59.8,3435.7,58,3433.4,58z M3391.4,84c-10.4,0-18.8-8.4-18.8-18.8c0-10.4,8.4-18.8,18.8-18.8c10.4,0,18.8,8.4,18.8,18.8
				C3410.2,75.6,3401.8,84,3391.4,84z"/>
			<path class="st51" d="M3403.1-49.3h-3.4c-0.9-4.8-2.8-9.2-5.4-13.1l2.4-2.4c1.5-1.5,1.5-3.8,0-5.3l-4-4c-1.5-1.5-3.8-1.5-5.3,0
				l-2.4,2.4c-3.9-2.6-8.3-4.5-13.1-5.4v-3.4c0-2.1-1.7-3.7-3.7-3.7h-5.6c-2.1,0-3.7,1.7-3.7,3.7v3.4c-4.8,0.9-9.2,2.8-13.1,5.4
				l-2.4-2.4c-1.5-1.5-3.8-1.5-5.3,0l-4,4c-1.5,1.5-1.5,3.8,0,5.3l2.4,2.4c-2.6,3.9-4.5,8.3-5.4,13.1h-3.4c-2.1,0-3.7,1.7-3.7,3.7
				v5.6c0,2.1,1.7,3.7,3.7,3.7h3.4c0.9,4.8,2.8,9.2,5.4,13.1l-2.4,2.4c-1.5,1.5-1.5,3.8,0,5.3l4,4c1.5,1.5,3.8,1.5,5.3,0l2.4-2.4
				c3.9,2.6,8.3,4.5,13.1,5.4V-5c0,2.1,1.7,3.7,3.7,3.7h5.6c2.1,0,3.7-1.7,3.7-3.7v-3.4c4.8-0.9,9.2-2.8,13.1-5.4l2.4,2.4
				c1.5,1.5,3.8,1.5,5.3,0l4-4c1.5-1.5,1.5-3.8,0-5.3l-2.4-2.4c2.6-3.9,4.5-8.3,5.4-13.1h3.4c2.1,0,3.7-1.7,3.7-3.7v-5.6
				C3406.8-47.6,3405.1-49.3,3403.1-49.3z M3365.3-18.5c-13.4,0-24.2-10.9-24.2-24.2S3352-67,3365.3-67s24.2,10.9,24.2,24.2
				S3378.7-18.5,3365.3-18.5z"/>
		</g>
	</g>
	<g>
		<g class="st59">
			<path class="st60" d="M2893.4,648.4c0,28.3-23,51.3-51.3,51.3c-28.3,0-51.3-23-51.3-51.3c0-28.3,23-51.3,51.3-51.3
				C2870.5,597.1,2893.4,620.1,2893.4,648.4z"/>
			<g>
				<path class="st60" d="M2755.3,608.2c4.7-4.3,3.3-3,9.5-7.3c11.3-7.9,23.7-14.5,36.6-19.2c45.6-16.8,90.9-3.9,127.5,26.6
					c21.5,17.9,52.6-12.8,30.9-30.9c-45.2-37.6-97.9-55.6-156.1-42c-28.5,6.7-57.6,22.1-79.3,42
					C2703.6,596.4,2734.6,627.2,2755.3,608.2L2755.3,608.2z"/>
			</g>
			<g>
				<path class="st60" d="M2710.2,542.9c19-17.5,48.4-33.3,75.9-42.5c67.6-22.8,134.6-2.4,188,42.5c21.4,18,52.5-12.7,30.9-30.9
					c-63.2-53.3-139.8-78.4-221.1-56.6c-37.6,10-75.8,30.1-104.5,56.6C2658.5,531.1,2689.5,562,2710.2,542.9L2710.2,542.9z"/>
			</g>
		</g>
		<g>
			<path class="st51" d="M2875.9,657.1c0,28.3-23,51.3-51.3,51.3c-28.3,0-51.3-23-51.3-51.3c0-28.3,23-51.3,51.3-51.3
				C2853,605.8,2875.9,628.8,2875.9,657.1z"/>
			<g>
				<path class="st51" d="M2737.9,616.9c4.7-4.3,3.3-3,9.5-7.3c11.3-7.9,23.7-14.5,36.6-19.2c45.6-16.8,90.9-3.9,127.5,26.6
					c21.5,17.9,52.6-12.8,30.9-30.9c-45.2-37.6-97.9-55.6-156.1-42c-28.5,6.7-57.6,22.1-79.3,42
					C2686.2,605.1,2717.1,635.9,2737.9,616.9L2737.9,616.9z"/>
			</g>
			<g>
				<path class="st51" d="M2692.7,551.6c19-17.5,48.4-33.3,75.9-42.5c67.6-22.8,134.6-2.4,188,42.5c21.4,18,52.5-12.7,30.9-30.9
					c-63.2-53.3-139.8-78.4-221.1-56.6c-37.6,10-75.8,30.1-104.5,56.6C2641,539.9,2672,570.7,2692.7,551.6L2692.7,551.6z"/>
			</g>
		</g>
	</g>
	<g>
		<path class="st48" d="M3346.6,998.8l-153.3-106.7c7.9-15.2,13-32.2,14.6-50.4c6.1-73.2-48.3-137.6-121.5-143.7
			c-73.2-6.1-137.6,48.3-143.7,121.5c-6.1,73.2,48.3,137.6,121.5,143.7c42.9,3.6,82.8-13.7,109.7-43.3l153.3,106.7
			c7.7,5.4,18.3,3.5,23.6-4.2C3356.2,1014.8,3354.3,1004.2,3346.6,998.8z"/>
		<g>
			<path class="st50" d="M3329.2,1012c7.7,5.4,9.6,15.9,4.2,23.6l0,0c-5.4,7.7-15.9,9.6-23.6,4.2L3128.9,914
				c-7.7-5.4-9.6-15.9-4.2-23.6l0,0c5.4-7.7,15.9-9.6,23.6-4.2L3329.2,1012z"/>
			<g>
				<path class="st50" d="M3190.4,854.9c-6.1,73.2-70.4,127.7-143.7,121.5c-73.2-6.1-127.7-70.4-121.5-143.7
					c6.1-73.2,70.4-127.7,143.7-121.5C3142.1,717.3,3196.5,781.6,3190.4,854.9z"/>
				<path class="st52" d="M3161.6,852.5c-4.8,57.3-55.1,99.9-112.4,95.1c-57.3-4.8-99.9-55.1-95.1-112.4
					c4.8-57.3,55.1-99.9,112.4-95.1C3123.8,744.8,3166.4,795.1,3161.6,852.5z"/>
				<path class="st0" d="M3083.1,784.7c-1.3,15.3-14.8,26.7-30.1,25.5c-15.3-1.3-26.7-14.8-25.5-30.1c1.3-15.3,14.8-26.8,30.1-25.5
					C3072.9,755.9,3084.3,769.4,3083.1,784.7z"/>
			</g>
		</g>
	</g>
</g>
</svg>
