<?xml version="1.0" encoding="utf-8"?>
<!-- Generator: Adobe Illustrator 25.2.0, SVG Export Plug-In . SVG Version: 6.00 Build 0)  -->
<svg version="1.1" id="Layer_1" xmlns="http://www.w3.org/2000/svg" xmlns:xlink="http://www.w3.org/1999/xlink" x="0px" y="0px"
	 viewBox="0 0 1920 1326" style="enable-background:new 0 0 1920 1326;" xml:space="preserve">
<style type="text/css">
	.st0{fill:#FFFFFF;}
	.st1{fill:#FAB638;}
	.st2{fill:#F29029;}
	.st3{fill:#E7ECE4;}
	.st4{fill:#64B5E4;}
	.st5{fill:#FDC63F;}
	.st6{opacity:0.52;fill:#FDC63F;}
	.st7{opacity:0.47;fill:#FAB638;}
	.st8{opacity:0.19;fill:#FDC63F;}
	.st9{opacity:0.69;fill:#FDC63F;}
	.st10{opacity:0.47;fill:#FDC63F;}
	.st11{fill:none;stroke:#FAB638;stroke-width:0.8397;stroke-linecap:round;stroke-miterlimit:10;}
	.st12{fill:none;stroke:#FAB638;stroke-width:0.4199;stroke-linecap:round;stroke-miterlimit:10;}
	.st13{fill:none;stroke:#2C2720;stroke-width:0.8397;stroke-miterlimit:10;}
	.st14{opacity:0.3;}
	.st15{opacity:0.5;fill:#FAB638;}
	.st16{opacity:0.4;}
	.st17{opacity:0.46;}
	.st18{opacity:0.45;fill:#93AFFC;}
	.st19{opacity:0.45;fill:#E7ECE4;}
	.st20{opacity:0.43;fill:#F29029;}
	.st21{opacity:0.43;fill:#FDC63F;}
	.st22{opacity:0.43;fill:#93AFFC;}
</style>
<rect x="-127" y="-77.8" class="st0" width="2169.2" height="1657.5"/>
<g>
	<ellipse class="st1" cx="1286.8" cy="1117" rx="173.5" ry="192.6"/>
	<path class="st2" d="M1363.7,598.3c0,65.1-52.8,117.9-117.9,117.9c-65.1,0-120.8,217.2-117.9-117.9
		c0.6-65.1,52.8-117.9,117.9-117.9C1310.9,480.4,1363.7,533.2,1363.7,598.3z"/>
	
		<ellipse transform="matrix(0.7071 -0.7071 0.7071 0.7071 -235.0249 1235.3928)" class="st3" cx="1373.7" cy="901.4" rx="117.9" ry="117.9"/>
	
		<ellipse transform="matrix(0.2314 -0.9728 0.9728 0.2314 246.0607 2162.4187)" class="st3" cx="1491.6" cy="925.5" rx="117.9" ry="117.9"/>
	<path class="st3" d="M1538.3,983.7c0,103.7-91.9,187.8-205.4,187.8c-113.4,0-205.5-84.1-205.4-187.8
		c0.4-352.8,91.9-187.8,205.4-187.8C1446.4,796,1538.3,880,1538.3,983.7z"/>
	<g>
		
			<ellipse transform="matrix(0.7071 -0.7071 0.7071 0.7071 -64.6925 1168.2008)" class="st4" cx="1377.8" cy="662.2" rx="108.7" ry="108.7"/>
		
			<ellipse transform="matrix(0.7071 -0.7071 0.7071 0.7071 -153.2695 1092.4518)" class="st4" cx="1242.1" cy="731.2" rx="108.7" ry="108.7"/>
		<circle class="st4" cx="1233.6" cy="839.9" r="108.7"/>
		
			<ellipse transform="matrix(0.1651 -0.9863 0.9863 0.1651 451.8111 2048.7495)" class="st4" cx="1436" cy="757.5" rx="108.7" ry="108.7"/>
	</g>
	<g>
		<polygon class="st5" points="1584.7,424.8 1625.1,400.2 1684.5,450.2 1671.9,374.3 1462.5,217.6 		"/>
		<polygon class="st6" points="1584.7,424.8 1625.1,400.2 1684.5,450.2 1671.9,374.3 1462.5,217.6 		"/>
		<polygon class="st5" points="1462.5,217.6 1730.4,329.8 1671.9,374.3 		"/>
		<polygon class="st5" points="1462.5,217.6 1625.1,400.2 1577.5,471.8 		"/>
	</g>
	<g>
		<ellipse class="st1" cx="492.2" cy="519.4" rx="31.2" ry="22.7"/>
		<path class="st7" d="M492.6,533c-15.4,0-28.1-8.1-30.6-18.8c-0.5,1.7-0.9,3.4-0.9,5.1c0,12.5,14,22.7,31.2,22.7
			c17.2,0,31.2-10.1,31.2-22.7c0-1.3-0.2-2.6-0.5-3.8C519.6,525.6,507.3,533,492.6,533z"/>
		<g>
			<path class="st5" d="M615.3,310.7c0,75.2-55.6,136.1-119.8,136.1c-64.2,0-120.4-60.9-120.4-136.1s56.1-136.1,120.4-136.1
				C559.7,174.6,615.3,235.5,615.3,310.7z"/>
			<path class="st5" d="M541.2,475.5h-93.5L399.2,391c-10.5-22,7.8-47.4,32.2-47.4h147.3c17,0,27.3,20.9,19.4,35.9L541.2,475.5z"/>
			<path class="st8" d="M503,291.3c-20.1,41.6-60.4,63.7-88,50.3c-27.7-13.4-35.5-58.8-15.4-100.3c20.1-41.6,60.6-63.5,88.3-50.1
				C515.5,204.4,523.1,249.7,503,291.3z"/>
			<path class="st9" d="M468.7,255.4c-11.6,23.9-34.7,36.6-50.6,28.9c-15.9-7.7-20.4-33.8-8.8-57.6c11.6-23.9,34.8-36.5,50.7-28.8
				C475.9,205.5,480.2,231.5,468.7,255.4z"/>
			<path class="st10" d="M572.3,383.2c-47.6,39.6-111.3,47.8-166,20.2l41.4,72.1h93.5l48.3-81.4c16-23.1,25.8-52,25.8-83.5
				c0-1.9-0.1-3.8-0.1-5.7C604.1,338,591.6,367.1,572.3,383.2z"/>
		</g>
		<path class="st1" d="M540.1,496.3h-93.6c-5.7,0-10.4-4.6-10.4-10.4l0,0c0-5.7,4.6-10.4,10.4-10.4h93.6c5.7,0,10.4,4.6,10.4,10.4
			l0,0C550.4,491.6,545.8,496.3,540.1,496.3z"/>
		<path class="st1" d="M529.8,517h-74.6c-5.7,0-10.4-4.6-10.4-10.4l0,0c0-5.7,4.6-10.4,10.4-10.4h74.6c5.7,0,10.4,4.6,10.4,10.4l0,0
			C540.2,512.4,535.6,517,529.8,517z"/>
		<path class="st7" d="M540.1,489.7h-93.6c-4.6,0-8.4-3-9.8-7.1c-0.3,1-0.6,2.1-0.6,3.3c0,5.7,4.6,10.4,10.4,10.4h93.6
			c5.7,0,10.4-4.6,10.4-10.4c0-1.2-0.2-2.2-0.6-3.3C548.5,486.8,544.6,489.7,540.1,489.7z"/>
		<path class="st7" d="M529.8,511.2h-74.6c-4.7,0-8.6-3.2-9.9-7.5c-0.3,0.9-0.5,1.9-0.5,2.9c0,5.7,4.6,10.4,10.4,10.4h74.6
			c5.7,0,10.4-4.6,10.4-10.4c0-1-0.2-2-0.5-2.9C538.5,508.1,534.5,511.2,529.8,511.2z"/>
		<line class="st11" x1="451.3" y1="319" x2="481.9" y2="485.9"/>
		<line class="st11" x1="534.8" y1="318" x2="517.1" y2="486.8"/>
		<path class="st12" d="M428.6,356.2L448,338c3.3-3.1,8.4-3.2,11.9-0.3l15.7,13.2c3.6,3,8.9,2.8,12.1-0.6l3.4-3.5
			c3.9-3.9,10.3-3.5,13.6,1l0,0c3.2,4.4,9.6,4.9,13.5,1.1l10.3-10.1c3.5-3.5,9.2-3.4,12.6,0.1l16.9,17.3"/>
	</g>
	<g>
		<path class="st13" d="M1128,630.9c0.2-37.3,17.8-73.1,48.9-93.8c17.9-11.9,39.5-18.9,62.6-18.9c46.8,0,87,28.4,104.3,68.9
			c13.2-5.1,28-7,43.5-4.3c35.6,6.2,63.7,35.9,67.6,71.8c1.3,11.8,0.1,23.1-3.2,33.6c41.7,7.3,73.4,43.6,73.4,87.4
			c0,22.6-8.5,43.2-22.4,58.8c33.1,21.7,55.1,59.1,55.1,101.7c0,56.3-38.4,103.6-90.4,117.3c5.3,9.3,8.3,20,8.3,31.4
			c0,35.1-28.4,63.5-63.5,63.5c-0.1,0-0.1,0-0.2,0c-3.9,75.8-66.7,136.1-143.5,136.1c-79.3,0-143.7-64.3-143.7-143.7
			C1125,1135.4,1127.4,726.5,1128,630.9z"/>
		<path class="st13" d="M1455.4,664.1c0-45.1-36.6-81.7-81.7-81.7c-45.1,0-81.7,36.6-81.7,81.7"/>
		<path class="st13" d="M1319.1,936.6c0,65.9,53.4,119.3,119.3,119.3s119.3-53.4,119.3-119.3"/>
		<path class="st13" d="M1255.8,999.5c0-34.9,28.3-63.2,63.2-63.2c34.9,0,63.2,28.3,63.2,63.2"/>
		<path class="st13" d="M1202.9,683.3c19.2-29.2,58.5-37.2,87.6-18c29.2,19.2,37.2,58.5,18,87.6"/>
		<path class="st13" d="M1458.4,933.4c-29.8-2.8-51.7-29.3-48.9-59.1s29.3-51.7,59.1-48.9"/>
		<path class="st13" d="M1369.8,785.6c29.5,3.7,50.3,30.6,46.6,60.1c-3.7,29.5-30.6,50.3-60.1,46.6"/>
		<path class="st13" d="M1287.7,822.7c-23.5,24.6-62.4,25.5-87,2c-24.6-23.5-25.5-62.4-2-87"/>
		<path class="st13" d="M1202,947.9c-24.7-23.4-25.8-62.3-2.4-87c23.4-24.7,62.3-25.8,87-2.4"/>
		<path class="st13" d="M1271.6,1054c15.5,30.3,3.4,67.3-26.8,82.8c-30.3,15.5-67.3,3.4-82.8-26.8"/>
		<path class="st13" d="M1181.2,1191.6c7.2-33.2,40-54.3,73.2-47.1c33.2,7.2,54.3,40,47.1,73.2"/>
		<path class="st13" d="M1361.6,1176.2c-30.2,15.6-67.3,3.7-82.9-26.5c-15.6-30.2-3.7-67.3,26.5-82.9"/>
	</g>
	<path class="st2" d="M1312.3,495.7c0,0,49.9-178.8,94.5-121.8C1446.1,424.1,1332.7,429.5,1312.3,495.7z"/>
	<path class="st4" d="M1511.7,628.6c0,0,115.1-64.3,108.7-13.3C1614.7,660.2,1555.3,605.8,1511.7,628.6z"/>
	<path class="st4" d="M1488,609.8c0,0,87.3-103.5,37.7-97C1482.1,518.4,1519.6,570.6,1488,609.8z"/>
	<path class="st3" d="M1583.5,1027.7c0,0,68.1,30.5,67.4-11.5C1650.2,979.1,1599.4,1029.2,1583.5,1027.7z"/>
	<ellipse class="st2" cx="911.5" cy="1117" rx="173.5" ry="192.6"/>
	<path class="st3" d="M834.6,598.3c0,65.1,52.8,117.9,117.9,117.9c65.1,0,120.8,217.2,117.9-117.9c-0.6-65.1-52.8-117.9-117.9-117.9
		C887.4,480.4,834.6,533.2,834.6,598.3z"/>
	<path class="st2" d="M660,983.7c0,103.7,91.9,187.8,205.4,187.8s205.5-84.1,205.4-187.8C1070.3,630.9,978.8,796,865.4,796
		S660,880,660,983.7z"/>
	<circle class="st3" cx="848.3" cy="925.2" r="141.7"/>
	
		<ellipse transform="matrix(0.9728 -0.2314 0.2314 0.9728 -195.0054 188.6761)" class="st4" cx="706.7" cy="925.5" rx="117.9" ry="117.9"/>
	<g>
		
			<ellipse transform="matrix(0.7071 -0.7071 0.7071 0.7071 -227.9224 774.1292)" class="st4" cx="820.5" cy="662.2" rx="108.7" ry="108.7"/>
		
			<ellipse transform="matrix(0.7071 -0.7071 0.7071 0.7071 -236.9931 890.3251)" class="st4" cx="956.2" cy="731.2" rx="108.7" ry="108.7"/>
		<circle class="st4" cx="964.6" cy="839.9" r="108.7"/>
		
			<ellipse transform="matrix(0.9728 -0.2318 0.2318 0.9728 -165.4317 195.0366)" class="st4" cx="747.3" cy="801.6" rx="141.1" ry="141.1"/>
	</g>
	<g>
		<path class="st13" d="M1070.3,630.9c-0.2-37.3-17.8-73.1-48.9-93.8c-17.9-11.9-39.5-18.9-62.6-18.9c-46.8,0-87,28.4-104.3,68.9
			c-13.2-5.1-28-7-43.5-4.3c-35.6,6.2-63.7,35.9-67.6,71.8c-1.3,11.8-0.1,23.1,3.2,33.6c-41.7,7.3-73.4,43.6-73.4,87.4
			c0,22.6,8.5,43.2,22.4,58.8c-33.1,21.7-55.1,59.1-55.1,101.7c0,56.3,38.4,103.6,90.4,117.3c-5.3,9.3-8.3,20-8.3,31.4
			c0,35.1,28.4,63.5,63.5,63.5c0.1,0,0.1,0,0.2,0c3.9,75.8,66.7,136.1,143.5,136.1c79.3,0,143.7-64.3,143.7-143.7
			C1073.3,1135.4,1070.9,726.5,1070.3,630.9z"/>
		<path class="st13" d="M742.9,664.1c0-45.1,36.6-81.7,81.7-81.7s81.7,36.6,81.7,81.7"/>
		<path class="st13" d="M879.2,936.6c0,65.9-53.4,119.3-119.3,119.3s-119.3-53.4-119.3-119.3"/>
		<path class="st13" d="M942.5,999.5c0-34.9-28.3-63.2-63.2-63.2c-34.9,0-63.2,28.3-63.2,63.2"/>
		<path class="st13" d="M995.4,683.3c-19.2-29.2-58.5-37.2-87.6-18c-29.2,19.2-37.2,58.5-18,87.6"/>
		<path class="st13" d="M739.9,933.4c29.8-2.8,51.7-29.3,48.9-59.1s-29.3-51.7-59.1-48.9"/>
		<path class="st13" d="M828.5,785.6c-29.5,3.7-50.3,30.6-46.6,60.1c3.7,29.5,30.6,50.3,60.1,46.6"/>
		<path class="st13" d="M910.6,822.7c23.5,24.6,62.4,25.5,87,2c24.6-23.5,25.5-62.4,2-87"/>
		<path class="st13" d="M996.3,947.9c24.7-23.4,25.8-62.3,2.4-87c-23.4-24.7-62.3-25.8-87-2.4"/>
		<path class="st13" d="M926.7,1054c-15.5,30.3-3.4,67.3,26.8,82.8c30.3,15.5,67.3,3.4,82.8-26.8"/>
		<path class="st13" d="M1017.1,1191.6c-7.2-33.2-40-54.3-73.2-47.1c-33.2,7.2-54.3,40-47.1,73.2"/>
		<path class="st13" d="M836.7,1176.2c30.2,15.6,67.3,3.7,82.9-26.5c15.6-30.2,3.7-67.3-26.5-82.9"/>
	</g>
	<path class="st2" d="M695.4,1149.8c0,0-176.2,58.3-117.2,100.1C630.3,1286.8,630.3,1173.3,695.4,1149.8z"/>
	<path class="st3" d="M835.2,489.9c0,0-49.9-178.8-94.5-121.8C701.5,418.3,814.8,423.7,835.2,489.9z"/>
	<path class="st4" d="M686.6,628.6c0,0-115.1-64.3-108.7-13.3C583.5,660.2,643,605.8,686.6,628.6z"/>
	<path class="st2" d="M669.8,1134.2c0,0-68.1,30.5-67.4-11.5C603.1,1085.5,653.9,1135.6,669.8,1134.2z"/>
	<g>
		<g>
			<path class="st5" d="M391,740.2c-78.4-46.7-161.3-34.8-186.7-7.9c-49.4,52.3,22.4,127.4,44.8,144.2c22.4,16.8-0.9,62.5-44.8,41.1
				c-20.3-9.9-70.9-27.9-85.9,12.3c-21.5,57.5,69.2,142.2,128.8,171.2c87.8,42.7,232.2,7.3,268.9-105.1
				C554.5,878.4,469.4,786.9,391,740.2z M182.5,996.3c-17,0-30.8-13.8-30.8-30.8s13.8-30.8,30.8-30.8c17,0,30.8,13.8,30.8,30.8
				S199.5,996.3,182.5,996.3z"/>
			<path class="st5" d="M391,740.2c-78.4-46.7-161.3-34.8-186.7-7.9c-49.4,52.3,22.4,127.4,44.8,144.2c22.4,16.8-0.9,62.5-44.8,41.1
				c-20.3-9.9-70.9-27.9-85.9,12.3c-21.5,57.5,69.2,142.2,128.8,171.2c87.8,42.7,232.2,7.3,268.9-105.1
				C554.5,878.4,469.4,786.9,391,740.2z M182.5,996.3c-17,0-30.8-13.8-30.8-30.8s13.8-30.8,30.8-30.8c17,0,30.8,13.8,30.8,30.8
				S199.5,996.3,182.5,996.3z"/>
		</g>
		<path class="st5" d="M391,722.9c-78.4-46.7-161.3-34.8-186.7-7.9c-49.4,52.3,22.4,127.4,44.8,144.2c22.4,16.8-0.9,62.5-44.8,41.1
			c-20.3-9.9-70.9-27.9-85.9,12.3c-21.5,57.5,69.2,142.2,128.8,171.2c87.8,42.7,232.2,7.3,268.9-105.1
			C554.5,861.1,469.4,769.6,391,722.9z M182.5,979.1c-17,0-30.8-13.8-30.8-30.8s13.8-30.8,30.8-30.8c17,0,30.8,13.8,30.8,30.8
			S199.5,979.1,182.5,979.1z"/>
		<path class="st5" d="M312.3,1118l-81.4-212.4c-7.6,1-16.5-0.4-26.6-5.3c-3-1.5-6.7-3.1-10.9-4.7l89.2,218
			C292.2,1115.7,302.1,1117.2,312.3,1118z"/>
		<g class="st14">
			<path class="st5" d="M402.9,730.3c43.8,49.3,71.2,114.8,46.2,191.4c-36.7,112.4-181.1,147.8-268.9,105.1
				c-7.6-3.7-15.7-8.3-24-13.6c27,30.2,62.6,56.8,91,70.6c87.8,42.7,232.2,7.3,268.9-105.1C552.6,867,477.7,778.9,402.9,730.3z"/>
		</g>
		<circle class="st4" cx="283.8" cy="765.6" r="38"/>
		<circle class="st3" cx="389.6" cy="806.1" r="38"/>
		
			<ellipse transform="matrix(0.9963 -8.588052e-02 8.588052e-02 0.9963 -76.5222 42.5337)" class="st2" cx="456.1" cy="910.7" rx="38" ry="38"/>
		<path class="st5" d="M432.7,1033.1c-10.5,18.2-33.8,24.4-52,13.9c-18.2-10.5-24.4-33.8-13.9-52c10.5-18.2,33.8-24.4,52-13.9
			C437,991.6,443.2,1014.9,432.7,1033.1z"/>
		<path class="st1" d="M319.4,1044.6c-10.5,18.2-33.8,24.4-52,13.9c-18.2-10.5-24.4-33.8-13.9-52c10.5-18.2,33.8-24.4,52-13.9
			C323.7,1003.2,329.9,1026.4,319.4,1044.6z"/>
		<path class="st15" d="M305.8,992.6c1.6,4.2,2.5,8.8,2.5,13.6c0,21-17,38-38,38c-7.4,0-14.2-2.1-20.1-5.8
			c5.5,14.3,19.3,24.5,35.5,24.5c21,0,38-17,38-38C323.8,1011.2,316.6,999.3,305.8,992.6z"/>
		<g>
			<path class="st5" d="M149.2,718.5c0,0-2.5,23.2,14.4,36.1c28,21.4,35.1,58.3,14.9,70.1c-27,15.7-46.5-2.7-53.6-23.6
				C117.9,780.1,114.5,745.5,149.2,718.5z"/>
			<path class="st2" d="M298.3,1145L298.3,1145c-6.4,2.5-13.6-0.4-16.4-6.7L158.8,837.4l30.5-12.1l116.3,303.6
				C307.9,1135.4,304.7,1142.5,298.3,1145z"/>
			<g class="st16">
				<polygon class="st2" points="158.9,837.4 158.8,837.4 158.8,837.5 				"/>
				<path class="st2" d="M305.6,1128.9L189.3,825.3l-6.7,2.6l115.9,307.9c1.1,3.1,0.9,6.4-0.3,9.2c0,0,0.1,0,0.1,0
					C304.7,1142.5,307.9,1135.4,305.6,1128.9z"/>
			</g>
			<path class="st1" d="M198.9,830.2l-44.6,17.7c-4.3,1.7-9.2-0.4-10.9-4.7l0,0c-1.7-4.3,0.4-9.2,4.7-10.9l44.6-17.7
				c4.3-1.7,9.2,0.4,10.9,4.7l0,0C205.4,823.6,203.2,828.5,198.9,830.2z"/>
			<g class="st17">
				<path class="st5" d="M186.4,784.5c0.2,10.1-3.4,18.9-11.5,23.6c-27,15.7-46.5-2.7-53.6-23.6c-0.2-0.6-0.4-1.3-0.6-2
					c0.7,6.9,2.3,13.2,4.1,18.6c7.1,20.9,26.6,39.4,53.6,23.6C190.7,817.5,192.9,801.1,186.4,784.5z"/>
				<path class="st5" d="M147.8,719.7c0.4,1.3,0.8,2.5,1.4,3.8c-0.1-3.1,0.1-5,0.1-5C148.7,718.9,148.3,719.3,147.8,719.7z"/>
			</g>
			<path class="st4" d="M163.6,754.5c-16.9-12.9-14.4-36.1-14.4-36.1c-30.5,23.7-31.6,53.2-26.7,74.2c4.6-4.4,8.8-11.9,9.2-18.2
				c0.8-11.8,10.9-9.6,14.6,0c3.8,9.6,19.5,5.8,19.9-3.6c0.2-5.8,4.8-6.4,8.2-6.1C171.2,761.1,167.7,757.7,163.6,754.5z"/>
		</g>
		<path class="st18" d="M303.8,733.3c1.6,4.2,2.5,8.8,2.5,13.6c0,21-17,38-38,38c-7.4,0-14.2-2.1-20.1-5.8
			c5.5,14.3,19.3,24.5,35.5,24.5c21,0,38-17,38-38C321.8,751.9,314.6,740,303.8,733.3z"/>
		<path class="st19" d="M409.7,773.8c1.6,4.2,2.5,8.8,2.5,13.6c0,21-17,38-38,38c-7.4,0-14.2-2.1-20.1-5.8
			c5.5,14.3,19.3,24.5,35.5,24.5c21,0,38-17,38-38C427.7,792.5,420.5,780.6,409.7,773.8z"/>
		<path class="st20" d="M475.1,879.3c1.6,4.2,2.5,8.8,2.5,13.6c0,21-17,38-38,38c-7.4,0-14.2-2.1-20.1-5.8
			c5.5,14.3,19.3,24.5,35.5,24.5c21,0,38-17,38-38C493.1,897.9,485.9,886,475.1,879.3z"/>
		<path class="st21" d="M418.6,980.6c1.6,4.2,2.5,8.8,2.5,13.6c0,21-17,38-38,38c-7.4,0-14.2-2.1-20.1-5.8
			c5.5,14.3,19.3,24.5,35.5,24.5c21,0,38-17,38-38C436.6,999.3,429.4,987.4,418.6,980.6z"/>
	</g>
	<g>
		<g>
			<path class="st4" d="M1081,347.1L952.2,229c-4.3-3.9-4.6-10.6-0.6-14.8l173.2-189c10.1-11,27.3-11.8,38.3-1.7l138,126.5
				l-177.5,193.7L1081,347.1z"/>
			<path class="st22" d="M1000.5,160.8l-48.9,53.4c-3.9,4.3-3.6,10.9,0.6,14.8l128.8,118l42.6-3.4l113.5-123.8
				C1169.3,249.2,1074.2,228,1000.5,160.8z"/>
			<path class="st5" d="M1092,378.2L952.2,250.1c-10.1-9.2-10.8-24.9-1.5-35l0,0c9.2-10.1,24.9-10.8,35-1.5l139.7,128.1l0,0
				C1108.3,346.5,1095.3,360.7,1092,378.2L1092,378.2z"/>
			<polygon class="st1" points="978.5,240.6 1001.3,261.5 923.5,346.4 929.2,317.3 900.7,325.5 			"/>
		</g>
		
			<rect x="1106.3" y="120.2" transform="matrix(0.7387 0.6741 -0.6741 0.7387 400.2054 -757.4304)" class="st5" width="141.2" height="34.3"/>
	</g>
</g>
</svg>
