<?xml version="1.0" encoding="utf-8"?>
<!-- Generator: Adobe Illustrator 25.2.0, SVG Export Plug-In . SVG Version: 6.00 Build 0)  -->
<svg version="1.1" id="Layer_1" xmlns="http://www.w3.org/2000/svg" xmlns:xlink="http://www.w3.org/1999/xlink" x="0px" y="0px"
	 viewBox="0 0 1920 1326" style="enable-background:new 0 0 1920 1326;" xml:space="preserve">
<style type="text/css">
	.st0{fill:#FFFFFF;}
	.st1{fill:#D2F0D9;}
	.st2{fill:#DBEFFE;}
	.st3{fill:#FFC536;}
	.st4{fill:#B6D3FF;}
	.st5{fill:#6BD6E5;}
	.st6{fill:#EAEFF4;}
	.st7{fill:#BDEAEF;}
	.st8{fill:#4DA4C2;}
	.st9{fill:#FFEF16;}
	.st10{fill:none;stroke:#FFDE00;stroke-width:3;stroke-miterlimit:10;}
	.st11{fill:none;stroke:#FFC536;stroke-miterlimit:10;}
	.st12{fill:none;stroke:#6BD6E5;stroke-width:3;stroke-miterlimit:10;}
	.st13{fill:#FFFF86;}
	.st14{fill:none;stroke:#314C86;stroke-width:1.166;stroke-linecap:round;stroke-linejoin:round;stroke-miterlimit:10;}
	.st15{fill:#D4D4D4;}
	.st16{fill:none;stroke:#FFFFFF;stroke-width:2;stroke-miterlimit:10;}
	.st17{fill:#E6B198;}
	.st18{fill:#4596CD;}
	.st19{fill:#A6753B;}
	.st20{fill:#77432A;}
	.st21{fill:#3E5B7A;}
	.st22{fill:#4FABEA;}
	.st23{fill:#FF7E94;}
	.st24{fill:#FF8484;}
	.st25{fill:#DEDEDE;}
	.st26{fill:#FFC800;}
	.st27{fill:#FFDCC1;}
	.st28{fill:#222F83;}
	.st29{fill:#C3CFC7;}
	.st30{fill:#D6D2C7;}
	.st31{fill:#F9F9F9;}
	.st32{fill:#FFC4A8;}
	.st33{fill:#7C564F;}
	.st34{fill:#EB847C;}
	.st35{fill:#B06322;}
	.st36{fill:#407FC7;}
	.st37{fill:#1B9DE5;}
	.st38{fill:#63C9E5;}
	.st39{fill:#342D35;}
	.st40{fill:#B88136;}
	.st41{fill:#451E1F;}
	.st42{fill:#436398;}
	.st43{fill:#E18301;}
	.st44{fill:#284379;}
	.st45{fill:#C4C5C4;}
	.st46{fill:#D6DBD3;}
	.st47{fill:#A9A4A9;}
	.st48{fill:#D1933D;}
	.st49{fill:#4D434F;}
	.st50{fill:#5E292A;}
</style>
<rect x="-130" y="-87" class="st0" width="2071.1" height="1461.4"/>
<g>
	<g>
		<path class="st1" d="M1412.2,197.1c0,0-38.4,47.3-26.8,73.8c11.6,26.5,22.1,47.2,22.1,47.2s11.9-23.1,18.1-40.7
			C1431.8,259.7,1412.2,197.1,1412.2,197.1z"/>
		<path class="st1" d="M1333.4,421.2c0,0-20,47.7-3.9,64.1c16.1,16.4,29.9,28.7,29.9,28.7s4.1-21.2,4.9-36.4
			C1365,462.4,1333.4,421.2,1333.4,421.2z"/>
		<path class="st1" d="M1482.5,363.7c0,0-53.7-6.5-66.3,14.5c-12.5,21-21.5,38.4-21.5,38.4s22.6-1.9,38.3-5.5
			C1448.7,407.4,1482.5,363.7,1482.5,363.7z"/>
		<path class="st1" d="M1485.1,268.6c0,0-54.2,13.6-63,39.2c-8.9,25.7-14.9,46.5-14.9,46.5s22-10.4,36.9-19.9
			C1459,325.1,1485.1,268.6,1485.1,268.6z"/>
		<path class="st1" d="M1341.7,332.7c0,0-16.7,56.2,3.6,74.9c20.3,18.7,37.4,32.6,37.4,32.6s2-24.8,1-42.6
			C1382.6,379.8,1341.7,332.7,1341.7,332.7z"/>
		<path class="st1" d="M1351.8,255.7c0,0-9.8,55.6,10,74.8c19.9,19.2,36.5,33.6,36.5,33.6s-0.5-24.7-3-42.5
			C1392.8,303.9,1351.8,255.7,1351.8,255.7z"/>
		<path class="st1" d="M1480.8,449.4c0,0-54.5-21.3-73.9-2.2c-19.4,19.1-34,35.4-34,35.4s24.3,4,41.9,4.3
			C1432.4,487.2,1480.8,449.4,1480.8,449.4z"/>
		<path class="st1" d="M1408.8,309.8c-0.3-1.7-3.1-1.5-3.3,0.1c-7,50.8-14.6,98.8-28.2,148.4c-7.3,26.6-21.3,50.5-35.6,73.8
			c-14.4,23.6-37.3,36.6-54.6,57.1c-3.6,4.2,1.4,9.9,6.1,7.3c46.8-26.6,69.8-77.8,88.4-125.9
			C1399.8,423.3,1418.2,360.9,1408.8,309.8z"/>
	</g>
	<g>
		<path class="st1" d="M207.5,1064.7c0.4,1.5,55.2,12.9,68,37.4c13,26.4,25.3,47.2,25.3,47.3c0,0.2-26.3-4.8-44.3-13.4
			C236.7,1128.3,206.1,1064.9,207.5,1064.7z"/>
		<path class="st1" d="M423.8,1131c0.2,1,48.6-6.9,61.4,9.9c12.7,18,23.1,32.6,23.1,32.6c0,0.1-23.1,2.7-38.8,0.6
			C452.8,1172.6,423.1,1131.2,423.8,1131z"/>
		<path class="st1" d="M301.3,1236.8c0.4,0,24.3-46.6,49.7-47.3c26.2-0.6,46.9-2.9,47-2.9c0.1,0-10.9,20.1-21.9,32.6
			C365.7,1233.4,301.6,1238.2,301.3,1236.8z"/>
		<path class="st1" d="M210,1169.7c0.7,0.6,48-24.4,73.9-15.5c27.1,10,49.2,15.5,49.2,15.5c0.1,0.1-20.6,13-38.1,18.6
			C277.4,1196.4,209.6,1171.4,210,1169.7z"/>
		<path class="st1" d="M345.3,1103.1c-0.1,1.2,51.7,11.1,62.3,34.7c10,25.1,18.5,45.3,18.4,45.3c0,0.2-25.6-5.5-42-13.8
			C366.3,1161.5,344.4,1103.2,345.3,1103.1z"/>
		<path class="st1" d="M283.7,1066.9c-0.4,1,43.6,26.4,50.7,52.1c6.3,26.8,11.9,48.2,11.9,48.2c-0.1,0.1-22.4-12.8-35.9-25.5
			C295.4,1129.2,282.8,1066.8,283.7,1066.9z"/>
		<path class="st1" d="M396.2,1277.7c-0.1-0.2,1.5-57.3,28.4-69.6c27.2-12.7,47.7-24.8,47.7-24.7c0,0-2.3,24.6-7.6,41.9
			C460.8,1243.9,397.1,1279.1,396.2,1277.7z"/>
		<path class="st1" d="M293.1,1145.2c-1.2-1.3,0.5-3.4,2-2.5c46.3,26.1,96.3,41.3,151,40c29.5-0.7,57.9-12.1,84.1-26.6
			c26.7-15,41.4-40,61.1-61.6c4-4.5,9.9-0.7,7.4,4.7c-25.3,54.7-86,83.1-141.2,90.3C403,1199.1,330.7,1186,293.1,1145.2z"/>
	</g>
	<path class="st2" d="M444.2,551.7C463.2,425.3,681.7,444.3,676,307c-5.8-141,199.6-252.1,339.6-241.3
		c78.9,6.1,141.9,46.5,185,108.4c49.6,71,15.3,157.9,46.8,234.2c35.3,85.7,160.7,81.5,226.7,138c46.1,39.5,95.5,91.8,114.4,149.3
		c51.4,156.3-239.1,228.2-183.2,356.4c37.8,86.7,0,139.1-149.4,140.9c-54.6,0.7-114.5-9.2-219.2-45.3
		c-66.4-22.9-156.4-37.6-269.9-3.6c-158.8,47.6-236,29.8-275.3,8.5c-92.3-50.1-119.2-184.5-73.8-249.7s124.9-85.7,124.9-136.2
		C542.6,716.1,425.3,678.2,444.2,551.7z"/>
	<path class="st3" d="M432,463.1c0,0-105,139.1-62.4,241.2s90.8,153.2,90.8,153.2s76.6-167.4,62.4-229.9S432,463.1,432,463.1z"/>
	<polygon class="st4" points="1151.5,1119.8 724.6,1072.4 861.7,975.6 1288.6,1023 	"/>
	<g>
		<rect x="837.8" y="414.9" class="st0" width="420" height="385.9"/>
		<rect x="837.8" y="414.9" class="st5" width="420" height="42.6"/>
		<g>
			<rect x="870.4" y="491.5" class="st6" width="156.1" height="102.2"/>
			<g>
				<rect x="1060.5" y="505.7" class="st6" width="164.6" height="14.2"/>
				<rect x="1060.5" y="534.1" class="st6" width="164.6" height="14.2"/>
				<rect x="1060.5" y="562.4" class="st6" width="164.6" height="14.2"/>
			</g>
			<rect x="870.4" y="619.2" class="st6" width="354.7" height="14.2"/>
			<rect x="870.4" y="647.6" class="st6" width="354.7" height="14.2"/>
			<rect x="870.4" y="675.9" class="st6" width="354.7" height="14.2"/>
			<rect x="870.4" y="704.3" class="st6" width="354.7" height="14.2"/>
			<rect x="870.4" y="732.7" class="st6" width="354.7" height="14.2"/>
			<rect x="870.4" y="761.1" class="st6" width="354.7" height="14.2"/>
		</g>
		<g>
			<rect x="1160.9" y="425.9" class="st7" width="20.5" height="20.5"/>
			<rect x="1189.3" y="425.9" class="st7" width="20.5" height="20.5"/>
			<rect x="1217.7" y="425.9" class="st7" width="20.5" height="20.5"/>
		</g>
	</g>
	<rect x="762" y="9.6" class="st3" width="283.8" height="199.5"/>
	<g>
		<rect x="880.1" y="178.4" class="st8" width="218" height="153.2"/>
		<rect x="896.3" y="194.6" class="st0" width="185.6" height="120.9"/>
		<polygon class="st9" points="984.8,282 949.2,249.6 896.3,294.9 896.3,315.4 1081.9,315.4 1081.9,288.5 1037.7,226.9 		"/>
	</g>
	<g>
		<circle class="st10" cx="1243.6" cy="170.8" r="82.3"/>
		<circle class="st10" cx="1317.3" cy="219.1" r="48.2"/>
		<polygon class="st11" points="301,326.6 434.9,218.3 461.8,388.4 		"/>
		<g>
			<line class="st12" x1="321.3" y1="937" x2="321.3" y2="1042"/>
			<line class="st12" x1="373.8" y1="989.5" x2="268.8" y2="989.5"/>
		</g>
		<g>
			<line class="st12" x1="1475.8" y1="381.8" x2="1475.8" y2="455.5"/>
			<line class="st12" x1="1512.7" y1="418.6" x2="1438.9" y2="418.6"/>
		</g>
		<g>
			<line class="st12" x1="235.7" y1="867" x2="235.7" y2="940.8"/>
			<line class="st12" x1="272.6" y1="903.9" x2="198.8" y2="903.9"/>
		</g>
	</g>
	<g>
		<path class="st13" d="M852.7,236.8c0-43.8-35.5-79.3-79.3-79.3c-43.8,0-79.3,35.5-79.3,79.3c0,22.9,9.7,43.5,25.3,58
			c10.5,15.7,14.8,32.3,14.8,32.3h78.5c0,0,4.3-16.6,14.8-32.3C843,280.4,852.7,259.7,852.7,236.8z"/>
		<g>
			<polyline class="st14" points="731.6,226.6 745.5,251.2 759.4,226.6 773.4,251.2 787.3,226.6 801.3,251.2 815.2,226.6 			"/>
			<line class="st14" x1="748.2" y1="324.9" x2="731.6" y2="226.6"/>
			<line class="st14" x1="798.4" y1="324.9" x2="815.1" y2="226.6"/>
		</g>
		<g>
			<path class="st0" d="M823,353.7c0-4.2-2.1-8-5.3-10.2c3.2-2.3,5.3-6,5.3-10.3c0-6.9-5.6-12.6-12.6-12.6h-74
				c-6.9,0-12.6,5.6-12.6,12.6c0,4.2,2.1,8,5.3,10.3c-3.2,2.3-5.3,6-5.3,10.2c0,5.1,3.1,9.5,7.5,11.5c-2.4,2.3-3.8,5.5-3.8,9
				c0,6.9,5.6,12.6,12.6,12.6h3.9c3.3,13.3,15.3,23.1,29.5,23.1c14.2,0,26.1-9.8,29.5-23.1h3.9c6.9,0,12.6-5.6,12.6-12.6
				c0-3.5-1.5-6.7-3.8-9C819.9,363.2,823,358.8,823,353.7z"/>
			<rect x="736.4" y="337.8" class="st15" width="74" height="4.6"/>
			<rect x="736.4" y="361" class="st15" width="74" height="4.6"/>
			<rect x="751.3" y="382.1" class="st15" width="44.2" height="4.6"/>
		</g>
	</g>
	<g>
		<circle class="st3" cx="749.8" cy="812.2" r="63.8"/>
		<polyline class="st16" points="718.6,809.3 742,834.1 783.8,792.3 		"/>
	</g>
	<g>
		<path class="st3" d="M295.8,525.6c0,0-90.4,180.6,20.7,325.5c111.1,144.9,152,161.3,152,161.3s49.4-219.8-20-331.1
			C379.1,570,295.8,525.6,295.8,525.6z"/>
		<path class="st0" d="M436.2,874.4c19.6-24.3,28.6-62.3,23.3-91.8c-0.2-1.3-2.4-1.9-2.6-0.2c-4,27.2-15.9,51.1-25.3,76.1
			c-8.8-29.8-18.3-59.1-29.5-88.3c-5-13-10-26-15.1-39c0.7,0.2,1.4,0.1,2.1-0.5c19.8-17,12.4-59.1,10.4-81.6
			c-0.2-2.1-3.2-1.9-3.2,0.1c0,14.2-0.1,28.3-2,42.4c-1.6,12.2-7.4,23.7-8.9,35.6c-5.3-13.6-10.6-27.2-16-40.7c0,0,0.1,0,0.1,0
			c1.9-1.1,1-3.5-0.7-4.1c-0.4-0.1-0.8-0.2-1.2-0.4c-2.5-6.3-5-12.6-7.5-18.9c-14.9-36.5-38.8-68.9-49.9-107
			c-0.7-2.5-4.4-1.2-3.8,1.2c8.1,35.4,28.5,64.9,42.9,97.8c3.5,8.1,6.9,16.3,10.2,24.5c-3.6-0.9-7.2-1.9-10.7-3.5
			c-7.5-3.4-14.1-8.8-20.4-14c-9.9-8.2-18.7-17.1-29.7-24c-1.6-1-3.1,1.4-1.8,2.6c12.9,12.7,42.6,52.8,66.2,48.2
			c10.7,27.8,20.2,56.2,30,84.2c4.1,11.7,7.9,23.4,11.6,35.2c-18.2-6.7-33.5-16.6-49.7-28.3c-13.9-10-27.5-19.4-45-21.1
			c-3-0.3-4.1,3.9-1.1,4.7c32.6,8.2,62.8,54.3,98.1,52.3c7,22.8,13.5,45.8,19.6,69c8,30.2,14.5,65.8,36.3,89.4
			c1.1,1.2,3.6,0.1,3.3-1.6c-5-31.1-19.5-61.2-28.2-91.5C437.5,878.8,436.8,876.6,436.2,874.4z"/>
	</g>
	<g>
		<path class="st17" d="M655.9,543.8c18.7,10.2,27.9,66.3,44.1,70.1c16.1,3.8,73.4-21.1,79.4-20.2c6,0.9,14.9,33.3,12.8,37.1
			c-2.1,3.8-68.3,14.6-88.1,19.7c-15,3.9-32.4-3.6-44.8-18.1C647,618,617.2,573,617.2,573S637.2,533.6,655.9,543.8z"/>
		<path class="st18" d="M655.1,532.6c0,0,18.1,27.6,20.7,35.3c2.6,7.8-27.6,23.3-27.6,23.3S645.6,533.4,655.1,532.6z"/>
		<g>
			<path class="st19" d="M487.6,1032.6l-35.1,1.1c0,0-1.2,3.4-3.6,9.5c-11,10.6-38.3,35.5-35.4,38.7c3.9,4.2,70.5,2.3,75.2-5.1
				C493.3,1069.3,487.6,1032.6,487.6,1032.6z"/>
			<path class="st20" d="M455.6,1060.4c-0.8-1-1.4-2.2-2.4-3.1c-1.1-1.2-2.5-2.1-3.8-3.1c-2.7-2.1-5.3-3.7-8.8-4.3
				c-1.9-0.3-3.6,2.5-1.5,3.5c5.7,2.4,9.3,8.5,15.8,8.4C455.7,1061.7,456,1060.9,455.6,1060.4z"/>
			<path class="st20" d="M455.4,1048.8c-2.5-2.2-5.2-4-7.9-5.9c-1.9-1.3-4,1.6-2.4,3.1c2.2,2.2,4.3,4.4,6.6,6.5
				c2.1,1.9,4.4,4.8,7.5,4.6c0.6,0,1.1-0.5,1.1-1.1C460.5,1052.8,457.6,1050.7,455.4,1048.8z"/>
		</g>
		<g>
			<path class="st19" d="M608.6,1028.9l35.1,1.1c0,0,1.2,3.4,3.5,9.5c11,10.6,38.3,35.5,35.4,38.7c-3.9,4.2-70.5,2.3-75.2-5.1
				C602.9,1065.6,608.6,1028.9,608.6,1028.9z"/>
			<path class="st20" d="M640.6,1056.7c0.8-1,1.4-2.2,2.4-3.1c1.2-1.2,2.5-2.1,3.8-3.1c2.7-2.1,5.3-3.7,8.8-4.3
				c1.9-0.3,3.6,2.5,1.5,3.5c-5.7,2.4-9.3,8.5-15.8,8.4C640.4,1058,640.2,1057.2,640.6,1056.7z"/>
			<path class="st20" d="M640.7,1045.1c2.5-2.2,5.2-4,7.9-5.9c1.9-1.3,4,1.6,2.4,3.1c-2.2,2.2-4.3,4.4-6.6,6.4
				c-2.1,1.9-4.4,4.8-7.5,4.6c-0.7,0-1.1-0.5-1.1-1.1C635.6,1049.1,638.6,1047,640.7,1045.1z"/>
		</g>
		<path class="st21" d="M472.9,694.5c-14.5,7.3-30.6,111.1-28.5,166.1c1.8,47.3,7,176.3,7,176.3h36.8c0,0,41.6-246.1,43.1-256
			c1.4-9.9,10.8-8.7,12.2-3c0.6,2.5,36.5,55.7,44.5,102.7c8.7,51,18.6,151.4,18.6,151.4l39.6-1.4c0,0,7.3-151.5,2.9-186.4
			c-4-32.4-44.8-125.3-44.8-125.3S487.5,687.2,472.9,694.5z"/>
		<path class="st22" d="M651.5,609.2c1.5-17.8,13.7-71,7.1-77c-6.6-6-57.1-27-57.1-27s-24.3-8.7-37.3-5.4
			c-13,3.3-28.7,40.6-36.2,57.5c-1.6,4.5-56,136.6-56,136.6s21.9,18.7,69,37.7c47.1,19,74.3,12.9,74.3,12.9S650.9,616.7,651.5,609.2
			z"/>
		<g>
			<path class="st23" d="M613.9,375.3l-30.7-37.1c-6.7-8-20.3-7.7-30.5,0.7l-26.2,21.8c-10.2,8.4-13,21.8-6.4,29.8l30.7,37.1
				L613.9,375.3z"/>
			<path class="st24" d="M613.9,375.3l-30.7-37.1c-6.7-8-20.3-7.7-30.5,0.7l-26.2,21.8c-10.2,8.4-13,21.8-6.4,29.8l30.7,37.1
				L613.9,375.3z"/>
			<path class="st25" d="M573,409.3l-42.8-51.6l-3.7,3.1c-10.2,8.4-13,21.8-6.4,29.8l30.7,37.1L573,409.3z"/>
			
				<rect x="758.5" y="322.9" transform="matrix(0.77 -0.6381 0.6381 0.77 -239.8599 663.4992)" class="st26" width="83.6" height="683"/>
			<polygon class="st27" points="1092.3,1016.9 1050.4,900.7 986,954 			"/>
			<polygon class="st28" points="1092.3,1016.9 1079.2,980.5 1059.3,997.1 			"/>
			<path class="st29" d="M540.4,419.8c-2.2-2.7-1.3-7.1,2.1-9.9l55.7-46.1c3.4-2.8,7.9-2.9,10.1-0.2l10.5,12.7
				c2.2,2.6,1.3,7.1-2.1,9.8L561,432.3c-3.4,2.8-7.9,2.9-10.1,0.2L540.4,419.8z"/>
			<polygon class="st25" points="986,954 1008.8,935.1 573,409.3 550.2,428.1 			"/>
			<path class="st30" d="M540.4,419.8c-2.2-2.7-1.3-7.1,2.1-9.9l55.7-46.1c3.4-2.8,7.9-2.9,10.1-0.2l10.5,12.7
				c2.2,2.6,1.3,7.1-2.1,9.8L561,432.3c-3.4,2.8-7.9,2.9-10.1,0.2L540.4,419.8z"/>
			<path class="st31" d="M561,432.3l18.4-15.3l-18.5-22.3L542.5,410c-3.4,2.8-4.3,7.2-2.1,9.9l10.5,12.7
				C553.1,435.2,557.6,435.1,561,432.3z"/>
			<polygon class="st25" points="1092.3,1016.9 1008.8,935.1 986,954 			"/>
		</g>
		<g>
			<path class="st32" d="M619.4,413.6c14.7-12.3,30.5-13,46.5-3c10.9,6.8,20.4,20.2,19.9,34.4c-0.5,11.5-8.3,41.4-15.2,48.7
				c-4.9,5.2-13.3,12.9-21.5,13.9c-13,1.6-23.4-3-33.4-12.2c-6.1-5.7-11.4-18.6-12.3-26C600.8,447.5,601.6,428.4,619.4,413.6z"/>
			<path class="st32" d="M645.7,489.3l-12.5,41.5c0,0-5.5,8.2-17.3,5.2c-11.8-3-21-22.1-21-22.1l25.5-38.6L645.7,489.3z"/>
			<path class="st33" d="M636.3,466.5c2.2,8.8,6,17.2,15.8,18.8c1.2,0.2,1.5,2.2,0.1,2.3c-12.2,1-17.9-10.3-17.3-21
				C634.9,465.7,636.1,465.8,636.3,466.5z"/>
			<path class="st33" d="M644.4,451.4c5.4,0.5,4.6,8.8-0.8,8.3C638.2,459.2,639,450.9,644.4,451.4z"/>
			<path class="st33" d="M673.1,466.6c4.7,0.4,4,7.7-0.7,7.2C667.7,473.3,668.4,466.1,673.1,466.6z"/>
			<path class="st34" d="M639.4,506.7c-8.3,0.5-16.6-7.2-22.9-11.8c-0.8-0.6-1.8,0.6-1.1,1.3c5,4.8,16.3,16.9,24.1,11.5
				C639.9,507.4,639.9,506.7,639.4,506.7z"/>
			<path class="st33" d="M661.4,461c0.1-0.4-0.2-0.6-0.5-0.5c-4.2,2.1-3.3,7.7-3,11.8c-1.4,1.1-3.3,2.3-4.9,2.1c-0.6,0-1,0.6-0.5,1
				c2.1,2.3,5.9,0.9,8.3-0.1c1-0.4,1.4-1.2,1.5-2.2C662.5,469.1,659.9,465.1,661.4,461z"/>
			<path class="st35" d="M649.9,444.7c-0.9-1.5-2.7-1.6-4.3-1.7c-2-0.1-3.4,0-5.2,0.9c-0.3,0.2-0.3,0.7,0.1,0.8
				c0.6,0.2,1.2,0.7,1.8,0.7c0.9,0.1,1.7,0.2,2.6,0.3c1.6,0.2,2.9,1,4.5,0.6C650.1,446.2,650.3,445.3,649.9,444.7z"/>
			<path class="st35" d="M678.1,455c-1.4-0.9-2.8-1-4.4-0.9c-1.5,0.2-2.2,2.4-0.6,3.1c1,0.4,1.8,1,2.8,1.4c0.4,0.2,0.9,0.5,1.2,0.7
				c0.6,0.5,1.2,0.5,2,0.6c0.9,0.1,1.8-0.5,1.7-1.4C680.5,456.7,679.6,455.9,678.1,455z"/>
			<path class="st35" d="M602.8,475.4c4.2,3.2,4-19.1,12.2-27c2.6,7.6,7.2,2.4,9-0.5c4.7-7.6,13.6-25.8,13.6-25.8
				s9.2,10.7,20.3,14.8c11,4.1,16.1,2.9,16.1,2.9s8.6,15,13.6,11.7c5-3.3-2.7-23.8-2.7-23.8s6,5.9,9.1,0.1
				c3.1-5.8-25.6-39.1-45.6-35.7c-20.1,3.3-21.5,8.2-21.5,8.2s-18.8-3.7-28.4,23.2c-3.6,10-5.1,26.3-3.2,34.7
				C597.1,466,599.6,472.9,602.8,475.4z"/>
			<g>
				<path class="st32" d="M599.1,445.4c1.3-2.8,5.1-5.8,9.9-4.9c4.9,0.9,5.5,5.6,6.8,7.8c1.2,1.9-1.7,17.6-5.2,18.7
					c-3,0.9-5.9-0.6-7.9-2.8C598.2,459.5,596.3,451.5,599.1,445.4z"/>
				<path class="st34" d="M607.9,445.4c-0.5-0.4-1.1,0.3-0.6,0.7c1.4,1.3,2.2,3.7,2.4,6c-4.2-1-6.4,10.2-0.5,8
					C614.4,458.2,611.2,447.8,607.9,445.4z M608,457.2c0-1.3,0.8-2.3,1.8-3.1c0,0.5,0,1-0.1,1.4C609.6,456.2,608.1,459.1,608,457.2z
					"/>
			</g>
		</g>
		<g>
			<path class="st32" d="M786.8,573.7c1.2-2.4,3.7-3.5,6-3.1c0.4-0.3,0.9-0.5,1.4-0.3c2.4,0.8,3.2,2.9,3.4,5.3
				c3.9-2.7,9.3-2.1,14.1,2.6c8.2,8.3,17.6,19.9,18.7,28.2c0.9,7.1-4.1,17.2-9,20.8c-2.6,1.9-7.6,4.8-7.3-0.7c-3,0.8-4.3,0.7-6-0.4
				c-2.3-1.4-2.8-4.3-2-7.9c-4.3,0.4-10.4-5.6-9.4-10.6c-3.2-0.1-4-8.2-4.7-12.1c-0.6-3.2,0.2-5.9,0.3-8.6c-2,0.3-4.2-0.5-5.3-2.2
				C785,581.6,785.2,576.9,786.8,573.7z"/>
			<path class="st34" d="M813.1,626.9c6.8-7.3,10.4-18.5,9.6-28.4c-0.1-1.1,1.5-1.3,1.8-0.3c3.2,9.3-0.1,26.5-10.7,29.7
				C813.2,628,812.7,627.3,813.1,626.9z"/>
			<path class="st34" d="M805.7,617c7.3-8.5,8.5-20.1,10.6-30.8c0.2-0.9,1.3-0.7,1.3,0.1c1,9.5-1.7,27.8-11.5,31.6
				C805.8,618.1,805.4,617.4,805.7,617z"/>
			<path class="st34" d="M795.8,581.2c0.6-1.4,1-3,1.5-4.4c0.3-0.8,1.8-0.5,1.7,0.4c-0.2,2.8-1.2,8.2-4.3,9.3
				c-0.7,0.2-1.5-0.4-1.2-1.1C794,583.8,795.1,582.6,795.8,581.2z"/>
			<path class="st34" d="M807.1,579.5c-0.1-1.3,1.9-1.4,2-0.1c0.4,5.4-1.4,10.2-3.3,15.2c-1.8,4.7-3.2,9.9-8,12.3
				c-0.5,0.2-1.1-0.2-0.8-0.7C801.5,598.1,807.6,589.3,807.1,579.5z"/>
		</g>
		<path class="st32" d="M694.2,602.4c4.7-4.9,19.2-8.3,14.7-12.6c-3.9-3.7-12.9-3.3-18-1.1c-5.1,2.2-23.6,8.6-23.6,8.6l-4.3,28.5
			c0,0,29.7,14.8,47.8,9.6c3.4-1,7.9-1.1,10.9-2.7c3.9-2,12.2-6,8.8-8.3c2.5-2.5,4.4-5.3,5.6-8.2c1.1-2.8,2.2-7.6-1.2-7.6
			c1.7-2.1,1.8-3.8,1.1-6.3c-0.7-2.4-3.9-3.3-7.4-1.6c1-4.4-3.5-5.4-8-4.6C710.3,597.9,696.9,604.4,694.2,602.4z"/>
		<path class="st34" d="M696.8,609.6c11.6-0.1,22.1-4.6,32.2-9.9c0.7-0.4,1.3,0.5,0.6,1c-9.9,7.4-20.5,11.8-32.9,9.3
			C696.5,610,696.6,609.7,696.8,609.6z"/>
		<path class="st34" d="M703.4,621.5c12.3-0.5,21.1-7.7,31.2-13.7c0.6-0.3,1.3,0.4,0.8,0.9c-8.3,7.9-19.9,17.2-32,13.4
			C703,622.1,703,621.6,703.4,621.5z"/>
		<path class="st34" d="M702.4,631.3c4.8-1.3,9.8-0.8,14.5-2.4c4.2-1.5,7.3-4.1,11.8-4.4c0.6,0,0.8,0.9,0.2,1.1
			c-4.1,0.9-7.6,3.4-11.4,5.1c-4.8,2.1-10,1.2-15,1.3C702.2,632,702,631.4,702.4,631.3z"/>
		<path class="st22" d="M582.3,503.1c-7.4-13.3-38.5-5.5-54.8,25.7c-8.6,16.5-9.1,47.3-4.6,53.7c4.5,6.5,53-14.9,53-14.9
			C577.8,547.3,587.6,512.5,582.3,503.1z"/>
		<path class="st32" d="M669.5,598c-1.9-3.9-77.8,9.6-90.4-1.3c-3.6-3.1-6.2-30.6-12.9-33.6c-12.9-5.8-42,17.4-42,17.4
			c-0.1,14.7,5.1,29,7.1,37.5c4.4,18.6,23.3,17.3,38.8,16.8c15.5-0.5,92-7.9,95.6-10.3C669.2,622,671.4,601.9,669.5,598z"/>
		<path class="st36" d="M581,517.3c-0.1-1.6-2.4-1.6-2.5,0c-0.8,9.1-1.2,18.2-2.5,27.2c-1.1,7.2-4.4,14.3-3.1,21.5
			c0.2,0.8,1.3,1,1.8,0.5c4.6-4.8,5.1-11.4,5.8-17.9C581.7,538.2,581.9,527.7,581,517.3z"/>
		<path class="st26" d="M1108.4,1025.3c-5.4-4.9-13,1.2-9.9,7.6c4.2,8.7,9.3,8.3-0.1,8.7c-8.8,0.4-17.8-2.1-26.3-3.9
			c-12.8-2.7-25.5-6.3-38.4-8.1c-8.1-1.1-15.2,4.5-13.2,13.2c5.7,24.9-83.8,5.4-95.9,3.8c-8.4-1.1-54.5,3.9-30.5,20.2
			c2.1,1.5,5.9,0.6,7-1.8c3.7-8.2,67.7,9.1,80,10.1c22.2,1.8,52.8-1.2,59.4-22.2c20.4,4.6,40.5,11.6,61.7,10.1
			C1127.2,1061.1,1122.2,1037.8,1108.4,1025.3z"/>
	</g>
	<g>
		<path class="st37" d="M1550.1,951.7c-20.1-2.6-39.3,5.6-31.1-24.4c6.7-24.4,22-44.3,42-59.4c34.5-26,65.8-55.6,56.8-103.2
			c-7.7-40.4-50.3-36.1-74.2-14.5c-6.1,5.5-11.7,11.6-17.7,17.3c-13.9,13-10.7-3.6-8.9-15.5c3.7-25.1,21.2-51.5,31.7-74.2
			c15.4-33.1,26.1-103.5-27.5-109.9c-50.6-6.1-51,122.2-74.1,134.3c-23.1,12.1-22.7-42.7-35.1-52.9c-14.2-11.6-35.4-13.2-47.9,2.1
			c-29.6,36.3-18.6,96.8-4,136.1c4.7,12.9,14,29.2,14,43c0,13.3-22.7-12.2-26.1-15c-14.6-12-38.4-15.4-51.6,0.2
			c-57.6,67.5,70.6,156.9,55.3,232.5c-4.2,20.5-19.4,52.2-9,72.5c33.9,66.2,128.5-58.2,172.1-62.9c13.4-1.4,25.5-7,36.6-14.3
			C1576.5,1027.2,1592.6,957.3,1550.1,951.7z"/>
		<path class="st38" d="M1569.5,802.9c-17.2,12.3-35,22.6-53.2,33.4c-18.2,10.7-34.3,23.7-53,33.4c16.8-77.7,30.6-157.3,55.1-232.8
			c1-3.1-3.8-4.4-4.9-1.3c-26.7,75.8-38.5,157.3-58.1,235.2c-12-13.1-15.6-34.2-22.7-50c-13.9-31.2-25.9-61.9-35.7-94.5
			c-1-3.3-6.7-2.9-6.3,0.8c4.1,38.1,20.9,70.9,35.3,105.7c5.3,12.9,12.6,38.6,27.5,45.5c-9.8,38.1-20.9,76-33.8,113.1
			c-2.2,6.4-5,13.1-8.1,19.9c-6-15.2-12.5-30.6-20.1-44.8c-16.3-30.6-41.7-56.1-57.9-87.3c-1.4-2.8-5.4-0.3-4.1,2.4
			c14.4,32.3,35.4,59.9,55.6,88.7c10.1,14.3,10.2,36.9,22.7,49.6c-11.9,25.8-25.5,53.2-25.3,79.1c0,3,4.2,4.2,5.7,1.5
			c14.5-25.6,24.2-55.6,34-83.9c26.5,1,52.9-2.7,79.2-5.9c15.1-1.9,32.2-2.6,41.7-15.8c0.8-1.2-0.6-3.1-2-2.5
			c-36,14.9-78.3,15.7-116.9,18.5c0.8-2.2,1.6-4.5,2.4-6.7c13.9-38.6,24.6-78.9,33.5-118.9c0.6-2.8,1.2-5.6,1.8-8.4
			c22.3-4.1,41.3-18.8,59.9-31c19.2-12.5,37.8-20.4,48.9-41.6C1570.9,803.4,1570.2,802.5,1569.5,802.9z"/>
	</g>
	<g>
		<rect x="1202.3" y="494.5" class="st5" width="334.9" height="118.8"/>
		<circle class="st0" cx="1477.1" cy="553.9" r="39.8"/>
		<g>
			<rect x="1220" y="520.4" class="st0" width="150.4" height="11.4"/>
			<rect x="1218.7" y="548.2" class="st0" width="200.9" height="11.4"/>
			<rect x="1218.7" y="576" class="st0" width="200.9" height="11.4"/>
		</g>
	</g>
	<g>
		<path class="st32" d="M1350.8,983.5c0,0-11,53.3-23.5,55.8c-12.5,2.5-11.5,23.2,13,29.7c24.5,6.4,31.1-20.2,31.1-20.2l20.4-75.6
			L1350.8,983.5z"/>
		<g>
			<path class="st39" d="M1034.6,1164.7c0,0,193.9-57.9,226.1-58.3c23.7-0.3,210.3,34.8,213.8,42.6c3.4,7.8-11.1,69.2-27.9,74.7
				c-16.8,5.5-159.5-45.5-182.1-47.7c-22.7-2.2-226.9,32-229.2,26.8C1032.9,1197.6,1034.6,1164.7,1034.6,1164.7z"/>
			<g>
				<path class="st40" d="M1035.9,1163.3c0,0-62.6-53.2-73.5-44.1c-10.8,9.1,27.8,99.5,44.8,98.5c14.2-0.8,33.3-13.2,33.3-13.2
					L1035.9,1163.3z"/>
				<path class="st41" d="M1016.3,1158.9c1.8-4.4,3.5-8.9,3.1-13.8c-0.3-2.8-4.6-3.9-5.3-0.7c-0.9,4.5-2.4,8.9-4.3,13.1
					c-1.8,4-3.6,7.3-2.9,11.7c0.1,0.9,1.4,1.5,2.2,0.9C1013,1167.3,1014.5,1163.3,1016.3,1158.9z"/>
				<path class="st41" d="M1028.4,1154.8c0.6-2.4-2.7-3.8-4-1.7c-1.7,2.7-3,5.4-4.2,8.3c-1.4,3.1-3.6,6-4.3,9.4
					c-0.4,2.1,1.7,4.1,3.7,2.9C1025.3,1170.1,1026.9,1160.9,1028.4,1154.8z"/>
			</g>
		</g>
		<path class="st42" d="M1421.6,889.9c0,0-40.5,6.1-51.9,27.3c-11.4,21.2-23.7,57.5-23.1,68.2c0.5,10.5,24.2,4.6,25.1,15.8
			c0.6,6.9-2.7,22.6-2.6,29.9c1.1,44.4-7.9,79.6-5.2,82.6c12,13.3,99.5,61.6,110.7,66c11.2,4.4,23.5-72.7,29.6-116.8
			c6-44.1,32.7-144.3-5.7-162.7C1460,881.7,1421.6,889.9,1421.6,889.9z"/>
		<g>
			<path class="st32" d="M1409,873.5l3.5,36.5c0,0,17.5,13.6,28.2,3.9c3.2-2.9,11.1-11.7,9.2-20c-2-8.2-8.7-30.1-8.7-30.1
				L1409,873.5z"/>
			<path class="st32" d="M1376.7,804.5c-4.4,27.4-1.3,66.3,23.8,74.8c25.1,8.4,57.5-6.3,62.9-51c5.3-44.7-6.7-69.8-33.3-69.1
				C1403.5,759.9,1381.2,777.1,1376.7,804.5z"/>
			<path class="st33" d="M1426.2,845.5c-2.5,3.6-5.7,7.1-9.4,9.4c-4.5,2.9-10,1.1-14.7-0.4c-1.5-0.5-2.3,1.5-1.2,2.4
				c4.5,3.6,10.5,5.3,16.1,3c6.2-2.5,9-7.7,10.3-13.9C1427.5,845.3,1426.6,844.8,1426.2,845.5z"/>
			<path class="st34" d="M1436.5,869.3c-5.8,3.4-12.4,8-19.5,7.3c-1.9-0.2-2,2.6-0.2,3c8.3,1.5,15.5-3,20.4-9.3
				C1437.7,869.7,1437,869,1436.5,869.3z"/>
			<path class="st33" d="M1405.3,841.4c-1.9-0.8-3.7-1.7-5.3-3.1c-2.2-1.9,0.3-3.8,1.7-5.3c3-3.2,2.4-6.4,1.5-10.3
				c-0.3-1.2-2.4-1.6-2.7-0.1c-0.3,1.3-0.4,2.5-0.4,3.8c0,2.2-1.2,3.2-2.7,4.5c-1.6,1.5-3.1,3.7-2.8,6c0.6,4.5,5.7,6.8,9.5,8
				C1406.5,845.6,1407.5,842.3,1405.3,841.4z"/>
			<path class="st33" d="M1426.4,819.8c-7-0.4-7.6,10.5-0.6,10.9C1432.9,831.1,1433.4,820.2,1426.4,819.8z"/>
			<path class="st33" d="M1386.7,825.4c-6.6-0.3-7.1,9.8-0.5,10.2C1392.8,835.9,1393.3,825.8,1386.7,825.4z"/>
			<path class="st43" d="M1369.1,800.2c0,0,13.8,11.2,28,3.7c14.2-7.5,26-14.2,26-14.2s-13.1,18.6-4.7,17
				c8.4-1.6,18.6-17.6,18.6-17.6s7.2,25.1,11.9,36.7c4.8,11.6,16.1-5.7,20.6-14.6c4.5-8.9,3.2-36.8-2.7-46.4
				c-5.9-9.7-17.2-6.1-17.2-6.1s-36.8-10.8-47.4-2.2c-10.5,8.5-22.2,18.4-29.6,16.2c-7.4-2.2-15.6,3.2-10.5,9.8
				c0,0-12.8-0.7-5.7,8.9C1363.7,801,1369.1,800.2,1369.1,800.2z"/>
			<path class="st32" d="M1455.7,818.6c3.2-9.7,14.4-18.6,17.8-7.2c3.4,11.4-2.6,27.4-12,31C1452.1,846,1452.5,828.4,1455.7,818.6z"
				/>
			<path class="st34" d="M1466.8,827.8c-0.5-3.5-4.2-3.7-6.4-1.6c0,0,0,0,0,0.1c0.8-4.3,3.6-9.6,4.8-11.4c0.6-0.8-0.7-1.9-1.4-1.1
				c-3.4,4-5.6,9.5-6.1,14.7c-0.3,3,2,7.6,5.6,6.5C1466,834.1,1467.2,830.3,1466.8,827.8z M1464,829.2c-0.1,0.9-0.9,3.6-2.1,2.9
				c-1.4-0.8-1.8-2.5-1.6-4.5c0.2,0.5,0.8,0.9,1.4,0.7C1463.3,827.8,1464.1,827.1,1464,829.2z"/>
			<path class="st43" d="M1431.4,809.7c-0.8-0.7-1.5-1.3-2.6-1.6c-1.2-0.3-2.5-0.6-3.7-0.7c-1.6-0.1-1.7,2.6,0,2.6
				c1.1,0,2.1,0.1,3.1,0.3c1,0.2,1.9,0.1,2.9,0C1431.4,810.3,1431.6,809.9,1431.4,809.7z"/>
			<path class="st43" d="M1390.1,812.4c-2.4-1.2-5.2,0-7.7,0.6c-1.2,0.3-0.7,2.1,0.5,1.8c2.4-0.5,5.1-0.6,7.2-1.7
				C1390.4,813,1390.4,812.6,1390.1,812.4z"/>
		</g>
		<g>
			<path class="st32" d="M1468.2,990.4c0,0-17.9,51.1-26.2,52.7c-5,1-34,3.7-64.3,0.9c-20-1.9-20.1-11.4-46.1-9.6
				c-26,1.8-21.8,21.7-21.8,21.7s150.3,41.2,164.3,27c14.1-14.3,37-73.6,37-73.6L1468.2,990.4z"/>
			<path class="st42" d="M1475.7,925.6c0,0-22.8,64-20.4,72.8c2.3,8.8,51.5,21.9,58.4,19.2c6.9-2.7,11.7-84.1,2-99.2
				C1498.4,891.6,1480.2,906.8,1475.7,925.6z"/>
			<path class="st44" d="M1474.1,923.4c-7.4,11.1-10.3,24.1-13.5,36.9c-3.2,12.5-10.6,29.2-4.9,41.6c0.7,1.5,2.8,1.3,3.2-0.3
				c6.4-25.3,7.6-51.7,18.9-75.9C1478.8,923.5,1475.5,921.2,1474.1,923.4z"/>
			<g>
				<path class="st45" d="M1405.1,1072.1l-69.7-15.7c-1.5-29-11.3-98.9-14.4-102.8c-3.8-4.8-146.3-16.7-151-11.2
					c-4.7,5.5,20.8,118.5,20.8,118.5s208,19.5,212.2,19.9C1407.1,1081.1,1405.1,1072.1,1405.1,1072.1z"/>
				<path class="st46" d="M1257.9,1004.5c1.3,8.8-4.3,17-12.4,18.3c-8.1,1.3-15.7-4.9-16.9-13.7c-1.3-8.8,4.3-17,12.4-18.3
					C1249.1,989.5,1256.6,995.7,1257.9,1004.5z"/>
				<path class="st47" d="M1318.4,1066c-18.3-3.9-36.6-4.9-55.1-6.3c-19.8-1.5-39.6-3.3-59.4-3.6c-1.9,0-2.1,2.8-0.3,3.1
					c18.2,3.1,36.8,4.3,55.2,5.7c19.8,1.5,39.5,3.5,59.4,3C1319.4,1067.8,1319.5,1066.2,1318.4,1066z"/>
				<path class="st47" d="M1321.7,1017.7c-2.8-16.2-3.6-34-9.3-49.4c-0.5-1.3-2.5-0.9-2.5,0.5c0.1,16.5,4.4,33.6,7,49.8
					c2.5,15.5,3.8,34.7,11.8,48.3c0.4,0.7,1.8,0.8,1.8-0.3C1330.4,1050.5,1324.5,1033.6,1321.7,1017.7z"/>
			</g>
		</g>
		<g>
			<path class="st48" d="M1090.4,1189.1c0,0-78.6,23.9-76.8,38c1.8,14.1,98.7,30.4,107.1,15.6c7-12.3,6.9-35.2,6.9-35.2
				L1090.4,1189.1z"/>
			<path class="st49" d="M1476.3,1172.7c-8.3-3.2-34.1-38.2-78.4-63c-61.2-34.3-133-85.1-153.8-74c-35.9,19.2-162.4,150.3-159,158.1
				c3.4,7.8,37.3,22,40.9,19.9c3.6-2.2,121.7-86.5,121.7-86.5s150.3,120,188.4,103.2C1474.2,1213.6,1484.6,1175.9,1476.3,1172.7z"/>
			<path class="st50" d="M1076.1,1203.1c-2.8-3.9-5.6-7.8-9.9-10c-2.5-1.3-5.8,1.8-3.4,4c3.3,3.2,6.2,6.8,8.7,10.7
				c2.4,3.7,4.2,6.9,8.3,8.7c0.8,0.4,2-0.4,2-1.3C1081.4,1210.4,1078.8,1207,1076.1,1203.1z"/>
			<path class="st50" d="M1079.2,1190.7c-1.7-1.8-4.7,0.2-3.6,2.5c1.4,2.8,2.9,5.4,4.7,8c1.9,2.8,3.1,6.3,5.6,8.7
				c1.5,1.5,4.4,0.8,4.4-1.6C1090.4,1201.6,1083.5,1195.3,1079.2,1190.7z"/>
		</g>
		<path class="st44" d="M1377.5,929.3c-5.5,9.2-4.5,19.5-5.5,29.9c-1.3,13.7-2.2,28-2.2,36.8c0,11.7-0.1,33.1,1.7,27
			c7.3-24.1,2.3-69.4,9-92.2C1381.1,928.9,1378.5,927.5,1377.5,929.3z"/>
	</g>
</g>
</svg>
