<?xml version="1.0" encoding="utf-8"?>
<!-- Generator: Adobe Illustrator 25.2.0, SVG Export Plug-In . SVG Version: 6.00 Build 0)  -->
<svg version="1.1" id="Layer_1" xmlns="http://www.w3.org/2000/svg" xmlns:xlink="http://www.w3.org/1999/xlink" x="0px" y="0px"
	 viewBox="0 0 1920 1326" style="enable-background:new 0 0 1920 1326;" xml:space="preserve">
<style type="text/css">
	.st0{fill:#FFFFFF;}
	.st1{fill:#DFF2F8;}
	
		.st2{opacity:0.5;fill:none;stroke:#FFFFFF;stroke-width:0.5;stroke-linecap:round;stroke-linejoin:round;stroke-miterlimit:10;stroke-dasharray:4;}
	.st3{opacity:0.5;}
	.st4{fill:none;stroke:#FFFFFF;stroke-width:0.5;stroke-linecap:round;stroke-linejoin:round;}
	.st5{fill:none;stroke:#FFFFFF;stroke-width:0.5;stroke-linecap:round;stroke-linejoin:round;stroke-dasharray:4.0374,4.0374;}
	.st6{fill:#7F9DDD;}
	.st7{opacity:0.5;fill:#A9CCFF;}
	.st8{fill:none;stroke:#002A4A;stroke-miterlimit:10;}
	.st9{fill:#A9CCFF;stroke:#002A4A;stroke-miterlimit:10;}
	.st10{fill:none;stroke:#FFFFFF;stroke-miterlimit:10;}
	.st11{fill:#FFC536;}
	.st12{fill:#F9EBE1;}
	.st13{fill:#42AAED;}
	.st14{fill:#002A4A;}
	.st15{opacity:0.43;}
	.st16{clip-path:url(#SVGID_1_);}
	.st17{fill:none;stroke:#002A4A;stroke-linecap:round;stroke-linejoin:round;stroke-miterlimit:10;}
	.st18{fill:#3968CB;}
	.st19{fill:#FFFFFF;stroke:#FFFFFF;stroke-linecap:round;stroke-linejoin:round;stroke-miterlimit:10;}
	.st20{fill:none;stroke:#FFFFFF;stroke-linecap:round;stroke-linejoin:round;stroke-miterlimit:10;}
	.st21{opacity:0.28;}
	.st22{fill:#A9CCFF;}
	.st23{fill:#FF68A8;}
	.st24{fill:none;stroke:#A9CCFF;stroke-miterlimit:10;}
	.st25{fill:#FFAED0;}
	.st26{fill:none;stroke:#FFAED0;stroke-linecap:round;stroke-linejoin:round;stroke-miterlimit:10;}
	.st27{fill:none;stroke:#FF68A8;stroke-width:4;stroke-linecap:round;stroke-linejoin:round;stroke-miterlimit:10;}
	.st28{fill:#F9A80F;}
	.st29{fill:#FBC35A;}
</style>
<rect x="-139.2" y="-82.3" class="st0" width="2362.2" height="1701.9"/>
<g>
	<path class="st1" d="M726.4,684.8C536,494.5,69.2,424.3,69.2,773s288.5,665.3,649.2,424.8S726.4,684.8,726.4,684.8z"/>
	<path class="st1" d="M1368.9,324.8c-26.7,158.3,100.6,354.1,270.1,185s223.7-422.7-18-431S1368.9,324.8,1368.9,324.8z"/>
	<path class="st2" d="M671.7,705.8c-60.3,22.5-128.7,429.8,219.6,429.8s385.6-239.4,286.1-466.4"/>
	<path class="st2" d="M981.3,322.3c0,0,159.1-1.9,159.1-140"/>
	<path class="st2" d="M326.7,584.6c0,0-170.4-156.1-48.8-349.5c153.7-244.5,553.2-90.8,489.4,207"/>
	<g class="st3">
		<g>
			<path class="st4" d="M1506.8,969.2c0.7-0.1,1.3-0.2,2-0.3"/>
			<path class="st5" d="M1512.7,968.1c136.2-28.4,126.3-276.6-69.4-279.9"/>
			<path class="st4" d="M1441.3,688.2c-0.7,0-1.3,0-2,0"/>
		</g>
	</g>
	<polygon class="st6" points="1456.2,49.5 1417.5,68.3 1378.7,87 1378.7,49.5 1378.7,11.9 1417.5,30.7 	"/>
	<path class="st7" d="M1432.4,747.9h47.1c9.3,0,16.9,8.3,16.9,18.5v2.3h62.9c4.9,0,8.8,4.3,8.8,9.7v67.1c0,5.3-4,9.7-8.8,9.7h-117.1
		c-4.8,0-8.8-4.3-8.8-9.6L1432.4,747.9z"/>
	<g>
		<g>
			<line class="st8" x1="191.8" y1="376.3" x2="494.2" y2="376.3"/>
			<line class="st8" x1="191.8" y1="415.6" x2="494.2" y2="415.6"/>
			<rect x="273.3" y="376.3" class="st9" width="160.4" height="38.8"/>
			<line class="st8" x1="224.6" y1="415.5" x2="527" y2="415.5"/>
			<line class="st8" x1="224.6" y1="454.8" x2="527" y2="454.8"/>
			<rect x="306.1" y="415.5" class="st9" width="160.4" height="38.8"/>
		</g>
		<g>
			<line class="st10" x1="329.1" y1="457.6" x2="329.1" y2="375.1"/>
			<circle class="st0" cx="329.1" cy="371.6" r="4.2"/>
		</g>
	</g>
	<g>
		<path class="st11" d="M1389.2,977.8H433.9c-7.8,0-14.1-6.3-14.1-14.1V284c0-8.4,6.8-15.2,15.2-15.2h954.3
			c7.8,0,14.1,6.3,14.1,14.1v680.8C1403.4,971.5,1397.1,977.8,1389.2,977.8z"/>
		<path class="st8" d="M419.7,328.9c0,0-1.2-60.1,56-60.1s366.7,0,366.7,0"/>
		<path class="st8" d="M544.4,978.3h520c0,0,270.2,0,283.1,0"/>
		<circle class="st12" cx="921.7" cy="910.4" r="26.1"/>
		<path class="st13" d="M1375.2,866.2H447.9V312.9c0-7.8,6.4-14.2,14.2-14.2H1362c7.3,0,13.2,5.9,13.2,13.2V866.2z"/>
		<path class="st8" d="M447.9,866.2V354.9c0-31.1,25.2-56.2,56.2-56.2h818.7"/>
		<path class="st14" d="M1347.4,977.8c33.2,0,56-26.9,56-60.1V328.9c0-33.2-22.8-60.1-56-60.1c0,0,84,0.2,84,77.9
			c0,113.5,0,428.6,0,547.4C1431.4,982.9,1347.4,977.8,1347.4,977.8z"/>
		<path class="st11" d="M750.2,1135c0-16.1,11-21.1,33-21.1c20.7,0,63.2-21.6,77.6-117.4c0.9-5.8,1.6-11.8,2.3-18.1h201.3
			c0,0-15.2,75-75.2,135c0,0,14.4,0,24.6,0s23.5,11.5,23.5,22.5L750.2,1135z"/>
		<path class="st14" d="M1028.1,1061.9c27.4-32.6,36.2-83.6,36.2-83.6H863.1c-0.7,6.3-1.4,12.3-2.3,18.1l146.1,16.2
			c13.4,1.5,24.4,11.3,27.4,24.5l0,0l-2.7,12.8l-12.9,6.3C1016.1,1062.1,1023.9,1066.8,1028.1,1061.9z"/>
		<path class="st14" d="M931.5,1135.4c0-16.1,10.6-21.6,32.6-21.6c22,0,79.9-82.5,79.9-135.5h20.3c0,0-3.9,82.5-71.6,135
			c0,0,10.8,0,21,0s23.5,11.5,23.5,22.5L931.5,1135.4z"/>
		<polyline class="st8" points="929.2,863.8 1375.2,863.8 1375.2,762.7 		"/>
		<g class="st15">
			<rect x="451.4" y="437.9" class="st10" width="923.4" height="342.5"/>
			<rect x="544.6" y="496.2" class="st0" width="212.5" height="227.6"/>
			<rect x="474.5" y="456.6" class="st0" width="55.9" height="19.5"/>
			<rect x="563" y="456.6" class="st0" width="55.9" height="19.5"/>
			<rect x="649.1" y="456.6" class="st0" width="55.9" height="19.5"/>
			<rect x="737.6" y="456.6" class="st0" width="55.9" height="19.5"/>
			<rect x="820" y="456.6" class="st0" width="55.9" height="19.5"/>
			<rect x="908.5" y="456.6" class="st0" width="55.9" height="19.5"/>
			<rect x="994.6" y="456.6" class="st0" width="55.9" height="19.5"/>
			<rect x="1083.1" y="456.6" class="st0" width="55.9" height="19.5"/>
			<rect x="474.5" y="743.1" class="st0" width="55.9" height="19.5"/>
			<rect x="563" y="743.1" class="st0" width="55.9" height="19.5"/>
			<rect x="649.1" y="743.1" class="st0" width="55.9" height="19.5"/>
			<rect x="737.6" y="743.1" class="st0" width="55.9" height="19.5"/>
			<rect x="820" y="743.1" class="st0" width="55.9" height="19.5"/>
			<rect x="908.5" y="743.1" class="st0" width="55.9" height="19.5"/>
			<rect x="994.6" y="743.1" class="st0" width="55.9" height="19.5"/>
			<rect x="1083.1" y="743.1" class="st0" width="55.9" height="19.5"/>
			<rect x="1159.4" y="456.6" class="st0" width="55.9" height="19.5"/>
			<rect x="1159.4" y="743.1" class="st0" width="55.9" height="19.5"/>
			<rect x="1231.9" y="456.6" class="st0" width="55.9" height="19.5"/>
			<rect x="1231.9" y="743.1" class="st0" width="55.9" height="19.5"/>
			<rect x="1308.2" y="743.1" class="st0" width="55.9" height="19.5"/>
			<rect x="803.4" y="496.2" class="st0" width="212.5" height="227.6"/>
			<rect x="1060" y="496.2" class="st0" width="212.5" height="227.6"/>
			<rect x="1317.8" y="496.2" class="st0" width="51" height="227.6"/>
			<rect x="456.9" y="496.2" class="st0" width="42.8" height="227.6"/>
			<rect x="1308.2" y="456.6" class="st0" width="55.9" height="19.5"/>
		</g>
		<g>
			<defs>
				<path id="SVGID_3_" d="M1375.2,866.2H447.9V354.9c0-31.1,25.2-126.1,50.8-127h818.7c34.3,0.9,57.8,94.2,57.8,123.1V866.2z"/>
			</defs>
			<clipPath id="SVGID_1_">
				<use xlink:href="#SVGID_3_"  style="overflow:visible;"/>
			</clipPath>
			<g class="st16">
				<path class="st0" d="M1067.9,878.1c0,0-18.5-137.2-21.3-159.1l55.1-7l49.9-6.3c0,0,20.8,193.9,9.5,202.5"/>
				<path class="st14" d="M1067.9,878.1c0,0-18.5-137.2-21.3-159.1l55.1-7L1067.9,878.1z"/>
				<path class="st17" d="M1152.2,718.3c0,0,14.2,88.4,11.3,144.5"/>
				<path class="st18" d="M760.4,481c0,0,90.6,13.6,177.8,47.9l68.2,14.2c0,0,65.4,31.3,105.1,65.4c23.1,19.8,40.6,76.3,40.6,109.8
					l-82.3,16.5l-19.4,153.1c0,0-121.4,47.5-303.9-24.4l43.5-239.1c0,0-54.4-23.7-65.1-36.2C725,588.2,739.8,517.1,760.4,481z"/>
				<polygon class="st14" points="1085.7,649.3 1087.7,728 1069.9,734.8 				"/>
				<path class="st0" d="M785.7,255.7c-7.1-3.5-16.3,9-23.5,20.3c-7.2,11.3-22.6,37-22.6,37s-54.6,39.3-98.4,90.8
					c-26.6,31.3-49.7,59.2-63.7,98c0,0,60.5,58.3,149.9,77.2l33-98l-45.7-14.3c0,0,75.5-92.7,85-100.8c0,0,5.9,1.4,28-2.3
					s31.6-7.2,31.6-11.3c0-4.1-1.8-9.9-28-8.6l-5.4-6.8c0,0,40.6-41.1,43.4-46.5c2.7-5.4-2.7-7.7-19-2.7
					c-16.3,5-24.4,12.6-24.4,12.6s10.8-15.8,18.5-27.1c7.7-11.3,3.6-14.5-0.5-14.5c-4.1,0-33.1,23.1-40.8,34.4
					c0,0,24.5-40.3,19.1-43.9c-5.4-3.6-30.7,19.7-43.8,37.7C778.5,287.1,792,258.9,785.7,255.7z"/>
				<path class="st17" d="M727.4,579c-89.4-19-149.9-77.2-149.9-77.2c29.5-88.4,162.1-188.8,162.1-188.8l29.2-48.6"/>
				<path class="st0" d="M948.8,403.6c-36.6,85.2-12.6,109.2-12.6,109.2l2.1,16.2c0,0-2,26.6,21.9,33c29.4,7.9,46.3-18.8,46.3-18.8
					l7.4-14.5c0,0,32.9-13.6,38.3-97.6c0,0-10.1-19.7-48.8-28.5C964.7,393.8,948.8,403.6,948.8,403.6z"/>
				<path class="st14" d="M946.1,518.2c0,0,22.1,24.1,55.3,12.4c0,0-9.8,8.5-26.7,11.7C957.8,545.5,946.1,518.2,946.1,518.2z"/>
				<path class="st14" d="M1016.6,409.3l35.6,21.8l-11.4,41.9l6.9,0.9l16.8-40.9c0,0,26.8-20.4-0.8-42.2c-19-15-30.7,0.7-30.7,0.7
					L1016.6,409.3z"/>
				<path class="st14" d="M974.5,369.3c-9.2-4-46-0.7-37.4,38.9c0,0-4.8,23.6-5.5,34.8c-0.7,12.2,7.8,11,8.2,4.3
					c0-0.5,10.9-40.1,10.9-40.1l22.7-4.3L974.5,369.3z"/>
				<path class="st0" d="M939.2,444.8c-0.5-8.5-7.5-15.5-11.7-11.3s-10,30.5,2.7,33.7C930.2,467.2,940.2,461.2,939.2,444.8z"/>
				<path class="st0" d="M1038.2,496.2c9.1,4.1,21.9-9.7,20.6-21.1c-1.3-11.5-10.1-13.9-14-5.3
					C1040.8,478.4,1038.2,496.2,1038.2,496.2z"/>
				<path class="st17" d="M791,336.6c0,0,17.7-21.5,40.3,7.2"/>
				<path class="st17" d="M678,453c0,0,21.4-3.8,36.7,13.7l85-100.8c0,0,51.1-0.3,59.6-13.5"/>
				<path class="st17" d="M790.1,625.8c0,0,12.1-62.9,27.8-89.2"/>
				<path class="st14" d="M798.8,570.4L773,617.1l17,8.8c0,0,5.3-27.5,13.4-53.7L798.8,570.4z"/>
				<path class="st17" d="M923.4,515.6l-1.7,11.1c-0.7,12.4-1.4,39.1,33.5,48.8c34.8,9.7,52.9-6.5,62.4-21.2l4.7-9.2"/>
				<polyline class="st17" points="1165.8,714.3 1069.9,734.8 1087.5,639.2 				"/>
				<line class="st17" x1="725" y1="588.2" x2="760.4" y2="481"/>
				<path class="st17" d="M825.9,337c0,0,38.1-39.5,43.4-46.5c5.2-7-12.4-8.4-28.5,0.3c-16.1,8.8-16.1,8.8-16.1,8.8l0,0
					c0,0,24.2-29.3,24.2-35.1c0-5.9-4.9-5.6-4.9-5.6"/>
				<path class="st17" d="M805.6,288.6c0,0,21.6-35.3,16.6-39.2"/>
				<path class="st17" d="M785.7,255.7c3.1,1.4,3,16.7-7.2,31.4"/>
				<path class="st14" d="M1004.8,353.7c-29.7,0-68.5,16-55.8,50.7s81.9,18.5,94.5,0.5C1056.1,387,1047.1,353.7,1004.8,353.7z"/>
			</g>
		</g>
	</g>
	<g>
		<g>
			<path class="st14" d="M1222.7,995.7l49.2-10.3l216.1-104.8c4.8-2.3,7-7.9,5.1-12.8l-8.2-21.5c-2.2-5.6-8.7-8.2-14.1-5.5
				l-240.1,120c-7.7,3.9-12,12.3-10.5,20.8L1222.7,995.7z"/>
		</g>
		<polygon class="st19" points="1434.8,858.7 1453.7,849.4 1452.6,897.3 1431.7,907.3 		"/>
		<polygon class="st19" points="1388.5,882.2 1407.4,873 1406.2,920.9 1385.3,930.8 		"/>
		<polygon class="st19" points="1341,904.6 1359.9,895.4 1358.7,943.3 1337.8,953.2 		"/>
		<polygon class="st19" points="1296.6,926.4 1315.5,917.2 1314.4,965.1 1293.5,975 		"/>
		<polygon class="st19" points="1255.1,948.2 1274.1,938.9 1272.9,986.8 1252,996.8 		"/>
		<path class="st14" d="M1222.7,995.7l50.3,173.9c2.7,9.5,12.4,15.1,22,12.9l247.6-57.1c10-2.3,16.2-12.3,13.9-22.3l-39.3-169.4
			l-245.4,51.6L1222.7,995.7z"/>
		<polygon class="st19" points="1257.6,995.8 1237.1,1001 1269.1,1036.7 1291.5,1030.7 		"/>
		<polygon class="st19" points="1303.8,986.7 1283.4,991.9 1315.3,1027.6 1337.7,1021.6 		"/>
		<polygon class="st19" points="1346.6,977.5 1326.2,982.8 1358.2,1018.4 1380.5,1012.5 		"/>
		<polygon class="st19" points="1394,969 1373.6,974.2 1405.5,1009.9 1427.9,1003.9 		"/>
		<polygon class="st19" points="1436.8,960.4 1416.4,965.6 1448.4,1001.3 1470.7,995.3 		"/>
		<polygon class="st19" points="1483.7,950.1 1463.2,955.3 1495.2,991 1517.6,985.1 		"/>
		<path class="st20" d="M1272.7,1079.7l14.8,64c2.3,10,12.4,16.3,22.4,13.9l206.8-49.1c9.8-2.3,16-12.1,13.9-22l-12.2-56.4
			c-2.1-9.9-11.8-16.3-21.8-14.3l-209.4,41.5C1276.9,1059.3,1270.4,1069.5,1272.7,1079.7z"/>
	</g>
	<g class="st3">
		<path class="st10" d="M1698.8,959.6h-62.4v57.6c0,9.6,7.6,17.5,17,17.5h54.8c0,0-9.4-3.3-9.4-20.3
			C1698.8,998.2,1698.8,959.6,1698.8,959.6z"/>
		<path class="st10" d="M1698.8,1016.2c0.8,15.5,9.4,18.6,9.4,18.6c10.7,0,10.3-19-0.2-19C1708,1015.8,1698.8,1015.6,1698.8,1016.2z
			"/>
		<line class="st10" x1="1643.8" y1="971.4" x2="1690.5" y2="971.4"/>
		<line class="st10" x1="1643.8" y1="979.8" x2="1690.5" y2="979.8"/>
		<line class="st10" x1="1643.8" y1="988.8" x2="1690.5" y2="988.8"/>
		<line class="st10" x1="1643.8" y1="999.6" x2="1690.5" y2="999.6"/>
		<line class="st10" x1="1643.8" y1="1009.1" x2="1690.5" y2="1009.1"/>
		<line class="st10" x1="1643.8" y1="1018.1" x2="1690.5" y2="1018.1"/>
	</g>
	<g>
		<path class="st11" d="M1022.9,1195.6c0,0,35.3-71.7,102.8-71.7c52.6,0,77.8,25.3,86.4,50.7c3.5,10.3-3.9,21.1-14.8,21.4
			C1148.5,1196.9,1019.4,1199,1022.9,1195.6z"/>
		<path class="st8" d="M1127.9,1124.9c15.3-1.2,28.2,10.9,37.5,23.1c11,14.4,18.6,31.4,21.9,49.3"/>
	</g>
	<g>
		<path class="st11" d="M890.7,1143.4h-577c-1.5,0-2.8-1.2-2.8-2.8v-16.4c0-1.5,1.2-2.8,2.8-2.8h577c1.5,0,2.8,1.2,2.8,2.8v16.4
			C893.5,1142.2,892.2,1143.4,890.7,1143.4z"/>
		<path class="st14" d="M890.7,1143.4H724.4c-1.5,0-2.8-1.2-2.8-2.8v-16.4c0-1.5,1.2-2.8,2.8-2.8h166.3c1.5,0,2.8,1.2,2.8,2.8v16.4
			C893.5,1142.2,892.2,1143.4,890.7,1143.4z"/>
	</g>
	<g class="st21">
		<rect x="169.9" y="594.5" class="st10" width="128.5" height="87.1"/>
		<rect x="169.9" y="594.5" class="st0" width="11.3" height="10"/>
		<rect x="169.9" y="671.7" class="st0" width="11.3" height="10"/>
		<rect x="287.1" y="594.5" class="st0" width="11.3" height="10"/>
		<rect x="287.1" y="671.7" class="st0" width="11.3" height="10"/>
		<g>
			<rect x="192" y="615.8" class="st10" width="86.6" height="42.5"/>
			<rect x="198.7" y="625.6" class="st0" width="34.1" height="23.7"/>
			<rect x="238.8" y="625.6" class="st0" width="34.1" height="23.7"/>
			<line class="st10" x1="198.7" y1="621.5" x2="207.8" y2="621.5"/>
			<line class="st10" x1="198.7" y1="653.2" x2="207.8" y2="653.2"/>
			<line class="st10" x1="215" y1="621.5" x2="224.2" y2="621.5"/>
			<line class="st10" x1="215" y1="653.2" x2="224.2" y2="653.2"/>
			<line class="st10" x1="230.7" y1="621.5" x2="239.9" y2="621.5"/>
			<line class="st10" x1="230.7" y1="653.2" x2="239.9" y2="653.2"/>
			<line class="st10" x1="247.1" y1="621.5" x2="256.3" y2="621.5"/>
			<line class="st10" x1="247.1" y1="653.2" x2="256.3" y2="653.2"/>
			<line class="st10" x1="263.1" y1="621.5" x2="272.3" y2="621.5"/>
			<line class="st10" x1="263.1" y1="653.2" x2="272.3" y2="653.2"/>
		</g>
	</g>
	<g>
		<g class="st3">
			<path class="st22" d="M478.8,86.3h-46.1c-0.4,0-0.7-0.3-0.7-0.7V31.1c0-0.4,0.3-0.7,0.7-0.7h46.1c0.4,0,0.7,0.3,0.7,0.7v54.5
				C479.5,86,479.2,86.3,478.8,86.3z"/>
			<path class="st6" d="M472.6,61.7h-34c-0.4,0-0.7-0.3-0.7-0.7V35.8c0-0.4,0.3-0.7,0.7-0.7h34c0.4,0,0.7,0.3,0.7,0.7V61
				C473.4,61.4,473,61.7,472.6,61.7z"/>
		</g>
		<g>
			<path class="st22" d="M546.6,158.7h-86.6c-0.8,0-1.4-0.6-1.4-1.4V54.9c0-0.8,0.6-1.4,1.4-1.4h86.6c0.8,0,1.4,0.6,1.4,1.4v102.4
				C548,158.1,547.4,158.7,546.6,158.7z"/>
			<path class="st6" d="M535,112.5H471c-0.8,0-1.4-0.6-1.4-1.4V63.9c0-0.8,0.6-1.4,1.4-1.4H535c0.8,0,1.4,0.6,1.4,1.4v47.3
				C536.4,111.9,535.8,112.5,535,112.5z"/>
		</g>
	</g>
	<g>
		<g>
			<path class="st14" d="M276.6,876.3h91.2c18.1,0,29.9,10.5,26.4,23.5l-0.8,3h114.2c12.8,0,22.4,8.4,20,17.4l-24.8,92.7H242
				L276.6,876.3z"/>
			<path class="st0" d="M483.2,963.3h-224V830c0-1.6,1.3-2.9,2.9-2.9h218.2c1.6,0,2.9,1.3,2.9,2.9V963.3z"/>
			<path class="st17" d="M259.2,838.6c0,0-1.8-11.5,11.5-11.5c13.3,0,201,0,201,0s11.5,0.6,11.5,11.5c0,10.9,1.4,112.5,1.4,112.5"/>
			<path class="st23" d="M387.6,882.6c3.3,5,36.7,43.3,36.7,43.3l35-5v-45l-29-22.4c-4.4-3.4-10.6-3-14.6,0.9L387.6,882.6z"/>
			<path class="st23" d="M307.6,926l51.9-42.8c4.6-3.8,11.4-3.2,15.4,1.3l36.1,41.6H307.6z"/>
			<circle class="st11" cx="308.4" cy="875.1" r="20.8"/>
			<path class="st13" d="M206.3,893.8c-2.5-9.1,7.1-17.6,19.9-17.6h66.3c18.1,0,35.5,10.5,39,23.5l0.8,3h122c9.8,0,18.1,5,20,11.9
				l26.1,98.3H239.8L206.3,893.8z"/>
		</g>
		<path class="st17" d="M226.2,876.3c0,0,32,0,66.3,0s39.6,26.2,39.6,26.2h122.1c0,0,16.3,0.4,20,12.2c0,0,24.6,94.2,25.5,95.9"/>
		<polygon class="st14" points="359.2,931.4 443.4,931.4 451.3,961.7 372.4,963 		"/>
	</g>
	<g>
		<path class="st14" d="M1830,874.7h-152.2c-2.2,0-3.9-1.7-3.9-3.9v-91.6c0-2.2,1.7-3.9,3.9-3.9H1830c2.2,0,3.9,1.7,3.9,3.9v91.6
			C1833.9,872.9,1832.1,874.7,1830,874.7z"/>
		<g>
			<path class="st11" d="M1821.4,868.6h-152.2c-2.2,0-3.9-1.7-3.9-3.9v-91.6c0-2.2,1.7-3.9,3.9-3.9h152.2c2.2,0,3.9,1.7,3.9,3.9
				v91.6C1825.3,866.8,1823.6,868.6,1821.4,868.6z"/>
			<rect x="1721.2" y="792" class="st23" width="19.3" height="55.7"/>
			<rect x="1753" y="792" class="st23" width="19.3" height="55.7"/>
		</g>
		<polyline class="st17" points="1721.2,847.7 1740.5,847.7 1740.5,792 		"/>
		<polyline class="st17" points="1753,847.7 1772.3,847.7 1772.3,792 		"/>
		<polyline class="st17" points="1752.7,835.7 1753,792 1764.6,792 		"/>
		<polyline class="st17" points="1721.2,836.6 1721.5,792 1733.1,792 		"/>
		<path class="st17" d="M1665.4,853.1v-68.5c0,0-0.4-15.5,15.5-15.5c15.9,0,129,0,129,0"/>
	</g>
	<g>
		<path class="st6" d="M194.9,286.6h116.8l18.7,18.1V240c0-6.9-5.6-12.4-12.4-12.4h-123c-6.9,0-12.4,5.6-12.4,12.4v34.2
			C182.5,281,188.1,286.6,194.9,286.6z"/>
		<line class="st24" x1="312.6" y1="244.5" x2="198.7" y2="244.5"/>
		<line class="st24" x1="312.6" y1="257.6" x2="198.7" y2="257.6"/>
		<line class="st24" x1="313.5" y1="270.7" x2="199.6" y2="270.7"/>
	</g>
	<g>
		<path class="st6" d="M1536.4,258.7h-169.9l-27.1,26.4v-94.2c0-10,8.1-18.1,18.1-18.1h178.9c10,0,18.1,8.1,18.1,18.1v49.7
			C1554.5,250.6,1546.4,258.7,1536.4,258.7z"/>
		<line class="st24" x1="1365.2" y1="197.5" x2="1531" y2="197.5"/>
		<line class="st24" x1="1365.2" y1="216.5" x2="1531" y2="216.5"/>
		<line class="st24" x1="1364" y1="235.6" x2="1529.7" y2="235.6"/>
	</g>
	<g>
		<path class="st14" d="M1758.3,642.8h-436.8c-3.2,0-5.7-2.6-5.7-5.7V372.3H1764v264.8C1764,640.3,1761.5,642.8,1758.3,642.8z"/>
		<path class="st23" d="M1744.6,630.6h-436.8c-3.2,0-5.7-2.6-5.7-5.7V360h448.2v264.8C1750.3,628,1747.8,630.6,1744.6,630.6z"/>
		<rect x="1302.1" y="360" class="st25" width="448.2" height="22.9"/>
		<path class="st17" d="M1324.7,630.6c-19.9,0-22.6-22.6-22.6-22.6V360h50"/>
		<rect x="1341.9" y="419.1" class="st25" width="177.9" height="167.9"/>
		<line class="st26" x1="1548.4" y1="422.8" x2="1704.3" y2="422.8"/>
		<line class="st26" x1="1548.4" y1="442.6" x2="1704.3" y2="442.6"/>
		<line class="st26" x1="1548.4" y1="461.6" x2="1704.3" y2="461.6"/>
		<line class="st26" x1="1548.4" y1="481.5" x2="1704.3" y2="481.5"/>
		<line class="st26" x1="1548.4" y1="501.4" x2="1704.3" y2="501.4"/>
		<line class="st26" x1="1548.4" y1="521.3" x2="1704.3" y2="521.3"/>
		<line class="st26" x1="1548.4" y1="540.3" x2="1704.3" y2="540.3"/>
		<line class="st26" x1="1548.4" y1="560.1" x2="1704.3" y2="560.1"/>
		<line class="st26" x1="1548.4" y1="581.5" x2="1704.3" y2="581.5"/>
		<g>
			<path class="st27" d="M1475.1,503.3c0,24.7-20,44.7-44.7,44.7c-24.7,0-44.7-20-44.7-44.7c0-24.7,20-44.7,44.7-44.7"/>
			<polygon class="st23" points="1447.7,506.4 1500.7,506.4 1474.2,465.8 			"/>
		</g>
	</g>
	<g>
		<path class="st14" d="M573.9,715.3H347.5c-4.2,0-7.7-3.4-7.7-7.7V557.3c0-4.2,3.4-7.7,7.7-7.7h226.4c4.2,0,7.7,3.4,7.7,7.7v150.3
			C581.5,711.8,578.1,715.3,573.9,715.3z"/>
		<path class="st23" d="M564.4,703.3H338c-4.2,0-7.7-3.4-7.7-7.7V545.3c0-4.2,3.4-7.7,7.7-7.7h226.4c4.2,0,7.7,3.4,7.7,7.7v150.3
			C572,699.9,568.6,703.3,564.4,703.3z"/>
		<path class="st23" d="M564.4,705.8H338c-4.2,0-7.7-3.4-7.7-7.7V547.8c0-4.2,3.4-7.7,7.7-7.7h226.4c4.2,0,7.7,3.4,7.7,7.7v150.3
			C572,702.3,568.6,705.8,564.4,705.8z"/>
		<polygon class="st11" points="502.4,620.5 463.6,639.2 424.9,658 424.9,620.5 424.9,582.9 463.6,601.7 		"/>
		<polyline class="st17" points="502.4,620.5 424.9,658 424.9,611.4 		"/>
		<path class="st17" d="M330.3,675.4V570.5c0,0,0.4-32.9,30.4-32.9s180.9,0,180.9,0"/>
		<polyline class="st17" points="424.7,592.3 424.9,582.9 486.5,611.3 		"/>
	</g>
	<g>
		<path class="st9" d="M716.1,102.7h38.5c7.6,0,13.8,6.8,13.8,15.1v1.9h51.4c4,0,7.2,3.5,7.2,7.9v54.8c0,4.4-3.2,7.9-7.2,7.9h-95.7
			c-4,0-7.2-3.5-7.2-7.8L716.1,102.7z"/>
		<g>
			<path class="st28" d="M686.6,114.8H732c9,0,16.3,7.3,16.3,16.3v2.1h60.6c4.7,0,8.5,3.8,8.5,8.5v59.1c0,4.7-3.8,8.5-8.5,8.5H696
				c-4.7,0-8.5-3.8-8.5-8.4L686.6,114.8z"/>
			<path class="st29" d="M759.2,143v22.5h46.2v-21.2C805.5,144.3,761.1,144.9,759.2,143z"/>
			<path class="st8" d="M686.6,114.8v86.1c0,0,0.4,8.4,9.4,8.4s112.8,0,112.8,0"/>
			<path class="st8" d="M817.3,184c0,0,0-33.4,0-42.4s-8.5-8.5-8.5-8.5h-60.6c0,0-0.1-17.3-17.3-17.3"/>
		</g>
	</g>
	<g>
		<path class="st14" d="M1204.2,161h-131.6c-2.1,0-3.9-1.7-3.9-3.9V25.5c0-2.1,1.7-3.9,3.9-3.9h131.6c2.1,0,3.9,1.7,3.9,3.9v131.6
			C1208.1,159.2,1206.4,161,1204.2,161z"/>
		<path class="st13" d="M1194.9,154h-131.6c-2.1,0-3.9-1.7-3.9-3.9V18.5c0-2.1,1.7-3.9,3.9-3.9h131.6c2.1,0,3.9,1.7,3.9,3.9v131.6
			C1198.8,152.2,1197,154,1194.9,154z"/>
		<path class="st11" d="M1156.9,51.5c0-1.9-1.8-3.2-3.6-2.7l-0.4,0.1c-0.4,0-0.8,0.1-1.1,0.3l-37.3,10.2c-1.2,0.3-2.1,1.5-2.1,2.7
			v0.5c-0.1,0.3-0.2,0.6-0.2,0.9v35.9c-1.2-0.5-2.5-0.8-3.9-0.8c-6,0-10.9,4.9-10.9,10.9c0,6,4.9,10.9,10.9,10.9
			c5.6,0,10.2-4.3,10.8-9.8c0-0.2,0.1-0.4,0.1-0.6V74.3l30.6-8.4v22.3c-1.2-0.5-2.5-0.8-3.9-0.8c-6,0-10.9,4.9-10.9,10.9
			s4.9,10.9,10.9,10.9c5.6,0,10.2-4.3,10.8-9.8c0-0.2,0.1-0.4,0.1-0.6V64l0.1,0V51.5z"/>
		<path class="st17" d="M1059.5,138.6V30c0,0,0.1-15.3,15.3-15.3c15.3,0,108.7,0,108.7,0"/>
		<path class="st17" d="M1145.9,109.3c0,0,10.6,0.2,10.6-10.6s0-47.2,0-47.2"/>
		<path class="st17" d="M1149.9,65.9l-30.6,8.4c0,0,0,26.7,0,35.9s-10.9,10.4-10.9,10.4"/>
	</g>
	<polygon class="st22" points="236.1,1094.8 268.7,1062.8 273.5,1107.3 257.6,1092.9 	"/>
</g>
</svg>
