<?xml version="1.0" encoding="utf-8"?>
<!-- Generator: Adobe Illustrator 25.2.0, SVG Export Plug-In . SVG Version: 6.00 Build 0)  -->
<svg version="1.1" id="Layer_1" xmlns="http://www.w3.org/2000/svg" xmlns:xlink="http://www.w3.org/1999/xlink" x="0px" y="0px"
	 viewBox="0 0 1920 1326" style="enable-background:new 0 0 1920 1326;" xml:space="preserve">
<style type="text/css">
	.st0{fill:#FFFFFF;}
	.st1{fill:#64B5E4;}
	.st2{fill:#F97255;}
	.st3{fill:#FFC536;}
	.st4{fill:#D8D8D8;}
	.st5{fill:none;stroke:#FFFFFF;stroke-width:2;stroke-miterlimit:10;}
	.st6{fill:#3853FA;}
	.st7{fill:none;stroke:#3853FA;stroke-miterlimit:10;}
	.st8{fill:none;stroke:#3853FA;stroke-width:2;stroke-miterlimit:10;}
	.st9{fill:#F45846;}
</style>
<rect x="-222" y="-56.3" class="st0" width="2178.4" height="1409.4"/>
<g>
	<g>
		<g>
			
				<ellipse transform="matrix(0.7071 -0.7071 0.7071 0.7071 -241.3436 1208.381)" class="st1" cx="1338" cy="895.5" rx="362.4" ry="362.4"/>
			<g>
				<path class="st2" d="M1718.9,523.5l-169.3,169.3c-1.7,1.7-4.6,1.7-6.3,0l-23.2-23.2c-1.7-1.7-1.7-4.6,0-6.3l169.3-169.3
					c1.7-1.7,4.6-1.7,6.3,0l23.2,23.2C1720.7,519,1720.7,521.8,1718.9,523.5z"/>
				<path class="st2" d="M1696.9,462l-115,115c-8.1,8.1-21.3,8.1-29.5,0l0,0c-8.1-8.1-8.1-21.3,0-29.5l115-115
					c8.1-8.1,21.3-8.1,29.5,0l0,0C1705,440.7,1705,453.9,1696.9,462z"/>
				<path class="st2" d="M1658,670.8l-68,68c-8.1,8.1-21.3,8.1-29.5,0l0,0c-8.1-8.1-8.1-21.3,0-29.5l68-68c8.1-8.1,21.3-8.1,29.5,0
					l0,0C1666.1,649.5,1666.1,662.7,1658,670.8z"/>
			</g>
			<path class="st3" d="M1575.3,608.2l-45.2,45.2c-7.2,7.2-7.2,19,0,26.3l3.2,3.2c7.2,7.2,19,7.2,26.3,0l47.7-47.7
				C1597.1,625.6,1586.4,616.6,1575.3,608.2z"/>
			<path class="st2" d="M1696.9,462l-115,115c-8.1,8.1-21.3,8.1-29.5,0l0,0c-8.1-8.1-8.1-21.3,0-29.5l115-115
				c8.1-8.1,21.3-8.1,29.5,0l0,0C1705,440.7,1705,453.9,1696.9,462z"/>
			<path class="st3" d="M1621,648.8l-60.5,60.5c-8.1,8.1-8.1,21.3,0,29.5l0,0c8.1,8.1,21.3,8.1,29.5,0l58.2-58.2
				C1639.7,669.5,1630.6,658.9,1621,648.8z"/>
			<path class="st4" d="M1063,1053.5l-169.3,169.3c-1.7,1.7-4.6,1.7-6.3,0l-23.2-23.2c-1.7-1.7-1.7-4.6,0-6.3l169.3-169.3
				c1.7-1.7,4.6-1.7,6.3,0l23.2,23.2C1064.8,1049,1064.8,1051.8,1063,1053.5z"/>
			<path class="st4" d="M1139.3,1057.5l-101.2,101.2c-8.1,8.1-21.3,8.1-29.5,0l0,0c-8.1-8.1-8.1-21.3,0-29.5l101.2-101.2
				c8.1-8.1,21.3-8.1,29.5,0l0,0C1147.4,1036.2,1147.4,1049.4,1139.3,1057.5z"/>
			<path class="st2" d="M1109.8,1028l-77.7,77.7c7.5,12,15.6,23.6,24.4,34.6l82.8-82.8c8.1-8.1,8.1-21.3,0-29.5
				C1131.2,1019.9,1118,1019.9,1109.8,1028z"/>
		</g>
		<g>
			<g>
				
					<ellipse transform="matrix(0.7071 -0.7071 0.7071 0.7071 -103.7529 435.8938)" class="st3" cx="474.3" cy="343.2" rx="275.8" ry="275.8"/>
			</g>
			<g>
				<path class="st1" d="M436.6,462.3L291,607.9c-8.1,8.1-21.3,8.1-29.5,0h0c-8.1-8.1-8.1-21.3,0-29.5l145.6-145.6
					c8.1-8.1,21.3-8.1,29.5,0l0,0C444.7,440.9,444.7,454.1,436.6,462.3z"/>
				<path class="st1" d="M314.7,503.3l-80.6,80.6c-8.1,8.1-21.3,8.1-29.5,0l0,0c-8.1-8.1-8.1-21.3,0-29.5l80.6-80.6
					c8.1-8.1,21.3-8.1,29.5,0l0,0C322.9,482,322.9,495.2,314.7,503.3z"/>
				<path class="st1" d="M414.5,563.4L268.9,709.1c-8.1,8.1-21.3,8.1-29.5,0l0,0c-8.1-8.1-8.1-21.3,0-29.5L385,533.9
					c8.1-8.1,21.3-8.1,29.5,0l0,0C422.6,542.1,422.6,555.3,414.5,563.4z"/>
			</g>
			<path class="st2" d="M407.1,432.8L290.8,549c10.5,9.3,21.7,17.9,33.5,25.5l112.3-112.3c8.1-8.1,8.1-21.3,0-29.5
				C428.4,424.6,415.2,424.6,407.1,432.8z"/>
			<path class="st2" d="M285.2,473.8l-32.9,32.9c8.3,11.2,17.4,21.9,27.3,31.7l35.1-35.1c8.1-8.1,8.1-21.3,0-29.5
				C306.6,465.7,293.4,465.7,285.2,473.8z"/>
			<path class="st2" d="M385,533.9l-48.2,48.2c12.7,7.3,26.1,13.7,40,19l37.7-37.7c8.1-8.1,8.1-21.3,0-29.5
				C406.3,525.8,393.1,525.8,385,533.9z"/>
		</g>
		
			<rect x="253" y="179.2" transform="matrix(0.7071 -0.7071 0.7071 0.7071 -91.4661 325.1953)" class="st5" width="187.5" height="187.5"/>
		
			<rect x="1362.8" y="284.4" transform="matrix(0.7071 -0.7071 0.7071 0.7071 159.2185 1140.7351)" class="st3" width="187.5" height="187.5"/>
		
			<rect x="779.5" y="149.5" transform="matrix(0.7071 -0.7071 0.7071 0.7071 100.6943 647.9683)" class="st4" width="106" height="106"/>
		
			<rect x="974.4" y="121.2" transform="matrix(0.7071 -0.7071 0.7071 0.7071 189.2012 749.8444)" class="st4" width="50.8" height="50.8"/>
		
			<rect x="999.3" y="1236.5" transform="matrix(0.7071 -0.7071 0.7071 0.7071 -592.1574 1094.1219)" class="st4" width="50.8" height="50.8"/>
		
			<rect x="1335.8" y="984.5" transform="matrix(0.7071 -0.7071 0.7071 0.7071 -316.5441 1260.9967)" class="st5" width="56.1" height="56.1"/>
		
			<rect x="1482.3" y="795.7" transform="matrix(0.7071 -0.7071 0.7071 0.7071 -136.0915 1299.5739)" class="st0" width="36.7" height="36.7"/>
		<g>
			<polygon class="st3" points="462.1,876.3 462.1,1170.3 190.2,1023.3 			"/>
			<polygon class="st2" points="646.9,878.8 646.9,1167.7 379.6,1023.3 			"/>
			<polygon class="st6" points="462.1,1067.9 379.6,1023.3 462.1,978.7 			"/>
		</g>
		<g>
			<polygon class="st4" points="1360.2,8.7 1360.2,244.4 1564.3,126.6 			"/>
			<polygon class="st1" points="1221.5,10.7 1221.5,242.4 1422.1,126.6 			"/>
			<polygon class="st2" points="1360.2,162.3 1422.1,126.6 1360.2,90.8 			"/>
		</g>
		<path class="st2" d="M1049.8,1034c-7.2-7.2-19-7.2-26.3,0l-18.9,18.9c5.7,13.6,12.2,26.8,19.5,39.5l28.9-28.9
			c7.2-7.2,7.2-19,0-26.3L1049.8,1034z"/>
		<g>
			<path class="st7" d="M1668.1,996.7c-195.1,0-178.5,166.1-344.6,166.1s-195.1-153.6-344.6-153.6c-141.1,0-195.1,166.1-336.3,166.1
				"/>
			<g>
				<line class="st7" x1="792.2" y1="1009.2" x2="1160.3" y2="1009.2"/>
				
					<rect x="957.2" y="995.3" transform="matrix(0.7071 -0.7071 0.7071 0.7071 -429.0068 981.835)" class="st6" width="27" height="27"/>
				
					<rect x="764.5" y="997.4" transform="matrix(0.7071 -0.7071 0.7071 0.7071 -486.9692 846.2104)" class="st7" width="27" height="27"/>
				
					<rect x="1167.9" y="997.4" transform="matrix(0.7071 -0.7071 0.7071 0.7071 -368.8251 1131.4355)" class="st7" width="27" height="27"/>
			</g>
			<g>
				<line class="st7" x1="1143.3" y1="1164.9" x2="1495.1" y2="1164.9"/>
				
					<rect x="1308.3" y="1151" transform="matrix(0.7071 -0.7071 0.7071 0.7071 -436.298 1275.7389)" class="st6" width="27" height="27"/>
				
					<rect x="1115.6" y="1153.2" transform="matrix(0.7071 -0.7071 0.7071 0.7071 -494.2605 1140.0964)" class="st7" width="27" height="27"/>
				
					<rect x="1497.9" y="1153.2" transform="matrix(0.7071 -0.7071 0.7071 0.7071 -382.2817 1410.4413)" class="st7" width="27" height="27"/>
			</g>
		</g>
		<g>
			<path class="st7" d="M1002.5,260.6C836.5,260.6,807.4,107,657.9,107C516.8,107,462.8,273,321.7,273"/>
			<g>
				<line class="st7" x1="471.1" y1="107" x2="839.2" y2="107"/>
				
					<rect x="636.1" y="93.1" transform="matrix(0.7071 -0.7071 0.7071 0.7071 114.9295 490.5751)" class="st6" width="27" height="27"/>
				
					<rect x="443.5" y="95.2" transform="matrix(0.7071 -0.7071 0.7071 0.7071 56.967 354.9502)" class="st7" width="27" height="27"/>
				
					<rect x="846.8" y="95.2" transform="matrix(0.7071 -0.7071 0.7071 0.7071 175.1112 640.1757)" class="st7" width="27" height="27"/>
			</g>
		</g>
		
			<rect x="1487.5" y="910.2" transform="matrix(0.7071 -0.7071 0.7071 0.7071 -238.6125 1392.4703)" class="st5" width="148.1" height="148.1"/>
	</g>
	<g>
		<g>
			<rect x="411.1" y="294.1" class="st8" width="1026.6" height="621.5"/>
			<rect x="699" y="355.1" class="st3" width="489.5" height="307.6"/>
			<rect x="434.2" y="315.2" class="st4" width="978.6" height="30.3"/>
			<rect x="434.2" y="355.1" class="st4" width="253.8" height="169.6"/>
			<rect x="1197" y="355.1" class="st4" width="214.8" height="307.4"/>
			<g>
				<rect x="1193.9" y="415.2" class="st0" width="221" height="5"/>
				<rect x="1193.9" y="479.3" class="st0" width="221" height="5"/>
				<rect x="1193.9" y="538.3" class="st0" width="221" height="5"/>
				<rect x="1193.9" y="599.8" class="st0" width="221" height="5"/>
			</g>
			<rect x="434.2" y="537.2" class="st4" width="253.8" height="169.6"/>
			<rect x="434.2" y="719.9" class="st4" width="253.8" height="169.6"/>
			<rect x="709.8" y="691.6" class="st4" width="684.4" height="50"/>
			<rect x="713.6" y="759.1" class="st9" width="364.5" height="13.2"/>
			<rect x="713.6" y="851.8" class="st3" width="511" height="13.5"/>
			<rect x="713.6" y="788.1" class="st3" width="684.7" height="14.9"/>
			<rect x="713.6" y="818.9" class="st9" width="684.7" height="14.9"/>
			
				<rect x="1119.4" y="782" transform="matrix(0.7071 0.7071 -0.7071 0.7071 891.574 -566.9227)" class="st6" width="21.5" height="21.5"/>
			
				<rect x="1259.3" y="814" transform="matrix(0.7071 0.7071 -0.7071 0.7071 955.1739 -656.5278)" class="st6" width="21.5" height="21.5"/>
			
				<rect x="972" y="818.2" transform="matrix(0.7071 0.7071 -0.7071 0.7071 874.0211 -452.0716)" class="st6" width="21.5" height="21.5"/>
			
				<rect x="1085.8" y="849.5" transform="matrix(0.7071 0.7071 -0.7071 0.7071 929.4873 -523.3821)" class="st6" width="21.5" height="21.5"/>
			
				<rect x="1171.3" y="782" transform="matrix(0.7071 0.7071 -0.7071 0.7071 906.7726 -603.6155)" class="st6" width="21.5" height="21.5"/>
			
				<rect x="1004.2" y="757.1" transform="matrix(0.7071 0.7071 -0.7071 0.7071 840.2205 -492.7601)" class="st6" width="21.5" height="21.5"/>
			<polygon class="st6" points="868.1,730.4 850.1,741.9 831.5,730.4 831.5,695.2 868.1,695.2 			"/>
		</g>
		<circle class="st0" cx="945.8" cy="515.2" r="66.4"/>
		<polygon class="st2" points="921.6,473.1 921.6,555.5 992.9,514.3 		"/>
	</g>
</g>
</svg>
