<?xml version="1.0" encoding="utf-8"?>
<!-- Generator: Adobe Illustrator 25.2.0, SVG Export Plug-In . SVG Version: 6.00 Build 0)  -->
<svg version="1.1" id="Layer_1" xmlns="http://www.w3.org/2000/svg" xmlns:xlink="http://www.w3.org/1999/xlink" x="0px" y="0px"
	 viewBox="0 0 1920 1326" style="enable-background:new 0 0 1920 1326;" xml:space="preserve">
<style type="text/css">
	.st0{fill:#FFFFFF;}
	.st1{opacity:0.33;}
	.st2{fill:#64B5E4;}
	.st3{opacity:0.33;fill:#64B5E4;}
	.st4{fill:#FAFAFA;}
	.st5{fill:#E1E1E1;}
	.st6{fill:#1A2E35;}
	.st7{opacity:0.4;}
	.st8{opacity:0.2;}
	.st9{fill:#375A64;}
	.st10{fill:#FFC536;}
	.st11{fill:#FFC19D;}
	.st12{fill:#FF9C6A;}
	.st13{opacity:0.3;}
	.st14{fill:#7C4235;}
	.st15{fill:#C27460;}
</style>
<rect x="-160.7" y="-56.4" class="st0" width="2178.4" height="1409.4"/>
<g class="st1">
	<g>
		<g>
			<defs>
				<path id="SVGID_1_" d="M697.9,81.4"/>
			</defs>
			<use xlink:href="#SVGID_1_"  style="overflow:visible;fill:#64B5E4;"/>
			<clipPath id="SVGID_2_">
				<use xlink:href="#SVGID_1_"  style="overflow:visible;"/>
			</clipPath>
		</g>
	</g>
	<g>
		<g>
			<g>
				<rect x="280" y="204.9" class="st2" width="95.8" height="133.6"/>
			</g>
		</g>
		<g>
			<g>
				<rect x="379.6" y="204.9" class="st2" width="103.5" height="133.6"/>
			</g>
		</g>
		<g>
			<g>
				<rect x="379.6" y="347.8" class="st2" width="103.5" height="129.1"/>
			</g>
		</g>
		<g>
			<g>
				<polygon class="st2" points="496.4,202.6 605.4,202.6 605.4,84.1 609.1,84.1 609.1,202.6 697.9,202.6 697.9,81.4 496.4,81.4 
									"/>
			</g>
		</g>
		<g>
			<g>
				<rect x="609.1" y="204.9" class="st2" width="88.7" height="133.6"/>
			</g>
		</g>
		<g>
			<g>
				<rect x="609.1" y="347.8" class="st2" width="88.7" height="129.1"/>
			</g>
		</g>
		<g>
			<g>
				<rect x="280" y="347.8" class="st2" width="95.8" height="129.1"/>
			</g>
		</g>
		<g>
			<g>
				<rect x="496.4" y="347.8" class="st2" width="109" height="129.1"/>
			</g>
		</g>
		<g>
			<g>
				<rect x="280" y="479.2" class="st2" width="95.8" height="116.3"/>
			</g>
		</g>
		<g>
			<g>
				<rect x="609.1" y="479.2" class="st2" width="88.7" height="116.3"/>
			</g>
		</g>
		<g>
			<g>
				<polygon class="st2" points="375.9,202.6 375.9,84.1 379.6,84.1 379.6,202.6 483.1,202.6 483.1,81.4 280,81.4 280,202.6 				"/>
			</g>
		</g>
		<g>
			<g>
				<rect x="496.4" y="479.2" class="st2" width="109" height="116.3"/>
			</g>
		</g>
		<g>
			<g>
				<rect x="379.6" y="479.2" class="st2" width="103.5" height="116.3"/>
			</g>
		</g>
		<g>
			<g>
				<rect x="496.4" y="204.9" class="st2" width="109" height="133.6"/>
			</g>
		</g>
	</g>
</g>
<g>
	<g>
		<g>
			<defs>
				<path id="SVGID_3_" d="M1793.1,127.5"/>
			</defs>
			<use xlink:href="#SVGID_3_"  style="overflow:visible;opacity:0.33;fill:#64B5E4;"/>
			<clipPath id="SVGID_4_">
				<use xlink:href="#SVGID_3_"  style="overflow:visible;opacity:0.33;"/>
			</clipPath>
		</g>
	</g>
	<g>
		<g>
			<g>
				<rect x="1375.3" y="251" class="st3" width="95.8" height="133.6"/>
			</g>
		</g>
		<g>
			<g>
				<rect x="1474.8" y="251" class="st3" width="103.5" height="133.6"/>
			</g>
		</g>
		<g>
			<g>
				<rect x="1474.8" y="393.9" class="st3" width="103.5" height="129.1"/>
			</g>
		</g>
		<g>
			<g>
				<polygon class="st3" points="1591.7,248.6 1700.7,248.6 1700.7,130.1 1704.4,130.1 1704.4,248.6 1793.1,248.6 1793.1,127.5 
					1591.7,127.5 				"/>
			</g>
		</g>
		<g>
			<g>
				<rect x="1704.4" y="251" class="st3" width="88.7" height="133.6"/>
			</g>
		</g>
		<g>
			<g>
				<rect x="1704.4" y="393.9" class="st3" width="88.7" height="129.1"/>
			</g>
		</g>
		<g>
			<g>
				<rect x="1375.3" y="393.9" class="st3" width="95.8" height="129.1"/>
			</g>
		</g>
		<g>
			<g>
				<rect x="1591.7" y="393.9" class="st3" width="109" height="129.1"/>
			</g>
		</g>
		<g>
			<g>
				<rect x="1375.3" y="525.2" class="st3" width="95.8" height="116.3"/>
			</g>
		</g>
		<g>
			<g>
				<rect x="1704.4" y="525.2" class="st3" width="88.7" height="116.3"/>
			</g>
		</g>
		<g>
			<g>
				<polygon class="st3" points="1471.1,248.6 1471.1,130.1 1474.8,130.1 1474.8,248.6 1578.4,248.6 1578.4,127.5 1375.3,127.5 
					1375.3,248.6 				"/>
			</g>
		</g>
		<g>
			<g>
				<rect x="1591.7" y="525.2" class="st3" width="109" height="116.3"/>
			</g>
		</g>
		<g>
			<g>
				<rect x="1474.8" y="525.2" class="st3" width="103.5" height="116.3"/>
			</g>
		</g>
		<g>
			<g>
				<rect x="1591.7" y="251" class="st3" width="109" height="133.6"/>
			</g>
		</g>
	</g>
</g>
<g>
	<g>
		<g>
			<rect x="753.6" y="131.3" class="st4" width="70" height="18.5"/>
		</g>
	</g>
	<g>
		<g>
			<g>
				<path class="st5" d="M794,169.3c0,0,0-0.1,0-0.3c0-0.2,0-0.6,0-1c0-0.9,0-2.1-0.1-3.6c0-3.2-0.1-7.8-0.1-13.6l0.2,0.2
					c-16,0-41.4,0.1-70,0.1c0.2-0.2-0.4,0.4,0.4-0.4v0v0v0v0v0.1v0.1v0.3l0,0.6v1.2c0,0.8,0,1.6,0,2.4c0,1.6,0,3.1,0,4.7
					c0,3.1,0,6.1,0,9.1l-0.3-0.3c19.9,0.1,37.4,0.1,49.9,0.2c6.2,0,11.2,0.1,14.7,0.1c1.7,0,3,0,4,0c0.4,0,0.8,0,1,0
					C793.9,169.3,794,169.3,794,169.3c0,0-0.1,0-0.3,0c-0.3,0-0.6,0-1,0c-0.9,0-2.2,0-3.9,0c-3.5,0-8.4,0.1-14.6,0.1
					c-12.6,0-30.1,0.1-50.1,0.2l-0.3,0l0-0.4c0-3,0-6,0-9.1c0-1.5,0-3.1,0-4.7c0-0.8,0-1.6,0-2.4l0-1.2v-0.6v-0.3v-0.1v-0.1v0v0v0v0
					c0.7-0.7,0.2-0.2,0.4-0.4c28.6,0.1,54,0.1,70,0.1l0.2,0l0,0.2c-0.1,5.9-0.1,10.5-0.1,13.7c0,1.5,0,2.7-0.1,3.6
					c0,0.4,0,0.7,0,0.9C794,169.2,794,169.3,794,169.3z"/>
			</g>
		</g>
	</g>
</g>
<g>
	<g>
		<g>
			<rect x="1866.1" y="1080.3" class="st4" width="68.7" height="18.2"/>
		</g>
	</g>
	<g>
		<g>
			<g>
				<path class="st5" d="M1905.7,1117.7c0,0,0-0.1,0-0.3c0-0.2,0-0.5,0-0.9c0-0.9,0-2-0.1-3.6c0-3.1-0.1-7.7-0.1-13.3l0.2,0.2
					c-15.7,0-40.7,0.1-68.7,0.1c0.2-0.2-0.4,0.3,0.3-0.3v0v0v0v0v0.1v0.1v0.3v0.6v1.2c0,0.8,0,1.5,0,2.3c0,1.5,0,3.1,0,4.6
					c0,3,0,6,0,8.9l-0.3-0.3c19.6,0.1,36.7,0.1,49,0.2c6.1,0,11,0.1,14.5,0.1c1.7,0,3,0,3.9,0c0.4,0,0.8,0,1,0
					C1905.6,1117.6,1905.7,1117.7,1905.7,1117.7c0,0-0.1,0-0.3,0c-0.3,0-0.6,0-1,0c-0.9,0-2.2,0-3.8,0c-3.4,0-8.3,0.1-14.4,0.1
					c-12.3,0-29.6,0.1-49.2,0.2l-0.3,0l0-0.3c0-2.9,0-5.9,0-8.9c0-1.5,0-3,0-4.6c0-0.8,0-1.5,0-2.3v-1.2v-0.6v-0.3v-0.1v-0.1v0v0v0
					v0c0.7-0.7,0.2-0.2,0.4-0.4c28.1,0.1,53,0.1,68.7,0.1l0.2,0l0,0.2c-0.1,5.7-0.1,10.3-0.1,13.5c0,1.5,0,2.7-0.1,3.5
					c0,0.4,0,0.7,0,0.9C1905.8,1117.6,1905.8,1117.7,1905.7,1117.7z"/>
			</g>
		</g>
	</g>
</g>
<g>
	<g>
		<g>
			<rect x="132.7" y="670" class="st4" width="70" height="18.5"/>
		</g>
	</g>
	<g>
		<g>
			<g>
				<path class="st5" d="M173.1,708c0,0,0-0.1,0-0.3c0-0.2,0-0.6,0-1c0-0.9,0-2.1-0.1-3.6c0-3.2-0.1-7.8-0.1-13.6l0.2,0.2
					c-16,0-41.4,0.1-70,0.1c0.2-0.2-0.4,0.4,0.4-0.4v0v0v0v0v0.1v0.1v0.3v0.6v1.2c0,0.8,0,1.6,0,2.4c0,1.6,0,3.1,0,4.7
					c0,3.1,0,6.1,0,9.1l-0.3-0.3c19.9,0.1,37.4,0.1,49.9,0.2c6.2,0,11.2,0.1,14.7,0.1c1.7,0,3,0,4,0c0.4,0,0.8,0,1,0
					C173,708,173.1,708,173.1,708c0,0-0.1,0-0.3,0c-0.3,0-0.6,0-1,0c-0.9,0-2.2,0-3.9,0c-3.5,0-8.4,0.1-14.6,0.1
					c-12.6,0-30.1,0.1-50.1,0.2l-0.3,0l0-0.4c0-3,0-6,0-9.1c0-1.5,0-3.1,0-4.7c0-0.8,0-1.6,0-2.4v-1.2v-0.6v-0.3v-0.1v-0.1v0v0v0v0
					c0.7-0.7,0.2-0.2,0.4-0.4c28.6,0.1,54,0.1,70,0.1l0.2,0l0,0.2c-0.1,5.9-0.1,10.5-0.1,13.7c0,1.5,0,2.7-0.1,3.6
					c0,0.4,0,0.7,0,0.9C173.1,707.9,173.1,708,173.1,708z"/>
			</g>
		</g>
	</g>
</g>
<g>
	<g>
		<g>
			<g>
				<path class="st5" d="M967.8,417.4c0,0,0-0.1,0-0.3c0-0.2,0-0.6,0-1c0-0.9,0-2.1-0.1-3.6c0-3.2-0.1-7.8-0.1-13.6l0.2,0.2
					c-16,0-41.4,0.1-70,0.1c0.2-0.2-0.4,0.4,0.4-0.4v0v0v0v0v0.1v0.1l0,0.3v0.6v1.2c0,0.8,0,1.6,0,2.4c0,1.6,0,3.1,0,4.7
					c0,3.1,0,6.1,0,9.1l-0.3-0.3c19.9,0.1,37.4,0.1,49.9,0.2c6.2,0,11.2,0.1,14.7,0.1c1.7,0,3,0,4,0c0.4,0,0.8,0,1,0
					C967.7,417.3,967.8,417.4,967.8,417.4c0,0-0.1,0-0.3,0c-0.3,0-0.6,0-1,0c-0.9,0-2.2,0-3.9,0c-3.5,0-8.4,0.1-14.6,0.1
					c-12.6,0-30.1,0.1-50.1,0.2l-0.3,0l0-0.4c0-3,0-6,0-9.1c0-1.5,0-3.1,0-4.7c0-0.8,0-1.6,0-2.4l0-1.2v-0.6v-0.3V399v-0.1v0v0v0v0
					c0.7-0.7,0.2-0.2,0.4-0.4c28.6,0.1,54,0.1,70,0.1l0.2,0l0,0.2c-0.1,5.9-0.1,10.5-0.1,13.7c0,1.5,0,2.7-0.1,3.6
					c0,0.4,0,0.7,0,0.9C967.9,417.3,967.8,417.4,967.8,417.4z"/>
			</g>
		</g>
	</g>
	<g>
		<g>
			<g>
				<path class="st5" d="M977.3,398.8c0,0,0-0.1,0-0.4c0-0.3,0-0.6,0-1c0-0.9,0-2.2-0.1-3.7c0-3.2-0.1-7.8-0.1-13.5l0.3,0.3
					c-10.9,0-25.7,0.1-42.1,0.1c-0.3,0.3,0.4-0.4,0.4-0.4v0v0v0v0v0.1v0.2v0.3v0.6l0,1.2c0,0.8,0,1.6,0,2.4c0,1.6,0,3.2,0,4.7
					c0,3.1,0,6.1,0,9l-0.3-0.3c12.1,0.1,22.6,0.1,30.1,0.2c3.7,0,6.7,0.1,8.8,0.1c1,0,1.8,0,2.4,0
					C977,398.8,977.3,398.8,977.3,398.8c0,0-0.2,0-0.8,0c-0.6,0-1.3,0-2.3,0c-2.1,0-5,0.1-8.7,0.1c-7.6,0-18.1,0.1-30.3,0.2l-0.3,0
					l0-0.3c0-2.9,0-5.9,0-9c0-1.5,0-3.1,0-4.7c0-0.8,0-1.6,0-2.4l0-1.2v-0.6v-0.3v-0.2v-0.1v0v0v0v0c-0.1,0.1,0.7-0.7,0.4-0.4
					c16.3,0,31.2,0.1,42.1,0.1l0.3,0l0,0.3c-0.1,5.7-0.1,10.3-0.1,13.6c0,1.5,0,2.8-0.1,3.7C977.4,398.4,977.3,398.9,977.3,398.8z"
					/>
			</g>
		</g>
	</g>
</g>
<g>
	<g>
		<g>
			<g>
				<path class="st5" d="M1949.7,499.3c0,0,0-0.1,0-0.3c0-0.2,0-0.6,0-0.9c0-0.9,0-2-0.1-3.6c0-3.1-0.1-7.7-0.1-13.3l0.2,0.2
					c-15.7,0-40.7,0.1-68.7,0.1c0.2-0.2-0.4,0.3,0.3-0.3v0v0v0v0v0.1v0.1v0.3v0.6v1.2c0,0.8,0,1.5,0,2.3c0,1.5,0,3.1,0,4.6
					c0,3,0,6,0,8.9l-0.3-0.3c19.6,0.1,36.7,0.1,49,0.2c6.1,0,11,0.1,14.5,0.1c1.7,0,3,0,3.9,0c0.4,0,0.8,0,1,0
					C1949.5,499.3,1949.7,499.3,1949.7,499.3c0,0-0.1,0-0.3,0c-0.3,0-0.6,0-1,0c-0.9,0-2.2,0-3.8,0c-3.4,0-8.3,0.1-14.4,0.1
					c-12.3,0-29.6,0.1-49.2,0.2l-0.3,0l0-0.3c0-2.9,0-5.9,0-8.9c0-1.5,0-3,0-4.6c0-0.8,0-1.5,0-2.3v-1.2v-0.6v-0.3v-0.1v-0.1v0v0v0
					v0c0.7-0.7,0.2-0.2,0.4-0.4c28.1,0.1,53,0.1,68.7,0.1l0.2,0l0,0.2c-0.1,5.7-0.1,10.3-0.1,13.5c0,1.5,0,2.7-0.1,3.5
					c0,0.4,0,0.7,0,0.9C1949.7,499.2,1949.7,499.3,1949.7,499.3z"/>
			</g>
		</g>
	</g>
	<g>
		<g>
			<g>
				<path class="st5" d="M1959,481.1c0,0,0-0.1,0-0.3c0-0.3,0-0.6,0-1c0-0.9,0-2.1-0.1-3.6c0-3.2-0.1-7.7-0.1-13.2l0.3,0.3
					c-10.7,0-25.3,0.1-41.3,0.1c-0.3,0.3,0.4-0.4,0.3-0.3v0v0v0v0v0.1v0.1v0.3v0.6l0,1.2c0,0.8,0,1.6,0,2.4c0,1.6,0,3.1,0,4.6
					c0,3,0,6,0,8.8l-0.3-0.3c11.9,0.1,22.2,0.1,29.5,0.2c3.6,0,6.5,0.1,8.6,0.1c1,0,1.7,0,2.3,0C1958.7,481.1,1959,481.1,1959,481.1
					c0,0-0.2,0-0.7,0c-0.6,0-1.3,0-2.3,0c-2.1,0-4.9,0.1-8.5,0.1c-7.4,0-17.8,0.1-29.8,0.2l-0.3,0l0-0.3c0-2.8,0-5.8,0-8.8
					c0-1.5,0-3.1,0-4.6c0-0.8,0-1.6,0-2.4l0-1.2v-0.6v-0.3v-0.1V463v0v0v0v0c-0.1,0.1,0.7-0.7,0.4-0.4c16,0,30.6,0.1,41.3,0.1l0.3,0
					l0,0.3c-0.1,5.6-0.1,10.2-0.1,13.4c0,1.5,0,2.7-0.1,3.6C1959,480.7,1959,481.2,1959,481.1z"/>
			</g>
		</g>
	</g>
</g>
<g>
	<g>
		<path class="st6" d="M2028.9,1190.3c0,0.4-420.1,0.7-938.2,0.7c-518.3,0-938.3-0.3-938.3-0.7c0-0.4,420-0.7,938.3-0.7
			C1608.8,1189.5,2028.9,1189.8,2028.9,1190.3z"/>
	</g>
</g>
<g>
	<g>
		<g>
			<rect x="215.8" y="919" class="st5" width="1448.8" height="196.9"/>
		</g>
	</g>
	<g class="st7">
		<g>
			<rect x="215.8" y="919" width="1448.8" height="196.9"/>
		</g>
	</g>
	<g>
		<g>
			<path class="st5" d="M1748.3,907.3c-41.2-25.5-148-65.4-177.6-68.8c-18-2.1-97.9-13.1-97.9-13.1l-25.9-2.1
				c0,0-275.5-136.5-319.3-153.5c-67.9-26.2-211.2-49-363.3-30.3c0,0-203.2,18.6-248.3,31.7c-45.2,13.1-263.6,81.2-263.6,81.2
				s-95.8,10.1-94.3,13.8c0,0,1.3,6.2,9.3,13.8v61.3c0,0-10.6,14.5-13.3,21.3c-2.7,6.9-8.6,61.3-8.6,61.3s-28.6,68.1-28.6,86
				c0,17.9,51.9,86.7,64.5,97c12.6,10.3,114.5,25.4,114.5,25.4l-0.2-51.5c2.7-78.5,63.8-141.2,138.8-141.2
				c75,0,136.1,62.7,138.8,141.2l0.3,66.8h783.7h11.1l-0.5-49.6c-0.3-3.9-0.5-7.8-0.5-11.8c0-80.9,62.2-146.6,138.9-146.6
				c76.7,0,138.9,65.6,138.9,146.6c0,4-0.2,7.9-0.5,11.8h2.8v49.6h91.6c0,0,74.4-57.1,72.4-86v-81.4c0-10.8-3.9-21.2-11-29.2
				C1790,939.4,1772.4,922.3,1748.3,907.3z"/>
		</g>
	</g>
	<g class="st8">
		<g>
			<path d="M1811.3,1003.7l-58.6-21.7l-7,33l-93.6-5.2c0,0-41.2-81.6-125.5-88.8c-72.2-6.1-129.5,31-129.5,31l-412.3-42.4
				c0,0-209.2-8.3-289.8-7.2c-80.7,1-151.8,61.8-151.8,61.8s-23.8-35.8-108.2-36.6c-84.4-0.8-119.6,50.5-119.6,50.5
				c-59.5-8.1-116.8-32.6-164.5-70.3l-4.1,3.4c-0.9,7.3-1.4,12.5-1.4,12.5s-28.6,68.1-28.6,86c0,17.9,51.9,86.7,64.5,97
				c12.6,10.3,114.5,25.4,114.5,25.4l-0.2-51.5c2.7-78.5,63.8-141.2,138.8-141.2c75,0,136.1,62.7,138.8,141.2l0.3,66.8h783.7h11.1
				l-0.5-49.6c-0.3-3.9-0.5-7.8-0.5-11.8c0-80.9,62.2-146.6,138.9-146.6c76.7,0,138.9,65.6,138.9,146.6c0,4-0.2,7.9-0.5,11.8h2.8
				v49.6h91.6c0,0,74.4-57.1,72.4-86V1003.7L1811.3,1003.7z"/>
		</g>
	</g>
	<g>
		<g>
			<path class="st6" d="M397.1,756.9c-7.1,5.3-4.3,16.8,4.3,18l69.9,9.7l397,45.4l484,27.8c7.8,0.4,15.5-3,19.8-9.7
				c4.1-6.4,5.7-15.3-4.5-25.4c-20.3-20.2-110.2-72.5-131.3-82.8c-21.1-10.3-169.1-102.4-390.1-89.8
				c-66.9,2.4-195.3,22.2-361.2,44.7c-3.5,0.5-6.9,1.9-9.8,4L397.1,756.9z"/>
		</g>
	</g>
	<g>
		<g>
			<path class="st9" d="M479.6,777.2c1-3.1,36.7-73,43.7-77.2c6.9-4.1,295.8-42.2,299.8-37c4,5.1,13.9,152.3,13.9,152.3L479.6,777.2
				z"/>
		</g>
	</g>
	<g>
		<g>
			<polygon class="st6" points="589.7,689.3 587.1,792 602,792 602,687.6 			"/>
		</g>
	</g>
	<g>
		<g>
			<g>
				<path class="st6" d="M1283.8,766.4c0,0,0.3,0.5,0.7,1.6c0.5,1.1,1.2,2.6,2.1,4.7c0.9,2.1,2.1,4.6,3.2,7.7
					c1.2,3.1,2.5,6.7,4.1,10.8c5.7,16.4,12.6,41.2,16.9,73.5c4.4,32.2,6.2,71.9,3.5,117.1c-1.3,22.6-3.7,46.5-7.4,71.6
					c-1.9,12.5-4,25.3-6.7,38.3c-0.7,3.2-1.3,6.6-2.6,9.8c-1.3,3.2-2.8,6.2-4.5,9.1c-3.4,5.9-7.1,11.5-11.2,17.1l-0.2,0.3l-0.4,0
					c-96.2-1.8-208.6-3.9-328.1-6.2c-62-1.5-122.1-2.9-179.1-4.2c-28.5-0.6-56.2-1.2-82.9-1.4c-3.3,0-6.7-0.1-10,0
					c-3.3,0.1-6.6,0.1-10-0.1c-6.7-0.5-13.1-2.5-18.9-5.5c-5.8-3-11.1-7-15.7-11.5c-4.6-4.5-8.8-9.5-12.2-14.9l0,0.1
					c-30.6-43.6-58.2-84-82.4-119.9c-12-18-23.3-34.9-33.4-50.7c-10.2-15.8-19.4-30.4-27.2-43.9c-3.9-6.7-7.5-13.3-10.3-19.7
					c-0.7-1.6-1.3-3.2-1.9-4.8c-0.6-1.6-1-3.2-1.5-4.8c-0.4-1.6-1-3.1-1.3-4.7c-0.3-1.6-0.6-3.1-0.8-4.6c-2.1-12.2-0.3-22.8,2-30.9
					c2.4-8.1,5.5-13.8,7.8-17.5c2.3-3.7,3.9-5.3,3.9-5.3s-0.3,0.5-1,1.3c-0.6,0.9-1.6,2.2-2.7,4.1c-2.2,3.7-5.3,9.4-7.6,17.5
					c-2.2,8-3.9,18.6-1.8,30.6c0.3,1.5,0.6,3,0.9,4.6c0.3,1.6,0.8,3.1,1.3,4.6c0.5,1.6,0.8,3.2,1.5,4.7c0.6,1.6,1.3,3.1,1.9,4.7
					c2.8,6.4,6.4,12.8,10.3,19.5c7.8,13.5,17.1,28,27.3,43.8c10.2,15.8,21.5,32.6,33.5,50.6c24.2,35.9,51.9,76.2,82.6,119.8l0,0
					l0,0.1c6.7,10.5,16,19.9,27.4,25.9c5.7,2.9,11.9,4.9,18.4,5.3c3.2,0.2,6.5,0.2,9.8,0.1c3.3-0.1,6.6,0,10,0
					c26.8,0.2,54.4,0.7,82.9,1.3c56.9,1.3,117,2.7,179.1,4.2c119.5,2.3,231.9,4.5,328.1,6.4l-0.6,0.3c4-5.5,7.8-11.2,11.1-17
					c1.7-2.9,3.2-5.8,4.4-8.9c1.2-3,1.8-6.3,2.5-9.5c2.7-13,4.9-25.7,6.8-38.2c3.7-25,6.1-48.9,7.5-71.5
					c2.7-45.1,1.1-84.7-3.2-116.9c-4.2-32.2-10.9-57-16.5-73.4c-1.5-4.1-2.8-7.7-3.9-10.8c-1.1-3.1-2.3-5.6-3.1-7.7
					c-0.8-2.1-1.5-3.6-1.9-4.7C1283.9,766.9,1283.8,766.4,1283.8,766.4z"/>
			</g>
		</g>
	</g>
	<g>
		<g>
			<g>
				<path class="st6" d="M874.3,830.3c0.1,0,0.4,1,0.8,2.9c0.4,1.9,1,4.8,1.6,8.5c1.2,7.4,2.4,18.3,3.2,31.7
					c1.7,26.9,1,64.1,0.5,105.1c-0.6,41-1.5,78.2-2.2,105.1c-0.4,13.3-0.7,24.2-1,31.8c-0.2,3.6-0.3,6.5-0.4,8.7
					c-0.1,0.9-0.1,1.6-0.1,2.2c0,0.5-0.1,0.8-0.1,0.8c0,0-0.1-0.3-0.1-0.8c0-0.6,0-1.4,0-2.3c0-2.1,0-5,0-8.7
					c0.1-7.7,0.3-18.5,0.4-31.8c0.4-27,1.1-64.1,1.7-105.1c0.5-41,1.4-78.2,0-105c-0.6-13.4-1.7-24.2-2.7-31.7
					c-0.5-3.7-1-6.6-1.3-8.5c-0.2-0.9-0.3-1.6-0.4-2.2C874.3,830.5,874.3,830.3,874.3,830.3z"/>
			</g>
		</g>
	</g>
	<g>
		<g>
			<path class="st9" d="M877.6,660.1l29.6,155.2l315.8,23.3l48.6-68.4c0,0-122.4-72.2-229.9-93.9
				C932.7,654.1,877.6,660.1,877.6,660.1z"/>
		</g>
	</g>
	<g class="st8">
		<g>
			<path d="M629.2,1018.5c0,0,147.5,64.3,174.4,70.3c26.8,6.1,459.1,9.5,459.1,9.5l8.9-20l-451.2-3.1
				C820.5,1075.3,639.2,1005.1,629.2,1018.5z"/>
		</g>
	</g>
	<g>
		<g>
			<g>
				<path class="st6" d="M543.2,964.3c0,0-0.3-0.2-0.8-0.7c-0.5-0.5-1.3-1.2-2.3-2.2c-2.1-1.8-5.2-4.4-9.5-7.3
					c-4.3-2.9-9.8-6.1-16.5-9.2c-6.7-3-14.5-6.1-23.4-8.6c-8.9-2.4-18.7-4.7-29.5-5.9c-5.3-0.8-10.9-1.1-16.7-1.6
					c-2.9-0.3-5.8-0.1-8.7-0.2c-3,0-6-0.2-9,0.1c-24.2,1-50.8,7.5-75.8,20.7c-10.6,5.6-20.7,12.1-29.3,19.5l-0.7,0.6l-0.5-0.7
					c-14.1-20.1-27.2-39.2-38.5-56.7c-11.4-17.5-20.9-33.4-28.8-46.8c-7.8-13.4-13.9-24.3-18-31.7c-2-3.7-3.6-6.6-4.7-8.6
					c-0.5-0.9-0.9-1.7-1.2-2.3c-0.3-0.5-0.4-0.8-0.4-0.8c0,0,0.2,0.2,0.5,0.7c0.3,0.6,0.8,1.3,1.3,2.2c1.2,2,2.8,4.9,5,8.5
					c4.4,7.5,10.7,18.2,18.5,31.5c7.9,13.3,17.6,29.2,29,46.6c11.4,17.4,24.6,36.4,38.6,56.5l-1.2-0.1c8.8-7.6,18.9-14.1,29.6-19.8
					c25.2-13.4,52-19.9,76.5-20.8c3.1-0.3,6.1-0.1,9.1-0.1c3,0.1,5.9,0,8.8,0.3c5.8,0.5,11.4,0.8,16.8,1.7
					c10.8,1.3,20.7,3.7,29.6,6.1c8.9,2.6,16.7,5.8,23.4,8.9c6.6,3.3,12.1,6.6,16.4,9.6c4.3,3.1,7.4,5.7,9.4,7.6c1,1,1.7,1.7,2.2,2.3
					C543,964,543.2,964.3,543.2,964.3z"/>
			</g>
		</g>
	</g>
	<g>
		<g>
			<g>
				<path class="st6" d="M165.7,1046.1c-0.1,0-0.5-1.7-1.2-4.9c-0.7-3.2-1.6-7.8-2.6-13.5c-2.1-11.4-4.7-27.3-7.2-44.8
					c-2.5-17.6-4.4-33.5-5.6-45.1c-0.6-5.8-1-10.5-1.3-13.7c-0.2-3.2-0.3-5-0.2-5.1c0.1,0,0.4,1.8,0.9,5c0.5,3.5,1.1,8.1,1.8,13.6
					c1.5,11.5,3.6,27.4,6.1,45c2.5,17.5,4.9,33.4,6.7,44.9c0.8,5.5,1.5,10.1,2.1,13.6C165.6,1044.3,165.8,1046.1,165.7,1046.1z"/>
			</g>
		</g>
	</g>
	<g>
		<g>
			<g>
				<path class="st6" d="M298.6,1057.6c0,0.1-0.6,0.1-1.7,0.1c-1.3,0-2.9,0-4.9,0c-4.2,0-10.3-0.1-17.8-0.4
					c-15.1-0.5-35.9-1.8-58.7-4.1c-22.9-2.4-43.5-5.4-58.4-7.9c-7.4-1.3-13.4-2.4-17.6-3.2c-1.9-0.4-3.5-0.7-4.8-1
					c-1.1-0.3-1.6-0.4-1.6-0.5c0-0.1,0.6,0,1.7,0.1c1.3,0.2,2.9,0.4,4.8,0.7c4.4,0.7,10.4,1.6,17.6,2.7c14.9,2.2,35.5,5.1,58.4,7.4
					c22.9,2.3,43.6,3.8,58.6,4.6c7.3,0.4,13.4,0.7,17.8,0.9c1.9,0.1,3.5,0.2,4.8,0.3C298,1057.5,298.6,1057.6,298.6,1057.6z"/>
			</g>
		</g>
	</g>
	<g>
		<g>
			<path class="st0" d="M1752.7,982c0,0-18.3-43.8-17.7-45.3c2.8-7.9,13.3-29.4,13.3-29.4s8.6,4.9,19,12.6
				c11.6,8.6,25.6,20.8,35.4,31.9c5.6,6.4,8.7,14.8,8.7,23.5l0,36.7L1752.7,982z"/>
		</g>
	</g>
	<g>
		<g>
			<g>
				<path class="st6" d="M1355.3,779c0.4,0.3-3.7,5.4-8.5,11.8c-4.8,6.4-8.4,11.8-8.8,11.6c-0.4-0.2,2.6-6.1,7.5-12.6
					C1350.3,783.2,1355,778.7,1355.3,779z"/>
			</g>
		</g>
	</g>
	<g>
		<g>
			<path class="st10" d="M167.3,780c0,0,138.3,11.7,136.8,14.9c-1.5,3.2-136.8,46.4-136.8,46.4V780z"/>
		</g>
	</g>
	<g>
		<g>
			<g>
				<path class="st6" d="M166.9,843c-0.5,0-0.8-14-0.9-31.4c0-17.3,0.4-31.4,0.8-31.4c0.5,0,0.8,14,0.9,31.4
					C167.7,829,167.4,843,166.9,843z"/>
			</g>
		</g>
	</g>
	<g>
		<g>
			<g>
				<path class="st6" d="M1652.1,1009.9c0,0-0.3-0.4-0.7-1.2c-0.5-0.8-1.2-2-2.1-3.6c-1.9-3.2-4.9-7.8-9.1-13.6
					c-4.3-5.7-9.6-12.7-16.7-20.1c-7.1-7.4-15.6-15.5-26.3-23c-10.6-7.4-23.1-14.9-37.9-19.7c-14.7-5-31.3-7.5-49.1-7.8
					c-17.8-0.4-36.7,1.4-56,6.2c-9.7,2.3-19.3,5.6-28.9,9.7c-9.5,4.2-19.1,9.2-27.6,15.9l-0.3,0.2l-0.3,0
					c-63.5-6.5-135.1-13.8-210.6-21.6c-69.4-7.2-135.5-14-195.7-20.2c-1.9-0.2-3.8-0.4-5.6-0.6c-1.9-0.1-3.7-0.2-5.6-0.3
					c-3.7-0.2-7.4-0.4-11.1-0.6c-7.4-0.3-14.6-0.7-21.8-1c-14.3-0.5-28.2-1-41.6-1.5c-26.9-0.9-51.9-1.4-74.7-1.7
					c-45.7-0.7-82.7-0.8-108.2-0.9c-12.7-0.1-22.7-0.1-29.4-0.2c-3.3,0-5.9-0.1-7.7-0.1c-1.7,0-2.6-0.1-2.6-0.1s0.9-0.1,2.6-0.1
					c1.8,0,4.3,0,7.7-0.1c6.8,0,16.7-0.1,29.4-0.2c25.6-0.1,62.5-0.2,108.3,0.4c22.9,0.3,47.9,0.7,74.8,1.5
					c13.4,0.4,27.3,0.9,41.6,1.5c7.2,0.3,14.4,0.6,21.8,1c3.7,0.2,7.4,0.4,11.1,0.5c1.9,0.1,3.7,0.2,5.6,0.3
					c1.9,0.2,3.7,0.4,5.6,0.6c60.1,6.2,126.3,12.9,195.7,20.1c75.5,7.8,147,15.2,210.6,21.7l-0.6,0.2c8.8-6.8,18.4-11.8,28-16.1
					c9.6-4.2,19.4-7.4,29.1-9.8c19.4-4.8,38.5-6.5,56.3-6.1c17.9,0.3,34.6,2.9,49.4,8c14.9,4.9,27.4,12.4,38.1,20
					c10.7,7.5,19.3,15.8,26.3,23.3c7.1,7.4,12.4,14.5,16.6,20.3c4.1,5.9,7.1,10.5,8.9,13.8
					C1651.3,1008.1,1652.1,1009.9,1652.1,1009.9z"/>
			</g>
		</g>
	</g>
	<g>
		<g>
			<g>
				<path class="st6" d="M1262.7,1098.4c0,0-0.6,0-1.6,0.1c-1.2,0-2.8,0-4.8,0c-4.3-0.1-10.6-0.1-18.6-0.2
					c-16.2-0.3-39.5-0.7-68.3-1.1c-57.7-1.1-137.4-2.7-225.4-4.4c-44-0.9-85.9-1.8-124.1-2.6c-2.4-0.1-4.8-0.1-7.1-0.2
					c-2.3-0.1-4.7,0-7.1-0.4c-4.8-0.6-9-2.8-13.2-4.5c-8.4-3.5-16.5-6.8-24.5-10c-15.8-6.3-30.7-11.9-44.2-17.1
					c-27.1-10.3-48.9-18.8-63.9-25c-7.5-3.1-13.3-5.6-17.2-7.3c-1.9-0.8-3.4-1.5-4.4-2c-1-0.5-1.5-0.7-1.5-0.7s0.5,0.2,1.6,0.6
					c1.1,0.4,2.6,1,4.5,1.8c4,1.6,9.8,4,17.3,7c15.1,6,37,14.3,64.1,24.5c13.6,5.1,28.4,10.7,44.3,16.9c7.9,3.1,16.1,6.4,24.5,9.9
					c4.2,1.7,8.3,3.8,12.8,4.4c2.2,0.3,4.5,0.3,6.9,0.3c2.4,0,4.7,0.1,7.1,0.1c38.1,0.8,80.1,1.6,124.1,2.5
					c88,1.9,167.6,3.7,225.4,4.9c28.8,0.7,52.1,1.3,68.3,1.7c8,0.2,14.3,0.4,18.6,0.5c2.1,0.1,3.7,0.1,4.8,0.2
					C1262.2,1098.3,1262.7,1098.4,1262.7,1098.4z"/>
			</g>
		</g>
	</g>
	<g>
		<g>
			<g>
				<path class="st5" d="M1226.2,769c-5.9,12.7-12.5,31.3-11.3,50.7c0.8,12.6,10.8,22.5,23,22.6l56.9,0.4c8.4,0.1,16-6.1,17.1-14.7
					c0.4-2.8,0-5.9-1.4-9c-5.9-12.5-10.8-10.1-10.8-10.1s-17.2-36.8-43.4-50.8C1245.2,752.4,1231.6,757.5,1226.2,769z"/>
			</g>
		</g>
	</g>
	<g>
		<g>
			<g>
				<g>
					<path class="st6" d="M1285.1,842.7c0.1,0.2,2.3-0.4,5.2-2.6c2.8-2.2,6.7-5.9,8.3-11.6c1.5-5.6,1.1-10.7,1.2-14.3
						c-0.1-3.6-0.2-5.9-0.5-5.9c-0.3,0-0.6,2.2-0.9,5.8c-0.4,3.6-0.3,8.6-1.7,13.7c-1.3,5.1-4.8,8.7-7.2,11
						C1286.8,841.4,1284.9,842.5,1285.1,842.7z"/>
				</g>
			</g>
		</g>
	</g>
	<g>
		<g>
			<g>
				<g>
					<path class="st0" d="M1289.4,801.3c0.2-0.1-0.8-3.1-3.2-7.6c-2.4-4.5-6.3-10.4-11.7-16c-5.4-5.6-11.1-9.6-15.5-12.1
						c-4.4-2.5-7.3-3.4-7.4-3.2c-0.3,0.6,11,5.8,21.5,16.7C1283.7,789.9,1288.8,801.6,1289.4,801.3z"/>
				</g>
			</g>
		</g>
	</g>
	<g>
		<g>
			<g>
				<path class="st9" d="M850.3,649.8c0.1,0,0.2,0.6,0.5,1.8c0.3,1.4,0.6,3.1,1,5.2c0.9,4.5,2.1,11.1,3.5,19.2
					c2.8,16.2,6.5,38.7,10.1,63.6c3.6,24.9,6.3,47.5,7.7,64c0.4,4.1,0.6,7.8,0.8,11.1c0.2,3.3,0.4,6.1,0.4,8.4c0,2.1,0,3.9,0.1,5.3
					c0,1.2,0,1.9-0.1,1.9c-0.1,0-0.1-0.6-0.2-1.8c-0.1-1.4-0.2-3.2-0.4-5.3c-0.1-2.3-0.4-5.1-0.7-8.4c-0.3-3.3-0.6-7-1.1-11.1
					c-1.7-16.4-4.6-39-8.2-63.9c-3.6-24.9-7.1-47.4-9.6-63.7c-1.2-8-2.2-14.5-2.9-19.3c-0.3-2.1-0.5-3.9-0.7-5.3
					C850.3,650.4,850.3,649.8,850.3,649.8z"/>
			</g>
		</g>
	</g>
	<g class="st8">
		<g>
			<path d="M167.3,841.2l68.4-42.1l2-12.8c26.6,2.7,58.8,5.3,66.4,8.5C304.2,797,220,824.7,167.3,841.2z"/>
		</g>
	</g>
	<g class="st8">
		<g>
			<path d="M1735,936.7l36.6,32.2l39.8,6.5l0,36.7l-58.7-30.1C1745.5,964.5,1738.9,948.2,1735,936.7z"/>
		</g>
	</g>
	<g>
		<g>
			<g>
				<path class="st6" d="M1734.6,936.7c0,0-0.3-0.1-0.9-0.3c-0.7-0.3-1.6-0.7-2.7-1.1c-2.4-1.1-5.8-2.6-10.1-4.5
					c-8.9-4-21.6-9.6-37.2-16.5c-15.7-6.9-34.5-15.1-55.5-23.7c-10.5-4.2-21.6-8.7-33.4-12.2c-5.9-1.5-12.1-2.5-18.4-3.6
					c-6.3-1-12.6-2.1-19.1-3.1c-51.6-8.2-98.4-15.1-132.3-20.2c-16.8-2.6-30.5-4.7-40.1-6.1c-4.6-0.7-8.3-1.3-10.9-1.7
					c-1.2-0.2-2.1-0.4-2.8-0.5c-0.6-0.1-1-0.2-1-0.2c0,0,0.3,0,1,0.1c0.7,0.1,1.7,0.2,2.8,0.3c2.6,0.3,6.3,0.8,10.9,1.4
					c9.6,1.3,23.3,3.2,40.2,5.6c33.9,4.8,80.7,11.5,132.3,19.7c6.4,1.1,12.8,2.1,19.1,3.1c6.3,1.1,12.5,2.1,18.5,3.7
					c11.9,3.6,22.9,8.1,33.5,12.4c21,8.7,39.8,17,55.4,24.1c15.7,7.1,28.3,12.9,37,17c4.3,2,7.6,3.6,10,4.8c1.1,0.5,1.9,1,2.6,1.3
					C1734.3,936.5,1734.6,936.7,1734.6,936.7z"/>
			</g>
		</g>
	</g>
	<g>
		<g>
			<g>
				<g>
					<g>
						<g>
							<g>
								<g>
									<g>
										<g>
											<g>
												<g>
													<g>
														<ellipse class="st6" cx="433.6" cy="1091.2" rx="129.4" ry="134.2"/>
													</g>
												</g>
											</g>
										</g>
									</g>
								</g>
							</g>
						</g>
					</g>
				</g>
			</g>
		</g>
		<g>
			<g>
				<g>
					<g>
						<g>
							<g>
								<g>
									<g>
										<g>
											<g>
												<g>
													<g>
														<path class="st6" d="M304.2,1088.9c0,0.1,0,0.2,0,0.3c-1,74.1,56.1,135,127.6,136.1c71.5,1.1,130.3-58.1,131.3-132.2
															c0-0.1,0-0.2,0-0.3L304.2,1088.9z"/>
													</g>
												</g>
											</g>
										</g>
									</g>
								</g>
							</g>
						</g>
					</g>
				</g>
			</g>
		</g>
		<g>
			<g>
				<g>
					<g>
						<g>
							<g>
								<g>
									<g>
										<g>
											<g>
												<g>
													<g>
														<path class="st4" d="M342.7,1089.8c-0.7,52,39.4,94.8,89.5,95.5c50.2,0.8,91.4-40.8,92.2-92.8
															c0.7-52-39.4-94.8-89.6-95.5C384.7,996.3,343.5,1037.8,342.7,1089.8z"/>
													</g>
												</g>
											</g>
										</g>
									</g>
								</g>
							</g>
						</g>
					</g>
				</g>
			</g>
		</g>
		<g>
			<g>
				<g>
					<g>
						<g>
							<g>
								<g>
									<g>
										<g>
											<g>
												<g>
													<g>
														<path class="st5" d="M434.9,997c-50.2-0.8-91.4,40.8-92.2,92.8l181.7,2.7C525.2,1040.5,485.1,997.8,434.9,997z"/>
													</g>
												</g>
											</g>
										</g>
									</g>
								</g>
							</g>
						</g>
					</g>
				</g>
			</g>
		</g>
		<g>
			<g>
				<g>
					<g>
						<g>
							<g>
								<g>
									<g>
										<g>
											<g>
												<g>
													<g>
														<path class="st6" d="M378.2,1090.4c-0.4,31.7,24,57.7,54.5,58.2c30.6,0.5,55.7-24.9,56.1-56.5
															c0.4-31.7-24-57.7-54.6-58.2C403.8,1033.4,378.7,1058.7,378.2,1090.4z"/>
													</g>
												</g>
											</g>
										</g>
									</g>
								</g>
							</g>
						</g>
					</g>
				</g>
			</g>
		</g>
	</g>
	<g>
		<g>
			<g>
				<g>
					<g>
						<g>
							<g>
								<g>
									<g>
										<g>
											<g>
												<g>
													<g>
														<ellipse class="st6" cx="1504.7" cy="1091.2" rx="129.4" ry="134.2"/>
													</g>
												</g>
											</g>
										</g>
									</g>
								</g>
							</g>
						</g>
					</g>
				</g>
			</g>
		</g>
		<g>
			<g>
				<g>
					<g>
						<g>
							<g>
								<g>
									<g>
										<g>
											<g>
												<g>
													<g>
														<path class="st6" d="M1375.3,1088.9c0,0.1,0,0.2,0,0.3c-1,74.1,56.1,135,127.6,136.1c71.5,1.1,130.3-58.1,131.3-132.2
															c0-0.1,0-0.2,0-0.3L1375.3,1088.9z"/>
													</g>
												</g>
											</g>
										</g>
									</g>
								</g>
							</g>
						</g>
					</g>
				</g>
			</g>
		</g>
		<g>
			<g>
				<g>
					<g>
						<g>
							<g>
								<g>
									<g>
										<g>
											<g>
												<g>
													<g>
														<path class="st4" d="M1413.9,1089.8c-0.7,52,39.4,94.8,89.5,95.5c50.2,0.8,91.4-40.8,92.2-92.8
															c0.7-52-39.4-94.8-89.6-95.5C1455.9,996.3,1414.6,1037.8,1413.9,1089.8z"/>
													</g>
												</g>
											</g>
										</g>
									</g>
								</g>
							</g>
						</g>
					</g>
				</g>
			</g>
		</g>
		<g>
			<g>
				<g>
					<g>
						<g>
							<g>
								<g>
									<g>
										<g>
											<g>
												<g>
													<g>
														<path class="st5" d="M1506.1,997c-50.2-0.8-91.4,40.8-92.2,92.8l181.7,2.7C1596.3,1040.5,1556.2,997.8,1506.1,997z"/>
													</g>
												</g>
											</g>
										</g>
									</g>
								</g>
							</g>
						</g>
					</g>
				</g>
			</g>
		</g>
		<g>
			<g>
				<g>
					<g>
						<g>
							<g>
								<g>
									<g>
										<g>
											<g>
												<g>
													<g>
														<path class="st6" d="M1449.4,1090.4c-0.4,31.7,24,57.7,54.5,58.2c30.6,0.5,55.7-24.9,56.1-56.5
															c0.4-31.7-24-57.7-54.6-58.2S1449.8,1058.7,1449.4,1090.4z"/>
													</g>
												</g>
											</g>
										</g>
									</g>
								</g>
							</g>
						</g>
					</g>
				</g>
			</g>
		</g>
	</g>
	<g>
		<g>
			<g>
				<g>
					<path class="st0" d="M1015.9,789.2c-0.2-0.4,23.8-13.4,53.6-29c29.8-15.6,54.1-27.9,54.3-27.5c0.2,0.4-23.8,13.4-53.6,29
						C1040.5,777.3,1016.1,789.6,1015.9,789.2z"/>
				</g>
			</g>
		</g>
		<g>
			<g>
				<g>
					<path class="st0" d="M982.5,785.8c-0.2-0.4,22.6-13.3,50.9-28.7c28.3-15.4,51.4-27.6,51.6-27.2c0.2,0.4-22.5,13.3-50.9,28.7
						C1005.9,774.1,982.8,786.2,982.5,785.8z"/>
				</g>
			</g>
		</g>
		<g>
			<g>
				<g>
					<path class="st0" d="M648.8,780c0-0.1,1.6-0.9,4.7-2.2c3.3-1.4,7.7-3.2,12.9-5.4c11.2-4.6,26.2-10.8,42.7-17.7
						c16.5-7,31.4-13.4,42.5-18.2c5.2-2.2,9.6-4.1,12.9-5.5c3.1-1.3,4.8-1.9,4.8-1.8c0,0.1-1.6,1-4.5,2.4c-3,1.5-7.3,3.5-12.7,6
						c-10.7,5-25.7,11.6-42.3,18.6c-16.6,7-31.8,13-42.9,17.2c-5.5,2.1-10,3.7-13.1,4.8C650.6,779.6,648.9,780.2,648.8,780z"/>
				</g>
			</g>
		</g>
		<g>
			<g>
				<g>
					<path class="st0" d="M679.7,743.2c-0.2-0.4,12.2-6.6,27.7-13.8c15.5-7.2,28.2-12.7,28.4-12.3c0.2,0.4-12.2,6.6-27.7,13.8
						C692.6,738.2,679.9,743.7,679.7,743.2z"/>
				</g>
			</g>
		</g>
	</g>
	<g>
		<g>
			<g>
				<path class="st6" d="M1811.4,1012.1c-0.1,0-0.2-1.9-0.3-5.3c-0.1-3.7-0.2-8.6-0.3-14.4c-0.1-6,0-13.4-0.3-21.3
					c-0.7-7.9-6.3-15-11.8-22.1c-5.6-7.1-12.3-12.6-18.3-17.6c-6.1-4.9-11.8-9.2-16.5-12.7c-4.6-3.3-8.5-6.1-11.4-8.2
					c-2.7-1.9-4.2-3-4.1-3.1c0.1-0.1,1.7,0.8,4.5,2.6c2.8,1.8,6.8,4.4,11.7,7.8c4.9,3.4,10.6,7.5,16.8,12.4
					c6.1,5,12.9,10.5,18.7,17.8c2.8,3.6,5.6,7.2,7.8,11c2.3,3.7,3.9,7.9,4.2,12.1c0.3,8.2,0,15.3,0,21.4c-0.1,5.8-0.2,10.7-0.3,14.4
					C1811.6,1010.2,1811.5,1012.1,1811.4,1012.1z"/>
			</g>
		</g>
	</g>
</g>
<g>
	<g>
		<path class="st10" d="M460.2,466.2c0-63.7-57.6-113.9-123.5-101.5c-41.5,7.8-74.5,41.7-81.8,83.2c-4.5,26,0.8,50.4,12.7,70.6h-0.1
			l0.3,0.4c4,6.7,8.9,11.5,14,18.5l60.1,79.6c7.5,9.9,22.3,9.9,29.8,0l59.1-78.2c0,0,11-13.1,15-19.9l0.2-0.3h0
			C454.9,503.1,460.2,485.3,460.2,466.2z M356.7,511.2c-25.1,0-45.5-20.4-45.5-45.5c0-25.1,20.4-45.5,45.5-45.5
			c25.1,0,45.5,20.4,45.5,45.5C402.3,490.9,381.9,511.2,356.7,511.2z"/>
	</g>
</g>
<g>
	<g>
		<g>
			<g>
				<g>
					<g>
						<path class="st0" d="M1347.5,447.5l18.3,3.3c6.6,7.4,15.2,13.2,25.4,16.3c29.3,8.9,60.2-7.8,69.1-37.1
							c8.9-29.3-7.7-60.3-37-69.1c-29.3-8.9-60.2,7.8-69.1,37.1c-3.7,12.2-3,24.8,1.3,35.9l0,0L1347.5,447.5z"/>
					</g>
				</g>
				<g>
					<g>
						<g>
							<path class="st6" d="M1347.5,447.5c0,0,0.2-0.3,0.6-0.9c0.4-0.6,0.9-1.5,1.6-2.6c1.4-2.3,3.4-5.7,6-10.1l-0.3,0c0,0,0,0,0,0
								c0.1,0.1,0.2,0.1,0.3,0c0.1-0.1,0.1-0.2,0.1-0.2c-2.4-6.5-4.5-15.8-3.1-26.7c0.4-2.7,0.9-5.5,1.8-8.4c1-2.8,1.9-5.8,3.4-8.6
								c2.8-5.7,6.7-11.3,11.9-16.2c5.2-4.9,11.6-8.9,18.9-11.6c7.3-2.7,15.4-3.9,23.7-3.1c8.3,0.8,16.6,3.5,24.1,8.2
								c7.5,4.6,13.9,11.3,18.5,19.2c9,15.5,9.4,34.5,2.8,49.3c-3.2,7.5-8,13.9-13.7,19c-5.6,5.1-12.1,8.8-18.7,11.1
								c-13.2,4.6-26.6,3.6-36.8-0.1c-10.3-3.7-17.7-9.8-22.4-15.1c0,0-0.1-0.1-0.1-0.1c-5.9-1-10.5-1.8-13.6-2.3
								c-1.5-0.2-2.7-0.4-3.5-0.6C1347.9,447.6,1347.5,447.5,1347.5,447.5s0.4,0.1,1.1,0.2c0.8,0.2,2,0.4,3.5,0.7
								c3.1,0.6,7.7,1.5,13.7,2.6l-0.1-0.1c4.7,5.4,12.1,11.6,22.5,15.5c10.3,3.9,23.8,4.9,37.3,0.3c6.7-2.3,13.3-6,19-11.2
								c5.8-5.1,10.7-11.7,14-19.3c6.8-15.1,6.4-34.5-2.8-50.2l-1.8-3c-0.7-1-1.4-1.9-2-2.8c-1.3-1.9-3-3.5-4.4-5.3
								c-0.8-0.9-1.7-1.6-2.5-2.4c-0.9-0.7-1.6-1.6-2.6-2.2c-1.8-1.3-3.5-2.8-5.5-3.9c-7.6-4.7-16.1-7.5-24.5-8.3
								c-8.4-0.7-16.7,0.5-24.1,3.2c-7.4,2.7-13.9,6.9-19.2,11.8c-5.3,4.9-9.2,10.7-12,16.5c-1.5,2.9-2.4,5.9-3.4,8.7
								c-0.8,2.9-1.4,5.7-1.7,8.5c-1.4,11.1,0.8,20.4,3.3,26.9l0.4-0.2c0,0,0,0,0,0c-0.1-0.1-0.2-0.1-0.3,0c0,0,0,0-0.1,0.1
								c-2.5,4.5-4.5,8-5.9,10.4c-0.6,1.1-1.1,2-1.5,2.6C1347.6,447.2,1347.5,447.5,1347.5,447.5z"/>
						</g>
					</g>
				</g>
			</g>
		</g>
	</g>
	<g>
		<g>
			<g>
				<polygon class="st10" points="1408.9,436.7 1381.7,418.5 1388.1,409 1406.3,421.2 1429,391.2 1438.1,398 				"/>
			</g>
		</g>
	</g>
</g>
<g>
	<g>
		<g>
			<g>
				<path class="st6" d="M1147.2,622.2c0.1-2,1.3-3.7,2.9-4.8c25.9-17.1,45.4-55.1,47.3-87.2c0.1-1.8,0.1-3.7,0.2-5.6c0,0,0,0,0,0
					l0,0c1.5-45.9,8.3-101.7,14.3-116.5c11.2-27.4,49.2-30,49.2-30c50.4-3.6,59.4,35.1,64.5,70.4c3.2,22,15.4,100.4,15.4,100.4
					l-9.3,3.6c-10.9,32.4-35.5,58.5-67.5,70.6c-9.3,3.5-17.2,4.9-20.9,1.9c-14.7,14.9-33.1,26.1-53.1,32.2
					c-8.1,2.5-16.7,4.1-25.2,3.3c-5.5-0.5-11.3-2.3-14.6-6.8c-2.8-3.8-3.2-9.3-1-13.5c2.3-4.2,7-6.9,11.8-6.6
					C1159.5,627.4,1147,629.2,1147.2,622.2z"/>
			</g>
		</g>
		<g>
			<g>
				<path class="st11" d="M1254,390.9l3.2-3l26.7,10.7c4.9,0.3,13.1,9.7,13.3,14.7l-0.5,108.5c0,7.5,1.9,14.3-2.7,20.3l-4.8,6.3
					c-10.9,14.4-33.4,13.2-42-2.7c-0.6-1.1-1-2.1-1.2-2.9c-0.2-1-0.5-1.6-0.5-2.5c-1-8.9-2.1-15.2-2.1-15.2s0.2-15.3,0.2-15.2
					c0,0-20.9-2.4-26.5-29.2c-2.8-13.3-2.3-31.7-1.5-49.7C1216.6,406,1234,390.9,1254,390.9z"/>
			</g>
		</g>
		<g>
			<g>
				<g>
					<g>
						<g>
							<g>
								<g>
									<g>
										<g>
											<g>
												<path class="st6" d="M1257.6,449.3c0,1.8,1.6,3.3,3.5,3.3c1.9,0,3.4-1.5,3.4-3.3c0-1.8-1.6-3.3-3.5-3.3
													C1259.1,446,1257.6,447.5,1257.6,449.3z"/>
											</g>
										</g>
									</g>
								</g>
							</g>
						</g>
					</g>
				</g>
			</g>
		</g>
		<g>
			<g>
				<g>
					<g>
						<g>
							<g>
								<g>
									<g>
										<g>
											<g>
												<path class="st6" d="M1222.9,449.3c0,1.8,1.6,3.3,3.5,3.3c1.9,0,3.4-1.5,3.4-3.3c0-1.8-1.6-3.3-3.5-3.3
													C1224.4,446,1222.8,447.5,1222.9,449.3z"/>
											</g>
										</g>
									</g>
								</g>
							</g>
						</g>
					</g>
				</g>
			</g>
		</g>
		<g>
			<g>
				<g>
					<g>
						<g>
							<g>
								<g>
									<g>
										<g>
											<g>
												<g>
													<path class="st6" d="M1219.5,439.5c0.5,0.4,3-1.6,6.7-1.8c3.7-0.2,6.6,1.6,6.9,1.1c0.2-0.2-0.3-1-1.5-1.8
														c-1.2-0.8-3.3-1.5-5.6-1.4c-2.3,0.1-4.2,1.1-5.3,2C1219.6,438.5,1219.3,439.3,1219.5,439.5z"/>
												</g>
											</g>
										</g>
									</g>
								</g>
							</g>
						</g>
					</g>
				</g>
			</g>
		</g>
		<g>
			<g>
				<g>
					<g>
						<g>
							<g>
								<g>
									<g>
										<g>
											<g>
												<g>
													<path class="st6" d="M1257.4,439.9c0.5,0.4,2.8-1.9,6.5-2.5c3.7-0.6,6.7,0.9,7,0.4c0.2-0.2-0.4-1-1.7-1.6
														c-1.3-0.7-3.4-1.2-5.7-0.8c-2.3,0.4-4.1,1.5-5.1,2.6C1257.4,438.9,1257.1,439.8,1257.4,439.9z"/>
												</g>
											</g>
										</g>
									</g>
								</g>
							</g>
						</g>
					</g>
				</g>
			</g>
		</g>
		<g>
			<g>
				<g>
					<g>
						<g>
							<g>
								<g>
									<g>
										<g>
											<g>
												<path class="st6" d="M1244.3,467.1c0-0.2-2.3-0.5-6.1-0.8c-1-0.1-1.9-0.2-2.1-0.8c-0.3-0.7,0.1-1.7,0.5-2.9
													c0.8-2.3,1.6-4.8,2.5-7.4c3.4-10.5,5.8-19.2,5.4-19.3c-0.4-0.1-3.5,8.3-6.9,18.8c-0.8,2.6-1.6,5.1-2.3,7.4
													c-0.3,1.1-0.9,2.4-0.3,3.8c0.3,0.7,1,1.2,1.6,1.3c0.6,0.2,1.2,0.1,1.6,0.1C1242,467.4,1244.3,467.3,1244.3,467.1z"/>
											</g>
										</g>
									</g>
								</g>
							</g>
						</g>
					</g>
				</g>
			</g>
		</g>
		<g>
			<g>
				<g>
					<g>
						<g>
							<g>
								<g>
									<g>
										<g>
											<path class="st12" d="M1243.6,509.9c0,0,18.2,0.3,35.7-11.5c0,0-8.6,19.2-35.8,18L1243.6,509.9z"/>
										</g>
									</g>
								</g>
							</g>
						</g>
					</g>
				</g>
			</g>
		</g>
		<g>
			<g>
				<g>
					<g>
						<g>
							<g>
								<g>
									<g>
										<g>
											<path class="st12" d="M1246.4,476c1.3-1.8,3.6-2.9,5.9-2.8c1.6,0.1,3.3,0.8,4.4,2.1c1,1.3,1.3,3.1,0.5,4.4
												c-0.9,1.5-3,1.9-4.8,1.5c-1.8-0.4-3.4-1.5-4.9-2.6c-0.4-0.3-0.8-0.6-1.1-1c-0.3-0.4-0.4-1-0.1-1.4"/>
										</g>
									</g>
								</g>
							</g>
						</g>
					</g>
				</g>
			</g>
		</g>
		<g>
			<g>
				<g>
					<g>
						<g>
							<g>
								<g>
									<g>
										<g>
											<g>
												<path class="st6" d="M1255.4,469.1c-0.6,0-0.4,4-3.7,7.1c-3.3,3.1-7.7,2.8-7.7,3.4c0,0.3,1,0.7,2.8,0.7
													c1.8,0,4.4-0.7,6.4-2.6c2-1.9,2.8-4.3,2.9-5.9C1256.2,470,1255.7,469.1,1255.4,469.1z"/>
											</g>
										</g>
									</g>
								</g>
							</g>
						</g>
					</g>
				</g>
			</g>
		</g>
		<g>
			<g>
				<g>
					<g>
						<g>
							<g>
								<path class="st6" d="M1253.8,425.4c0.5,0.9,4.1-0.1,8.5-0.2c4.4-0.2,8.1,0.5,8.5-0.5c0.2-0.5-0.6-1.3-2.1-2.1
									c-1.5-0.8-3.9-1.3-6.6-1.2c-2.6,0.1-5,0.9-6.4,1.8C1254.2,424,1253.6,424.9,1253.8,425.4z"/>
							</g>
						</g>
					</g>
				</g>
			</g>
		</g>
		<g>
			<g>
				<g>
					<g>
						<g>
							<g>
								<path class="st6" d="M1220,423.5c0.7,0.8,3.2-0.2,6.3-0.4c3.1-0.3,5.7,0.3,6.3-0.6c0.2-0.4-0.2-1.3-1.4-2
									c-1.2-0.7-3.1-1.3-5.2-1.1c-2.1,0.2-3.9,1-5,2C1220,422.2,1219.7,423.1,1220,423.5z"/>
							</g>
						</g>
					</g>
				</g>
			</g>
		</g>
		<g>
			<g>
				<path class="st6" d="M1300,459.7c0,0-19.1,5.9-29.9-41.2c-3.7-16.1-18.6-29.2-18.6-29.2l6.1-1.8c0,0,37.7,10.6,38.3,11.1
					c0.6,0.5,9.5,19.5,9.5,19.5L1300,459.7z"/>
			</g>
		</g>
		<g>
			<g>
				<path class="st11" d="M1292.6,457.1c-0.1-2,2-6.9,4-7.3c5.3-1.1,14.9-1.1,15.6,12.3c1,18.4-17.7,15.7-17.7,15.1
					C1294.4,476.9,1292.9,464,1292.6,457.1z"/>
			</g>
		</g>
		<g>
			<g>
				<path class="st12" d="M1299.7,470c0.1-0.1,0.3,0.2,0.9,0.4c0.5,0.2,1.5,0.3,2.4-0.1c1.9-0.8,3.4-4,3.3-7.3
					c0-1.7-0.5-3.3-1.2-4.5c-0.6-1.3-1.6-2.2-2.6-2.3c-1-0.2-1.6,0.5-1.8,1c-0.2,0.5-0.1,0.9-0.2,0.9c0,0-0.4-0.3-0.3-1.1
					c0.1-0.4,0.2-0.8,0.7-1.2c0.4-0.4,1.1-0.6,1.7-0.6c1.4,0,2.8,1.3,3.5,2.7c0.8,1.4,1.3,3.2,1.4,5.1c0.1,3.7-1.6,7.3-4.2,8.2
					c-1.3,0.4-2.4,0.1-3-0.3C1299.7,470.4,1299.6,470,1299.7,470z"/>
			</g>
		</g>
		<g>
			<g>
				<g>
					<path class="st9" d="M1312.2,529.3c0,0,0.1-0.3,0.2-0.9c0.1-0.6,0.3-1.5,0.5-2.6c0.4-2.4,0.9-5.7,1.7-10l-0.4-0.1
						c-0.1,0.7-0.2,1.4-0.3,2.2l0-0.1c-0.1,0.2-0.3,0.5-0.4,0.8l0.5,0.2c2.2-7.5,4.6-17.7,5.9-29.7c0.7-6,1.1-12.4,1.1-19.2
						c-0.1-6.7,0-13.9-1.8-21c-0.7-3-1.9-5.8-3.4-8.4c-1.5-2.6-3.2-4.9-5.1-7.1c-3.7-4.3-7.8-8-11.5-11.7
						c-7.4-7.3-14.1-13.9-19.8-19.5c-5.6-5.5-10.2-9.9-13.4-13.1c-1.6-1.5-2.8-2.7-3.7-3.5c-0.4-0.4-0.7-0.7-1-0.9
						c-0.2-0.2-0.3-0.3-0.4-0.3c0,0,0.1,0.1,0.3,0.3c0.2,0.3,0.5,0.6,0.9,1c0.9,0.9,2,2.1,3.6,3.6c3.2,3.2,7.7,7.7,13.2,13.3
						c5.6,5.6,12.3,12.2,19.6,19.6c3.7,3.7,7.7,7.5,11.4,11.7c3.7,4.3,6.9,9.3,8.3,15.1c1.8,7,1.7,14.1,1.8,20.8
						c0,6.7-0.4,13.1-1.1,19.1c-1.3,11.9-3.6,22.1-5.6,29.6l0.5,0.2c0.1-0.3,0.3-0.6,0.4-0.8l0,0l0,0c0.1-0.8,0.2-1.5,0.3-2.2
						l-0.4-0.1c-0.6,4.3-1.1,7.7-1.4,10c-0.1,1.1-0.3,2-0.3,2.6C1312.2,529,1312.2,529.3,1312.2,529.3z"/>
				</g>
			</g>
		</g>
		<g>
			<g>
				<g>
					<path class="st9" d="M1324.5,440c0,0-0.1-0.3-0.3-0.8c-0.3-0.6-0.6-1.3-1.1-2.2c-0.9-1.9-2.4-4.5-4.3-7.7
						c-1.9-3.2-4.4-7-7.3-11c-2.9-4-6.3-8.3-10.2-12.5c-3.8-4.3-7.7-8.1-11.4-11.4c-3.7-3.3-7.1-6.2-10.1-8.4c-3-2.3-5.5-4-7.2-5.1
						c-0.8-0.5-1.5-0.9-2-1.3c-0.5-0.3-0.7-0.4-0.7-0.4c0,0,0.2,0.2,0.6,0.5c0.5,0.4,1.2,0.9,1.9,1.4c1.7,1.2,4.1,3,7.1,5.3
						c2.9,2.3,6.3,5.2,10,8.5c3.6,3.4,7.5,7.2,11.3,11.4c3.8,4.2,7.2,8.5,10.2,12.4c2.9,4,5.4,7.7,7.4,10.8c2,3.2,3.5,5.8,4.6,7.6
						c0.5,0.8,0.9,1.5,1.2,2.1C1324.3,439.7,1324.5,440,1324.5,440z"/>
				</g>
			</g>
		</g>
	</g>
	<g>
		<g>
			<path class="st12" d="M1008.7,584.1l-18.1,12.3c0,0,2.2,5.5,8.5,2.7c6.3-2.8,17.4-9.6,17.4-9.6l8.6,3.5l6.6-8l-21.3-1.4
				C1009.8,583.5,1009.2,583.7,1008.7,584.1z"/>
		</g>
		<g>
			<path class="st11" d="M1079,611.8l-45.2-27c-0.2-0.1-0.5-0.2-0.7-0.2h-4.8c-0.1,0-0.1,0-0.2,0l-18.2,2.5c-0.2,0-0.5,0.1-0.7,0.3
				l-17,13.7c-0.8,0.7-0.6,2,0.4,2.3c2.3,0.8,7,1,8.5,0.5c6-1.7,11.1-6.2,12.9-7.5c0.3-0.2,0.7-0.3,1.1-0.3l12,2.1
				c0.6,0.1,1.1,0.6,1.1,1.3l0.1,1.5c0,0.6-0.3,1.1-0.8,1.3c-1.9,0.9-7,3-11.4,2.2c-5.7-1.1-8.5-0.9-8.5-0.9c-1.8,0.1-8.2,1-9.3,1.9
				c-2,1.6-1.2,4.9,1.3,5.5c5.4,1.3,19.2,3.1,22.1,4c4.1,1.2,5.8,6,17.2,9.6c5.8,1.8,15.2-0.8,17.5-1.7l10.3,10.4
				c0.7,0.4,1.5,0.2,1.9-0.5l10.8-19.1C1079.8,613,1079.6,612.2,1079,611.8z"/>
		</g>
		<g>
			<g>
				<g>
					<path class="st9" d="M990.8,636.4l12.6,2.8c0.9,0.2,1.9-0.4,2.1-1.3l4.5-20c0.2-0.9-0.4-1.9-1.3-2.1L996,613
						c-0.9-0.2-1.9,0.4-2.1,1.3l-4.5,20C989.2,635.2,989.8,636.2,990.8,636.4z"/>
				</g>
			</g>
			<g>
				<g>
					<g>
						<path class="st6" d="M1004.2,604c0-0.2-0.8-0.3-2.1-0.1c-1.3,0.2-3.2,1-4.4,2.9c-1.2,1.9-1.1,3.9-0.8,5.2c0.3,1.3,0.8,2,1,1.9
							c0.2-0.1,0-0.8,0-2c0-1.2,0.1-2.8,1-4.3c0.9-1.5,2.4-2.2,3.5-2.6C1003.5,604.4,1004.3,604.2,1004.2,604z"/>
					</g>
				</g>
			</g>
			<g>
				<g>
					<g>
						<path class="st6" d="M1002.4,616.3c-0.1,0.3,1.8,1.4,4.3,0.3c1.2-0.6,1.9-1.9,1.9-2.7c0.1-0.8-0.1-1.3-0.3-1.3
							c-0.5-0.1-0.6,1.9-2.3,2.7C1004.3,616.1,1002.4,615.9,1002.4,616.3z"/>
					</g>
				</g>
			</g>
			<g>
				<g>
					<g>
						<path class="st6" d="M994.1,637.2c0,0-0.3-0.2-0.6-0.7c-0.3-0.5-0.5-1.5-0.2-2.6c0.8-3,1.5-5.8,2.3-8.8
							c0.8-3.1,1.4-5.9,2.2-8.9c0.2-1.1,0.8-1.9,1.5-2c0.6-0.2,0.9,0,1,0c0,0-0.3-0.3-1-0.2c-0.7,0.1-1.5,1-1.8,2.1
							c-0.6,2.3-1.5,5.4-2.3,8.8c-0.9,3.5-1.7,6.6-2.2,8.9c-0.3,1.2-0.1,2.2,0.4,2.8C993.7,637.1,994.1,637.2,994.1,637.2z"/>
					</g>
				</g>
			</g>
			<g>
				<g>
					<g>
						<path class="st6" d="M996.4,621.2c0,0.2,2.6,1,5.8,2c3.3,0.9,6,1.6,6,1.4c0-0.2-2.6-1-5.8-2
							C999.1,621.7,996.5,621.1,996.4,621.2z"/>
					</g>
				</g>
			</g>
			<g>
				<g>
					<g>
						<path class="st6" d="M994.7,628.5c-0.1,0.1,2.4,1,5.6,1.9c3.1,0.9,5.7,1.5,5.7,1.4c0-0.2-2.5-1-5.6-1.9
							C997.3,628.9,994.8,628.3,994.7,628.5z"/>
					</g>
				</g>
			</g>
			<g>
				<g>
					<path class="st5" d="M992.6,636.8c0,0-1.5-1.1-1-3.5c0.5-2.3,4-16.6,4-16.6l-2.1-0.6L990,632C990,632,989.3,636,992.6,636.8z"
						/>
				</g>
			</g>
		</g>
	</g>
	<g>
		<g>
			<g>
				<g>
					<g>
						<g>
							<g>
								<g>
									<g>
										<g>
											<g>
												<g>
													<g>
														<g>
															<g>
																<g>
																	<g>
																		<g>
																			<g>
																				<g>
																					<g>
																						<g>
																							<g>
																								<g>
																									<g>
																										<g>
																											<path class="st6" d="M1266.8,1210l0,2.6c0,0-44.4,18.3-44.8,26.8l88.5-1.3l-1.6-29.4
																												C1295.8,1214.9,1282.1,1215.8,1266.8,1210z"/>
																										</g>
																									</g>
																								</g>
																							</g>
																						</g>
																					</g>
																				</g>
																			</g>
																		</g>
																	</g>
																</g>
															</g>
														</g>
													</g>
												</g>
											</g>
										</g>
									</g>
								</g>
							</g>
							<g>
								<g>
									<g>
										<g>
											<g>
												<g>
													<g>
														<g>
															<g>
																<g>
																	<g>
																		<g>
																			<g>
																				<g>
																					<g>
																						<g>
																							<g>
																								<g>
																									<g>
																										<g>
																											<path class="st9" d="M1310.5,1238.1l-0.4-7.1l-84.7,3.8c0,0-3.9,1.8-3.4,4.5L1310.5,1238.1z"/>
																										</g>
																									</g>
																								</g>
																							</g>
																						</g>
																					</g>
																				</g>
																			</g>
																		</g>
																	</g>
																</g>
															</g>
														</g>
													</g>
												</g>
											</g>
										</g>
									</g>
								</g>
							</g>
							<g>
								<g>
									<g>
										<g>
											<g>
												<g>
													<g>
														<g>
															<g>
																<g>
																	<g>
																		<g>
																			<g>
																				<g>
																					<g>
																						<g>
																							<g>
																								<g>
																									<g>
																										<g>
																											<g>
																												<path class="st0" d="M1266.5,1212.8c0,0.4,2.2,0.6,4.3,2c2.2,1.3,3.3,3.2,3.7,3
																													c0.4-0.1-0.3-2.7-2.9-4.3C1269,1211.9,1266.4,1212.5,1266.5,1212.8z"/>
																											</g>
																										</g>
																									</g>
																								</g>
																							</g>
																						</g>
																					</g>
																				</g>
																			</g>
																		</g>
																	</g>
																</g>
															</g>
														</g>
													</g>
												</g>
											</g>
										</g>
									</g>
								</g>
							</g>
							<g>
								<g>
									<g>
										<g>
											<g>
												<g>
													<g>
														<g>
															<g>
																<g>
																	<g>
																		<g>
																			<g>
																				<g>
																					<g>
																						<g>
																							<g>
																								<g>
																									<g>
																										<g>
																											<g>
																												<path class="st0" d="M1257.3,1216.8c-0.1,0.4,1.8,1.1,3.3,2.9c1.5,1.8,1.9,3.7,2.4,3.7
																													c0.4,0.1,0.7-2.5-1.2-4.7C1259.8,1216.6,1257.3,1216.4,1257.3,1216.8z"/>
																											</g>
																										</g>
																									</g>
																								</g>
																							</g>
																						</g>
																					</g>
																				</g>
																			</g>
																		</g>
																	</g>
																</g>
															</g>
														</g>
													</g>
												</g>
											</g>
										</g>
									</g>
								</g>
							</g>
							<g>
								<g>
									<g>
										<g>
											<g>
												<g>
													<g>
														<g>
															<g>
																<g>
																	<g>
																		<g>
																			<g>
																				<g>
																					<g>
																						<g>
																							<g>
																								<g>
																									<g>
																										<g>
																											<g>
																												<path class="st0" d="M1252.2,1228c0.4,0.1,1-2.1-0.2-4.4c-1.1-2.4-3.2-3.3-3.4-2.9
																													c-0.2,0.4,1.1,1.6,2,3.6C1251.6,1226.2,1251.7,1228,1252.2,1228z"/>
																											</g>
																										</g>
																									</g>
																								</g>
																							</g>
																						</g>
																					</g>
																				</g>
																			</g>
																		</g>
																	</g>
																</g>
															</g>
														</g>
													</g>
												</g>
											</g>
										</g>
									</g>
								</g>
							</g>
						</g>
					</g>
				</g>
			</g>
			<g>
				<g>
					<g>
						<g>
							<g>
								<g>
									<g>
										<g>
											<g>
												<g>
													<g>
														<g>
															<g>
																<g>
																	<g>
																		<g>
																			<g>
																				<path class="st6" d="M1330.1,1183.3l-37.7,10.5l9.4,21.4l-9.8,54.1c-0.5,3,1.2,6.2,4.3,7
																					c2.3,0.6,4.8-0.1,6.3-1.8c8.3-9.3,38.8-43.8,38-48l-1.2-11.2c-0.3-2.3-2.5-7.9-2.5-8.4L1330.1,1183.3z"/>
																			</g>
																		</g>
																	</g>
																</g>
															</g>
														</g>
													</g>
												</g>
											</g>
										</g>
									</g>
								</g>
							</g>
						</g>
					</g>
					<g>
						<g>
							<g>
								<g>
									<g>
										<g>
											<g>
												<g>
													<g>
														<g>
															<g>
																<g>
																	<g>
																		<g>
																			<g>
																				<path class="st9" d="M1297.4,1276.5l42.9-54l0.2,2.5c0.5,2.6-0.6,3.8-1.7,5.6c-3.4,5.4-13,17.8-36,43.8
																					C1301.5,1276,1299.5,1276.8,1297.4,1276.5L1297.4,1276.5z"/>
																			</g>
																		</g>
																	</g>
																</g>
															</g>
														</g>
													</g>
												</g>
											</g>
										</g>
									</g>
								</g>
							</g>
						</g>
					</g>
					<g>
						<g>
							<g>
								<g>
									<g>
										<g>
											<g>
												<g>
													<g>
														<g>
															<g>
																<g>
																	<g>
																		<g>
																			<g>
																				<g>
																					<path class="st0" d="M1308.7,1249.9c-0.3,0.2-1.9-2.7-5.6-4c-3.7-1.4-6.9-0.3-7-0.7c-0.1-0.1,0.6-0.7,2-1
																						c1.4-0.3,3.4-0.3,5.4,0.4c2,0.8,3.5,2.1,4.3,3.2C1308.7,1249,1308.9,1249.8,1308.7,1249.9z"/>
																				</g>
																			</g>
																		</g>
																	</g>
																</g>
															</g>
														</g>
													</g>
												</g>
											</g>
										</g>
									</g>
								</g>
							</g>
						</g>
					</g>
					<g>
						<g>
							<g>
								<g>
									<g>
										<g>
											<g>
												<g>
													<g>
														<g>
															<g>
																<g>
																	<g>
																		<g>
																			<g>
																				<g>
																					<path class="st0" d="M1305.2,1258.1c-0.3,0.3-2.3-1.4-5.5-2c-3.1-0.6-5.8,0.2-5.9-0.2
																						c-0.2-0.3,2.6-1.8,6.2-1.1C1303.6,1255.5,1305.5,1257.9,1305.2,1258.1z"/>
																				</g>
																			</g>
																		</g>
																	</g>
																</g>
															</g>
														</g>
													</g>
												</g>
											</g>
										</g>
									</g>
								</g>
							</g>
						</g>
					</g>
					<g>
						<g>
							<g>
								<g>
									<g>
										<g>
											<g>
												<g>
													<g>
														<g>
															<g>
																<g>
																	<g>
																		<g>
																			<g>
																				<g>
																					<path class="st0" d="M1315.7,1239.2c-0.3,0.3-3.4-2.3-8.3-3.7c-4.8-1.4-9-0.8-9-1.2c-0.1-0.3,4.2-1.5,9.4,0
																						C1313,1235.7,1316,1239,1315.7,1239.2z"/>
																				</g>
																			</g>
																		</g>
																	</g>
																</g>
															</g>
														</g>
													</g>
												</g>
											</g>
										</g>
									</g>
								</g>
							</g>
						</g>
					</g>
				</g>
			</g>
			<g>
				<g>
					<g>
						<path class="st9" d="M1301.4,1207.8c0.2,0,0.3,2.8,0.4,7.3l0,0l0,0c-0.5,3.1-1.1,7.1-1.9,11.5c-0.9,5.1-1.8,9.8-2.5,13.2
							c-0.7,3.4-1.2,5.4-1.3,5.4s0.1-2.1,0.6-5.5c0.5-3.4,1.2-8.1,2.1-13.2c0.8-4.3,1.5-8.3,2.1-11.4l0,0.1
							C1301.1,1210.7,1301.2,1207.8,1301.4,1207.8z"/>
					</g>
				</g>
			</g>
		</g>
		<g>
			<g>
				<path class="st6" d="M1355,859.6c3-14.3,10.5-40.3,7.5-52.2c-6.9-27.7-18.9-43.7-35.4-78.8h-12.2l-117.5-2l-9.6,21.3
					c-10.7,28.7-18,45.9-21,66.9c-3.5,24.2,2.6,59.3,16.1,94.7c29,76.4,45.3,137.6,46.4,154.1c1.1,16.5,2.9,33.5,18.1,85.6
					c11.1,38.1,19.4,60.8,19.4,60.8c11.6,6.5,23.9,8.3,35,2l34.1-13.2c0,0-10.4-89.8-22.6-113.6c-8.8-17.1-23.2-25.3-16.4-47.6
					C1303.5,1015.2,1345.9,903.6,1355,859.6z"/>
			</g>
			<g>
				<g>
					<g>
						<path class="st9" d="M1217.5,787c0,0,0.2,0.2,0.5,0.6c0.3,0.4,0.7,1,1.3,1.8c1.2,1.6,2.8,4,5,7.1c4.3,6.2,10.7,15.3,18.6,26.8
							l0.1,0.1l0,0.1c-0.9,10-1.3,21.7-1.9,34.7c-0.6,13-1.3,27.3-2,42.6c-0.8,15.3-1.7,31.7-2.6,48.9c-1,17.2-1.9,35.1-3.6,53.6
							c-1.8,15.4-3.4,30.5-2.1,45c0.3,3.6,0.8,7.2,1.5,10.7c0.7,3.5,1.4,7,2.5,10.2c2.4,6.5,5.3,12.8,7.9,19
							c10.8,24.5,21,46.5,29.5,64.9c8.5,18.4,15.4,33.3,20.1,43.6c2.4,5.1,4.2,9.1,5.5,11.9c0.6,1.3,1.1,2.4,1.4,3.1
							c0.3,0.7,0.4,1.1,0.4,1.1s-0.2-0.3-0.5-1c-0.4-0.7-0.9-1.7-1.5-3.1c-1.3-2.7-3.2-6.7-5.6-11.8c-4.9-10.3-11.8-25.2-20.5-43.5
							c-8.6-18.4-18.8-40.3-29.7-64.8c-2.7-6.2-5.5-12.4-8-19c-1.2-3.4-1.9-6.9-2.6-10.4c-0.7-3.5-1.1-7.1-1.5-10.8
							c-1.3-14.6,0.3-29.8,2-45.2c1.7-18.4,2.6-36.4,3.6-53.5c0.9-17.2,1.8-33.6,2.7-48.9c0.8-15.3,1.5-29.6,2.2-42.6
							c0.7-13,1.1-24.6,2.1-34.7l0.1,0.2c-7.9-11.5-14.1-20.7-18.4-27c-2.1-3.1-3.7-5.5-4.8-7.2c-0.5-0.8-0.9-1.4-1.2-1.9
							C1217.6,787.3,1217.5,787.1,1217.5,787z"/>
					</g>
				</g>
			</g>
		</g>
	</g>
	<g>
		<g>
			<g>
				<g>
					<path class="st3" d="M1233.2,536l10-17.9l21.6,24.2l32.6-26.2l5.6,6.7l11.9,210.9c0,0-41.7,8.4-62.5,5.5
						c-20.8-2.9-45.3-12.4-45.3-12.4V606.9L1233.2,536z"/>
				</g>
			</g>
			<g>
				<g>
					<g>
						<path class="st6" d="M1297.9,544.6c0,0-0.1,0.1-0.3,0.4c-0.2,0.3-0.6,0.6-0.9,1c-0.8,0.9-2.1,2.2-3.7,3.8
							c-3.2,3.2-8,7.6-14.1,12.3l-0.2,0.2l-0.2-0.2c-4.2-4.5-8.6-10-12.9-16.2c-0.4-0.6-0.9-1.3-1.3-1.8l0.5,0
							c-3.7,5-7.2,9.6-10.3,13.9c-0.4,0.5-0.9,1-1.4,1.5c-0.6,0.4-1.3,0.7-2,0.5c-0.7-0.1-1.3-0.5-1.7-1c-0.5-0.4-0.8-0.9-1.2-1.4
							c-1.5-1.8-2.8-3.5-4.1-5.1c-2.4-3.1-4.4-5.6-5.9-7.4c-0.6-0.8-1.2-1.5-1.6-2c-0.4-0.5-0.5-0.7-0.5-0.7c0,0,0.2,0.2,0.6,0.7
							c0.4,0.5,1,1.1,1.7,2c1.5,1.8,3.5,4.2,6,7.3c1.3,1.5,2.7,3.2,4.1,5.1c0.7,0.9,1.5,2,2.6,2.2c1.1,0.2,2.1-0.8,2.9-1.8
							c3.2-4.3,6.6-9,10.3-13.9l0.3-0.4l0.3,0.4c0.4,0.6,0.8,1.2,1.3,1.8c4.3,6.1,8.7,11.6,12.8,16.1l-0.4,0
							c6.1-4.6,10.9-9,14.2-12.1c1.6-1.6,2.9-2.8,3.8-3.7c0.4-0.4,0.7-0.7,1-1C1297.7,544.7,1297.9,544.6,1297.9,544.6z"/>
					</g>
				</g>
			</g>
			<g class="st13">
				<g>
					<path d="M1248.8,558c0,0,5.5,6.7,7,5c1.5-1.7,9.6-14.2,10.6-14.7c1-0.5,10.7,17,14.6,15.8c3.8-1.2,17.5-14.9,17.5-14.9l0.3-5.4
						l-19.9,18.1l-14.1-18l-11.9,15.5C1252.7,559.4,1250.2,561.4,1248.8,558z"/>
				</g>
			</g>
		</g>
		<g>
			<g>
				<path class="st6" d="M1257.9,740.5c0,0,0-0.7,0-2c0-1.4,0.1-3.3,0.2-5.7c0.2-5,0.5-12.1,0.8-20.8c0.7-17.6,1.7-41.9,2.7-68.7
					c0.9-26.8,1.6-51.1,2.1-68.7c0.2-8.7,0.4-15.8,0.6-20.8c0.1-2.4,0.2-4.3,0.2-5.7c0.1-1.3,0.1-2,0.2-2c0,0,0.1,0.7,0.1,2
					c0,1.4,0,3.3,0,5.7c-0.1,5-0.1,12.1-0.2,20.8c-0.3,17.6-0.8,41.9-1.7,68.7c-0.9,26.8-2.1,51.1-3,68.7
					c-0.5,8.7-0.9,15.8-1.2,20.8c-0.2,2.4-0.3,4.3-0.4,5.7C1258,739.8,1257.9,740.5,1257.9,740.5z"/>
			</g>
		</g>
		<g>
			<g class="st13">
				<g>
					<g>
						<path d="M1220,655.4c-7.5,49.4-15.1,98.8-22.6,148.2l1.8,16.1c2,2.3,5.9,1.5,7.9-0.7c2-2.2,2.6-5.4,3.1-8.3
							C1218.8,759.4,1223.5,707.2,1220,655.4z"/>
					</g>
				</g>
			</g>
			<g>
				<path class="st10" d="M1188.2,536.6c-8.3,2.6-12,8-17.5,17.8l-40.2,78.5c0,0-56-28-56.1-27.3l-20.7,31.3l65.6,40.6
					c15.2,9.4,35,5.3,45.3-9.2l20.7-29.3l17.3-105.2L1188.2,536.6z"/>
			</g>
			<g>
				<path class="st10" d="M1219.3,530.5l-25.5,5l-8.9,95.1l3.2,65.7c0.1,1.7,0.2,2.6,0.2,2.6l-44,98.6c9.8,17.6,36.5,25.8,55.2,30.3
					c0,0,19-134.7,20.2-164.4c1.2-29.7,21.4-142.4,21.4-142.4L1219.3,530.5z"/>
			</g>
			<g>
				<g>
					<g>
						<path class="st6" d="M1149.7,786.4c0,0,0-0.2,0.2-0.4c0.1-0.3,0.3-0.7,0.5-1.3c0.5-1.2,1.2-2.8,2.1-5
							c1.9-4.3,4.6-10.6,8.1-18.4c6.9-15.7,16.5-37.6,27.5-62.4l0,0.1c-0.2-6.7-0.4-13.7-0.8-20.8c-0.7-16.1-1.6-31.4-2.2-45.3
							c-0.6-13.9-0.9-26.5-1.1-37c-0.1-10.5,0-19.1,0-25c0.1-2.9,0.1-5.2,0.2-6.8c0-0.8,0-1.3,0.1-1.8c0-0.4,0-0.6,0-0.6
							s0,0.2,0,0.6c0,0.4,0,1,0,1.8c0,1.6,0,3.9,0,6.8c0,5.9,0,14.4,0.2,25c0.2,10.5,0.6,23.1,1.2,37c0.7,13.9,1.5,29.2,2.3,45.3
							c0.3,7.1,0.6,14.1,0.8,20.8l0,0.1l0,0.1c-11,24.9-20.7,46.7-27.7,62.4c-3.5,7.8-6.3,14-8.2,18.4c-1,2.1-1.7,3.8-2.2,4.9
							c-0.3,0.5-0.4,1-0.6,1.3C1149.8,786.3,1149.7,786.4,1149.7,786.4z"/>
					</g>
				</g>
			</g>
			<g>
				<g>
					<g>
						<path class="st6" d="M1218.4,648.6c0,0,0-0.1-0.1-0.3c-0.1-0.2-0.1-0.6-0.2-0.9c-0.2-0.9-0.5-2.1-0.8-3.7
							c-0.7-3.2-1.6-7.8-2.5-13.6c-0.9-5.8-1.7-12.7-2.4-20.3c-0.7-7.7-1.2-16.1-1.6-25c-0.1-3.3-0.3-6.6-0.4-9.8
							c-0.1-1.6-0.1-3.2-0.2-4.7c0-0.8-0.1-1.5-0.1-2.3l0-1.1l0-0.6c0-0.1,0-0.2,0-0.3c0-0.1,0-0.1,0.1-0.2c0,0,0-0.1,0.1-0.1
							c0.1-0.1,0.3-0.1,0.3-0.1c0.2,0.1,0.2,0.1,0.2,0.2l-0.4-0.1c2.4-1.6,4.6-3.2,6.8-4.8l0,0.5c-2.6-1.2-5.1-2.4-7.4-3.5l-0.2-0.1
							l0.1-0.2c1.1-4.2,2.5-8,3.6-11.3c1.2-3.3,2.3-6.2,3.2-8.5c0.9-2.3,1.6-4.2,2.2-5.4c0.2-0.6,0.4-1.1,0.6-1.4
							c0.1-0.3,0.2-0.5,0.2-0.5c0,0,0,0.2-0.2,0.5c-0.1,0.4-0.3,0.8-0.5,1.4c-0.5,1.3-1.2,3.1-2,5.5c-0.9,2.4-1.9,5.2-3.1,8.5
							c-1.1,3.3-2.4,7.1-3.5,11.3l-0.1-0.3c2.4,1.1,4.8,2.2,7.4,3.4l0.5,0.2l-0.4,0.3c-2.2,1.5-4.5,3.1-6.8,4.8l-0.4-0.1
							c0,0,0.2-0.2,0.2-0.2c0-0.1,0,0,0,0c0,0,0.1,0.1,0.1,0.1l0.1,0l0,0c0,0,0,0,0,0l0,0l0,0.3l0,0.6l0,1.1c0,0.8,0.1,1.5,0.1,2.3
							c0.1,1.5,0.1,3.1,0.2,4.7c0.1,3.2,0.3,6.4,0.4,9.7c0.4,8.9,0.9,17.3,1.6,25c0.6,7.7,1.4,14.6,2.3,20.3
							c0.8,5.8,1.7,10.4,2.3,13.6c0.3,1.6,0.6,2.8,0.7,3.7c0.1,0.4,0.1,0.7,0.2,1C1218.4,648.5,1218.4,648.6,1218.4,648.6z"/>
					</g>
				</g>
			</g>
		</g>
		<g>
			<g>
				<g>
					<g>
						<path class="st10" d="M1346.6,711.3l16.2-164.1l-45.7-16.8c0,0-11-6.1-16.7-11.2l-1.7,22c0,0-6.2,105.3,3.5,158.4
							s8.4,51.3,15.5,85.8c5.2,25.1,6,47.1,13.8,49.3c7.8,2.2,47.3-12.2,47.3-12.2L1346.6,711.3z"/>
					</g>
				</g>
			</g>
			<g>
				<g>
					<path class="st10" d="M1362.9,547.2c0,0,13.8,6.8,15.9,26.1c1.8,17,4.8,121.5,4.5,129.9c-0.4,8.4-7.6,32.2-20.7,33.1
						c-20.6,1.3-26.3-14.6-26.3-14.6l5.5-53.4L1362.9,547.2z"/>
				</g>
			</g>
			<g>
				<g>
					<g>
						<path class="st6" d="M1310.5,643c0,0,0-0.1,0-0.3c0-0.2,0.1-0.5,0.2-0.9c0.2-0.8,0.4-2,0.7-3.5c0.6-3,1.4-7.4,2.2-12.9
							c1.6-10.9,3-26.1,3.8-42.9c0.2-4,0.4-7.8,0.5-11.6c0.1-1.9,0.2-3.7,0.2-5.5c0-0.9,0.1-1.8,0.1-2.7c0-0.4,0-0.9,0.1-1.3l0-0.6
							c0-0.1,0-0.2,0-0.3c0,0,0-0.1,0-0.1c0,0,0,0,0,0c0,0,0,0,0,0c0,0,0.1,0.1,0.2,0.1c0.1,0,0.2-0.1,0.2-0.1l0,0l-0.4,0.1
							c-2.4-1.7-4.6-3.3-6.8-4.8l-0.4-0.3l0.4-0.2c2.6-1.2,5.1-2.4,7.4-3.4l-0.1,0.3c-0.8-3.3-1.1-6.4-1.5-9.1
							c-0.3-2.7-0.7-5-1.1-6.9c-0.4-1.9-0.8-3.3-1.1-4.3c-0.1-0.4-0.3-0.8-0.4-1.1c-0.1-0.2-0.1-0.4-0.1-0.4c0,0,0.1,0.1,0.2,0.4
							c0.1,0.2,0.3,0.6,0.4,1.1c0.3,1,0.8,2.4,1.2,4.3c0.4,1.9,0.8,4.2,1.2,6.9c0.4,2.7,0.8,5.7,1.6,9l0,0.2l-0.2,0.1
							c-2.3,1.1-4.8,2.2-7.4,3.5l0-0.5c2.2,1.5,4.4,3.1,6.8,4.8l-0.4,0.1l0.1-0.1c0,0,0.1-0.1,0.2-0.1c0.1,0,0.2,0,0.2,0.1
							c0,0,0,0,0.1,0.1c0,0.1,0,0.1,0.1,0.1c0,0.1,0,0.2,0,0.2c0,0.1,0,0.2,0,0.3l0,0.7c0,0.4,0,0.9,0,1.3c0,0.9-0.1,1.8-0.1,2.7
							c-0.1,1.8-0.2,3.6-0.2,5.5c-0.2,3.7-0.4,7.6-0.5,11.6c-0.8,16.8-2.3,32-4,42.9c-0.8,5.5-1.7,9.8-2.4,12.9
							c-0.3,1.5-0.6,2.6-0.8,3.5c-0.1,0.4-0.2,0.7-0.2,0.9C1310.5,642.9,1310.5,643,1310.5,643z"/>
					</g>
				</g>
			</g>
			<g class="st13">
				<g>
					<path d="M1243.3,728.8c0,0-3.1,4.1,3.7,5.3c6.9,1.2,84.6-4.5,84.6-4.5l14.8,8.6l-1.9-6.2l-12.3-13.1L1243.3,728.8z"/>
				</g>
			</g>
			<g>
				<g>
					<path class="st6" d="M1336.7,599.5l-97.9,5c-2.3,0.1-4.1,1.9-4.3,4.2l-6.5,116.1c-0.1,2.7,2.1,4.9,4.7,4.8l95-5
						c2.3-0.1,4.1-1.9,4.3-4.1l9.4-116.1C1341.6,601.7,1339.4,599.4,1336.7,599.5z"/>
				</g>
			</g>
			<g>
				<g>
					<g>
						<path class="st6" d="M1357.2,574.1c0,0,0,0.4-0.2,1c-0.1,0.7-0.3,1.7-0.6,3c-0.5,2.6-1.2,6.3-2.1,10.9
							c-1.8,9.2-4.1,21.9-6.4,36.1c-2.2,14.1-3.9,27-5.1,36.3c-0.6,4.6-1,8.4-1.3,11c-0.2,1.3-0.3,2.3-0.4,3c-0.1,0.7-0.1,1-0.2,1
							c0,0,0-0.4,0-1.1c0.1-0.7,0.1-1.7,0.3-3c0.2-2.6,0.6-6.4,1.1-11c1-9.3,2.7-22.2,4.9-36.3c2.2-14.1,4.6-26.9,6.5-36
							c0.9-4.6,1.8-8.3,2.3-10.9c0.3-1.2,0.5-2.2,0.7-2.9C1357.1,574.4,1357.2,574.1,1357.2,574.1z"/>
					</g>
				</g>
			</g>
			<g>
				<g>
					<g>
						<path class="st11" d="M1338.7,675.6c0,0,5.6,0.3,10.6,8.7l9.5,6.1c0,0,8.3,13.1,0,25.4c-8.3,12.2-18.4,1.8-18.4,1.8
							s-10.1,5-12.9,4.1c-2.8-0.9-21.9-11.1-24.7-13.5c-0.8-0.7-7-7.8-7-7.8s-8.5-1.8-9.5-3.8c-1-2-1-6.4,4.7-6c0,0-5.6-1.7-6.2-4.5
							c-0.7-2.8,0-6.5,9.9-5.1c9.9,1.4,28.9,6.7,31.1,6.2c0.5-0.1,1.4-1.8-0.2-2.5c-0.7-0.3-23.1-9-26.7-10
							c-3.9-1.1-4.4-9.7,3.6-7.7c8,2.1,34.1,8.3,34.1,8.3L1338.7,675.6z"/>
					</g>
				</g>
				<g>
					<g>
						<g>
							<path class="st12" d="M1324,708.8c0,0.1-1.6-0.4-4.1-1.3c-2.5-0.8-6.1-2-10-3.1c-3.9-1.1-7.5-2.1-10.1-2.7
								c-2.6-0.7-4.2-1.1-4.2-1.2c0,0,0.4,0,1.2,0.1c0.7,0.1,1.8,0.3,3.1,0.6c2.6,0.6,6.2,1.4,10.1,2.6c3.9,1.1,7.4,2.3,9.9,3.3
								c1.3,0.5,2.3,0.9,2.9,1.2C1323.6,708.5,1324,708.7,1324,708.8z"/>
						</g>
					</g>
				</g>
				<g>
					<g>
						<g>
							<path class="st12" d="M1327.2,698.4c0,0-0.5,0-1.5-0.1c-0.9-0.1-2.3-0.3-4-0.5c-3.3-0.5-7.9-1.3-13-2.4
								c-5-1.1-9.5-2.2-12.8-3.1c-1.6-0.5-2.9-0.8-3.8-1.1c-0.9-0.3-1.4-0.5-1.4-0.5c0,0,0.5,0.1,1.4,0.3c1,0.3,2.3,0.6,3.9,0.9
								c3.3,0.8,7.8,1.9,12.8,3c5,1.1,9.6,1.9,12.9,2.5c1.6,0.3,2.9,0.5,3.9,0.7C1326.7,698.2,1327.2,698.3,1327.2,698.4z"/>
						</g>
					</g>
				</g>
				<g>
					<g>
						<g>
							<path class="st12" d="M1354.3,696.2c0,0,0,0.4,0,1c0,0.7-0.1,1.6-0.4,2.8c-0.5,2.3-1.6,5.5-3.5,8.5c-2,3-4.5,5.3-6.4,6.6
								c-1,0.7-1.8,1.2-2.4,1.4c-0.6,0.3-0.9,0.4-1,0.4c-0.1-0.1,1.2-0.8,3.1-2.2c1.8-1.4,4.2-3.6,6.1-6.6c1.9-3,3.1-6,3.6-8.2
								C1354.1,697.6,1354.2,696.1,1354.3,696.2z"/>
						</g>
					</g>
				</g>
				<g>
					<g>
						<g>
							<path class="st6" d="M1357.5,718.9c-0.1-0.1,1.2-1.4,2.7-3.8c1.5-2.5,3-6.3,3.2-10.7c0.1-4.4-1.2-8.3-2.5-10.9
								c-1.3-2.6-2.6-3.9-2.5-4c0,0,0.4,0.3,0.9,0.9c0.5,0.6,1.2,1.6,2,2.9c1.5,2.5,2.9,6.5,2.7,11.1c-0.1,4.5-1.8,8.4-3.4,10.9
								c-0.8,1.2-1.6,2.2-2.1,2.7C1357.8,718.6,1357.5,718.9,1357.5,718.9z"/>
						</g>
					</g>
				</g>
			</g>
			<g>
				<g>
					<g>
						<path class="st6" d="M1379.5,677.2c-0.1,0.1-1.6-1.1-4.4-2.4c-1.4-0.7-3.1-1.3-5-1.9c-2-0.5-4.1-1-6.5-1.2
							c-2.3-0.2-4.6-0.1-6.6,0.2c-2,0.3-3.8,0.7-5.2,1.2c-2.9,0.9-4.6,1.9-4.7,1.7c0,0,0.4-0.3,1.2-0.7c0.4-0.2,0.9-0.5,1.4-0.7
							c0.6-0.2,1.2-0.5,2-0.8c1.5-0.5,3.3-1,5.3-1.3c2-0.3,4.3-0.4,6.7-0.2c2.4,0.2,4.6,0.7,6.6,1.2c2,0.6,3.7,1.3,5.1,2.1
							c0.7,0.3,1.3,0.7,1.8,1.1c0.5,0.3,1,0.6,1.3,0.9C1379.2,676.9,1379.5,677.2,1379.5,677.2z"/>
					</g>
				</g>
			</g>
			<g class="st13">
				<g>
					<path d="M1315.5,532.5c0,0,8.3,19.2,7.1,20.8c-1.1,1.6-5.5,2.7-5.5,2.7s7.1,3.1,7.1,5.8c0,5.4-7.6,37.6-7.6,37.6l1.9-39.3
						l-6.8-4.8l7.4-3.5L1315.5,532.5z"/>
				</g>
			</g>
		</g>
	</g>
	<g>
		<path class="st9" d="M1267.8,603.1c-0.4,1.2,0.8-9.7,0.8-9.7l46.2-2l-1.3,9.4L1267.8,603.1z"/>
	</g>
</g>
<g>
	<path class="st14" d="M1001.1,653.5c-2,4.2-3.6,7.8-3.9,8.4l-2.2-15.9c0,0-4.8-0.3-5.4,5.6c-0.7,6-1.7,10.9-1.7,10.9l-2.5,0.5
		l-6.1,0.5l-16.7-9.1l5.1,13.1c0,0,9.4,3.3,10.1,3.4c0.8,0.1,26.8-4.1,26.8-4.1c0.5,0.1,5.7-18,5.7-18S1003.3,648.9,1001.1,653.5z"
		/>
</g>
<g>
	<g>
		<path class="st9" d="M668.7,911.8c0,0,7-64.7,22.2-71.9c15.1-7.2,36.1-11.9,41.9-2.2c5.7,9.7,11.7,24.3,14,39.8
			c2.3,15.5,1,39.1,1,39.1l-17.3-1.9c0,0,0.8-64.5-4.4-74c-5.2-9.5-31.8-1.9-34.7,9.6c-2.9,11.5-9.3,63-9.3,63L668.7,911.8z"/>
	</g>
	<g>
		<g>
			<g>
				<path class="st9" d="M608.5,1003c0.8-26.7,3.4-85.5,4.5-111.4c0.3-7.1,6.1-12.6,13.2-12.6l158.7,1c7.1,0,12.9,5.7,13.1,12.8
					l3.1,109.6c0.2,7.4-5.7,13.5-13.1,13.5l-166.3,0.7C614.3,1016.5,608.3,1010.4,608.5,1003z"/>
			</g>
			<g>
				<g>
					<path class="st6" d="M608.5,1003c0.2,0-0.3,2.3,1.5,6.1c0.9,1.8,2.6,4,5.2,5.5c1.3,0.7,2.9,1.3,4.6,1.6
						c1.7,0.2,3.6,0.1,5.6,0.1c15.9-0.1,38.9-0.3,67.3-0.5c14.2-0.1,29.8-0.2,46.5-0.3c8.4,0,17-0.1,25.9-0.1c4.5,0,9,0,13.5-0.1
						c2.3,0,4.6,0,6.9,0c2.4,0,4.6,0.1,6.7-0.8c4.2-1.5,7.5-5.5,8.1-10.1c0.3-2.2,0-4.7,0-7.1c-0.1-2.4-0.1-4.9-0.2-7.3
						c-0.3-9.8-0.6-19.9-0.9-30.1c-0.6-20.4-1.2-41.6-1.8-63.3c-0.1-2.7,0.1-5.4-0.9-7.8c-0.9-2.4-2.6-4.5-4.6-5.9
						c-2.1-1.4-4.6-2.2-7.2-2.2c-2.7,0-5.3,0-8,0c-10.6-0.1-21-0.1-31.2-0.2c-20.5-0.1-40.2-0.3-59-0.4c-18.8-0.1-36.7-0.3-53.4-0.4
						c-2.1,0-4.2,0-6.2,0c-2,0-4,0.2-5.7,1c-3.6,1.5-6.3,4.7-7.2,8.3c-0.5,1.8-0.4,3.7-0.6,5.6c-0.1,1.9-0.2,3.8-0.2,5.6
						c-0.2,3.7-0.3,7.4-0.5,10.9c-1.2,28.4-2.2,51.3-2.9,67.3c-0.4,7.9-0.7,14.1-0.9,18.3c-0.1,2.1-0.2,3.6-0.3,4.8
						C608.6,1002.4,608.5,1003,608.5,1003s0-0.6,0-1.6c0-1.1,0.1-2.7,0.1-4.8c0.1-4.2,0.3-10.4,0.6-18.3c0.6-15.9,1.4-38.9,2.5-67.3
						c0.1-3.6,0.3-7.2,0.4-10.9c0.1-1.9,0.1-3.7,0.2-5.6c0.1-1.9,0-3.9,0.6-5.8c1-3.9,3.9-7.4,7.8-9c1.9-0.9,4.1-1.2,6.2-1.1
						c2.1,0,4.1,0,6.2,0c16.7,0.1,34.6,0.2,53.4,0.3c18.8,0.1,38.5,0.2,59,0.3c10.2,0.1,20.6,0.1,31.2,0.2c2.6,0,5.3,0,8,0
						c2.8,0,5.6,0.8,7.9,2.4c2.3,1.6,4.2,3.9,5.2,6.6c0.5,1.3,0.8,2.7,0.9,4.2l0.1,4.1c0.6,21.7,1.2,42.8,1.8,63.3
						c0.3,10.2,0.6,20.3,0.8,30.1c0.1,2.5,0.1,4.9,0.2,7.3c0,2.5,0.3,4.8,0,7.4c-0.6,5-4.3,9.4-8.9,11.1c-2.3,0.9-4.9,0.8-7.1,0.8
						c-2.3,0-4.6,0-6.9,0c-4.6,0-9.1,0-13.5,0c-8.9,0-17.5,0-25.9,0.1c-16.7,0-32.3,0.1-46.5,0.1c-28.4,0-51.4,0-67.3,0.1
						c-2,0-3.9,0.1-5.7-0.2c-1.8-0.3-3.4-0.9-4.7-1.7c-2.7-1.6-4.3-3.8-5.2-5.7c-0.9-1.9-1.2-3.5-1.2-4.6
						C608.5,1003.5,608.5,1003,608.5,1003z"/>
				</g>
			</g>
		</g>
		<g>
			<g>
				<path class="st6" d="M787,920.2c0,0,0,0.4,0,1.2c0,0.8,0,2,0,3.5c0,3.2,0,7.8,0,13.7c-0.1,12-0.2,29.3-0.3,50.6
					c0,1.3,0,2.7,0,4.1c0.1,1.4-0.2,2.9-0.9,4.2c-0.7,1.3-1.9,2.4-3.3,3c-1.4,0.7-3,0.7-4.4,0.6c-5.8,0-11.9,0-18.1,0
					c-12.5,0-25.9,0-40-0.1c-14.1,0-28.9-0.1-44.2-0.1c-7.7,0-15.5,0-23.4-0.1c-4,0-8,0-12,0l-3,0c-1,0-2,0.1-3.1-0.2
					c-2.1-0.5-4-2-5-4c-0.4-0.9-0.6-1.8-0.7-2.7c0-1,0-1.8,0-2.7c0-1.7,0.1-3.5,0.1-5.2c0.1-3.5,0.1-6.9,0.2-10.3
					c0.1-6.8,0.3-13.6,0.4-20.2c0.3-13.3,0.6-26.1,0.8-38.3l0-0.6l0.6,0c45.6,2.8,84.7,3.5,112.4,3.7c13.8,0.1,24.8,0,32.4-0.1
					c3.7,0,6.7,0,8.7-0.1c0.9,0,1.7,0,2.2,0C786.7,920.2,787,920.2,787,920.2c0,0-0.3,0-0.8,0.1c-0.5,0-1.3,0.1-2.2,0.1
					c-2,0.1-4.9,0.1-8.6,0.3c-7.5,0.2-18.5,0.4-32.4,0.4c-27.7,0.1-66.8-0.5-112.5-3.2l0.6-0.5c-0.2,12.2-0.5,25.1-0.8,38.3
					c-0.1,6.6-0.3,13.4-0.4,20.2c-0.1,3.4-0.1,6.8-0.2,10.3c0,1.7-0.1,3.5-0.1,5.2c0,1.8-0.2,3.4,0.5,4.9c0.8,1.7,2.4,3,4.2,3.4
					c0.9,0.2,1.8,0.1,2.9,0.2l3,0c4,0,8,0,12,0c7.9,0,15.7,0.1,23.4,0.1c15.3,0.1,30.1,0.1,44.2,0.2c14.1,0.1,27.5,0.1,40,0.2
					c6.3,0,12.3,0.1,18.1,0.1c1.5,0,2.8,0,4-0.6c1.2-0.5,2.2-1.5,2.9-2.6c0.7-1.2,0.9-2.4,0.8-3.8c0-1.4,0-2.7,0.1-4
					c0.3-21.2,0.6-38.4,0.8-50.4c0.1-5.9,0.2-10.6,0.2-13.8c0-1.5,0.1-2.7,0.1-3.6C786.9,920.6,787,920.2,787,920.2z"/>
			</g>
		</g>
		<g>
			<g>
				<path class="st6" d="M741.4,990.6c0-0.1,1,0,2.8-0.4c1.8-0.4,4.4-1.3,6.9-3.8c2.5-2.4,4.3-6.5,3.9-11.5c0-5,0-10.7,0.1-16.9
					c0-3.1,0-6.4,0.1-9.8c0.2-3.4-0.6-6.9-2.8-9.7c-2.2-2.8-5.6-4.8-9.4-5c-3.9-0.1-7.9-0.1-12.1-0.1c-16.6-0.1-34.8-0.3-53.9-0.4
					c-4.6-0.1-9,2.4-11.3,6.3c-1.2,1.9-1.8,4.1-1.9,6.3c0,2.3-0.1,4.6-0.1,6.8c0,4.5-0.1,8.9-0.1,13.3c0,2.2,0,4.3-0.1,6.4
					c0,2.1-0.2,4.3,0.1,6.2c0.5,4,2.9,7.5,6.2,9.4c1.6,1,3.4,1.6,5.2,1.8c1.8,0.2,3.7,0.1,5.6,0.2c7.4,0.1,14.2,0.2,20.5,0.3
					c12.5,0.2,22.6,0.3,29.7,0.5c3.4,0.1,6.1,0.1,8.1,0.2c0.9,0,1.6,0.1,2.1,0.1C741.1,990.5,741.4,990.6,741.4,990.6
					c0,0-0.2,0-0.7,0.1c-0.5,0-1.2,0-2.1,0c-1.9,0-4.6,0-8.1,0c-7.1,0-17.2,0-29.7-0.1c-6.3,0-13.1-0.1-20.5-0.1
					c-1.9,0-3.7,0.1-5.7-0.1c-2-0.2-3.9-0.9-5.6-2c-3.5-2.1-6.1-5.9-6.7-10.1c-0.3-2.2-0.1-4.2-0.1-6.4c0-2.1,0-4.3,0-6.4
					c0-4.3,0.1-8.8,0.1-13.3c0-2.3,0.1-4.5,0.1-6.8c0.1-2.4,0.8-4.8,2.1-6.8c2.5-4.2,7.3-6.9,12.3-6.9c19.1,0.2,37.3,0.4,53.9,0.5
					c4.2,0.1,8.1,0,12.1,0.2c4.1,0.3,7.8,2.4,10.1,5.4c2.4,3,3.2,6.9,3,10.3c0,3.4-0.1,6.7-0.1,9.8c-0.1,6.3-0.2,11.9-0.2,16.9
					c0,1.2,0,2.4-0.1,3.6c-0.2,1.2-0.4,2.3-0.8,3.3c-0.8,2-2,3.7-3.2,4.9c-2.6,2.5-5.4,3.4-7.2,3.7
					C742.3,990.7,741.4,990.6,741.4,990.6z"/>
			</g>
		</g>
		<g class="st13">
			<g>
				<path d="M633.4,1000.1c47,14.3,98.2,14.4,145.3,0.3L633.4,1000.1z"/>
			</g>
		</g>
		<g>
			<path class="st5" d="M727,949.8l-26.2-0.2c-0.9,0-1.6-0.7-1.6-1.6l0.1-7.4c0-0.9,0.7-1.6,1.6-1.6l26.2,0.2c0.9,0,1.6,0.7,1.6,1.6
				l-0.1,7.4C728.6,949.1,727.9,949.8,727,949.8z"/>
		</g>
	</g>
	<g>
		<g>
			<path class="st11" d="M722.5,813c0,0,5.3,4.8,7.2,8c1.9,3.3,5.2,17.6,5.2,17.6s-2.6,2.4-7.4-5.1c-4.7-7.5-6.1-11.3-6.1-11.3
				L722.5,813z"/>
		</g>
		<g>
			<path class="st11" d="M699.1,784.6l6.3,11.1l17.4,17.5l6.5,26c0.7,2.7,0.4,5.7-0.9,8.2c-0.5,0.9-1.1,1.6-1.7,1.9
				c-1.9,0.8-7.4-2-7.4-2s-4,5-8.3,2c0,0-6.2,3.2-9.6,0.1c0,0-3.9,3.1-6.8,1.2c-2.9-1.9-11.3-14.1-11.3-14.1l-11.2-40.1L699.1,784.6
				z"/>
		</g>
	</g>
</g>
<g>
	<g>
		<g>
			<path class="st15" d="M942.7,677.7l40,3.9c0,0,33.2-12.2,37-13.8c0.9-0.4,1.5-1,1.8-1.8c1-2.6-1.5-5.2-4.2-4.8l-37.2,5.4
				c-2.2,0.3-4.5-0.4-6.2-2L960.9,653c0,0,7.1-4.5,11.8-8.2c4.7-3.7,2.7-8.3,2.7-8.3c-4.9-0.3-32.3,12.6-32.3,12.6l-11.5,5.7
				L942.7,677.7z"/>
		</g>
	</g>
</g>
<g>
	<g>
		<g>
			<path class="st6" d="M804.6,367.4c5.7,0.5,11.4-3.8,12.5-9.4c1.1-5.6-2.6-11.8-8.1-13.4c3.5-3.7,4.2-9.7,1.8-14.1
				c-2.4-4.4-7.8-7-12.8-6.1c-0.3-5-3.4-9.7-7.9-12c-4.4-2.3-10.1-2.1-14.3,0.6c-5.6-4.6-14.5-4.6-20.1,0.1
				c-4.9-0.8-10.1,1.9-12.3,6.3c-2.2,4.4-1.1,10.2,2.5,13.6"/>
		</g>
		<g>
			<path class="st15" d="M806.4,369c-2.6-25.7-24.5-45-50.4-44.5l-2.6,0.1c-27.6,2.2-41.2,26.9-38.2,54.5l2.5,98.7l0,0l47.5,51.3
				l20.1-32.8l-0.2-32.7c0,0,26.5-4.7,26.3-31.3C811.2,419.3,808.8,392.9,806.4,369z"/>
		</g>
		<g>
			<path class="st14" d="M785.3,463.4c0,0-17,1.4-35.1-9.4c0,0,8.2,19.5,34.7,16.5L785.3,463.4z"/>
		</g>
		<g>
			<path class="st6" d="M799.9,393.3c0.1,2-1.5,3.8-3.6,3.9c-2.1,0.2-3.9-1.3-4-3.3c-0.1-2,1.5-3.8,3.6-3.9
				C798,389.8,799.8,391.3,799.9,393.3z"/>
		</g>
		<g>
			<path class="st6" d="M800.9,382.1c-0.5,0.5-3.4-1.6-7.5-1.5c-4.1,0-7,2.2-7.5,1.7c-0.2-0.2,0.2-1.1,1.5-2.1c1.3-1,3.4-1.9,6-2
				c2.5,0,4.7,0.9,6,1.8C800.7,381,801.1,381.9,800.9,382.1z"/>
		</g>
		<g>
			<path class="st6" d="M762.7,394.9c0.1,2-1.5,3.8-3.6,3.9c-2.1,0.2-3.9-1.3-4-3.3c-0.1-2,1.5-3.8,3.6-3.9
				C760.8,391.4,762.6,392.9,762.7,394.9z"/>
		</g>
		<g>
			<path class="st6" d="M760.8,383.7c-0.5,0.5-3.4-1.6-7.5-1.5c-4.1,0-7,2.2-7.5,1.7c-0.2-0.2,0.2-1.1,1.5-2.1c1.3-1,3.4-1.9,6-2
				c2.5,0,4.7,0.9,6,1.8C760.5,382.6,761,383.5,760.8,383.7z"/>
		</g>
		<g>
			<path class="st6" d="M776.3,413.7c0-0.2,2.5-0.7,6.6-1.3c1-0.1,2-0.4,2.2-1.1c0.2-0.8-0.2-1.9-0.8-3.1c-1-2.5-2.1-5.1-3.3-7.9
				c-4.5-11.2-7.8-20.5-7.4-20.6c0.5-0.2,4.5,8.8,9,20c1.1,2.8,2.1,5.4,3.1,7.9c0.4,1.2,1.1,2.5,0.6,4.1c-0.3,0.8-1,1.4-1.7,1.6
				c-0.7,0.2-1.3,0.2-1.8,0.3C778.8,413.9,776.3,414,776.3,413.7z"/>
		</g>
		<g>
			<path class="st6" d="M761.7,369.8c-0.5,1-4,0-8.4,0c-4.3-0.1-7.9,0.7-8.3-0.3c-0.2-0.5,0.6-1.5,2.1-2.3c1.5-0.9,3.9-1.6,6.4-1.5
				c2.6,0.1,4.8,0.9,6.3,1.8C761.3,368.3,761.9,369.3,761.7,369.8z"/>
		</g>
		<g>
			<path class="st6" d="M801.1,367.6c-0.8,0.9-4.2,0.1-8.3,0.1c-4.1-0.1-7.5,0.8-8.3-0.2c-0.4-0.5,0.2-1.4,1.6-2.3
				c1.5-0.9,3.9-1.7,6.7-1.7c2.8,0,5.2,0.8,6.7,1.7C801,366.2,801.5,367.2,801.1,367.6z"/>
		</g>
		<g>
			<path class="st15" d="M720,404.8c-0.3-4.1-3.9-7.3-7.9-6.8c-4.9,0.6-10.4,3.5-9.9,13.8c1,18.2,19,13.4,19,12.9
				C721.3,424.3,720.5,412.4,720,404.8z"/>
		</g>
		<g>
			<path class="st14" d="M716.9,418.1c-0.1-0.1-0.3,0.2-0.8,0.5c-0.5,0.3-1.4,0.5-2.4,0.2c-2-0.6-3.7-3.6-4-6.8
				c-0.1-1.6,0.1-3.2,0.6-4.6c0.5-1.4,1.3-2.3,2.2-2.6c0.9-0.3,1.7,0.3,1.9,0.8c0.3,0.5,0.2,0.9,0.3,0.9c0.1,0,0.4-0.3,0.2-1.1
				c-0.1-0.4-0.3-0.8-0.8-1.1c-0.5-0.3-1.1-0.5-1.8-0.4c-1.4,0.2-2.6,1.5-3.2,3c-0.6,1.5-1,3.3-0.8,5.1c0.3,3.7,2.4,7,5,7.6
				c1.3,0.3,2.3-0.2,2.9-0.6C716.9,418.5,717,418.1,716.9,418.1z"/>
		</g>
		<g>
			<path class="st6" d="M790.4,331.5c-0.2-0.4-0.4-0.9-0.7-1.3c-2-3-5.6-4.8-9.2-5c-2.2-1.1-4.4-1.9-6.4-2.5
				c-2.6-4.3-7.3-7.3-12.3-7.7c-5.7-0.5-11.5,2.4-14.6,7.1c-0.7,0.1-1.5,0.3-2.2,0.4c-3.8-2.6-8.7-3.6-13.2-2.5
				c-5,1.3-9.3,5.1-11.2,9.9c-4.4-1.1-9.4,0.8-12.2,4.4c-2.7,3.7-3,9-0.7,12.9c-3.2,1.9-6,5.2-5.9,9c0,3.5,3.3,6.9,6.7,6.5
				c-0.5,8.7,0.7,19,1.4,28c0.5,6.4,8.6,10,9.3,14.3c3.3,22,10.3,9.6,12-36.1c0.5-0.4,0.9-0.8,1.4-1.2c0.9-0.9,1.1-2,1.9-3
				c1-1.2,2.8-0.9,4.3-0.7c5.3,0.4,10.6-3.4,11.9-8.6c1.4,2,4.5,1.8,6.5,0.5c2-1.4,3.3-3.5,4.8-5.4c1.6-1.9,3.8-3.5,6.2-3.3
				c1.3,0.2,2.6,0.9,4,0.8c2.4-0.3,3.5-3.1,3.8-5.5c0.3-2,0.5-4.3,1.7-5.7c1.4-0.7,2.9-1.3,4.6-1.4c0.9,0.1,1.8,0.2,2.7,0.4
				c0.4,0.1,0.8,0.1,1.3,0c0.5,0.2,1.1,0.4,1.7,0.6c8.1,3.7,15.5,20.2,15.5,20.2C803.9,346.3,797.9,337.6,790.4,331.5z"/>
		</g>
		<g>
			<path class="st9" d="M705.4,348.4c0,0,0-0.1,0.2-0.3c0.1-0.2,0.3-0.4,0.6-0.7c0.5-0.6,1.4-1.4,2.8-2.1c1.4-0.7,3.2-1.3,5.4-1.3
				c2.1,0,4.7,0.6,6.8,2.4l-0.5,0.2c0.7-3.6,3.4-7.1,7.3-9.3c1.9-1.1,4.1-1.8,6.5-2.1c2.3-0.3,4.8-0.1,7.2,0.4
				c4.7,1,8.8,3.2,12.3,5.5l-0.5,0.2c1.6-4.2,4.7-7.2,8-8.8c3.3-1.6,6.7-1.8,9.3-1.3c2.6,0.4,4.6,1.4,5.8,2.2c0.6,0.4,1.1,0.7,1.3,1
				c0.3,0.2,0.4,0.4,0.4,0.4c0,0-0.6-0.5-1.9-1.2c-1.2-0.7-3.1-1.6-5.7-1.9c-2.5-0.4-5.8-0.2-9,1.4c-3.1,1.6-6.1,4.5-7.6,8.5
				l-0.2,0.4l-0.4-0.2c-3.5-2.2-7.5-4.4-12.1-5.3c-2.3-0.5-4.7-0.6-6.9-0.4c-2.2,0.3-4.4,1-6.2,2c-3.7,2-6.3,5.4-7.1,8.8l-0.1,0.5
				l-0.4-0.3c-2-1.7-4.4-2.3-6.4-2.3c-2.1-0.1-3.9,0.5-5.2,1.1C706.4,346.9,705.5,348.5,705.4,348.4z"/>
		</g>
		<g>
			<path class="st9" d="M778,335.8c0,0-0.1,0.3-0.3,0.7c-0.2,0.5-0.4,1.2-0.6,2.1c-0.2,0.9-0.4,2.1-0.7,3.5c-0.3,1.3-0.6,3-1.7,4.5
				c-0.6,0.7-1.5,1.3-2.5,1.4c-1,0.1-2.1,0-3.1-0.1c-1-0.1-2.1-0.1-3.1,0.3c-1,0.4-1.8,1.2-2.6,2.1c-0.8,0.9-1.5,1.9-2.3,2.9
				c-0.8,1-1.5,2.1-2.7,3c-1.1,0.8-2.5,1.3-4,1.4c-0.7,0.1-1.5,0.1-2.2-0.1c-0.7-0.2-1.5-0.6-2-1.3l0.7-0.1
				c-0.2,1.1-0.6,2.1-1.1,3.1c-0.6,1-1.3,1.9-2.2,2.6c-1.7,1.5-4,2.5-6.3,2.8c-1,0.2-1.9,0.2-2.9,0.2c-1-0.1-1.8-0.2-2.6,0.1
				c-0.8,0.3-1.4,0.8-1.9,1.6c-0.6,0.8-1.2,1.4-1.8,2.1c-2.6,2.6-5.8,4.5-9.3,4.6c-3.4,0-6.4-1.5-8.6-3.5c-2.2-2-3.6-4.5-4.1-6.8
				l0.3,0.2c-2.3,0.5-4.5-0.2-5.9-1.3c-1.5-1.1-2.2-2.6-2.5-3.9c-0.3-1.2-0.2-2.2,0-2.9c0.1-0.3,0.1-0.6,0.2-0.7
				c0.1-0.2,0.1-0.2,0.1-0.2c0.1,0-0.6,1.4,0,3.8c0.3,1.2,1,2.6,2.4,3.6c1.4,1,3.5,1.6,5.6,1.1l0.2-0.1l0.1,0.3
				c0.6,2.3,1.9,4.6,4,6.5c2.1,1.8,5,3.3,8.2,3.2c3.2-0.1,6.3-1.9,8.8-4.4c0.6-0.6,1.2-1.3,1.7-2c0.5-0.8,1.3-1.5,2.3-1.8
				c0.5-0.2,1-0.2,1.5-0.2l1.4,0.1c0.9,0,1.8,0,2.8-0.2c2.2-0.3,4.3-1.2,5.9-2.6c0.8-0.7,1.5-1.5,2-2.4c0.5-0.9,0.8-1.9,1.1-2.9
				l0.2-0.8l0.5,0.7c0.7,1,2.2,1.2,3.5,1.1c1.3-0.1,2.6-0.6,3.6-1.3c1-0.7,1.7-1.8,2.5-2.8c0.8-1,1.5-2,2.4-2.9
				c0.8-0.9,1.7-1.7,2.8-2.2c1.1-0.5,2.3-0.4,3.4-0.3c1.1,0.1,2.1,0.3,3,0.2c0.9-0.1,1.7-0.6,2.2-1.2c1-1.3,1.4-3,1.7-4.3
				c0.3-1.4,0.5-2.5,0.8-3.5c0.3-0.9,0.5-1.6,0.8-2.1C777.8,336,777.9,335.8,778,335.8z"/>
		</g>
		<g>
			<path class="st14" d="M763.7,421.1c-1.5,4.7-0.2,9.8,4.1,12.2c1.5,0.8,3.4,1,5,0.5c2-0.6,3.8-1.7,4.6-3.7c0.8-2,1.4-4,1.1-6.1
				C774.4,423.1,767.8,422.1,763.7,421.1z"/>
		</g>
		<g>
			<path class="st6" d="M776.8,431.4c0,0-0.3,0.5-1.1,1.1c-0.8,0.6-2.1,1.3-3.9,1.4c-1.8,0.2-4-0.3-5.9-1.8c-1.9-1.5-3.2-4-3.4-6.7
				c-0.1-1.4,0.1-2.8,0.4-4l0.1-0.3l0.3,0.1c4.3,0.8,8,1.6,10.7,2.2c2.7,0.6,4.3,1,4.2,1c0,0.1-1.6-0.1-4.3-0.6
				c-2.7-0.4-6.4-1.1-10.7-1.9l0.4-0.3c-0.3,1.2-0.5,2.5-0.4,3.8c0.2,2.6,1.4,4.8,3.1,6.2c1.7,1.4,3.7,2,5.4,1.9
				c1.7-0.1,3-0.7,3.8-1.2C776.3,431.7,776.7,431.3,776.8,431.4z"/>
		</g>
	</g>
	<g>
		<g>
			<g>
				<g>
					<g>
						<g>
							<g>
								<g>
									<g>
										<g>
											<g>
												<g>
													<g>
														<g>
															<g>
																<g>
																	<g>
																		<path class="st6" d="M753.7,1153l-2.6,59.2c0,0,59.4,22.5,59.9,33.5l-115.1-0.9l0.2-92.5L753.7,1153z"/>
																	</g>
																</g>
															</g>
														</g>
													</g>
												</g>
											</g>
										</g>
									</g>
								</g>
							</g>
						</g>
						<g>
							<g>
								<g>
									<g>
										<g>
											<g>
												<g>
													<g>
														<g>
															<g>
																<g>
																	<g>
																		<path class="st9" d="M696,1244.9l0.4-9.3l110.2,4.3c0,0,5.1,2.3,4.5,5.9L696,1244.9z"/>
																	</g>
																</g>
															</g>
														</g>
													</g>
												</g>
											</g>
										</g>
									</g>
								</g>
							</g>
						</g>
						<g>
							<g>
								<g>
									<g>
										<g>
											<g>
												<g>
													<g>
														<g>
															<g>
																<g>
																	<g>
																		<g>
																			<path class="st6" d="M753,1211.6c0,0.6-2.8,0.8-5.6,2.6c-2.8,1.7-4.3,4.1-4.8,3.9c-0.5-0.1,0.3-3.5,3.7-5.6
																				C749.7,1210.4,753.1,1211.1,753,1211.6z"/>
																		</g>
																	</g>
																</g>
															</g>
														</g>
													</g>
												</g>
											</g>
										</g>
									</g>
								</g>
							</g>
						</g>
						<g>
							<g>
								<g>
									<g>
										<g>
											<g>
												<g>
													<g>
														<g>
															<g>
																<g>
																	<g>
																		<g>
																			<path class="st6" d="M765,1216.7c0.1,0.5-2.3,1.5-4.2,3.8c-2,2.3-2.5,4.9-3.1,4.8c-0.5,0.1-0.9-3.2,1.6-6.1
																				C761.7,1216.4,765,1216.2,765,1216.7z"/>
																		</g>
																	</g>
																</g>
															</g>
														</g>
													</g>
												</g>
											</g>
										</g>
									</g>
								</g>
							</g>
						</g>
						<g>
							<g>
								<g>
									<g>
										<g>
											<g>
												<g>
													<g>
														<g>
															<g>
																<g>
																	<g>
																		<g>
																			<path class="st6" d="M771.8,1231.2c-0.5,0.1-1.3-2.7,0.2-5.8c1.4-3.1,4.1-4.3,4.3-3.8c0.3,0.5-1.4,2.1-2.6,4.6
																				C772.5,1228.8,772.3,1231.2,771.8,1231.2z"/>
																		</g>
																	</g>
																</g>
															</g>
														</g>
													</g>
												</g>
											</g>
										</g>
									</g>
								</g>
							</g>
						</g>
						<g>
							<g>
								<g>
									<g>
										<g>
											<g>
												<g>
													<g>
														<g>
															<g>
																<g>
																	<g>
																		<g>
																			<path class="st6" d="M752.1,1198.1c-0.2,0.5-2.8-0.3-6-0.1c-3.2,0.1-5.7,1.2-6,0.7c-0.3-0.4,2.1-2.5,5.9-2.6
																				C749.7,1195.8,752.4,1197.6,752.1,1198.1z"/>
																		</g>
																	</g>
																</g>
															</g>
														</g>
													</g>
												</g>
											</g>
										</g>
									</g>
								</g>
							</g>
						</g>
					</g>
				</g>
				<g>
					<g>
						<g>
							<g>
								<path class="st6" d="M753.5,1197.4c0.3,0,0.3,5.5,0.2,14.3l-0.5-0.7c6.7,2.6,15.7,6,25.2,10.5c10.4,4.9,19.6,9.9,25.5,14.7
									c3,2.3,5.2,4.6,6.3,6.4c1.2,1.8,1,3.3,0.9,3.2c-0.1,0-0.2-1.2-1.5-2.8c-1.2-1.6-3.5-3.6-6.5-5.8c-6-4.4-15.2-9.2-25.5-14
									c-9.4-4.4-18.3-8-24.9-10.9l-0.5-0.2l0-0.5C752.8,1202.9,753.3,1197.4,753.5,1197.4z"/>
							</g>
						</g>
					</g>
				</g>
			</g>
			<g>
				<g>
					<g>
						<g>
							<g>
								<g>
									<g>
										<g>
											<g>
												<g>
													<path class="st6" d="M679.3,739.8l-11.5,67.4L696,965.6c0,0-2.2,79.8-6.4,125.2c-3.6,39.4,2.3,108.1,2.3,108.1h62.8
														l22.5-229l13.9-142.8l25.3-84.6L679.3,739.8z"/>
												</g>
											</g>
										</g>
									</g>
								</g>
							</g>
						</g>
					</g>
				</g>
				<g>
					<g>
						<g>
							<g>
								<g>
									<g>
										<g>
											<g>
												<g>
													<g>
														<g>
															<g>
																<g>
																	<g>
																		<g>
																			<path class="st6" d="M790.6,1142.7l-16.4,57c0,0,52.4,35.9,50.4,46.7l-111.6-27.9l22-89.8L790.6,1142.7z"/>
																		</g>
																	</g>
																</g>
															</g>
														</g>
													</g>
												</g>
											</g>
										</g>
									</g>
								</g>
							</g>
							<g>
								<g>
									<g>
										<g>
											<g>
												<g>
													<g>
														<g>
															<g>
																<g>
																	<g>
																		<g>
																			<path class="st9" d="M712.9,1218.4l2.6-9l106.1,30.1c0,0,4.4,3.4,3,6.8L712.9,1218.4z"/>
																		</g>
																	</g>
																</g>
															</g>
														</g>
													</g>
												</g>
											</g>
										</g>
									</g>
								</g>
							</g>
							<g>
								<g>
									<g>
										<g>
											<g>
												<g>
													<g>
														<g>
															<g>
																<g>
																	<g>
																		<g>
																			<g>
																				<path class="st9" d="M776.1,1199.6c-0.2,0.5-2.9,0.1-6.1,1.2c-3.1,1-5.1,3-5.6,2.7c-0.5-0.2,1.2-3.3,5-4.5
																					C773.2,1197.6,776.4,1199.1,776.1,1199.6z"/>
																			</g>
																		</g>
																	</g>
																</g>
															</g>
														</g>
													</g>
												</g>
											</g>
										</g>
									</g>
								</g>
							</g>
							<g>
								<g>
									<g>
										<g>
											<g>
												<g>
													<g>
														<g>
															<g>
																<g>
																	<g>
																		<g>
																			<g>
																				<path class="st9" d="M786.6,1207.3c0,0.6-2.6,0.9-5,2.7c-2.5,1.8-3.6,4.1-4.1,4c-0.5,0-0.1-3.3,2.9-5.6
																					C783.5,1206.2,786.7,1206.8,786.6,1207.3z"/>
																			</g>
																		</g>
																	</g>
																</g>
															</g>
														</g>
													</g>
												</g>
											</g>
										</g>
									</g>
								</g>
							</g>
							<g>
								<g>
									<g>
										<g>
											<g>
												<g>
													<g>
														<g>
															<g>
																<g>
																	<g>
																		<g>
																			<g>
																				<path class="st9" d="M789.8,1223c-0.5,0-0.6-2.9,1.5-5.6c2.1-2.7,5-3.2,5.1-2.7c0.2,0.5-1.9,1.7-3.6,3.9
																					C791.1,1220.8,790.3,1223.1,789.8,1223z"/>
																			</g>
																		</g>
																	</g>
																</g>
															</g>
														</g>
													</g>
												</g>
											</g>
										</g>
									</g>
								</g>
							</g>
							<g>
								<g>
									<g>
										<g>
											<g>
												<g>
													<g>
														<g>
															<g>
																<g>
																	<g>
																		<g>
																			<g>
																				<path class="st6" d="M778.4,1186.2c-0.4,0.4-2.7-0.9-5.8-1.5c-3.1-0.6-5.8-0.2-5.9-0.7
																					c-0.2-0.5,2.6-1.9,6.3-1.2C776.7,1183.4,778.8,1185.8,778.4,1186.2z"/>
																			</g>
																		</g>
																	</g>
																</g>
															</g>
														</g>
													</g>
												</g>
											</g>
										</g>
									</g>
								</g>
							</g>
						</g>
					</g>
				</g>
				<g>
					<g>
						<g>
							<g>
								<g>
									<g>
										<g>
											<g>
												<g>
													<path class="st6" d="M840.7,743.5l2.9,29.2l-1.1,204.4c0,7.5-1.2,14.9-3.4,22.1l-48.6,156l-12,41.3l-64.1-12.1
														l49.4-440.8L840.7,743.5z"/>
												</g>
											</g>
										</g>
									</g>
								</g>
							</g>
						</g>
					</g>
				</g>
			</g>
		</g>
		<g>
			<g>
				<path class="st9" d="M838.7,999.9c0,0-0.1,0.3-0.2,1c-0.2,0.7-0.5,1.6-0.8,2.8c-0.7,2.5-1.8,6.1-3.2,10.8
					c-2.9,9.5-7,23.3-12.3,40.6c-10.6,34.8-25.7,83.9-43.3,141.5l-0.1,0.5l-0.5-0.1c-20.3-3.6-41.8-7.5-64.2-11.4l-0.6-0.1l0.1-0.6
					c3.3-16.4,6.7-33.5,10.2-51c10.4-51.7,20.1-100.5,28.7-143.2l0,0.2c-10.6-63.3-19.1-113.7-24-142.7l0,0.1
					c-4.7-8.1-8.3-14.3-10.7-18.5c-1.2-2.1-2.1-3.7-2.7-4.8c-0.6-1.1-0.9-1.6-0.9-1.6s0.4,0.5,1,1.6c0.7,1.1,1.6,2.7,2.8,4.7
					c2.5,4.2,6.2,10.4,10.9,18.4l0,0l0,0c5,28.9,13.7,79.4,24.5,142.6l0,0.1l0,0.1c-8.5,42.6-18.2,91.5-28.5,143.2
					c-3.5,17.5-6.9,34.6-10.2,51l-0.5-0.7c22.3,4,43.9,7.9,64.1,11.5l-0.6,0.4c17.8-57.5,32.9-106.6,43.7-141.4
					c5.4-17.3,9.7-31.1,12.6-40.5c1.5-4.7,2.6-8.3,3.4-10.8c0.4-1.2,0.7-2.1,0.9-2.8C838.6,1000.2,838.7,999.9,838.7,999.9z"/>
			</g>
		</g>
	</g>
	<g>
		<g>
			<path class="st2" d="M635.2,607.8c0,0-8.9,52.4-3.5,72.4c5.3,20,48.5,70.4,48.5,70.4l58.9-36.5l-38.8-95.5L635.2,607.8z"/>
		</g>
		<g>
			<path class="st2" d="M668.6,501.3c0,0,40.6,1.2,41,39.9c0.4,38.6-7.2,90.3-7.2,90.3l-69.8-4.9c0,0,4.3-72.4,9.9-93.7
				C648.1,511.1,668.6,501.3,668.6,501.3z"/>
		</g>
		<g>
			<path class="st0" d="M717,463.6l0.2-7.2c0,0,60.6,16.9,69.4,22.6c8.9,5.6,2.1,14.8,2.1,14.8L717,463.6z"/>
		</g>
		<g>
			<path class="st2" d="M834.8,661L813.6,503l-21.4-13.3l0,0c-3.9-6.3-9.1-8.7-17.1-11.5l-57.8-19l-3.7,14.5L662,504.8l18,171
				l-16.4,143.5h30.6l11.3-33.5l3.4,33.5l140.4-4.1L834.8,661z"/>
		</g>
		<g>
			<path class="st2" d="M804.7,497.2c0,0,21.1,8.1,27.8,37.5c2.2,9.8,21,104.5,21,104.5l86.7,7.7l7.3,44.7l-95,6.2
				c-26.3,3.1-51.7-4.9-58.8-42.6c-0.2-0.9-0.5-1.8-0.6-2.7c-7-33.3-16.4-79.7-17.7-95.6C773.5,534,778.7,503.3,804.7,497.2z"/>
		</g>
		<g>
			<g>
				<path class="st6" d="M761.6,685.7c0,0.1-1,0.2-2.8,0.3c-1.8,0.1-4.4,0.3-7.7,0.4c-6.5,0.3-15.4,0.6-25.3,0.8
					c-9.9,0.2-18.8,0.1-25.3,0.1c-3,0-5.6-0.1-7.7-0.1c-1.8-0.1-2.8-0.1-2.8-0.2c0-0.1,1-0.2,2.8-0.3c1.8-0.1,4.4-0.2,7.7-0.3
					c6.5-0.2,15.4-0.3,25.3-0.5c9.7-0.1,18.5-0.3,25.3-0.4c3,0,5.6,0,7.7,0C760.6,685.5,761.6,685.6,761.6,685.7z"/>
			</g>
		</g>
		<g>
			<g>
				<path class="st6" d="M657.6,560c0,0,0.1,0.2,0.2,0.6c0.1,0.5,0.2,1,0.4,1.7c0.3,1.6,0.8,3.8,1.3,6.6c1.1,5.9,2.7,14.2,4.7,24.4
					c3.9,20.7,9.2,49.1,15,80.5c0.4,2,0.7,4,1.1,5.9l0,0.1l0,0.1c-3.6,30.4-6.7,57.6-9.1,77.3c-1.2,9.7-2.2,17.6-2.9,23.2
					c-0.4,2.6-0.6,4.7-0.8,6.3c-0.2,1.4-0.3,2.2-0.4,2.2c0,0,0-0.8,0.1-2.2c0.1-1.6,0.3-3.7,0.6-6.3c0.6-5.6,1.4-13.5,2.5-23.3
					c2.2-19.8,5.3-47,8.6-77.4l0,0.2c-0.3-1.9-0.7-3.8-1.1-5.9c-5.7-31.4-10.9-59.8-14.6-80.5c-1.8-10.2-3.3-18.5-4.3-24.4
					c-0.5-2.8-0.8-5-1.1-6.7c-0.1-0.7-0.2-1.3-0.3-1.7C657.6,560.2,657.6,560,657.6,560z"/>
			</g>
		</g>
		<g>
			<g>
				<path class="st6" d="M793.1,490.3c0,0.1-1.1-0.2-3.1-0.7c-2.3-0.6-5.1-1.3-8.4-2.2c-7.1-1.8-17-4.2-28-6.4
					c-11-2.2-21-4-28.3-5.2c-3.4-0.6-6.3-1.1-8.6-1.4c-2-0.3-3.1-0.6-3.1-0.7c0-0.1,1.1,0,3.2,0.2c2.1,0.2,5,0.5,8.7,1
					c7.3,1,17.4,2.6,28.4,4.8c11,2.3,20.9,4.7,28,6.8c3.5,1,6.4,1.9,8.3,2.6C792,489.8,793.1,490.2,793.1,490.3z"/>
			</g>
		</g>
		<g>
			<g>
				<path class="st6" d="M814.7,505.9c0,0.3-3.5-0.5-8.9,0.3c-5.4,0.7-12.9,3.4-18.7,9.4c-5.9,6-8.6,13.4-9.5,18.8
					c-1,5.4-0.5,8.9-0.8,8.9c-0.1,0-0.3-0.8-0.4-2.4c-0.1-1.6-0.1-3.9,0.2-6.6c0.7-5.5,3.4-13.3,9.5-19.6c6.1-6.3,14-8.9,19.6-9.4
					c2.8-0.3,5.1-0.1,6.7,0.1C813.9,505.5,814.7,505.8,814.7,505.9z"/>
			</g>
		</g>
		<g>
			<g>
				<path class="st6" d="M652.5,519.8c0.4-0.1,1.8,4.3,3.2,9.8c1.4,5.5,2.2,10.1,1.8,10.2c-0.4,0.1-1.8-4.3-3.2-9.8
					C652.9,524.5,652.1,519.9,652.5,519.8z"/>
			</g>
		</g>
	</g>
</g>
<g>
	<g>
		<path class="st6" d="M788.8,593c0,0,0.1,0.4,0.1,1.1c0,0.8,0.1,1.9,0.2,3.4c0.2,3,0.6,7.3,1.3,12.9c1.4,11.2,4.2,27.3,7.1,47.3
			l0.3,1.9l0.1,0.5l0,0.1l0,0.1c-0.5,0.1,1-0.1-1,0.3c-0.1-0.2,0-0.1-0.1-0.2l0-0.1c-0.9,0.3,1.3-0.2,1.1-0.2l0.2,0.9
			c0.3,1.3,0.5,2.5,0.8,3.8c0.6,2.5,1.3,5.1,2.3,7.7c1.9,5.1,4.8,10.1,8.9,14.3c4.1,4.1,9.5,7.3,15.4,9c6,1.8,12.5,2.2,19.1,1.9
			c26.6-1.7,55.9-3.7,86.6-5.7c5.5-0.4,10.9-0.7,16.3-1.1l-0.7,0.9c-2.5-15.4-4.9-30.4-7.2-44.7l0.6,0.6c-32.7-3-62.3-5.7-86.7-7.9
			l-0.4,0l-0.1-0.4c-4.4-22.5-7.9-40.7-10.4-53.4c-1.2-6.3-2.1-11.1-2.7-14.5c-0.3-1.6-0.5-2.9-0.7-3.8c-0.1-0.9-0.2-1.3-0.2-1.3
			s0.1,0.4,0.3,1.3c0.2,0.9,0.5,2.2,0.8,3.8c0.7,3.4,1.7,8.3,3,14.5c2.6,12.7,6.3,30.9,10.9,53.3l-0.5-0.4
			c24.4,2.1,53.9,4.7,86.7,7.5l0.6,0l0.1,0.6c2.3,14.3,4.8,29.3,7.3,44.7l0.1,0.8l-0.8,0.1c-5.4,0.4-10.8,0.7-16.3,1.1
			c-30.7,2-60,3.9-86.6,5.6c-6.7,0.3-13.4-0.1-19.5-2c-6.1-1.8-11.7-5.1-15.9-9.4c-4.2-4.3-7.1-9.5-9.1-14.7c-1-2.6-1.7-5.2-2.3-7.8
			c-0.3-1.3-0.5-2.6-0.8-3.9l-0.2-1c-0.3-0.1,2-0.5,1.1-0.2l0,0.1l0,0.1c-0.1,0,0.3-0.1-0.3,0.1c-0.6,0.1-0.9,0.1-0.7,0.1l0,0l0-0.1
			l-0.1-0.5l-0.3-1.9c-2.7-20-5.4-36.1-6.6-47.3c-0.6-5.6-0.9-10-1-13c-0.1-1.5,0-2.6,0-3.4C788.8,593.4,788.8,593,788.8,593z"/>
	</g>
</g>
</svg>
