<?xml version="1.0" encoding="utf-8"?>
<!-- Generator: Adobe Illustrator 25.2.0, SVG Export Plug-In . SVG Version: 6.00 Build 0)  -->
<svg version="1.1" id="Layer_1" xmlns="http://www.w3.org/2000/svg" xmlns:xlink="http://www.w3.org/1999/xlink" x="0px" y="0px"
	 viewBox="0 0 1920 1326" style="enable-background:new 0 0 1920 1326;" xml:space="preserve">
<style type="text/css">
	.st0{fill:#FFFFFF;}
	.st1{fill:#64B5E4;}
	.st2{fill:#F97255;}
	.st3{fill:#FFC536;}
	.st4{fill:#D8D8D8;}
	.st5{fill:none;stroke:#FFFFFF;stroke-width:2;stroke-miterlimit:9.9999;}
	.st6{fill:#3853FA;}
	.st7{fill:none;stroke:#3853FA;stroke-miterlimit:10;}
	.st8{fill:none;stroke:#3853FA;stroke-width:1;stroke-miterlimit:9.9999;}
	.st9{fill:none;stroke:#3853FA;stroke-width:2;stroke-miterlimit:10;}
	.st10{fill:#F45846;}
	.st11{fill:#F7C1A3;}
	.st12{fill:#5BB5DC;}
	.st13{fill:#F5CEB0;}
	.st14{fill:#33435A;}
	.st15{fill:#805530;}
	.st16{opacity:0.26;fill:#010303;}
	.st17{fill:#FFFCF2;}
	.st18{opacity:5.000000e-02;fill:#000101;}
	.st19{opacity:0.12;}
	.st20{fill:#E3EAE9;}
	.st21{opacity:0.47;}
	.st22{fill:#859398;}
	.st23{fill:#427CCC;}
	.st24{opacity:0.32;fill:#859398;}
	.st25{fill:#184462;}
	.st26{fill:#BCBEC0;}
	.st27{fill:#DBDBDB;}
	.st28{fill:#D0E8F4;}
	.st29{opacity:0.2;}
	.st30{fill:#F3F3F1;}
	.st31{opacity:0.1;}
	.st32{opacity:0.3;fill:#33435A;}
	.st33{fill:#EEEEE9;}
	.st34{fill:#06529C;}
	.st35{fill:#253243;}
	.st36{fill:#F6F6F6;}
	.st37{fill:#C9C9C9;}
	.st38{fill:#AEAEAE;}
</style>
<rect x="-222" y="-56.3" class="st0" width="2178.4" height="1409.4"/>
<g>
	<g>
		<g>
			<ellipse class="st1" cx="-968.4" cy="895.5" rx="362.4" ry="362.4"/>
			<g>
				<path class="st2" d="M-587.5,523.5l-169.3,169.3c-1.7,1.7-4.6,1.7-6.3,0l-23.2-23.2c-1.7-1.7-1.7-4.6,0-6.3L-617,494
					c1.7-1.7,4.6-1.7,6.3,0l23.2,23.2C-585.7,519-585.7,521.8-587.5,523.5z"/>
				<path class="st2" d="M-609.5,462l-115,115c-8.1,8.1-21.3,8.1-29.5,0l0,0c-8.1-8.1-8.1-21.3,0-29.5l115-115
					c8.1-8.1,21.3-8.1,29.5,0l0,0C-601.4,440.7-601.4,453.9-609.5,462z"/>
				<path class="st2" d="M-648.4,670.8l-68,68c-8.1,8.1-21.3,8.1-29.5,0l0,0c-8.1-8.1-8.1-21.3,0-29.5l68-68
					c8.1-8.1,21.3-8.1,29.5,0l0,0C-640.3,649.5-640.3,662.7-648.4,670.8z"/>
			</g>
			<path class="st3" d="M-731.1,608.2l-45.2,45.2c-7.2,7.2-7.2,19,0,26.3l3.2,3.2c7.2,7.2,19,7.2,26.3,0l47.7-47.7
				C-709.3,625.6-720,616.6-731.1,608.2z"/>
			<path class="st2" d="M-609.5,462l-115,115c-8.1,8.1-21.3,8.1-29.5,0l0,0c-8.1-8.1-8.1-21.3,0-29.5l115-115
				c8.1-8.1,21.3-8.1,29.5,0l0,0C-601.4,440.7-601.4,453.9-609.5,462z"/>
			<path class="st3" d="M-685.4,648.8l-60.5,60.5c-8.1,8.1-8.1,21.3,0,29.5l0,0c8.1,8.1,21.3,8.1,29.5,0l58.2-58.2
				C-666.7,669.5-675.8,658.9-685.4,648.8z"/>
			<path class="st4" d="M-1243.4,1053.5l-169.3,169.3c-1.7,1.7-4.6,1.7-6.3,0l-23.2-23.2c-1.7-1.7-1.7-4.6,0-6.3l169.3-169.3
				c1.7-1.7,4.6-1.7,6.3,0l23.2,23.2C-1241.6,1049-1241.6,1051.8-1243.4,1053.5z"/>
			<path class="st4" d="M-1167.1,1057.5l-101.2,101.2c-8.1,8.1-21.3,8.1-29.5,0l0,0c-8.1-8.1-8.1-21.3,0-29.5l101.2-101.2
				c8.1-8.1,21.3-8.1,29.5,0l0,0C-1159,1036.2-1159,1049.4-1167.1,1057.5z"/>
			<path class="st2" d="M-1196.6,1028l-77.7,77.7c7.5,12,15.6,23.6,24.4,34.6l82.8-82.8c8.1-8.1,8.1-21.3,0-29.5
				C-1175.2,1019.9-1188.4,1019.9-1196.6,1028z"/>
		</g>
		<g>
			<g>
				<ellipse class="st3" cx="-1832.1" cy="343.2" rx="275.8" ry="275.8"/>
			</g>
			<g>
				<path class="st1" d="M-1869.8,462.3l-145.6,145.6c-8.1,8.1-21.3,8.1-29.5,0l0,0c-8.1-8.1-8.1-21.3,0-29.5l145.6-145.6
					c8.1-8.1,21.3-8.1,29.5,0l0,0C-1861.7,440.9-1861.7,454.1-1869.8,462.3z"/>
				<path class="st1" d="M-1991.7,503.3l-80.6,80.6c-8.1,8.1-21.3,8.1-29.5,0l0,0c-8.1-8.1-8.1-21.3,0-29.5l80.6-80.6
					c8.1-8.1,21.3-8.1,29.5,0l0,0C-1983.5,482-1983.5,495.2-1991.7,503.3z"/>
				<path class="st1" d="M-1891.9,563.4l-145.6,145.7c-8.1,8.1-21.3,8.1-29.5,0l0,0c-8.1-8.1-8.1-21.3,0-29.5l145.6-145.7
					c8.1-8.1,21.3-8.1,29.5,0l0,0C-1883.8,542.1-1883.8,555.3-1891.9,563.4z"/>
			</g>
			<path class="st2" d="M-1899.3,432.8L-2015.6,549c10.5,9.3,21.7,17.9,33.5,25.5l112.3-112.3c8.1-8.1,8.1-21.3,0-29.5
				C-1878,424.6-1891.2,424.6-1899.3,432.8z"/>
			<path class="st2" d="M-2021.2,473.8l-32.9,32.9c8.3,11.2,17.4,21.9,27.3,31.7l35.1-35.1c8.1-8.1,8.1-21.3,0-29.5
				C-1999.8,465.7-2013,465.7-2021.2,473.8z"/>
			<path class="st2" d="M-1921.4,533.9l-48.2,48.2c12.7,7.3,26.1,13.7,40,19l37.7-37.7c8.1-8.1,8.1-21.3,0-29.5
				C-1900.1,525.8-1913.3,525.8-1921.4,533.9z"/>
		</g>
		
			<rect x="-2053.4" y="179.3" transform="matrix(0.7071 -0.7071 0.7071 0.7071 -767.0149 -1305.715)" class="st5" width="187.5" height="187.5"/>
		
			<rect x="-943.6" y="284.4" transform="matrix(0.7071 -0.7071 0.7071 0.7071 -516.3372 -490.1515)" class="st3" width="187.5" height="187.5"/>
		
			<rect x="-1526.8" y="149.5" transform="matrix(0.7071 -0.7071 0.7071 0.7071 -574.8594 -982.8428)" class="st4" width="106" height="106"/>
		
			<rect x="-1331.9" y="121.1" transform="matrix(0.7071 -0.7071 0.7071 0.7071 -486.3032 -880.9464)" class="st4" width="50.8" height="50.8"/>
		
			<rect x="-1307.1" y="1236.4" transform="matrix(0.7071 -0.7071 0.7071 0.7071 -1267.6527 -536.6923)" class="st4" width="50.8" height="50.8"/>
		
			<rect x="-970.6" y="984.5" transform="matrix(0.7071 -0.7071 0.7071 0.7071 -992.0805 -369.9093)" class="st5" width="56.1" height="56.1"/>
		
			<rect x="-824.1" y="795.7" transform="matrix(0.7071 -0.7071 0.7071 0.7071 -811.6353 -331.303)" class="st0" width="36.7" height="36.7"/>
		<g>
			<polygon class="st3" points="-1844.3,876.3 -1844.3,1170.3 -2116.2,1023.3 			"/>
			<polygon class="st2" points="-1659.5,878.8 -1659.5,1167.7 -1926.8,1023.3 			"/>
			<polygon class="st6" points="-1844.3,1067.9 -1926.8,1023.3 -1844.3,978.7 			"/>
		</g>
		<g>
			<polygon class="st4" points="-946.2,8.7 -946.2,244.4 -742.1,126.6 			"/>
			<polygon class="st1" points="-1084.9,10.7 -1084.9,242.4 -884.3,126.6 			"/>
			<polygon class="st2" points="-946.2,162.3 -884.3,126.6 -946.2,90.8 			"/>
		</g>
		<path class="st2" d="M-1256.6,1034c-7.2-7.2-19-7.2-26.3,0l-18.9,18.9c5.7,13.6,12.2,26.8,19.5,39.5l28.9-28.9
			c7.2-7.2,7.2-19,0-26.3L-1256.6,1034z"/>
		<g>
			<path class="st7" d="M-638.3,996.7c-195.1,0-178.5,166.1-344.6,166.1s-195.1-153.6-344.6-153.6c-141.1,0-195.1,166.1-336.3,166.1
				"/>
			<g>
				<line class="st7" x1="-1514.2" y1="1009.2" x2="-1146.1" y2="1009.2"/>
				
					<rect x="-1349.2" y="995.3" transform="matrix(0.7071 -0.7071 0.7071 0.7071 -1104.521 -648.9985)" class="st6" width="27" height="27"/>
				
					<rect x="-1541.9" y="997.4" transform="matrix(0.7071 -0.7071 0.7071 0.7071 -1162.47 -784.6627)" class="st8" width="27" height="27"/>
				
					<rect x="-1138.5" y="997.4" transform="matrix(0.7071 -0.7071 0.7071 0.7071 -1044.3069 -499.4297)" class="st8" width="27" height="27"/>
			</g>
			<g>
				<line class="st7" x1="-1163.1" y1="1164.9" x2="-811.3" y2="1164.9"/>
				
					<rect x="-998.1" y="1151" transform="matrix(0.7071 -0.7071 0.7071 0.7071 -1111.8181 -355.1425)" class="st6" width="27" height="27"/>
				
					<rect x="-1190.8" y="1153.2" transform="matrix(0.7071 -0.7071 0.7071 0.7071 -1169.7838 -490.7413)" class="st8" width="27" height="27"/>
				
					<rect x="-808.5" y="1153.2" transform="matrix(0.7071 -0.7071 0.7071 0.7071 -1057.8243 -220.4061)" class="st8" width="27" height="27"/>
			</g>
		</g>
		<g>
			<path class="st7" d="M-1303.9,260.6c-166,0-195.1-153.6-344.6-153.6c-141.1,0-195.1,166-336.2,166"/>
			<g>
				<line class="st7" x1="-1835.3" y1="107" x2="-1467.2" y2="107"/>
				
					<rect x="-1670.2" y="93.1" transform="matrix(0.7071 -0.7071 0.7071 0.7071 -560.6367 -1140.257)" class="st6" width="27" height="27"/>
				
					<rect x="-1862.9" y="95.2" transform="matrix(0.7071 -0.7071 0.7071 0.7071 -618.5146 -1275.892)" class="st8" width="27" height="27"/>
				
					<rect x="-1459.6" y="95.2" transform="matrix(0.7071 -0.7071 0.7071 0.7071 -500.4225 -990.688)" class="st8" width="27" height="27"/>
			</g>
		</g>
		
			<rect x="-818.9" y="910.2" transform="matrix(0.7071 -0.7071 0.7071 0.7071 -914.1384 -238.4021)" class="st5" width="148.1" height="148.1"/>
	</g>
	<g>
		<g>
			<rect x="-1895.3" y="294.1" class="st9" width="1026.6" height="621.5"/>
			<rect x="-1607.4" y="355.1" class="st3" width="489.5" height="307.6"/>
			<rect x="-1872.2" y="315.2" class="st4" width="978.6" height="30.3"/>
			<rect x="-1872.2" y="355.1" class="st4" width="253.8" height="169.6"/>
			<rect x="-1109.4" y="355.1" class="st4" width="214.8" height="307.4"/>
			<g>
				<rect x="-1112.5" y="415.2" class="st0" width="221" height="5"/>
				<rect x="-1112.5" y="479.3" class="st0" width="221" height="5"/>
				<rect x="-1112.5" y="538.3" class="st0" width="221" height="5"/>
				<rect x="-1112.5" y="599.8" class="st0" width="221" height="5"/>
			</g>
			<rect x="-1872.2" y="537.2" class="st4" width="253.8" height="169.6"/>
			<rect x="-1872.2" y="719.9" class="st4" width="253.8" height="169.6"/>
			<rect x="-1596.6" y="691.6" class="st4" width="684.4" height="50"/>
			<rect x="-1592.8" y="759.1" class="st10" width="364.5" height="13.2"/>
			<rect x="-1592.8" y="851.8" class="st3" width="511" height="13.5"/>
			<rect x="-1592.8" y="788.1" class="st3" width="684.7" height="14.9"/>
			<rect x="-1592.8" y="818.9" class="st10" width="684.7" height="14.9"/>
			
				<rect x="-1187" y="782" transform="matrix(0.7071 -0.7071 0.7071 0.7071 -905.0724 -599.5186)" class="st6" width="21.5" height="21.5"/>
			
				<rect x="-1047.1" y="814" transform="matrix(0.7071 -0.7071 0.7071 0.7071 -886.6867 -491.2405)" class="st6" width="21.5" height="21.5"/>
			
				<rect x="-1334.3" y="818.2" transform="matrix(0.7071 -0.7071 0.7071 0.7071 -973.8505 -693.1204)" class="st6" width="21.5" height="21.5"/>
			
				<rect x="-1220.5" y="849.5" transform="matrix(0.7071 -0.7071 0.7071 0.7071 -962.6439 -603.4857)" class="st6" width="21.5" height="21.5"/>
			
				<rect x="-1135.1" y="782" transform="matrix(0.7071 -0.7071 0.7071 0.7071 -889.8762 -562.8201)" class="st6" width="21.5" height="21.5"/>
			
				<rect x="-1302.2" y="757.1" transform="matrix(0.7071 -0.7071 0.7071 0.7071 -921.2066 -688.2742)" class="st6" width="21.5" height="21.5"/>
			<polygon class="st6" points="-1438.3,730.4 -1456.3,741.9 -1474.9,730.4 -1474.9,695.2 -1438.3,695.2 			"/>
		</g>
		<circle class="st0" cx="-1360.6" cy="515.2" r="66.4"/>
		<polygon class="st2" points="-1384.8,473.1 -1384.8,555.5 -1313.5,514.3 		"/>
	</g>
</g>
<g>
	<g>
		<g>
			<g>
				<polygon class="st11" points="108,419.9 84.1,400.3 92,389.7 111.4,399.5 112.9,392.7 131.3,412.1 124.5,424.2 				"/>
			</g>
			<g>
				<polygon class="st12" points="360.9,405.7 253.5,461.8 127.2,403.4 115,428.2 248.8,530.2 395.6,491 				"/>
			</g>
		</g>
		<g>
			<polygon class="st13" points="634.1,482.5 656.6,467.1 650.4,457.2 632.7,464.3 631.9,458.2 614.2,473.8 619.2,485 			"/>
			<path class="st12" d="M618.5,466.5l8.8,22.7c1.2,3.7-84.2,51.9-91.8,55.4c-16.7,7.6-47.1,25.6-47.1,25.6
				c-23.3,0.3-67.2-11.6-81.8-17.9c-5.9-2.5-10.1-15.6-13.7-20.8c-4.5-6.6,1.2-18.2,5.1-23.6c8-11,20.2-18.9,33.6-21.5
				c4.8-0.9,9.8-1.2,14.5,0.1c4.9,1.4,11.1-21,15.2-18.1c7.3,5.2,11.4,39.2,20.1,42.2C492.3,514.2,615.9,461.2,618.5,466.5z"/>
		</g>
		<path class="st12" d="M363.1,411.1c-0.5,0-1,0-1.5,0.1c-24,1.2-53,32.6-69.8,51.2c-43.4,47.9-73.7,102.9-96.4,164.3
			c-12.2,33.1-23,66.7-33.1,100.5c-2.8,9.3-22.4,94.7-27.2,95.3c48.8-6.2,97.9-11.1,146.5-7.7c48.6,3.4,96.9,15.3,138.6,40.9
			c21.3-109.6,37.1-223.1,42.3-334.1c0.6-13.3,2.6-27,1.4-40.2c-1.4-15.2-8.9-22.1-17.4-33.6c-2.9-4-5.8-7.9-9.4-11.2
			C418.2,419.3,388.2,410.2,363.1,411.1z"/>
		<g>
			<g>
				<polygon class="st13" points="192.9,783.3 243.6,989.4 244.8,1141.3 269.4,1146.6 279,1005.3 303.2,746.7 				"/>
			</g>
			<polygon class="st14" points="269.7,1150.8 273.7,1166.2 270.2,1196.5 250.2,1196.5 242.8,1152.8 245.1,1145.5 			"/>
		</g>
		<g>
			<polygon class="st13" points="386.7,760.6 391.2,938.6 367.4,1190.1 343.1,1191.9 334.3,961.3 284.8,752.4 			"/>
			<polygon class="st14" points="366.6,1185.9 399.4,1203.3 396.8,1218.6 338.9,1211.5 341.7,1189.5 			"/>
		</g>
		<polygon class="st14" points="393.8,783.6 410.3,989.3 393.5,1130.3 327.6,1126.6 315.9,966.2 287.4,791.4 291.8,764.1 
			386.8,765.5 		"/>
		<polygon class="st14" points="293.9,974.3 286.2,1121.8 228.9,1118.9 230,979 193.9,803.2 202.1,754.1 298.5,760.1 		"/>
		<path class="st0" d="M405.8,800.5c-58.8-10.1-154-34.7-212.8-44.8c30.8-102.1,79.7-215.6,136.8-305.3
			c10.4-16.3,23.3-33.3,41.8-37.1c19.9-4.1,54.7,8.9,58.5,31.2c5.6,32.5-6.1,77.3-9.7,110.1C412.3,628.9,420,727.1,405.8,800.5z"/>
		<g>
			<path class="st11" d="M470.8,357c7.9-43.7-45.6-56.2-72.9-28.8c-17.9,18-17.1,55.2,1.1,73.2c-3.5,5-6.9,10.1-10,15.4
				c6.1,2.8,12.1,5.6,18.2,8.4c1.9,0.9,4.1,1.7,5.9,0.6c1.1-0.7,1.6-1.9,2.1-3c1.7-3.8,3.5-7.7,5.2-11.5c0.5,0,1.1,0.1,1.6,0.1
				c13.3,0.7,26.1-7,34.2-17.6C464.4,383.3,468.4,370.1,470.8,357z"/>
			<g>
				<g>
					<path class="st14" d="M461.3,366c1.6,14.7-8.3,27.9-16.8,39.1c-7.6,10-11,16.9,1.4,22.7c7,3.3,19.4,9.3,27.1,5.1
						c5.8-3.2,6-17,4.8-22.7c-0.9-4.4-5.3-7.5-6.1-11.9c-0.3-1.8,0-3.7,0.3-5.5c1.5-7.4,4.2-14.6,7.8-21.2c2.5-4.5,5.5-8.8,7-13.7
						c2.2-7.1-1.1-16.7-2.3-24c-2.3-13.5-16.1-34-32.8-27.5c-3.8,1.5-6.6,4.8-9,8.1c-1.4,2-2.9,4-3.4,6.4c-2.2,9.5,6.1,13,11.1,18.9
						C456.6,347,460.3,356.6,461.3,366z"/>
					<path class="st14" d="M391.7,353.1c-2,6.6-0.1,14.9-5.1,19.7c-2.2,2.2-5.3,3.1-8.1,4.4c-7.5,3.8-12.8,11.8-13.2,20.2
						c-13.4-3.5-26.8-7-40.1-10.5c-2-0.5-4.1-1.1-5.6-2.5c-3.2-3.1-2.3-8.4-1.1-12.6c2.4-8.5,5.1-17.5,11.9-23
						c3.2-2.6,7-4.2,10.1-6.8c15.1-12.4,9.4-41.3,26.5-50.7c7.7-4.2,17.1-2.6,25.7-4.1c15-2.7,27.2-14.9,42.3-16.6
						c28.6-3.2,47.2,34.9,26.2,55.1C444.2,342.2,399.9,326.4,391.7,353.1z"/>
				</g>
			</g>
		</g>
		<path class="st12" d="M359.9,417.1c0,0-101.7,245.2-79.2,307.7c22.5,62.5,32.9,86.8,32.9,86.8l-155.7,6.5
			C157.9,818.1,257.2,459.9,359.9,417.1z"/>
		<g>
			<g>
				<g>
					<g>
						
							<rect x="33.7" y="368.2" transform="matrix(0.9887 -0.1496 0.1496 0.9887 -85.7127 36.5032)" class="st15" width="332.2" height="439.4"/>
						<polygon class="st16" points="90.1,807.6 95,806.9 386.4,771.9 316.6,362.2 303.7,368.1 						"/>
						
							<rect x="50.1" y="382.2" transform="matrix(0.9887 -0.1496 0.1496 0.9887 -85.3554 36.4212)" class="st17" width="298.7" height="406.5"/>
						<polygon class="st18" points="19.5,405.6 231.9,373.4 46,582.9 						"/>
						<g>
							
								<rect x="104.7" y="382.3" transform="matrix(0.9887 -0.1496 0.1496 0.9887 -56.1964 29.7359)" class="st19" width="129.7" height="12.1"/>
							<g>
								<path class="st20" d="M201,340.6l-2,0.3l-0.2-1.3c-1.9-12.5-15.2-20.9-29.7-18.7l-19.1,2.9c-14.5,2.2-24.8,14.1-22.9,26.7
									l0.2,1.3l-2,0.3c-14.5,2.2-24.8,14.1-22.9,26.7l3.8,25.3l128.3-19.4l-3.8-25.3C228.8,346.8,215.5,338.4,201,340.6z
									 M180.1,344.3l-33.8,5.1c-3.5,0.5-6.7-1.9-7.2-5.3c-0.5-3.4,1.9-6.7,5.3-7.2l33.8-5.1c3.5-0.5,6.7,1.9,7.2,5.3
									C186,340.5,183.6,343.8,180.1,344.3z"/>
							</g>
						</g>
					</g>
					<g class="st21">
						<path class="st22" d="M120.8,506.8c-14.5,2.2-28.9,4.4-43.4,6.6c-1.2,0.2-2.1,1.4-1.9,2.6c2.2,14.3,4.3,28.7,6.5,43
							c0.2,1.2,1.4,2.1,2.6,1.9c14.5-2.2,28.9-4.4,43.4-6.6c0.7-0.1,1.1-0.4,1.4-0.8c0,0,0-0.1,0.1-0.1c0,0,0,0,0-0.1
							c0.3-0.4,0.5-1,0.4-1.6c-2.2-14.3-4.3-28.7-6.5-43C123.2,507.4,122.1,506.6,120.8,506.8z M125.1,550.1
							c-12.9,2-25.9,3.9-38.8,5.9c-1.9-12.8-3.9-25.7-5.8-38.5c12.9-2,25.9-3.9,38.8-5.9C121.2,524.4,123.1,537.2,125.1,550.1z"/>
						<path class="st22" d="M132.9,586.2c-14.5,2.2-28.9,4.4-43.4,6.6c-1.2,0.2-2.1,1.4-1.9,2.6c2.2,14.3,4.3,28.7,6.5,43
							c0.2,1.2,1.4,2.1,2.6,1.9c14.5-2.2,28.9-4.4,43.4-6.6c0.7-0.1,1.1-0.4,1.4-0.8c0,0,0-0.1,0.1-0.1c0,0,0,0,0-0.1
							c0.3-0.4,0.5-1,0.4-1.6c-2.2-14.3-4.3-28.7-6.5-43C135.3,586.9,134.1,586,132.9,586.2z M137.1,629.5
							c-12.9,2-25.9,3.9-38.8,5.9c-1.9-12.8-3.9-25.7-5.8-38.5c12.9-2,25.9-3.9,38.8-5.9C133.2,603.9,135.2,616.7,137.1,629.5z"/>
						<path class="st22" d="M144.9,665.7c-14.5,2.2-28.9,4.4-43.4,6.6c-1.2,0.2-2.1,1.4-1.9,2.6c2.2,14.3,4.3,28.7,6.5,43
							c0.2,1.2,1.4,2.1,2.6,1.9c14.5-2.2,28.9-4.4,43.4-6.6c0.7-0.1,1.1-0.4,1.4-0.8c0,0,0-0.1,0.1-0.1c0,0,0,0,0-0.1
							c0.3-0.4,0.5-1,0.4-1.6c-2.2-14.3-4.3-28.7-6.5-43C147.3,666.4,146.1,665.5,144.9,665.7z M149.1,709
							c-12.9,2-25.9,3.9-38.8,5.9c-1.9-12.8-3.9-25.7-5.8-38.5c12.9-2,25.9-3.9,38.8-5.9C145.3,683.3,147.2,696.2,149.1,709z"/>
					</g>
					<polygon class="st23" points="94.5,527.4 104,522.6 111,531.6 153.5,490.4 159.2,490.6 110.7,544 					"/>
					<polygon class="st23" points="103.3,609.4 112.7,604.6 119.8,613.6 162.2,572.4 167.9,572.7 119.4,626 					"/>
					<polygon class="st23" points="113.7,684.7 123.2,679.9 130.2,689 172.7,647.8 178.4,648 129.9,701.4 					"/>
					
						<rect x="176.1" y="667.2" transform="matrix(0.9887 -0.1496 0.1496 0.9887 -98.5965 45.5561)" class="st24" width="154.7" height="21.7"/>
					
						<rect x="163.4" y="583.1" transform="matrix(0.9887 -0.1496 0.1496 0.9887 -86.149 42.7029)" class="st24" width="154.7" height="21.7"/>
					
						<rect x="150.7" y="498.9" transform="matrix(0.9887 -0.1496 0.1496 0.9887 -73.6998 39.8486)" class="st24" width="154.7" height="21.7"/>
				</g>
			</g>
		</g>
	</g>
	<g id="XMLID_273_">
		<polygon id="XMLID_275_" class="st11" points="1463.3,462.2 1451,452.2 1449.8,438.4 1446.8,437.2 1445.1,440.9 1440.8,429.7 
			1432.3,424.9 1420.6,430.4 1414.6,442.3 1421.2,453.4 1434.7,460.8 1450.8,475.1 		"/>
		<polygon id="XMLID_274_" class="st14" points="1460.9,451.2 1529.6,502.7 1655,437.1 1669.4,518.1 1542.9,570.4 1507.2,566.2 
			1433.2,467.9 		"/>
	</g>
	<g id="XMLID_268_">
		<path id="XMLID_272_" class="st14" d="M1744.5,675.2c-4.5-22.4-8-43.1-8.3-54.3c-1-33.7-5.3-145.1-5.3-145.1l-20.9-42.6l-3.9,0
			c0.3,0,0.6-0.1,0.8-0.1c-0.4-3.6-0.2-6.7,0.3-9.3c36.5,2.2,73.9,21.3,84.4,56.9c0.9,2.9,1.5,5.9,1.8,9c1.5,18.3-4.1,31.7,1.2,50.1
			c4.6,15.9,8.7,32.1,11.8,48.4c4.4,23.6,8.5,47.1,11.7,70.5c3.6,25.9,6.1,51.8,6.8,77.5c0.1,2.8,0.7,10.8,1,20.3
			c0.7,19.9,0.2,46.5-8.1,47.5c-1.6,0.2-3.1-0.5-4.5-1.2c-10.8-5.2-19.3-12.1-28.8-18l-0.5-103.8L1744.5,675.2z"/>
		<path id="XMLID_271_" class="st14" d="M1552,781.8c2.1-22.1,4.4-44.2,7.1-66.2c5.4-43.9,12.8-87.8,25.3-130.3
			c4.8-16.2,10.3-32.3,15.8-48.3c6.7-19.5,13.4-39,20.1-58.5c8.3-24.2,22.4-41.3,47-49.8c4.4-1.5,9-2.7,13.8-3.5
			c0.1,0.5,0.2,1,0.3,1.5c0.3,2.3,1,4.9,2.4,6.6l-16.1,0.2c0,0-45.5,159.2-47.2,186.6c-0.6,10.4-2.8,33.2-5.1,57.2l-24.7,3.6
			l-1.1,91.7c-1.4,0.4-2.8,0.8-4.1,1.1c-7.8,2.1-14.2,7.8-20.8,12.3C1554.9,792.7,1550.6,795.4,1552,781.8z"/>
		<g>
			<polygon class="st25" points="1893.5,1139.8 1902,1157.2 1874.1,1190.8 1856.7,1183.2 1870,1146.3 1887.2,1126.8 			"/>
			<g>
				<polygon class="st14" points="1890.8,1133 1813.2,966.2 1771.8,764.3 1752.6,724.8 1645.9,756.1 1655.2,787.2 1740,991 
					1867.5,1150.6 				"/>
			</g>
		</g>
		<g>
			<polygon class="st14" points="1609.2,696.7 1598.1,935.5 1624.2,1174.4 1651,1175.4 1675.8,956.7 1720.2,738.7 			"/>
			<polygon class="st25" points="1652.7,1197.6 1599.4,1213 1596.4,1195 1625.5,1174.4 1651.2,1175.4 			"/>
		</g>
		<path id="XMLID_270_" class="st14" d="M1615.2,677.3c-3.7,37.9-8,78.9-8,78.9s20,0.5,48.9,2.6c-2.1,0-4.3-0.1-6.4-0.1
			c-20.1-0.2-41,8.4-60.2,13.9l1.1-91.7L1615.2,677.3z"/>
		<path id="XMLID_269_" class="st14" d="M1750.2,770.4c13.8,0.7,15.5-1.8,15.5-1.8s-12.4-50-21.2-93.4l39.4,5.8l0.5,103.8
			c-3.3-2.1-6.8-4.1-10.5-5.9C1766.4,775.3,1758.4,772.6,1750.2,770.4z"/>
		<path class="st0" d="M1609.6,683.2c2.6-24.6,4.9-47.9,5.6-58.5c1.8-28.1,51.4-191.1,51.4-191.1l17.6-0.2c0.2,0.2,0.4,0.4,0.6,0.6
			c0.5,0.4,1.2,0.8,1.9,1c1.4,0.4,3,0.3,4.5,0.1c5.8-0.6,11.6-1.3,17.4-1.9l4.2,0l22.8,43.6c0,0,4.7,114.1,5.8,148.6
			c0.4,11.5,4.2,32.7,9.1,55.6c9.5,44.5,23,95.7,23,95.7s-1.9,2.6-16.9,1.9c-9.3-0.5-23.6-2.2-45.6-6.6c-0.8-0.1-1.7-0.2-2.5-0.3
			c-17.2-1.9-33.7-3.4-48.4-4.5c-2-0.1-4-0.3-6-0.4c-31.5-2.2-53.2-2.7-53.2-2.7S1605.6,722.1,1609.6,683.2z"/>
		<path class="st11" d="M1655.4,374.5c1-4.3-1-8.7-1.9-13c-0.2-1.1-0.3-2.2-0.2-3.4c7.7-1.3,15.4-4.2,21.1-6.6
			c11.7-5.1,34.6-10.6,46.8-4.5c9.6,4.8,6.7,20,6.2,29.7c-0.1,2.5-0.3,5,0.3,7.4c0.6,2.5,2.1,4.2,3.1,6.3c-1.1,3.8-2.8,7.3-5.7,10.6
			c-7.7,8.7-15.6,13-17.7,22.8c-0.6,2.6-0.7,5.7-0.3,9.3c-0.3,0-0.6,0.1-0.8,0.1c-5.3,0.6-10.7,1.3-16,1.9c-1.4,0.2-2.8,0.3-4.1-0.1
			c-0.7-0.2-1.2-0.6-1.7-1c-0.2-0.2-0.4-0.4-0.6-0.6c-1.5-1.7-2.1-4.3-2.4-6.6c-0.1-0.5-0.2-1-0.3-1.5c-2.1-9-12-13-17.4-21
			c-6.1-9-9.2-19.6-10.6-30.3c0-0.2,0-0.4-0.1-0.5C1653.7,373.9,1654.5,374.2,1655.4,374.5z"/>
		<path class="st14" d="M1623.8,310.7c4-2.7,8.6-4.9,11-9.2c1.9-3.3,2.2-7.4,4-10.8c3.4-6,10.7-7.8,17.1-9.9
			c15.9-5.1,24.5-11,41.4-4.5c12,4.7,27.5,5.3,38.6,12.1c4.7,2.8,8.6,7.4,11.9,12.5c11.3,17.6,14,42.3,6.6,60.7
			c-1.6,4.1-3.7,7.9-6,11.5c-4.5,7.2-9.2,16.1-17.1,19.7c-0.1-0.9-0.4-1.7-0.7-2.4c-1-2.1-2.5-3.8-3.1-6.3c-0.6-2.4-0.4-4.9-0.3-7.4
			c0.5-9.6,3.4-24.9-6.2-29.7c-12.2-6.1-35-0.6-46.8,4.5c-5.6,2.5-13.4,5.3-21.1,6.6c-0.1,1.1,0,2.3,0.2,3.4c1,4.3,3,8.7,1.9,13
			c-0.9-0.3-1.7-0.7-2.5-1.1c-5.3-2.9-8.9-8.7-11.1-14.7c-2.3-0.2-4.5-0.8-6.5-1.6c-10.3-4.5-18.6-22.5-18.3-33.5
			C1617.2,318.4,1619.1,313.8,1623.8,310.7z"/>
	</g>
	<g id="XMLID_265_">
		<g>
			<path class="st26" d="M1415.2,93.5l-10.1,3.5c-1.6,0.6-2.3,2.5-1.5,4.3l41.7,98.1c2.1,4.8,2.3,10,0.7,14.5
				c-1.6,4.5-4.8,7.8-9.1,9.3l-112.3,39c-4.3,1.5-9.1,1-13.7-1.4c-4.5-2.4-8.2-6.4-10.2-11.2l-40.6-95.6c-0.8-1.8-2.7-2.8-4.3-2.3
				l-10.1,3.5c-1.6,0.6-2.3,2.5-1.5,4.3l40.6,95.6c4.1,9.6,11.3,17.6,20.3,22.3c9,4.7,18.6,5.7,27.2,2.7l112.3-39
				c8.5-3,15-9.5,18.2-18.5c3.2-9,2.7-19.2-1.4-28.8l-41.7-98.1C1418.8,93.9,1416.8,92.9,1415.2,93.5z"/>
			<path class="st26" d="M1763,851.1c28.3,9.7,59.1-5.3,68.9-33.6c5.1-14.9,3.4-30.5-3.6-43.4l-8.9-12.1l-325.7-443.5
				c28.2-42.5,29-103.5-2.7-155.3c-18.5-30.2-45-52.3-74.1-64.5l43.5,102.3c6.4,15,0.7,31-12.6,35.6l-112.3,39
				c-13.2,4.6-29.3-3.8-35.7-18.8l-42.6-100.3c-18.4,40.8-15.5,93,12.1,138.1c29.7,48.5,80,76,128.5,75.4l337,458.8l4.4,6
				C1745.3,842,1753.4,847.8,1763,851.1z"/>
			<path class="st27" d="M1752.8,850.2c28.3,9.7,59.1-5.3,68.9-33.6c5.1-14.9,3.4-30.5-3.6-43.4l-8.9-12.1l-325.7-443.5
				c28.2-42.5,29-103.5-2.7-155.3c-18.5-30.2-45-52.3-74.1-64.5l43.5,102.3c6.4,15,0.7,31-12.6,35.6l-112.3,39
				c-13.2,4.6-29.3-3.8-35.7-18.8l-42.6-100.3c-18.4,40.8-15.5,93,12.1,138.1c29.7,48.5,80,76,128.5,75.4l337,458.8l4.4,6
				C1735.2,841.2,1743.3,846.9,1752.8,850.2z"/>
			<path class="st26" d="M1410.9,94.9l-10.1,3.5c-1.6,0.6-2.3,2.5-1.5,4.3l41.7,98.1c2.1,4.8,2.3,10,0.7,14.5
				c-1.6,4.5-4.8,7.8-9.1,9.3l-112.3,39c-4.3,1.5-9.1,1-13.7-1.4c-4.5-2.4-8.2-6.4-10.2-11.2l-40.6-95.6c-0.8-1.8-2.7-2.8-4.3-2.3
				l-10.1,3.5c-1.6,0.6-2.3,2.5-1.5,4.3l40.6,95.6c4.1,9.6,11.3,17.6,20.3,22.3c9,4.7,18.6,5.7,27.2,2.7l112.3-39
				c8.5-3,15-9.5,18.2-18.5c3.2-9,2.7-19.2-1.4-28.8l-41.7-98.1C1414.4,95.3,1412.5,94.3,1410.9,94.9z"/>
			<path class="st26" d="M1787.6,764.6l-273.5-372.4c-5.1-6.9-14-8.9-19.8-4.5l-33.2,25.3c-5.8,4.4-6.4,13.7-1.3,20.6L1733.3,806
				c5.1,6.9,14,8.9,19.8,4.5l33.2-25.3C1792.1,780.8,1792.7,771.5,1787.6,764.6z"/>
			<path class="st27" d="M1729.1,833.9l-4.4-6C1726.1,830.1,1727.5,832.1,1729.1,833.9z"/>
		</g>
		<polygon id="XMLID_267_" class="st11" points="1607.6,624.4 1591.9,626.2 1581.2,617.5 1578.2,618.8 1579.7,622.6 1568.6,617.9 
			1559.3,620.7 1555.1,632.9 1559.4,645.5 1572,648.4 1586.7,643.9 1608.2,642.3 		"/>
		<polygon id="XMLID_266_" class="st14" points="1598.1,618.4 1682.9,604.9 1733.7,473.3 1791.2,515.2 1740.7,642.5 1712.8,665.2 
			1590.8,649.9 		"/>
	</g>
	<g>
		<g>
			<path class="st1" d="M1598.6,966.1l-0.2,151.3l-184.5-0.2c0.3-3.5,0.5-7,0.5-10.5c0.1-66.7-53.9-120.8-120.6-120.9
				c-66.7-0.1-120.8,53.9-120.9,120.6c0,3.6,0.1,7.1,0.4,10.5l-948.2-1.2l0.1-106.4C225.6,938.5,266,874,329.6,843l181.2-56.8l9-0.1
				l89.9-198.8c25.8-57.1,80.6-93.4,140.6-93.3l540.8,0.7c56.9,0.1,75.4,72.1,95.9,114.2c23.3,47.9,46.7,95.7,70,143.6
				c4.4,9.1,8.9,18.2,13.3,27.2l2.3,0l77.5,73.5C1581.2,882.6,1598.7,923.4,1598.6,966.1z"/>
			<path class="st28" d="M1022.3,763.9l360.8,0.5l-81.7-201.9c-4.1-10.1-13.4-16.6-23.8-16.6l-255-0.3L1022.3,763.9z"/>
			<path class="st28" d="M960.8,545.4l-206.7-0.3c-43.8-0.1-83.7,26.4-102.6,68.1l-67.9,150.1l376.9,0.5L960.8,545.4z"/>
			<g class="st29">
				<path class="st30" d="M1311.2,611.2c4.8,2.6,9.6,5.2,14.4,7.7l-22.4-55.3c-4.1-10.1-13.4-16.6-23.8-16.6l-88.3-0.1
					C1231,568.7,1271.2,589.8,1311.2,611.2z"/>
				<path class="st30" d="M1318.2,659.4c-66.2-35.9-135.8-76.7-201.3-113.8l-82.9,1.2c56.7,48.8,128.5,92.2,191.8,131.3
					c38.1,23.5,77,45.7,116.8,66.1c13.1,6.7,26.7,12.7,40.4,18.9l-35.4-87.4C1337.9,670.1,1328,664.8,1318.2,659.4z"/>
				<path class="st30" d="M895.6,676c-27.8-18-56.7-34.7-85.7-50.7c-29.4-16.2-59.2-32.6-90-46c-10.2-4.4-20.4-8.6-30.7-12.7
					c-15.9,11.6-29,27.5-37.7,46.6l-0.7,1.5c31.2,21.8,62.5,43.4,93.5,65.4c45.8,32.6,96.3,57.2,145.7,83.7l70.4,0.1l0.1-39.6
					C938.9,708.1,918.3,690.7,895.6,676z"/>
			</g>
			<g>
				<path class="st31" d="M745.2,1116.3c1.2-6.2,1.8-12.5,1.9-18.9c0.1-63.6-60.6-115.1-135.6-115.2c-29.3,0-56.4,7.8-78.5,21.1
					c46.2,9.8,86.9,32.9,120.1,63.2c16.9,15.4,30.1,31.9,40.2,49.4L745.2,1116.3z"/>
			</g>
			<g>
				<path class="st31" d="M1456.2,1117.3c1.2-6.2,1.8-12.5,1.8-18.9c0.1-63.6-59.2-115.1-132.4-115.2c-28.6,0-55,7.8-76.7,21.1
					c45.1,9.8,84.9,32.9,117.3,63.2c16.5,15.4,29.4,31.9,39.3,49.4L1456.2,1117.3z"/>
			</g>
			<g>
				
					<ellipse transform="matrix(4.398225e-02 -0.999 0.999 4.398225e-02 -544.2007 1636.9896)" class="st3" cx="583.2" cy="1102.8" rx="120.7" ry="120.7"/>
				<g>
					<g>
						
							<ellipse transform="matrix(0.6646 -0.7472 0.7472 0.6646 -628.4241 805.6611)" class="st30" cx="583.2" cy="1102.8" rx="68.5" ry="68.5"/>
					</g>
					<path class="st31" d="M595.2,1150.6c13.1-1,26.3-5.6,35.6-14.9c-4.1,12-14.3,21.6-26.5,25c-4.1,1.1-8.4,1.6-12.7,1.9
						c-4.5,0.3-9.1,0.4-13.6-0.2c-12.1-1.8-23.2-9.5-29.1-20.2c1.9,3.5,15.4,5.9,18.7,6.6C576.6,1150.3,585.9,1151.3,595.2,1150.6z"
						/>
				</g>
			</g>
			<path class="st32" d="M1414.5,1106.7c0,3.5-0.2,7.1-0.5,10.5l-240.5-0.3c-0.3-3.5-0.4-7-0.4-10.5
				c0.1-66.7,54.2-120.6,120.9-120.6C1360.6,985.9,1414.6,1040,1414.5,1106.7z"/>
			<g>
				<g>
					<g>
						
							<ellipse transform="matrix(0.9154 -0.4026 0.4026 0.9154 -333.6009 614.179)" class="st33" cx="1294.1" cy="1100.6" rx="38.7" ry="38.7"/>
					</g>
					<path class="st31" d="M1300.9,1127.6c7.4-0.6,14.8-3.1,20.1-8.4c-2.3,6.8-8.1,12.2-15,14.1c-2.3,0.6-4.8,0.9-7.2,1
						c-2.6,0.2-5.1,0.2-7.7-0.1c-6.8-1-13.1-5.3-16.4-11.4c1.1,2,8.7,3.4,10.6,3.7C1290.4,1127.4,1295.6,1128,1300.9,1127.6z"/>
				</g>
			</g>
		</g>
		<path class="st34" d="M926.9,853.7l-60.2-0.1c-1.5,0-2.7-1.2-2.7-2.7l0-22.8c0-1.5,1.2-2.7,2.7-2.7l60.2,0.1
			c1.5,0,2.7,1.2,2.7,2.7l0,22.8C929.6,852.5,928.4,853.7,926.9,853.7z"/>
	</g>
	<g>
		<g>
			<polygon class="st35" points="845.3,1186.8 854.9,1203.6 853.7,1214.4 839.3,1216.8 817.6,1203.6 824.8,1157.9 845.3,1151.9 			
				"/>
			<path class="st26" d="M854.9,1033.9c0,0-22.9,42.1,8.4,68.6c31.3,26.5,85.4,68.6,85.4,68.6l-102.3-22.9l-7.2,36.1
				c0,0,155.3,51.8,158.9,48.1c3.6-3.6,42.1-37.3,42.1-37.3l-83-181.7l-91.5,10.8L854.9,1033.9z"/>
		</g>
		<g>
			<path class="st36" d="M1098,1007.4c-5.5-5.8-10.6-11.9-15.4-18.3l0,0l-28.5-27.2l-38.2-83.5l6.1-54.1c0,0,6.2-6.5,14-14.3
				c-7.4-10.6-16-17.6-33.3-19.5c-72.8-7.9-68.7-3.4-93.5,26.7c-10,12.1-28.4,46.8-34.7,61c-7.7,17.2-15.2,34.4-22.1,51.9
				c-7.7,19.5-14.7,39.3-20.5,59.5c-0.6,2.2-2.7,8.5-4.9,16c-4.1,14.2-8.8,33-5.4,38.5c1.8,4.5,6.4,9.4,17.6,11.6
				c24.1,4.8,43.3,4.8,69.8-8.4c26.5-13.2,70.3-3.8,70.3-3.8v0c7,1.9,14.3,3.8,22,5.5c56.4,12.6,85.6-22,94.8-28.3
				C1104.2,1015.1,1098,1007.4,1098,1007.4L1098,1007.4z"/>
		</g>
		<path class="st11" d="M1189.7,839.7c0-0.6,5-4.8,5.6-5.5c2-2.1,3.8-4.3,5-7c1.2-2.8,1.5-5.9,1.9-8.9c0.2-1.8,0.4-3.7,0.6-5.5
			c0.1-0.7,0.2-1.4,0.5-2c0.3-0.5,0.9-0.9,1.4-1.3c2.7-1.8,5.5-3.4,8.4-4.8c0,3.3-1.8,16.7,2.3,17.1c9.4,0.8,18.9,0.3,28.3,0.1
			c0.7,0,1.4,0,2,0.4c0.4,0.3,0.7,0.7,0.9,1.2c3.1,5.6,4.3,12.1,3.4,18.4c-0.1,0.4-0.1,0.8-0.3,1.1c-0.3,0.4-0.7,0.6-1.1,0.9
			c-5.7,3-11.5,5.7-17.4,8.4c-2.2,1-3.9,2.5-6,3.5c-1.1,0.5-4,2.5-5.2,2.3c0,0-25.2-3.5-25.2-3.5L1189.7,839.7z"/>
		<polygon class="st36" points="1034.7,810.2 1060.6,853.3 1192.1,832.8 1202.6,860 1040.9,913.4 932.3,799.8 		"/>
		<polygon class="st35" points="1071.4,1194 1095.6,1210.1 1095.6,1221.2 1074.4,1225.3 1041.1,1209.1 1044.1,1194 		"/>
		<g>
			<path class="st11" d="M987.2,793.2c-9.8,1.2-19.6,2.4-29.4,3.6c-1.8-7.7-3-15.5-3.6-23.3c-8.6-1-18.8-3.2-22.1-11.2
				c-1-2.5-1.2-5.3-1.3-8.1c-0.5-11.3-1.1-22.6-1.6-33.9c-0.2-3.9-0.4-7.9,1-11.6c2.3-6.5,8.7-10.5,15.1-13.1
				c16.2-6.7,35.4-7.1,50.9,1c4.1,2.2,8.1,5,10.5,8.9c3.8,6.1,3.7,13.8,3.4,20.9c-0.2,6.6-0.5,13.3-0.7,19.9
				c-0.3,7.6-1.2,16.4-7.5,20.7c-3.4,2.3-7.8,2.8-10.7,5.7C986.1,777.7,988.8,786.2,987.2,793.2z"/>
		</g>
		<path class="st26" d="M955,1048.2l147.9-68.5l33.7,43.3l-57.8,176.9l-38.5-4.8l10.8-105.9c0,0-32.5,27.7-90.3,25.3
			c-26.5-26.5-26.5-25.3-26.5-25.3L955,1048.2z"/>
		<g>
			
				<ellipse transform="matrix(0.7071 -0.7071 0.7071 0.7071 -249.6561 1138.8938)" class="st3" cx="1249.9" cy="870.8" rx="120.7" ry="120.7"/>
			<g>
				<g>
					
						<ellipse transform="matrix(0.8719 -0.4897 0.4897 0.8719 -266.3001 723.587)" class="st30" cx="1249.9" cy="870.8" rx="68.5" ry="68.5"/>
				</g>
				<path class="st31" d="M1261.9,918.6c13.1-1,26.3-5.6,35.6-14.9c-4.1,12-14.3,21.6-26.5,25c-4.1,1.1-8.4,1.6-12.7,1.9
					c-4.5,0.3-9.1,0.4-13.6-0.2c-12.1-1.8-23.2-9.5-29.1-20.2c1.9,3.5,15.4,5.9,18.7,6.6C1243.3,918.3,1252.6,919.2,1261.9,918.6z"
					/>
			</g>
		</g>
		<polygon class="st36" points="1192.5,927.1 1089.8,901.7 1035.7,809.8 997.5,793.1 1027.7,942.5 1198.9,958.6 		"/>
		<polygon class="st14" points="989.3,699 939.1,713.1 940.6,756.6 905.5,742.9 896,667.9 1000.5,618.2 1044.6,672.7 1005.9,708 		
			"/>
		<path class="st11" d="M1181.1,938c0-0.6,5-4.8,5.6-5.5c2-2.1,3.8-4.3,5-7c1.2-2.8,1.5-5.9,1.9-8.9c0.2-1.8,0.4-3.7,0.6-5.5
			c0.1-0.7,0.2-1.4,0.5-2c0.3-0.5,0.9-0.9,1.4-1.3c2.7-1.8,5.5-3.4,8.4-4.8c0,3.3-1.8,16.7,2.3,17.1c9.4,0.8,18.9,0.3,28.3,0.1
			c0.7,0,1.4,0,2,0.4c0.4,0.3,0.7,0.7,0.9,1.2c3.1,5.6,4.3,12.1,3.4,18.4c-0.1,0.4-0.1,0.8-0.3,1.1c-0.3,0.4-0.7,0.6-1.1,0.9
			c-5.7,3-11.5,5.7-17.4,8.4c-2.2,1-3.9,2.5-6,3.5c-1.1,0.5-4,2.5-5.2,2.3c0,0-25.2-3.5-25.2-3.5L1181.1,938z"/>
	</g>
	<g>
		<path class="st37" d="M1320.3,1198.4l-64.7-64.7c-2.5-2.5-2.5-6.7,0-9.2l0,0c2.5-2.5,6.7-2.5,9.2,0l64.7,64.7
			c2.5,2.5,2.5,6.7,0,9.2l0,0C1327,1200.9,1322.9,1200.9,1320.3,1198.4z"/>
		<path class="st38" d="M1255.3,1124.8c-2.1,2.7-0.5,8.1,3.7,12.3l58,58c4.2,4.2,9.6,5.8,12.3,3.7L1255.3,1124.8z"/>
	</g>
	<g>
		<path class="st37" d="M1268.3,1198.4l64.7-64.7c2.5-2.5,2.5-6.7,0-9.2l0,0c-2.5-2.5-6.7-2.5-9.2,0l-64.7,64.7
			c-2.5,2.5-2.5,6.7,0,9.2l0,0C1261.6,1200.9,1265.8,1200.9,1268.3,1198.4z"/>
		<path class="st38" d="M1333.3,1124.8c2.1,2.7,0.5,8.1-3.7,12.3l-58,58c-4.2,4.2-9.6,5.8-12.3,3.7L1333.3,1124.8z"/>
	</g>
	<g>
		<path class="st37" d="M1357.6,1218.7h-127.7c-6.6,0-12.1-5.4-12.1-12.1l0,0c0-6.6,5.4-12.1,12.1-12.1h127.7
			c6.6,0,12.1,5.4,12.1,12.1l0,0C1369.7,1213.2,1364.2,1218.7,1357.6,1218.7z"/>
		<path class="st38" d="M1217.9,1207.4c0.6,6.3,7.7,11.2,16.3,11.2h119.1c8.6,0,15.7-5,16.3-11.2H1217.9z"/>
	</g>
</g>
</svg>
